<?xml version="1.0" standalone="no"?>

<svg version="1.1"
    viewBox="0 0 1003 503"
     xmlns="http://www.w3.org/2000/svg">
  <desc>Example InitialCoords - SVG's initial coordinate system</desc>
    <g fill="none" stroke="black" stroke-width="3" >
<line x1="0" y1="1.5" x2="1000" y2="1.5" />
<line x1="1.5" y1="0" x2="1.5" y2="500" />
</g>
<g fill="red" stroke="none" >
<rect x="0" y="0" width="3" height="3" />
<rect x="997" y="0" width="3" height="3" />
<rect x="0" y="497" width="3" height="3" />
</g>
<g font-size="14" font-family="Verdana" >
<text x="10" y="20">(0,0)</text>
<text x="940" y="20">(1000,0)</text>
<text x="10" y="490">(0,500)</text>
</g>
<g style="stroke:#000000;stroke-width:0.5px;stroke-dasharray:10, 10;stroke-opacity:1" >
<line x1="50.0" y1="0" x2="50.0" y2="500" />
<line x1="150.0" y1="0" x2="150.0" y2="500" />
<line x1="250.0" y1="0" x2="250.0" y2="500" />
<line x1="350.0" y1="0" x2="350.0" y2="500" />
<line x1="450.0" y1="0" x2="450.0" y2="500" />
<line x1="550.0" y1="0" x2="550.0" y2="500" />
<line x1="650.0" y1="0" x2="650.0" y2="500" />
<line x1="750.0" y1="0" x2="750.0" y2="500" />
<line x1="850.0" y1="0" x2="850.0" y2="500" />
<line x1="950.0" y1="0" x2="950.0" y2="500" />
<line x1="1050.0" y1="0" x2="1050.0" y2="500" />
<line x1="0" y1="50.0" x2="1000" y2="50.0" />
<line x1="0" y1="150.0" x2="1000" y2="150.0" />
<line x1="0" y1="250.0" x2="1000" y2="250.0" />
<line x1="0" y1="350.0" x2="1000" y2="350.0" />
<line x1="0" y1="450.0" x2="1000" y2="450.0" />
<line x1="0" y1="550.0" x2="1000" y2="550.0" />
</g>
<symbol id="uniE0D3" viewBox="-273 -2002 2549 4011">
<rect x="-273" y="-2002" width="2549" height="4011" fill="lightgray" />
	<path fill="#000000" d="M445 -209C442 -212 438 -214 434 -214C431 -213 429 -213 426 -211L305 -111C277 -126 238 -136 187 -136C49 -136 0 -66 0 -1C0 34 14 70 48 96L-70 188C-73 191 -75 195 -75 199C-74 202 -74 204 -72 207C-69 210 -65 211 -61 211C-59 211 -56 211 -53 209L68 109C96 124 135 134 187 134C325 134 373 64 373 -1C373 -36 359 -72 325 -98L443 -190C446 -193 448 -197 448 -201C447 -203 447 -206 445 -209ZM103 -47C103 -50 103 -52 103 -54C103 -77 113 -91 135 -98C147 -102 163 -104 178 -104C206 -104 224 -98 238 -71C240 -68 242 -64 243 -60L123 38C113 8 104 -29 103 -47ZM270 45C270 71 262 89 238 96C226 100 210 102 195 102C167 102 148 94 135 69C133 66 132 62 130 57L194 4L251 -40C261 -11 270 27 270 45Z"/>
<line stroke="#000000" stroke-width="5" x1="-500" y1="0" x2="500" y2="0" />
<line stroke="#000000" stroke-width="5" x1="0" y1="-500" x2="0" y2="500" />
</symbol>
<use href="#uniE0D3" x="0" y="0" width="50%" height="50%" style="opacity:1.0" />
</svg>

