<?xml version="1.0" standalone="no"?>

<svg version="1.1"
    viewBox="0 0 1003 503"
     xmlns="http://www.w3.org/2000/svg">
  <desc>shows all the symbols from font</desc>
    <g fill="none" stroke="black" stroke-width="3" >
<line x1="0" y1="1.5" x2="1000" y2="1.5" />
<line x1="1.5" y1="0" x2="1.5" y2="500" />
</g>
<g fill="red" stroke="none" >
<rect x="0" y="0" width="3" height="3" />
<rect x="997" y="0" width="3" height="3" />
<rect x="0" y="497" width="3" height="3" />
</g>
<g font-size="14" font-family="Verdana" >
<text x="10" y="20">(0,0)</text>
<text x="940" y="20">(1000,0)</text>
<text x="10" y="490">(0,500)</text>
</g>
<g style="stroke:#D3D3D3;stroke-width:0.5px;stroke-dasharray:10, 10;stroke-opacity:1" >
<line x1="0.0" y1="0" x2="0.0" y2="500" />
<line x1="90.9090909090909" y1="0" x2="90.9090909090909" y2="500" />
<line x1="181.8181818181818" y1="0" x2="181.8181818181818" y2="500" />
<line x1="272.72727272727275" y1="0" x2="272.72727272727275" y2="500" />
<line x1="363.6363636363636" y1="0" x2="363.6363636363636" y2="500" />
<line x1="454.54545454545456" y1="0" x2="454.54545454545456" y2="500" />
<line x1="545.4545454545455" y1="0" x2="545.4545454545455" y2="500" />
<line x1="636.3636363636364" y1="0" x2="636.3636363636364" y2="500" />
<line x1="727.2727272727273" y1="0" x2="727.2727272727273" y2="500" />
<line x1="818.1818181818181" y1="0" x2="818.1818181818181" y2="500" />
<line x1="909.0909090909091" y1="0" x2="909.0909090909091" y2="500" />
<line x1="1000.0" y1="0" x2="1000.0" y2="500" />
<line x1="0" y1="0.0" x2="1000" y2="0.0" />
<line x1="0" y1="100.0" x2="1000" y2="100.0" />
<line x1="0" y1="200.0" x2="1000" y2="200.0" />
<line x1="0" y1="300.0" x2="1000" y2="300.0" />
<line x1="0" y1="400.0" x2="1000" y2="400.0" />
<line x1="0" y1="500.0" x2="1000" y2="500.0" />
</g>

<def>
 <g id="uniE000">
 <path d="M9 -500C27 -519 62 -558 62 -630C62 -721 23 -813 23 -870C23 -931 58 -988 60 -990C60 -991 60 -991 60 -992C60 -993 60 -994 59 -995C58 -995 56 -995 55 -993C54 -992 0 -938 0 -856C0 -768 35 -706 35 -591C35 -569 26 -534 1 -503C0 -503 0 -501 0 -500C-1 -499 0 -498 1 -497C1 -497 1 -497 1 -497C26 -466 35 -431 35 -409C35 -294 0 -232 0 -144C0 -63 54 -8 55 -7C56 -5 58 -4 59 -5C60 -6 61 -7 60 -8C60 -8 60 -9 60 -10C58 -12 23 -69 23 -130C23 -187 62 -279 62 -370C62 -443 27 -481 9 -500Z" />
</g>
</def>
<g transform="translate(90, 100) scale(0.02) ">
 <use href="#uniE000" />
</g>

<g font-size="10" font-family="Verdana" >
<text x="90" y="150">uniE000</text>
</g>

<def>
 <g id="uniE001">
 <path d="M53 -500C35 -481 0 -443 0 -370C0 -279 39 -187 39 -130C39 -69 4 -12 3 -10C2 -9 2 -8 2 -7C2 -6 2 -6 3 -5C4 -4 6 -5 7 -7C8 -8 62 -63 62 -144C62 -232 27 -294 27 -409C27 -431 36 -466 61 -497C61 -497 61 -497 61 -497C62 -498 63 -499 62 -500C62 -501 62 -502 61 -503C36 -534 27 -569 27 -591C27 -706 62 -768 62 -856C62 -937 8 -992 7 -993C6 -995 4 -995 3 -995C2 -994 2 -993 2 -992C2 -991 2 -991 3 -990C4 -988 39 -931 39 -870C39 -813 0 -721 0 -630C0 -558 35 -519 53 -500Z" />
</g>
</def>
<g transform="translate(180, 100) scale(0.02) ">
 <use href="#uniE001" />
</g>

<g font-size="10" font-family="Verdana" >
<text x="180" y="150">uniE001</text>
</g>

<def>
 <g id="uniE002">
 <path d="M210 269C401 269 503 424 504 426C507 429 510 431 514 431C516 431 519 430 521 429C526 427 528 422 528 417C528 415 528 414 527 412C526 409 467 152 159 152H108V-1153H159C466 -1153 526 -1410 527 -1413C528 -1415 528 -1416 528 -1418C528 -1423 526 -1428 521 -1430C519 -1431 516 -1431 514 -1431C510 -1431 506 -1429 503 -1426C502 -1424 401 -1270 210 -1270H14C6 -1270 0 -1264 0 -1256V255C0 263 6 269 14 269Z" />
</g>
</def>
<g transform="translate(270, 100) scale(0.02) ">
 <use href="#uniE002" />
</g>

<g font-size="10" font-family="Verdana" >
<text x="270" y="150">uniE002</text>
</g>

<def>
 <g id="uniE003">
 <path d="M484 -277C482 -278 479 -279 477 -279C473 -279 468 -278 466 -274C464 -271 364 -117 173 -117H14C6 -117 0 -112 0 -104V-14V0H122C430 0 489 -257 490 -260C490 -261 491 -263 491 -265C491 -270 488 -274 484 -277Z" />
</g>
</def>
<g transform="translate(360, 100) scale(0.02) ">
 <use href="#uniE003" />
</g>

<g font-size="10" font-family="Verdana" >
<text x="360" y="150">uniE003</text>
</g>

<def>
 <g id="uniE004">
 <path d="M484 277C488 274 491 270 491 265C491 263 490 261 490 260C489 257 430 0 122 0H0V14V104C0 112 6 117 14 117H173C364 117 464 271 466 274C468 278 473 279 477 279C479 279 482 278 484 277Z" />
</g>
</def>
<g transform="translate(450, 100) scale(0.02) ">
 <use href="#uniE004" />
</g>

<g font-size="10" font-family="Verdana" >
<text x="450" y="150">uniE004</text>
</g>

<def>
 <g id="uniE005">
 <path d="M7 -277C3 -274 0 -270 0 -265C0 -263 1 -261 1 -260C2 -257 61 0 369 0H491V-14V-104C491 -112 485 -117 477 -117H318C127 -117 27 -271 25 -274C23 -278 18 -279 14 -279C12 -279 9 -278 7 -277Z" />
</g>
</def>
<g transform="translate(540, 100) scale(0.02) ">
 <use href="#uniE005" />
</g>

<g font-size="10" font-family="Verdana" >
<text x="540" y="150">uniE005</text>
</g>

<def>
 <g id="uniE006">
 <path d="M7 277C9 278 12 279 14 279C18 279 23 278 25 274C27 271 127 117 318 117H477C485 117 491 112 491 104V0H369C61 0 2 257 1 260C1 261 0 263 0 265C0 270 3 274 7 277Z" />
</g>
</def>
<g transform="translate(630, 100) scale(0.02) ">
 <use href="#uniE006" />
</g>

<g font-size="10" font-family="Verdana" >
<text x="630" y="150">uniE006</text>
</g>

<def>
 <g id="uniE007">
 <path d="M14 -653C6 -649 0 -640 0 -631C0 -631 0 -631 0 -631V-427C0 -427 0 -427 0 -427C0 -413 11 -403 24 -403C27 -403 31 -404 34 -405L1028 -869C1036 -872 1042 -882 1042 -890C1042 -890 1042 -890 1042 -890V-1095C1042 -1095 1042 -1095 1042 -1095C1042 -1108 1031 -1119 1018 -1119C1015 -1119 1011 -1118 1008 -1116ZM14 -153C6 -149 0 -140 0 -131C0 -131 0 -131 0 -131V73C0 73 0 73 0 73C0 87 11 97 24 97C27 97 31 96 34 95L1028 -369C1036 -372 1042 -382 1042 -390C1042 -390 1042 -390 1042 -390V-595C1042 -595 1042 -595 1042 -595C1042 -608 1031 -619 1018 -619C1015 -619 1011 -618 1008 -616Z" />
</g>
</def>
<g transform="translate(720, 100) scale(0.02) ">
 <use href="#uniE007" />
</g>

<g font-size="10" font-family="Verdana" >
<text x="720" y="150">uniE007</text>
</g>

<def>
 <g id="uniE008">
 <path d="M17 -639C8 -636 0 -626 0 -617V-422C0 -409 11 -398 24 -398C26 -398 29 -399 31 -399L1522 -869C1532 -872 1539 -882 1539 -892C1539 -892 1539 -892 1539 -892V-1087C1539 -1100 1528 -1110 1515 -1110C1513 -1110 1510 -1110 1508 -1109ZM17 -151C7 -148 0 -137 0 -128C0 -128 0 -128 0 -128V67C0 80 11 91 24 91C26 91 29 90 31 89L1522 -381C1531 -383 1539 -394 1539 -403V-598C1539 -611 1528 -622 1515 -622C1513 -622 1510 -621 1508 -621Z" />
</g>
</def>
<g transform="translate(810, 100) scale(0.02) ">
 <use href="#uniE008" />
</g>

<g font-size="10" font-family="Verdana" >
<text x="810" y="150">uniE008</text>
</g>

<def>
 <g id="uniE009">
 <path d="M20 -661C9 -659 0 -648 0 -637C0 -637 0 -637 0 -637V-449C0 -449 0 -449 0 -449C0 -435 11 -425 24 -425C25 -425 27 -425 28 -425L2256 -818C2267 -820 2276 -830 2276 -841C2276 -841 2276 -841 2276 -841V-1029C2276 -1029 2276 -1029 2276 -1029C2276 -1043 2265 -1053 2252 -1053C2251 -1053 2249 -1053 2248 -1053ZM20 -186C9 -184 0 -174 0 -163C0 -163 0 -163 0 -163V26C0 26 0 26 0 26C0 39 11 50 24 50C25 50 27 50 28 49L2256 -343C2267 -345 2276 -356 2276 -367C2276 -367 2276 -367 2276 -367V-555C2276 -555 2276 -555 2276 -555C2276 -568 2265 -579 2252 -579C2251 -579 2249 -579 2248 -578Z" />
</g>
</def>
<g transform="translate(900, 100) scale(0.02) ">
 <use href="#uniE009" />
</g>

<g font-size="10" font-family="Verdana" >
<text x="900" y="150">uniE009</text>
</g>

<def>
 <g id="uniE043">
 <path d="M104 -625C104 -654 81 -678 52 -678C23 -678 0 -654 0 -625C0 -596 23 -572 52 -572C81 -572 104 -596 104 -625ZM104 -375C104 -404 81 -428 52 -428C23 -428 0 -404 0 -375C0 -346 23 -322 52 -322C81 -322 104 -346 104 -375Z" />
</g>
</def>
<g transform="translate(90, 200) scale(0.02) ">
 <use href="#uniE043" />
</g>

<g font-size="10" font-family="Verdana" >
<text x="90" y="250">uniE043</text>
</g>

<def>
 <g id="uniE044">
 <path d="M104 0C104 -29 81 -53 52 -53C23 -53 0 -29 0 0C0 29 23 53 52 53C81 53 104 29 104 0Z" />
</g>
</def>
<g transform="translate(180, 200) scale(0.02) ">
 <use href="#uniE044" />
</g>

<g font-size="10" font-family="Verdana" >
<text x="180" y="250">uniE044</text>
</g>

<def>
 <g id="uniE047">
 <path d="M379 -479L582 -838C583 -840 584 -842 584 -844C584 -848 581 -854 578 -856L562 -867C560 -868 556 -869 554 -869C550 -869 544 -866 542 -862L338 -501L151 -597C102 -623 69 -642 69 -691C69 -778 124 -809 164 -809C200 -809 226 -785 238 -745C248 -710 281 -686 315 -686C320 -686 326 -687 331 -688C365 -696 376 -726 376 -747C376 -750 376 -753 375 -756C371 -775 357 -851 204 -851C50 -851 0 -731 0 -652C0 -573 29 -523 87 -490L276 -391L72 -31C71 -29 71 -26 71 -24C71 -20 74 -15 77 -13L92 -2C94 -1 98 0 100 0C101 0 102 0 103 0C106 -1 110 -4 112 -7L317 -369L489 -280C542 -251 585 -221 585 -178C585 -91 530 -60 490 -60C454 -60 428 -83 416 -123C406 -158 373 -182 339 -182C334 -182 328 -181 323 -180C290 -172 279 -143 279 -123C279 -119 279 -116 280 -113C284 -94 298 -18 451 -18C605 -18 654 -138 654 -217C654 -296 626 -352 570 -381ZM36 -308C48 -296 66 -289 82 -289C98 -289 115 -296 127 -308C139 -320 146 -337 146 -353C146 -369 139 -386 127 -398C115 -410 98 -417 82 -417C66 -417 48 -410 36 -398C24 -386 17 -369 17 -353C17 -337 24 -320 36 -308ZM528 -507C540 -495 557 -488 573 -488C589 -488 606 -495 618 -507C630 -519 637 -536 637 -552C637 -568 630 -586 618 -598C606 -610 589 -617 573 -617C557 -617 540 -610 528 -598C516 -586 509 -568 509 -552C509 -536 516 -519 528 -507Z" />
</g>
</def>
<g transform="translate(270, 200) scale(0.02) ">
 <use href="#uniE047" />
</g>

<g font-size="10" font-family="Verdana" >
<text x="270" y="250">uniE047</text>
</g>

<def>
 <g id="uniE048">
 <path d="M642 -324C636 -484 526 -612 389 -622V-721C389 -729 383 -735 375 -735H364C356 -735 351 -729 351 -721V-622C216 -609 110 -481 104 -324H14C6 -324 0 -318 0 -310V-300C0 -292 6 -286 14 -286H104C115 -134 220 -12 351 0V99C351 107 356 113 364 113H375C383 113 389 107 389 99V0C523 -9 630 -132 641 -286H732C740 -286 745 -292 745 -300V-310C745 -318 740 -324 732 -324ZM389 -324V-592C497 -581 537 -466 537 -324ZM351 -324H209C209 -464 248 -577 351 -591ZM351 -286V-31C254 -45 209 -152 209 -286ZM389 -286H536C536 -149 490 -42 389 -31Z" />
</g>
</def>
<g transform="translate(360, 200) scale(0.02) ">
 <use href="#uniE048" />
</g>

<g font-size="10" font-family="Verdana" >
<text x="360" y="250">uniE048</text>
</g>

<def>
 <g id="uniE049">
 <path d="M632 -324V-592C632 -609 619 -622 602 -622H389V-721C389 -729 383 -735 375 -735H364C356 -735 350 -729 350 -721V-622H136C119 -622 106 -609 106 -592V-324H14C6 -324 0 -319 0 -311V-299C0 -291 6 -286 14 -286H106V-30C106 -13 119 0 136 0H350V99C350 107 356 113 364 113H375C383 113 389 107 389 99V0H602C619 0 632 -13 632 -30V-286H725C733 -286 738 -291 738 -299V-311C738 -319 733 -324 725 -324ZM526 -324H389V-592H526ZM350 -324H213V-592H350ZM213 -286H350V-30H213ZM389 -286H526V-30H389Z" />
</g>
</def>
<g transform="translate(450, 200) scale(0.02) ">
 <use href="#uniE049" />
</g>

<g font-size="10" font-family="Verdana" >
<text x="450" y="250">uniE049</text>
</g>

<def>
 <g id="uniE04A">
 <path d="M366 -32C412 -7 475 40 475 135C475 194 424 232 347 232C270 232 245 200 227 146C207 87 187 50 132 50C86 50 59 77 59 124C59 242 234 280 323 280C505 280 554 147 554 57C554 -14 519 -91 465 -136C493 -159 554 -211 554 -322C554 -394 519 -445 468 -483C497 -507 554 -560 554 -668C554 -782 465 -843 365 -885L189 -969C142 -994 79 -1034 79 -1129C79 -1188 130 -1234 207 -1234C284 -1234 311 -1192 327 -1147C347 -1092 377 -1059 424 -1059C462 -1059 498 -1075 498 -1119C498 -1137 492 -1158 482 -1175C458 -1217 406 -1281 231 -1281C69 -1281 0 -1165 0 -1058C0 -993 29 -920 75 -877C18 -821 0 -781 0 -694C0 -632 35 -566 89 -521C61 -498 0 -445 0 -334C0 -220 89 -159 189 -117ZM188 -624C142 -649 79 -696 79 -791C79 -816 88 -837 104 -853C129 -834 158 -816 189 -801L365 -716C432 -686 475 -659 475 -574C474 -569 469 -520 443 -500C419 -515 392 -529 365 -540ZM189 -285C179 -290 171 -294 166 -297C136 -314 79 -331 79 -428C80 -434 85 -483 112 -502C132 -488 167 -467 189 -456L365 -371C432 -341 475 -314 475 -229C474 -223 469 -173 442 -154C422 -169 387 -190 365 -201Z" />
</g>
</def>
<g transform="translate(540, 200) scale(0.02) ">
 <use href="#uniE04A" />
</g>

<g font-size="10" font-family="Verdana" >
<text x="540" y="250">uniE04A</text>
</g>

<def>
 <g id="uniE04B">
 <path d="M442 -154C418 -172 392 -187 365 -200V-371C376 -366 384 -361 389 -359C419 -342 475 -325 475 -228C475 -178 445 -156 442 -154ZM225 -438C254 -425 295 -405 329 -389V-217C300 -231 259 -250 225 -267ZM166 -297C136 -313 79 -350 79 -427C79 -486 109 -500 113 -501C137 -484 162 -469 189 -455V-285C179 -290 171 -294 166 -297ZM189 -624C142 -649 80 -696 80 -791C80 -833 102 -851 104 -853C130 -833 158 -816 189 -800ZM329 -555C280 -576 251 -590 225 -604V-783C254 -770 295 -750 329 -734ZM365 -716C430 -684 475 -657 475 -573C475 -518 446 -502 443 -500C419 -515 393 -528 365 -539ZM225 -101C274 -79 303 -65 329 -52V-4C329 3 334 8 342 8C346 8 348 8 352 8C360 8 365 3 365 -4V-32C411 -7 475 40 475 135C475 194 424 233 347 233C270 233 246 200 228 146C204 76 189 51 115 51C78 56 59 89 59 124C59 241 235 280 323 280C505 280 554 148 554 58C554 -14 519 -90 466 -135C493 -158 554 -211 554 -322C554 -394 519 -444 468 -483C497 -506 554 -559 554 -667C554 -781 465 -842 365 -884V-1002C365 -1009 359 -1015 352 -1015H342C335 -1015 329 -1009 329 -1002V-900C280 -921 251 -935 225 -949V-1002C225 -1009 220 -1015 213 -1015H202C195 -1015 189 -1009 189 -1002V-968C143 -994 80 -1033 80 -1128C80 -1187 130 -1233 207 -1233C284 -1233 311 -1191 327 -1147C347 -1091 377 -1058 425 -1058C467 -1058 498 -1076 498 -1122C498 -1140 491 -1158 482 -1175C459 -1217 406 -1281 231 -1281C69 -1281 0 -1164 0 -1058C0 -992 29 -920 76 -877C19 -821 0 -780 0 -694C0 -632 35 -566 89 -520C61 -497 0 -445 0 -333C0 -219 89 -158 189 -116V-4C189 3 195 8 202 8C207 8 208 8 213 8C219 8 225 3 225 -4Z" />
</g>
</def>
<g transform="translate(630, 200) scale(0.02) ">
 <use href="#uniE04B" />
</g>

<g font-size="10" font-family="Verdana" >
<text x="630" y="250">uniE04B</text>
</g>

<def>
 <g id="uniE050">
 <path d="M562 21C562 92 533 165 462 194C441 74 414 -85 407 -129C497 -129 562 -68 562 21ZM420 206C400 210 381 212 362 212C219 212 97 112 97 -39C97 -161 183 -270 271 -346C288 -361 304 -375 319 -390C328 -336 335 -289 342 -248C251 -221 189 -125 189 -31C189 39 244 135 324 135C332 135 341 131 341 122C341 113 331 108 319 100C280 76 258 50 258 1C258 -60 303 -109 362 -123ZM332 -822C341 -862 387 -967 439 -967C454 -967 478 -918 478 -849C478 -745 401 -667 332 -599C326 -639 321 -678 321 -720C321 -757 324 -791 332 -822ZM122 513C122 579 173 666 308 666C355 666 396 654 432 632C486 594 500 528 500 465C500 426 494 381 484 324C481 304 475 274 469 235C567 203 640 101 640 -2C640 -153 533 -255 387 -255C377 -315 367 -374 358 -430C464 -541 537 -666 537 -825C537 -916 509 -990 493 -1026C469 -1077 440 -1112 422 -1112C415 -1112 384 -1100 351 -1061C287 -985 269 -857 269 -773C269 -719 274 -670 291 -558C290 -557 238 -504 217 -487C126 -402 0 -281 0 -81C0 106 163 253 349 253C378 253 405 250 428 246C447 342 458 412 458 465C458 569 405 624 304 624C280 624 259 619 257 619C256 618 254 617 254 616C254 614 256 613 259 612C306 605 353 565 353 501C353 447 312 390 237 390C167 390 122 447 122 513Z" />
</g>
</def>
<g transform="translate(720, 200) scale(0.02) ">
 <use href="#uniE050" />
</g>

<g font-size="10" font-family="Verdana" >
<text x="720" y="250">uniE050</text>
</g>

<def>
 <g id="uniE051">
 <path d="M562 21C562 92 533 165 462 194C441 74 414 -85 407 -129C508 -129 551 -59 560 -11C561 -2 562 8 562 21ZM420 206C400 210 381 212 362 212C219 212 97 112 97 -39C97 -161 183 -270 271 -346C288 -361 304 -375 319 -390C328 -336 335 -289 342 -248C251 -221 189 -125 189 -31C189 39 244 135 324 135C332 135 341 131 341 122C341 113 331 108 319 100C280 76 258 50 258 1C258 -60 303 -109 362 -123ZM332 -822C341 -862 387 -967 439 -967C454 -967 478 -918 478 -849C478 -745 401 -667 332 -599C326 -639 321 -678 321 -720C321 -757 324 -791 332 -822ZM269 -773C269 -719 274 -670 291 -558C290 -557 238 -504 217 -487C126 -402 0 -281 0 -81C0 106 163 253 349 253C378 253 405 250 428 246C447 342 458 412 458 465C458 569 405 624 304 624C280 624 259 619 257 619C256 618 254 617 254 616C254 614 256 613 259 612C306 605 353 565 353 501C353 447 312 390 237 390C167 390 122 447 122 513C122 600 196 654 277 664C263 675 223 686 193 686H191L185 707H217C228 707 228 710 228 713C228 715 228 718 226 724L191 856C189 863 188 866 185 868C183 870 176 870 164 870H146L143 893H282L285 870H266C245 870 244 868 244 865C244 862 245 856 248 845L296 666C300 666 304 666 308 666C352 666 396 654 432 632C486 594 500 528 500 465C500 426 494 381 484 324C481 304 475 274 469 235C567 203 640 101 640 -2C640 -153 533 -255 387 -255C377 -315 367 -374 358 -430C464 -541 537 -666 537 -825C537 -916 509 -990 493 -1026C469 -1077 440 -1112 422 -1112C415 -1112 384 -1100 351 -1061C287 -985 269 -857 269 -773ZM329 867C329 865 329 865 331 864C342 862 352 850 352 837C352 821 340 810 324 810C305 810 292 824 292 845C292 877 318 898 360 898C414 898 459 861 459 805C459 767 427 745 392 745C378 745 368 747 354 752L364 718C387 723 388 723 402 723C432 723 479 708 479 669C479 666 477 664 474 664C473 664 473 664 470 665C456 671 443 673 427 673C406 673 384 670 358 664L355 663L325 766C317 770 313 776 313 783C313 791 318 797 326 797C336 797 343 790 345 778C360 772 364 771 372 771C390 771 401 785 401 809C401 847 380 876 353 876C340 876 329 870 329 867Z" />
</g>
</def>
<g transform="translate(810, 200) scale(0.02) ">
 <use href="#uniE051" />
</g>

<g font-size="10" font-family="Verdana" >
<text x="810" y="250">uniE051</text>
</g>

<def>
 <g id="uniE052">
 <path d="M423 717C423 680 389 664 356 664C314 664 273 690 273 735C273 754 280 768 294 782C268 792 242 812 242 843C242 876 272 898 316 898C370 898 408 868 408 825C408 802 398 783 380 770C409 757 423 741 423 717ZM323 877C301 877 286 863 286 842C286 822 295 806 312 796C316 798 317 798 320 800C332 806 332 806 334 808C353 819 361 829 361 843C361 862 345 877 323 877ZM361 757C346 749 342 747 339 745L337 744C322 735 317 728 317 716C317 698 331 685 351 685C370 685 382 697 382 718C382 734 376 745 361 757ZM640 -2C640 -153 533 -255 387 -255C377 -315 368 -374 359 -430C464 -541 538 -667 538 -825C538 -916 510 -990 493 -1026C469 -1077 440 -1112 423 -1112C416 -1112 384 -1100 352 -1061C287 -985 269 -858 269 -774C269 -720 274 -671 291 -558C290 -558 238 -505 217 -487C126 -403 0 -281 0 -82C0 106 163 253 349 253C378 253 405 250 429 246C447 341 459 412 459 465C459 569 405 624 304 624C280 624 259 619 257 618C256 618 254 617 254 616C254 614 256 613 259 612C306 605 353 564 353 501C353 447 312 390 237 390C167 390 123 447 123 513C123 579 173 666 308 666C437 666 500 593 500 465C500 426 494 381 484 324C481 304 476 273 469 235C567 202 640 101 640 -2ZM332 -822C342 -862 387 -967 439 -967C454 -967 479 -919 479 -849C479 -746 401 -668 332 -599C326 -639 321 -679 321 -720C321 -758 325 -791 332 -822ZM362 212C219 212 97 112 97 -39C97 -161 183 -270 271 -347C288 -361 304 -375 319 -390C328 -336 335 -290 342 -248C251 -222 189 -125 189 -32C189 39 244 135 324 135C332 135 341 131 341 121C341 113 332 107 319 99C280 76 258 49 258 1C258 -60 304 -109 362 -123L420 205C400 209 382 212 362 212ZM462 193C441 74 414 -85 407 -129C508 -129 551 -59 560 -11C561 -3 563 8 563 20C563 92 533 164 462 193Z" />
</g>
</def>
<g transform="translate(900, 200) scale(0.02) ">
 <use href="#uniE052" />
</g>

<g font-size="10" font-family="Verdana" >
<text x="900" y="250">uniE052</text>
</g>

<def>
 <g id="uniE053">
 <path d="M640 -3C640 -153 533 -255 387 -255C377 -316 367 -375 359 -430C464 -541 537 -667 537 -825C537 -917 509 -990 493 -1026C475 -1064 454 -1094 437 -1106C476 -1115 501 -1141 501 -1176C501 -1199 491 -1218 473 -1232C502 -1244 516 -1260 516 -1284C516 -1321 482 -1337 449 -1337C407 -1337 366 -1311 366 -1266C367 -1247 373 -1233 388 -1219C362 -1209 335 -1189 335 -1158C335 -1128 361 -1107 400 -1104C387 -1096 369 -1083 351 -1061C287 -985 269 -858 269 -774C269 -720 274 -671 291 -558C290 -558 238 -505 217 -487C126 -403 0 -282 0 -82C0 106 163 253 349 253C378 253 405 250 428 245C447 341 459 412 459 465C459 569 405 624 304 624C280 624 259 619 257 618C256 618 254 616 254 615C254 613 256 613 259 612C306 604 353 564 353 500C353 447 312 390 237 390C167 390 122 447 122 513C122 579 173 666 308 666C437 666 500 593 500 465C500 426 494 380 484 324C481 304 475 273 469 235C567 202 640 101 640 -3ZM444 -1316C464 -1316 475 -1304 475 -1283C475 -1267 469 -1256 454 -1244C439 -1252 435 -1254 432 -1256L431 -1257C415 -1266 410 -1273 410 -1285C410 -1303 424 -1316 444 -1316ZM379 -1160C379 -1179 388 -1195 405 -1205C409 -1203 410 -1203 413 -1201C425 -1195 425 -1195 427 -1193C447 -1182 454 -1172 454 -1158C454 -1139 438 -1124 416 -1124C394 -1124 379 -1138 379 -1160ZM332 -822C341 -863 387 -968 439 -968C454 -968 478 -919 478 -849C478 -746 401 -668 332 -599C326 -640 321 -679 321 -720C321 -758 324 -791 332 -822ZM362 211C219 211 97 112 97 -39C97 -161 183 -270 271 -347C288 -361 304 -376 319 -390C328 -336 335 -290 342 -248C251 -222 189 -125 189 -32C189 39 244 135 324 135C332 135 341 131 341 121C341 113 331 107 319 99C280 75 258 49 258 1C258 -61 304 -109 362 -123L420 205C400 209 381 211 362 211ZM462 193C441 74 414 -85 407 -129C508 -129 551 -59 560 -11C561 -3 562 8 562 20C562 92 533 164 462 193Z" />
</g>
</def>
<g transform="translate(90, 300) scale(0.02) ">
 <use href="#uniE053" />
</g>

<g font-size="10" font-family="Verdana" >
<text x="90" y="350">uniE053</text>
</g>

<def>
 <g id="uniE054">
 <path d="M462 194C441 75 414 -84 407 -129C508 -129 551 -58 560 -11C561 -2 562 9 562 21C562 93 533 165 462 194ZM362 212C219 212 97 113 97 -39C97 -160 183 -269 271 -346C288 -360 304 -375 319 -389C328 -335 335 -289 342 -248C251 -221 189 -124 189 -31C189 40 244 135 324 135C332 135 341 132 341 122C341 114 331 108 319 100C280 76 258 50 258 2C258 -60 304 -108 362 -122L420 206C400 210 381 212 362 212ZM332 -821C342 -862 387 -967 439 -967C454 -967 479 -918 479 -849C479 -745 401 -667 332 -598C326 -639 321 -678 321 -719C321 -757 325 -790 332 -821ZM640 -2C640 -152 533 -255 387 -255C377 -315 367 -374 359 -429C464 -540 538 -666 538 -825C538 -916 510 -989 493 -1025C476 -1062 456 -1091 439 -1104C444 -1103 449 -1103 454 -1103C508 -1103 553 -1140 553 -1196C553 -1235 524 -1256 487 -1256C474 -1256 463 -1254 449 -1249L458 -1283C482 -1278 482 -1278 496 -1278C523 -1278 540 -1283 554 -1295C565 -1305 573 -1321 573 -1332C573 -1335 571 -1337 569 -1337C568 -1337 567 -1337 565 -1336C551 -1330 538 -1328 521 -1328C501 -1328 478 -1331 452 -1337L450 -1338L420 -1235C411 -1231 407 -1225 407 -1218C407 -1210 413 -1204 420 -1204C431 -1204 438 -1211 440 -1223C454 -1229 459 -1230 466 -1230C485 -1230 496 -1216 496 -1192C496 -1154 474 -1125 447 -1125C434 -1125 424 -1130 424 -1134C424 -1135 424 -1136 426 -1137C439 -1141 446 -1151 446 -1164C446 -1180 435 -1190 418 -1190C399 -1190 386 -1176 386 -1156C386 -1135 397 -1119 416 -1110C404 -1106 378 -1092 351 -1060C287 -984 269 -857 269 -773C269 -719 274 -670 291 -558C290 -557 238 -504 217 -487C126 -402 0 -281 0 -81C0 107 163 254 349 254C378 254 405 251 429 246C447 342 459 413 459 466C459 570 405 625 304 625C280 625 259 620 257 619C256 619 254 617 254 616C254 614 256 614 259 613C306 605 353 565 353 501C353 448 312 390 237 390C167 390 123 448 123 514C123 580 173 667 308 667C355 667 396 655 432 633C486 595 500 529 500 466C500 427 494 381 484 325C481 305 476 274 469 236C567 203 640 102 640 -2ZM379 -1131H360C339 -1131 338 -1132 338 -1136C338 -1139 339 -1145 342 -1156L391 -1338H373V-1337C359 -1327 318 -1315 287 -1315H285L279 -1293H312C323 -1293 323 -1291 323 -1288C323 -1286 322 -1283 321 -1277L289 -1157C286 -1147 285 -1142 285 -1141H284C283 -1137 282 -1135 281 -1134C279 -1131 271 -1131 259 -1131H240L237 -1108H376Z" />
</g>
</def>
<g transform="translate(180, 300) scale(0.02) ">
 <use href="#uniE054" />
</g>

<g font-size="10" font-family="Verdana" >
<text x="180" y="350">uniE054</text>
</g>

<def>
 <g id="uniE055">
 <path d="M1044 -2C1044 -152 937 -254 791 -254C781 -315 772 -374 763 -429C868 -540 942 -666 942 -825C942 -916 914 -989 897 -1025C874 -1076 845 -1112 827 -1112C820 -1112 788 -1099 756 -1060C691 -984 673 -857 673 -773C673 -719 678 -670 695 -557C694 -557 642 -504 621 -487C559 -429 482 -355 438 -250C422 -253 405 -254 387 -254C377 -315 368 -374 359 -429C464 -540 538 -666 538 -825C538 -916 510 -989 493 -1025C470 -1076 441 -1112 423 -1112C416 -1112 384 -1099 352 -1060C287 -984 269 -857 269 -773C269 -719 274 -670 291 -557C290 -557 238 -504 217 -487C126 -402 0 -281 0 -81C0 107 163 254 349 254C378 254 405 251 429 246C447 342 459 413 459 466C459 570 405 625 305 625C280 625 260 620 258 619C256 619 255 618 255 617C255 615 256 614 259 613C306 606 353 565 353 501C353 448 313 391 238 391C168 391 123 448 123 514C123 580 173 667 308 667C437 667 500 594 500 466C500 427 494 381 485 325C481 305 476 274 469 236C499 226 526 210 550 190C608 230 679 254 753 254C782 254 809 251 833 246C851 342 863 413 863 466C863 570 809 625 709 625C684 625 664 620 662 619C660 619 659 618 659 617C659 615 660 614 663 613C710 606 757 565 757 501C757 448 717 391 642 391C572 391 527 448 527 514C527 580 577 667 712 667C841 667 904 594 904 466C904 427 898 381 889 325C885 305 880 274 873 236C971 203 1044 102 1044 -2ZM736 -821C746 -862 791 -967 843 -967C858 -967 883 -918 883 -849C883 -745 805 -667 737 -598C730 -639 725 -678 725 -719C725 -757 729 -790 736 -821ZM676 -346C692 -360 708 -375 723 -389C732 -335 740 -289 746 -248C686 -230 638 -181 613 -123C598 -154 576 -180 550 -201C583 -256 629 -305 676 -346ZM332 -821C342 -862 387 -967 439 -967C454 -967 479 -918 479 -849C479 -745 401 -667 333 -598C326 -639 321 -678 321 -719C321 -757 325 -790 332 -821ZM362 213C219 213 97 113 97 -38C97 -160 184 -269 272 -346C288 -360 304 -375 319 -389C328 -335 336 -289 342 -248C251 -221 189 -124 189 -31C189 40 244 136 324 136C332 136 341 132 341 122C341 114 332 108 319 100C281 76 259 50 259 2C259 -60 304 -108 363 -122L420 206C400 210 382 213 362 213ZM462 194C441 75 414 -84 407 -128C508 -128 551 -58 560 -10C562 -2 563 9 563 21C563 93 533 165 462 194ZM766 213C698 213 635 190 587 150C605 127 618 101 628 74C651 109 686 136 728 136C736 136 745 132 745 122C745 114 736 108 723 100C685 76 663 50 663 2C663 -60 708 -108 767 -122L824 206C804 210 786 213 766 213ZM866 194C845 75 818 -84 811 -128C912 -128 955 -58 964 -10C966 -2 967 9 967 21C967 93 937 165 866 194Z" />
</g>
</def>
<g transform="translate(270, 300) scale(0.02) ">
 <use href="#uniE055" />
</g>

<g font-size="10" font-family="Verdana" >
<text x="270" y="350">uniE055</text>
</g>

<def>
 <g id="uniE057">
 <path d="M360 758C352 754 347 752 344 750L337 746C322 736 317 730 317 717C317 699 331 687 351 687C370 687 382 699 382 719C382 736 376 746 360 758ZM323 878C301 878 286 864 286 843C286 824 295 808 312 798L334 809C353 820 361 830 361 845C361 864 345 878 323 878ZM422 718C422 681 389 665 356 665C314 665 273 692 273 737C273 755 279 769 294 783C268 794 242 814 242 845C242 877 272 899 316 899C370 899 408 869 408 826C408 804 398 785 380 771C409 759 422 742 422 718ZM440 641V663L441 664C479 691 485 737 485 781C485 826 479 871 441 899L440 900V922L444 920C497 892 530 842 530 781C530 720 497 671 444 644ZM462 194C441 75 414 -84 407 -129C508 -129 551 -58 560 -11C561 -2 562 9 562 21C562 93 533 165 462 194ZM362 212C219 212 97 113 97 -39C97 -160 183 -269 271 -346C288 -361 304 -375 319 -389C328 -335 335 -289 342 -248C251 -221 189 -124 189 -31C189 40 244 135 324 135C332 135 341 132 341 122C341 114 331 108 319 100C280 76 258 50 258 2C258 -60 304 -108 362 -123L420 206C400 210 381 212 362 212ZM332 -822C342 -862 387 -967 439 -967C454 -967 479 -918 479 -849C479 -745 401 -667 332 -598C326 -639 321 -678 321 -719C321 -757 325 -791 332 -822ZM387 -255C377 -315 367 -374 359 -429C464 -540 538 -666 538 -825C538 -916 510 -989 493 -1025C469 -1076 440 -1112 423 -1112C415 -1112 384 -1099 351 -1061C287 -984 269 -857 269 -773C269 -719 274 -670 291 -558C290 -557 238 -504 217 -487C126 -402 0 -281 0 -81C0 107 163 254 349 254C378 254 405 251 429 246C447 342 459 412 459 466C459 569 405 624 304 624C280 624 259 620 257 619C256 619 254 617 254 616C254 614 256 614 259 613C306 605 353 565 353 501C353 447 312 390 237 390C167 390 123 448 123 514C123 562 149 621 216 650C170 678 142 725 142 781C142 842 175 892 227 920L231 922V901L230 900C192 873 187 825 187 781C187 738 192 690 230 664L231 663V655C253 663 279 667 308 667C437 667 500 594 500 465C500 427 494 381 484 325C481 305 476 274 469 236C567 203 640 102 640 -2C640 -152 533 -255 387 -255Z" />
</g>
</def>
<g transform="translate(360, 300) scale(0.02) ">
 <use href="#uniE057" />
</g>

<g font-size="10" font-family="Verdana" >
<text x="360" y="350">uniE057</text>
</g>

<def>
 <g id="uniE05C">
 <path d="M13 -469C6 -469 0 -463 0 -456V454C0 461 6 467 13 467H85C92 467 98 461 98 454V-456C98 -463 92 -469 85 -469ZM627 261C627 137 561 40 430 40C407 40 390 42 351 66C349 62 329 22 296 -1C329 -24 349 -64 351 -68C389 -45 402 -42 445 -42C567 -42 627 -155 627 -263C627 -403 524 -482 403 -482C328 -482 221 -451 221 -359C221 -310 255 -278 304 -278C348 -278 379 -310 379 -354C379 -409 343 -427 295 -427C318 -443 349 -452 380 -452C485 -452 502 -368 502 -278C502 -201 500 -89 412 -89C324 -89 306 -184 304 -194C304 -195 304 -208 290 -208C276 -208 275 -195 275 -194C266 -139 239 -43 183 -20V-456C183 -463 178 -469 171 -469C164 -469 158 -463 158 -456V454C158 461 164 467 171 467C178 467 183 461 183 454V18C242 42 264 137 275 193C275 194 276 206 290 206C304 206 304 194 304 193C306 182 324 87 412 87C500 87 502 199 502 276C502 366 485 450 380 450C349 450 318 441 295 425C296 425 300 426 306 426C350 426 379 395 379 352C379 308 348 276 304 276C255 276 221 308 221 357C221 449 328 480 403 480C524 480 627 401 627 261Z" />
</g>
</def>
<g transform="translate(450, 300) scale(0.02) ">
 <use href="#uniE05C" />
</g>

<g font-size="10" font-family="Verdana" >
<text x="450" y="350">uniE05C</text>
</g>

<def>
 <g id="uniE05D">
 <path d="M13 -469C6 -469 0 -463 0 -456V454C0 461 6 467 13 467H85C92 467 98 461 98 454V-456C98 -463 92 -469 85 -469ZM627 261C627 137 561 40 430 40C407 40 390 42 351 66C349 62 329 22 296 -1C329 -24 349 -64 351 -68C389 -45 402 -42 445 -42C567 -42 627 -155 627 -263C627 -403 524 -482 403 -482C328 -482 221 -451 221 -359C221 -310 255 -278 304 -278C348 -278 379 -310 379 -354C379 -409 343 -427 295 -427C318 -443 349 -452 380 -452C485 -452 502 -368 502 -278C502 -201 500 -89 412 -89C324 -89 306 -184 304 -194C304 -195 304 -208 290 -208C276 -208 275 -195 275 -194C266 -139 239 -43 183 -20V-456C183 -463 177 -469 170 -469C163 -469 158 -463 158 -456V454C158 461 163 467 170 467C177 467 183 461 183 454V18C242 42 264 137 275 193C275 194 276 206 290 206C304 206 304 194 304 193C306 182 324 87 412 87C500 87 502 199 502 276C502 366 485 450 380 450C349 450 318 441 295 425C296 425 300 426 306 426C350 426 379 395 379 352C379 308 348 276 304 276C255 276 221 308 221 357C221 449 328 480 403 480C524 480 627 401 627 261ZM368 559C368 524 332 506 301 506C259 506 218 532 218 578C218 597 225 610 240 624C214 636 187 655 187 686C187 719 217 740 261 740C315 740 353 710 353 667C353 645 343 625 325 612C354 600 368 583 368 559ZM283 587C267 578 262 571 262 558C262 540 276 528 296 528C316 528 327 539 327 560C327 576 322 587 306 599C292 592 288 590 284 588ZM257 639C261 641 262 641 265 643C277 649 277 649 279 650H280C299 661 306 672 306 686C306 705 290 719 268 719C246 719 231 705 231 684C231 665 240 649 257 639Z" />
</g>
</def>
<g transform="translate(540, 300) scale(0.02) ">
 <use href="#uniE05D" />
</g>

<g font-size="10" font-family="Verdana" >
<text x="540" y="350">uniE05D</text>
</g>

<def>
 <g id="uniE062">
 <path d="M254 -251C178 -251 117 -207 116 -207C58 -164 35 -113 26 -78C21 -60 19 -42 19 -25C19 -1 23 21 32 40C44 67 67 86 97 96C109 100 122 102 135 102C157 102 180 96 199 85C230 68 249 32 249 -7C249 -42 231 -74 201 -93C180 -107 160 -111 143 -111C131 -111 120 -109 111 -106C101 -102 84 -92 76 -85C79 -104 91 -133 102 -149C113 -165 135 -185 152 -194C177 -208 209 -214 244 -214C346 -214 396 -132 396 36C396 129 361 218 331 277C298 343 254 406 215 441C111 536 13 581 12 581C12 581 0 588 0 600C0 602 1 603 1 605C4 615 13 617 19 617C20 617 23 616 24 616C25 616 139 569 230 498C281 461 327 421 367 378C403 339 434 297 459 255C503 180 528 102 528 35C528 -48 506 -117 465 -166C418 -222 347 -251 254 -251ZM568 -124C568 -96 590 -74 616 -74C642 -74 664 -96 664 -124C664 -152 642 -175 616 -175C590 -175 568 -152 568 -124ZM568 123C568 151 590 174 616 174C642 174 664 151 664 123C664 95 642 72 616 72C590 72 568 95 568 123Z" />
</g>
</def>
<g transform="translate(630, 300) scale(0.02) ">
 <use href="#uniE062" />
</g>

<g font-size="10" font-family="Verdana" >
<text x="630" y="350">uniE062</text>
</g>

<def>
 <g id="uniE063">
 <path d="M567 -124C567 -96 589 -74 615 -74C641 -74 663 -96 663 -124C663 -152 641 -175 615 -175C589 -175 567 -152 567 -124ZM567 123C567 151 589 174 615 174C641 174 663 151 663 123C663 95 641 72 615 72C589 72 567 95 567 123ZM259 710C259 707 260 702 263 691L312 509H294V510C280 520 239 531 208 532H206L200 553H233C244 553 244 556 244 559C244 562 243 567 242 570L210 690C207 700 206 704 206 705L205 706C204 711 203 711 202 712V713C200 716 192 716 180 716H161L158 739H297L300 716H281C260 716 259 714 259 710ZM490 510C489 510 488 510 487 510L486 511C472 517 459 519 442 519C422 519 399 516 373 510L371 509L341 611C332 615 328 621 328 629C328 637 333 643 341 643C351 643 359 636 361 624C376 618 380 616 387 616C406 616 417 630 417 655C417 693 395 722 368 722C355 722 345 716 345 711C345 711 346 710 347 710C360 706 367 696 367 683C367 667 356 656 339 656C320 656 307 670 307 691C307 723 334 744 375 744C403 744 428 734 446 717C464 700 474 677 474 651C474 633 468 618 456 607C444 596 428 591 408 591C395 591 384 593 370 598L379 564C402 569 403 569 417 569C443 569 461 563 475 551C485 542 494 526 494 515C494 511 492 510 490 510ZM253 -251C177 -251 117 -207 116 -207C58 -164 35 -113 26 -78C21 -60 19 -42 19 -25C19 -1 23 21 32 40C44 67 67 86 97 96C110 100 123 102 137 102C158 102 180 97 198 86C229 69 249 32 249 -7C249 -42 231 -74 201 -93C180 -107 159 -111 142 -111C129 -111 119 -109 110 -106C100 -102 84 -92 76 -85C79 -104 91 -133 102 -149C113 -165 135 -185 152 -194C177 -208 209 -214 244 -214C346 -214 396 -132 396 36C396 129 361 218 331 277C298 343 254 406 215 441C111 536 13 581 12 581H11C11 581 0 588 0 600C0 601 1 603 1 605C4 615 12 617 18 617C19 617 23 616 24 616C25 616 139 568 230 497C281 460 327 421 367 378C403 339 434 297 459 255C503 180 528 102 528 35C528 -48 506 -117 465 -166C418 -222 346 -251 253 -251Z" />
</g>
</def>
<g transform="translate(720, 300) scale(0.02) ">
 <use href="#uniE063" />
</g>

<g font-size="10" font-family="Verdana" >
<text x="720" y="350">uniE063</text>
</g>

<def>
 <g id="uniE064">
 <path d="M568 -124C568 -96 590 -74 616 -74C642 -74 664 -96 664 -124C664 -152 642 -175 616 -175C590 -175 568 -152 568 -124ZM568 123C568 151 590 174 616 174C642 174 664 151 664 123C664 95 642 72 616 72C590 72 568 95 568 123ZM352 560C352 547 343 530 333 522C321 513 304 508 285 508C262 508 241 515 226 528C211 541 203 559 203 579C203 598 209 612 224 626C213 631 204 635 196 641C181 653 172 670 172 687C172 720 202 742 246 742C300 742 338 712 338 669C338 647 327 627 309 614C338 602 352 585 352 561ZM267 588C251 579 247 573 247 560C247 542 260 529 280 529C300 529 311 541 311 562C311 578 306 589 290 601C276 594 272 591 268 589ZM242 640C246 642 247 642 250 644C262 650 262 651 264 652C283 663 291 673 291 687C291 706 274 721 252 721C230 721 216 707 216 686C216 667 225 650 242 640ZM254 -251C178 -251 117 -207 116 -207C58 -164 35 -113 26 -78C21 -60 19 -42 19 -25C19 -1 23 21 32 40C44 67 67 86 97 96C110 100 123 102 137 102C159 102 181 97 199 86C230 69 249 32 249 -7C249 -42 231 -74 201 -93C180 -107 160 -111 143 -111C131 -111 120 -109 111 -106C101 -102 84 -92 76 -85C79 -104 91 -133 102 -149C113 -165 135 -185 152 -194C177 -208 209 -214 244 -214C346 -214 396 -132 396 36C396 129 361 218 331 277C298 343 254 406 215 441C111 536 13 581 12 581C12 581 0 588 0 600C0 602 1 603 1 605C4 615 13 617 19 617C20 617 23 616 24 616C25 616 139 568 230 497C281 460 327 421 367 378C403 339 435 297 460 255C504 180 528 102 528 35C528 -48 506 -117 465 -166C418 -222 347 -251 254 -251Z" />
</g>
</def>
<g transform="translate(810, 300) scale(0.02) ">
 <use href="#uniE064" />
</g>

<g font-size="10" font-family="Verdana" >
<text x="810" y="350">uniE064</text>
</g>

<def>
 <g id="uniE065">
 <path d="M569 -124C569 -96 591 -74 617 -74C643 -74 665 -96 665 -124C665 -152 643 -175 617 -175C591 -175 569 -152 569 -124ZM569 123C569 151 591 174 617 174C643 174 665 151 665 123C665 95 643 72 617 72C591 72 569 95 569 123ZM282 -248C324 -256 351 -284 351 -321C351 -344 341 -364 322 -378C352 -390 366 -408 366 -433V-434C366 -447 358 -465 347 -473C335 -483 317 -488 297 -488C273 -488 251 -480 236 -467C221 -454 212 -435 212 -414C212 -395 218 -381 234 -366C222 -361 214 -356 206 -350C190 -338 180 -320 180 -302C180 -275 201 -255 233 -248C166 -242 116 -206 116 -206C45 -153 19 -84 19 -26C19 -1 24 22 32 40C50 80 91 102 134 102C155 102 178 96 197 85C228 67 248 30 248 -7C248 -39 233 -71 200 -92C179 -105 160 -110 143 -110C102 -110 74 -82 74 -82C74 -82 88 -215 243 -215C348 -215 396 -130 396 36C396 202 283 379 214 442C108 538 11 582 11 582C11 582 0 589 0 600C0 602 1 603 1 605C4 615 13 616 19 616C21 616 23 616 23 616C23 616 136 569 228 497C443 344 526 158 526 36C526 -111 458 -236 282 -248ZM278 -404C262 -414 257 -421 257 -434C257 -453 272 -466 292 -466C313 -466 325 -454 325 -432C325 -415 318 -403 302 -391C287 -399 284 -402 280 -404ZM252 -351C256 -349 256 -349 260 -347C272 -341 272 -341 275 -339C295 -328 303 -317 303 -302C303 -282 286 -267 263 -267C240 -267 225 -282 225 -304C225 -324 235 -340 252 -351Z" />
</g>
</def>
<g transform="translate(900, 300) scale(0.02) ">
 <use href="#uniE065" />
</g>

<g font-size="10" font-family="Verdana" >
<text x="900" y="350">uniE065</text>
</g>

<def>
 <g id="uniE066">
 <path d="M569 -124C569 -96 591 -74 617 -74C643 -74 665 -96 665 -124C665 -152 643 -175 617 -175C591 -175 569 -152 569 -124ZM569 123C569 151 591 174 617 174C643 174 665 151 665 123C665 95 643 72 617 72C591 72 569 95 569 123ZM225 -278C203 -278 202 -280 202 -284C202 -287 203 -293 206 -304L256 -492H238C224 -481 181 -470 149 -469H147L141 -447H174C186 -447 186 -444 186 -441C186 -438 185 -432 184 -429L151 -306C148 -296 147 -290 147 -289C146 -284 144 -283 143 -282C141 -279 132 -278 120 -278H101L97 -255H241L245 -278ZM292 -285C306 -290 314 -299 314 -313C314 -329 302 -340 285 -340C265 -340 252 -325 252 -304C252 -271 279 -250 322 -250C350 -250 376 -260 395 -277C414 -294 425 -319 425 -346C425 -365 418 -380 406 -391C394 -402 376 -408 356 -408C343 -408 331 -406 316 -401L326 -436C350 -431 350 -431 365 -431C392 -431 411 -437 425 -449C436 -458 445 -475 445 -486C445 -490 443 -492 441 -492C440 -492 439 -491 438 -491C438 -491 437 -491 436 -491C422 -485 408 -482 391 -482C370 -482 347 -486 320 -492H317L287 -387C278 -383 273 -376 273 -368C273 -360 279 -354 287 -354C298 -354 305 -361 307 -374C322 -381 327 -382 335 -382C354 -382 365 -367 365 -342C365 -303 343 -272 315 -272C301 -272 290 -278 290 -283V-284C290 -284 290 -284 292 -285ZM252 -249C175 -249 115 -206 115 -206C44 -153 18 -84 18 -26C18 -1 23 22 31 40C49 80 91 102 134 102C156 102 178 96 197 85C228 67 247 31 247 -6C247 -38 233 -71 199 -92C178 -105 159 -110 142 -110C101 -110 74 -82 74 -82C74 -82 87 -215 242 -215C347 -215 395 -130 395 36C395 202 283 379 214 442C108 538 11 582 11 582C11 582 0 589 0 600C0 602 1 603 1 605C4 615 13 616 18 616C20 616 22 616 22 616C22 616 136 569 228 497C443 344 525 158 525 36C525 -118 450 -249 252 -249Z" />
</g>
</def>
<g transform="translate(90, 400) scale(0.02) ">
 <use href="#uniE066" />
</g>

<g font-size="10" font-family="Verdana" >
<text x="90" y="450">uniE066</text>
</g>

<def>
 <g id="uniE069">
 <path d="M13 -252C6 -252 0 -246 0 -239V239C0 246 6 252 13 252H123C130 252 136 246 136 239V-239C136 -246 130 -252 123 -252ZM229 -252C222 -252 216 -246 216 -239V239C216 246 222 252 229 252H339C346 252 352 246 352 239V-239C352 -246 346 -252 339 -252Z" />
</g>
</def>
<g transform="translate(180, 400) scale(0.02) ">
 <use href="#uniE069" />
</g>

<g font-size="10" font-family="Verdana" >
<text x="180" y="450">uniE069</text>
</g>

<def>
 <g id="uniE06A">
 <path d="M304 422V-423C304 -431 297 -439 288 -439H16C7 -439 0 -431 0 -423V422C0 431 7 438 16 438H288C297 438 304 431 304 422ZM40 -335C40 -340 44 -345 50 -345H254C260 -345 264 -340 264 -335V334C264 340 259 344 254 344H50C44 344 40 340 40 334Z" />
</g>
</def>
<g transform="translate(270, 400) scale(0.02) ">
 <use href="#uniE06A" />
</g>

<g font-size="10" font-family="Verdana" >
<text x="270" y="450">uniE06A</text>
</g>

<def>
 <g id="uniE06D">
 <path d="M36 -746V-665H173V-291H269V-665H405V-746ZM0 231H101L133 136H303L334 231H439L275 -232H165ZM219 -126L278 56H159ZM393 329C369 297 330 280 273 279H49V743H258C259 743 259 743 260 743C281 743 302 741 323 737C343 733 361 724 376 713C389 703 399 691 408 677C422 655 429 630 429 603C429 576 423 554 411 535C399 516 381 503 357 494C373 486 385 478 393 468C407 451 414 428 414 400C414 372 407 349 393 329ZM242 360C264 360 283 362 297 367C314 374 322 388 322 410C322 430 316 443 303 451C290 459 274 462 254 462H141V360ZM255 539C275 539 291 542 302 547C322 556 331 572 331 596C331 625 321 644 301 654C290 659 274 662 254 662H141V539Z" />
</g>
</def>
<g transform="translate(360, 400) scale(0.02) ">
 <use href="#uniE06D" />
</g>

<g font-size="10" font-family="Verdana" >
<text x="360" y="450">uniE06D</text>
</g>

<def>
 <g id="uniE06E">
 <path d="M24 -500V-446H116V-196H180V-446H271V-500ZM0 154H68L89 91H203L224 154H294L184 -156H111ZM147 -85L186 37H107ZM183 186H33V497H174C188 497 202 496 216 493C230 491 242 485 252 477C274 462 287 430 287 404C287 368 273 344 239 331C250 325 258 320 263 313C273 302 277 286 277 268C277 212 236 187 183 186ZM162 241C177 241 190 242 199 245C210 250 216 260 216 274C216 288 212 296 203 302C194 307 184 309 170 309H95V241ZM171 361C197 361 222 367 222 399C222 418 215 431 202 438C194 441 184 443 170 443H95V361Z" />
</g>
</def>
<g transform="translate(450, 400) scale(0.02) ">
 <use href="#uniE06E" />
</g>

<g font-size="10" font-family="Verdana" >
<text x="450" y="450">uniE06E</text>
</g>

<def>
 <g id="uniE07A">
 <path d="M92 381C92 430 130 496 231 496C328 496 375 441 375 345C375 316 370 282 363 239C360 224 357 201 352 173C425 148 480 72 480 -6C480 -118 400 -195 290 -195C283 -240 275 -285 269 -326C348 -410 403 -504 403 -623C403 -691 382 -746 370 -773C352 -811 330 -838 317 -838C311 -838 288 -829 263 -800C215 -742 201 -647 201 -584C201 -544 205 -507 218 -423C217 -422 178 -382 162 -369C94 -306 0 -215 0 -65C0 76 122 186 262 186C283 186 303 184 321 180C335 252 344 305 344 345C344 423 304 464 228 464C210 464 194 460 193 460C192 460 191 459 191 458C191 456 192 456 194 455C229 450 264 420 264 372C264 331 234 288 178 288C125 288 92 332 92 381ZM249 -620C256 -651 290 -729 329 -729C340 -729 359 -693 359 -641C359 -563 300 -505 249 -453C244 -483 241 -513 241 -544C241 -572 243 -597 249 -620ZM315 150C300 153 286 155 271 155C164 155 73 80 73 -33C73 -124 137 -206 203 -264C216 -275 228 -285 239 -296C246 -256 251 -221 256 -190C188 -170 142 -97 142 -28C142 26 183 97 243 97C249 97 255 95 255 87C255 81 248 77 239 71C210 53 194 33 194 -3C194 -49 228 -85 272 -96ZM422 11C422 65 399 120 346 141C331 52 310 -67 305 -101C372 -101 422 -55 422 11Z" />
</g>
</def>
<g transform="translate(540, 400) scale(0.02) ">
 <use href="#uniE07A" />
</g>

<g font-size="10" font-family="Verdana" >
<text x="540" y="450">uniE07A</text>
</g>

<def>
 <g id="uniE07B">
 <path d="M10 -355C5 -355 0 -351 0 -346V337C0 342 5 347 10 347H64C69 347 73 342 73 337V-346C73 -351 69 -355 64 -355ZM471 192C471 101 422 27 325 27C312 27 291 29 263 46C261 43 247 13 222 -4C247 -21 261 -51 263 -54C287 -39 306 -35 334 -35C426 -35 471 -120 471 -201C471 -306 394 -365 303 -365C220 -365 189 -328 185 -324C172 -307 165 -290 165 -273C165 -237 191 -211 228 -211C261 -211 284 -238 284 -270C284 -280 281 -290 276 -300C264 -321 243 -324 221 -324C238 -336 262 -342 285 -342C364 -342 376 -280 376 -212C376 -155 375 -70 309 -70C243 -70 230 -141 228 -149C228 -150 228 -160 217 -160C206 -160 206 -150 206 -149C200 -110 179 -34 138 -18V-346C138 -351 133 -355 128 -355C123 -355 118 -351 118 -346V337C118 342 123 347 128 347C133 347 138 342 138 337V10C151 15 168 28 180 56C200 102 205 137 206 141C206 142 206 151 217 151C228 151 228 142 228 141C230 133 243 62 309 62C375 62 376 145 376 203C376 271 364 333 285 333C262 333 238 327 221 315C243 315 264 312 276 291C281 281 284 271 284 261C284 229 260 203 228 203C192 203 165 228 165 264C165 281 172 298 185 315C189 319 220 357 303 357C394 357 471 297 471 192Z" />
</g>
</def>
<g transform="translate(630, 400) scale(0.02) ">
 <use href="#uniE07B" />
</g>

<g font-size="10" font-family="Verdana" >
<text x="630" y="450">uniE07B</text>
</g>

<def>
 <g id="uniE07C">
 <path d="M348 -131C342 -138 331 -148 323 -154C322 -155 320 -157 319 -158C311 -164 296 -171 287 -175C286 -176 285 -176 284 -177C257 -188 226 -195 190 -195C133 -195 87 -162 87 -162C43 -129 26 -91 19 -65C16 -52 14 -39 14 -27C14 -9 17 8 24 23C33 43 51 58 73 65C81 67 93 70 101 70C115 70 137 64 149 57C172 44 187 17 187 -13C187 -39 174 -62 151 -76C135 -86 120 -90 106 -90C84 -90 66 -80 57 -71C59 -85 68 -106 76 -118C92 -141 123 -168 183 -168C260 -168 297 -106 297 20C297 27 296 33 296 40C296 43 295 47 295 50C294 63 290 83 287 96C277 137 262 174 248 201C218 261 184 303 161 324C83 395 10 429 9 429C9 429 0 434 0 443C0 444 1 446 1 447C3 454 10 456 14 456C15 456 17 455 18 455C19 455 104 419 172 366C246 314 305 250 344 184C377 128 396 70 396 20C396 -43 379 -93 349 -129C348 -130 349 -130 348 -131ZM341 -137C340 -138 340 -138 339 -139C340 -138 340 -138 341 -137ZM365 -106C364 -107 363 -109 362 -110C363 -109 364 -107 365 -106ZM381 -70C381 -71 380 -71 380 -72C380 -71 381 -71 381 -70ZM462 -61C482 -61 498 -78 498 -99C498 -120 482 -137 462 -137C442 -137 426 -120 426 -99C426 -78 442 -61 462 -61ZM462 55C442 55 426 72 426 93C426 114 442 131 462 131C482 131 498 114 498 93C498 72 482 55 462 55Z" />
</g>
</def>
<g transform="translate(720, 400) scale(0.02) ">
 <use href="#uniE07C" />
</g>

<g font-size="10" font-family="Verdana" >
<text x="720" y="450">uniE07C</text>
</g>

<def>
 <g id="uniE07D">
 <path d="M137 -128C166 -140 180 -157 180 -181C180 -194 171 -211 161 -219C149 -228 132 -234 113 -234C90 -234 69 -227 54 -214C39 -201 31 -182 31 -162C31 -143 37 -130 52 -116C41 -111 32 -107 24 -101C9 -89 0 -71 0 -54C0 -21 29 0 73 0C127 0 165 -30 165 -73C165 -95 155 -115 137 -128ZM95 -153C79 -162 74 -169 74 -182C74 -200 88 -213 108 -213C128 -213 139 -201 139 -180C139 -164 134 -153 118 -141C104 -148 100 -151 96 -153ZM69 -101C73 -99 74 -99 77 -97C89 -91 90 -91 92 -90C111 -79 119 -68 119 -54C119 -35 102 -21 80 -21C58 -21 43 -35 43 -56C43 -75 52 -91 69 -101Z" />
</g>
</def>
<g transform="translate(810, 400) scale(0.02) ">
 <use href="#uniE07D" />
</g>

<g font-size="10" font-family="Verdana" >
<text x="810" y="450">uniE07D</text>
</g>

<def>
 <g id="uniE07E">
 <path d="M101 -28C101 -31 102 -37 105 -48L154 -230H136V-229C122 -219 81 -208 50 -207H48L42 -186H75C86 -186 86 -183 86 -180C86 -177 85 -172 84 -169L52 -49C49 -39 48 -34 48 -33C47 -28 45 -27 44 -26C42 -23 34 -23 22 -23H3L0 0H139L142 -23H123C102 -23 101 -24 101 -28ZM332 -229C331 -229 330 -228 329 -228H328C314 -222 301 -220 284 -220C264 -220 241 -223 215 -229L213 -230L183 -127C174 -123 170 -118 170 -110C170 -102 175 -96 183 -96C193 -96 201 -103 203 -115C218 -121 222 -122 229 -122C248 -122 259 -109 259 -84C259 -46 237 -17 210 -17C197 -17 187 -23 187 -28C187 -28 187 -28 189 -29C202 -33 209 -43 209 -56C209 -72 198 -83 181 -83C162 -83 149 -69 149 -48C149 -16 176 5 217 5C245 5 270 -4 288 -21C306 -38 316 -62 316 -88C316 -106 310 -121 298 -132C286 -143 270 -148 250 -148C237 -148 226 -146 212 -141L221 -175C244 -170 245 -170 259 -170C285 -170 303 -176 317 -188C327 -197 336 -213 336 -224C336 -228 334 -229 332 -229Z" />
</g>
</def>
<g transform="translate(900, 400) scale(0.02) ">
 <use href="#uniE07E" />
</g>

<g font-size="10" font-family="Verdana" >
<text x="900" y="450">uniE07E</text>
</g>
</svg>

