<?xml version="1.0" standalone="no"?>

<svg version="1.1"
    viewBox="0 0 1003 503"
     xmlns="http://www.w3.org/2000/svg">
  <desc>shows all the symbols from font</desc>
    <g fill="none" stroke="black" stroke-width="3" >
<line x1="0" y1="1.5" x2="1000" y2="1.5" />
<line x1="1.5" y1="0" x2="1.5" y2="500" />
</g>
<g fill="red" stroke="none" >
<rect x="0" y="0" width="3" height="3" />
<rect x="997" y="0" width="3" height="3" />
<rect x="0" y="497" width="3" height="3" />
</g>
<g font-size="14" font-family="Verdana" >
<text x="10" y="20">(0,0)</text>
<text x="940" y="20">(1000,0)</text>
<text x="10" y="490">(0,500)</text>
</g>
<g style="stroke:#D3D3D3;stroke-width:0.5px;stroke-dasharray:10, 10;stroke-opacity:1" >
<line x1="0.0" y1="0" x2="0.0" y2="500" />
<line x1="90.9090909090909" y1="0" x2="90.9090909090909" y2="500" />
<line x1="181.8181818181818" y1="0" x2="181.8181818181818" y2="500" />
<line x1="272.72727272727275" y1="0" x2="272.72727272727275" y2="500" />
<line x1="363.6363636363636" y1="0" x2="363.6363636363636" y2="500" />
<line x1="454.54545454545456" y1="0" x2="454.54545454545456" y2="500" />
<line x1="545.4545454545455" y1="0" x2="545.4545454545455" y2="500" />
<line x1="636.3636363636364" y1="0" x2="636.3636363636364" y2="500" />
<line x1="727.2727272727273" y1="0" x2="727.2727272727273" y2="500" />
<line x1="818.1818181818181" y1="0" x2="818.1818181818181" y2="500" />
<line x1="909.0909090909091" y1="0" x2="909.0909090909091" y2="500" />
<line x1="1000.0" y1="0" x2="1000.0" y2="500" />
<line x1="0" y1="0.0" x2="1000" y2="0.0" />
<line x1="0" y1="100.0" x2="1000" y2="100.0" />
<line x1="0" y1="200.0" x2="1000" y2="200.0" />
<line x1="0" y1="300.0" x2="1000" y2="300.0" />
<line x1="0" y1="400.0" x2="1000" y2="400.0" />
<line x1="0" y1="500.0" x2="1000" y2="500.0" />
</g>

<def>
<g id="uniE080">
 <path d="M202 -255C96 -255 15 -145 15 0C15 145 96 254 202 254C308 254 389 145 389 0C389 -145 308 -255 202 -255ZM261 139C261 175 245 214 202 214C159 214 143 175 143 139V-139C143 -175 159 -214 202 -214C245 -214 261 -175 261 -139Z" />
</g>
</def>
<g transform="translate(90, 100) scale(0.02) ">
 <use href="#uniE080" />
</g>

<g font-size="10" font-family="Verdana" >
<text x="90" y="150">uniE080</text>
</g>

<def>
<g id="uniE081">
 <path d="M249 197V-233C249 -240 244 -245 237 -245H138C136 -245 134 -244 132 -243C131 -242 129 -240 128 -239L16 -45C15 -43 15 -41 15 -39C15 -35 18 -31 21 -29L40 -18C42 -17 44 -16 46 -16C50 -16 54 -19 56 -22L127 -144V197H51C44 197 39 202 39 209V231C39 238 44 243 51 243H325C332 243 336 238 336 231V209C336 202 332 197 325 197Z" />
</g>
</def>
<g transform="translate(180, 100) scale(0.02) ">
 <use href="#uniE081" />
</g>

<g font-size="10" font-family="Verdana" >
<text x="180" y="150">uniE081</text>
</g>

<def>
<g id="uniE082">
 <path d="M342 39C334 61 314 133 265 133C200 133 186 93 132 93C124 93 116 94 106 96C106 96 131 58 237 25C343 -8 370 -60 370 -120C370 -162 351 -245 200 -245C49 -245 21 -154 21 -108C21 -67 55 -34 96 -34C137 -34 170 -67 170 -108C170 -136 150 -167 124 -177C121 -178 117 -183 117 -188C117 -194 122 -201 140 -206C145 -208 159 -211 174 -211C188 -211 204 -208 216 -200C235 -188 242 -170 242 -125C242 -8 103 17 45 104C45 104 15 146 15 193C15 240 39 243 51 243C67 243 84 230 84 212C84 208 83 204 81 199C75 185 73 174 73 166C73 163 73 160 74 157C75 151 83 141 107 141C136 141 147 175 165 201C183 227 211 243 243 243C275 243 318 220 336 183C354 146 377 71 377 44C377 31 369 25 360 25C353 25 346 29 342 39Z" />
</g>
</def>
<g transform="translate(270, 100) scale(0.02) ">
 <use href="#uniE082" />
</g>

<g font-size="10" font-family="Verdana" >
<text x="270" y="150">uniE082</text>
</g>

<def>
<g id="uniE083">
 <path d="M272 -16C352 -47 357 -99 357 -117C357 -119 357 -121 357 -122C357 -131 354 -244 182 -244C10 -244 15 -122 15 -122H16L15 -120C15 -84 44 -56 80 -56C116 -56 144 -84 144 -120C144 -149 122 -177 94 -183C95 -184 96 -185 97 -186C111 -196 130 -201 149 -201C191 -201 236 -176 236 -122C236 -59 189 -50 177 -48C165 -46 109 -42 97 -42C85 -42 84 -28 84 -28V-8C84 -8 86 3 97 4C114 5 137 5 169 10C213 16 236 46 236 116C236 183 191 201 149 201C121 201 95 193 84 185C117 183 144 154 144 121C144 85 116 56 80 56C44 56 15 85 15 121C15 121 15 123 15 125C15 138 18 174 54 207C93 243 142 244 164 244C260 244 364 211 364 102C364 29 314 -2 270 -16Z" />
</g>
</def>
<g transform="translate(360, 100) scale(0.02) ">
 <use href="#uniE083" />
</g>

<g font-size="10" font-family="Verdana" >
<text x="360" y="150">uniE083</text>
</g>

<def>
<g id="uniE084">
 <path d="M208 127V201H125C118 201 111 207 111 215V234C111 242 118 248 125 248H428C436 248 442 242 442 234V215C442 207 436 201 428 201H338V127H428C436 127 442 120 442 112V93C442 86 436 79 428 79H338V-80C338 -86 335 -91 331 -93L319 -99C317 -100 316 -100 314 -100C313 -100 313 -100 312 -100C309 -100 305 -99 303 -97L212 -14C209 -11 208 -7 208 -3V79H92C92 79 204 -41 322 -199C326 -204 327 -209 327 -213C327 -218 325 -222 324 -223L302 -245C299 -247 296 -249 292 -249C286 -249 151 -249 143 -249C136 -249 131 -243 130 -237C130 -237 125 -163 99 -82C73 -1 43 49 17 86C17 86 14 91 14 97C14 99 14 101 15 103C18 110 25 121 25 121C25 121 27 127 36 127Z" />
</g>
</def>
<g transform="translate(450, 100) scale(0.02) ">
 <use href="#uniE084" />
</g>

<g font-size="10" font-family="Verdana" >
<text x="450" y="150">uniE084</text>
</g>

<def>
<g id="uniE085">
 <path d="M27 -218C27 -218 32 -170 32 -118C32 -114 32 -109 32 -105C31 -49 27 17 27 17C27 17 27 18 27 20C27 24 28 32 34 33C43 35 64 40 69 41C71 41 72 41 74 41C78 41 82 40 84 34C89 21 100 -31 163 -31C234 -31 247 30 247 78C247 128 231 200 165 203C162 203 160 203 157 203C134 203 121 200 115 196C112 195 110 192 110 190C110 187 111 185 114 183C123 177 154 166 154 117C154 68 120 49 81 49C42 49 15 85 15 119C15 153 25 191 77 221C102 235 138 244 175 244C226 244 281 228 317 191C349 158 362 116 362 76C362 22 338 -30 301 -55C276 -72 233 -86 188 -86C155 -86 120 -78 91 -58C90 -57 88 -57 87 -57C83 -57 80 -60 80 -64V-127C80 -133 85 -138 91 -138H92C107 -137 140 -133 175 -133C205 -133 236 -136 258 -145C305 -164 321 -201 329 -222C330 -225 331 -229 331 -232C331 -240 326 -246 313 -246C309 -246 305 -245 299 -244C250 -232 212 -228 175 -228C139 -228 104 -232 61 -238C61 -238 56 -239 49 -239C39 -239 27 -236 27 -222C27 -220 27 -219 27 -218Z" />
</g>
</def>
<g transform="translate(540, 100) scale(0.02) ">
 <use href="#uniE085" />
</g>

<g font-size="10" font-family="Verdana" >
<text x="540" y="150">uniE085</text>
</g>

<def>
<g id="uniE086">
 <path d="M247 -48C186 -48 164 -30 150 -15C147 -36 145 -52 145 -68C145 -84 147 -98 150 -116C156 -153 181 -199 235 -199C260 -199 275 -191 285 -180C264 -171 247 -144 247 -121C247 -85 275 -57 311 -57C347 -57 376 -85 376 -121V-123C376 -123 376 -123 376 -124C376 -133 374 -148 370 -156C357 -192 315 -245 215 -245C125 -245 60 -159 40 -113C30 -89 15 -40 15 16C15 77 32 146 91 198C149 242 186 244 221 244C256 244 387 203 387 87C387 -11 310 -48 247 -48ZM210 202C177 202 150 157 150 101C150 45 177 -1 210 -1C243 -1 271 45 271 101C271 157 243 202 210 202Z" />
</g>
</def>
<g transform="translate(630, 100) scale(0.02) ">
 <use href="#uniE086" />
</g>

<g font-size="10" font-family="Verdana" >
<text x="630" y="150">uniE086</text>
</g>

<def>
<g id="uniE087">
 <path d="M162 123C140 156 111 196 111 233C111 244 114 250 125 250C141 250 151 246 183 244C186 244 190 243 193 243C222 243 249 250 256 250C265 250 282 239 281 230C281 229 281 228 281 227C281 225 275 194 275 157C275 136 277 112 283 90C295 43 327 -42 349 -105C360 -136 366 -191 366 -214C366 -223 366 -227 365 -237C364 -247 360 -251 354 -251C349 -251 341 -251 336 -251C331 -251 324 -247 324 -237C324 -227 322 -158 282 -158C240 -158 228 -244 163 -244C101 -244 63 -181 60 -175V-223C60 -229 55 -234 49 -234H26C20 -234 15 -229 15 -223V-38C15 -32 20 -27 26 -27H49C55 -27 60 -32 60 -38V-70C60 -93 75 -124 110 -124C145 -124 148 -86 228 -86C248 -86 285 -89 295 -99C287 -83 185 90 162 123Z" />
</g>
</def>
<g transform="translate(720, 100) scale(0.02) ">
 <use href="#uniE087" />
</g>

<g font-size="10" font-family="Verdana" >
<text x="720" y="150">uniE087</text>
</g>

<def>
<g id="uniE088">
 <path d="M324 -18C357 -43 380 -75 380 -115C380 -187 301 -246 204 -246C107 -246 28 -187 28 -115C28 -75 38 -39 85 -9C40 17 15 54 15 102C15 183 100 248 204 248C308 248 393 183 393 102C393 54 376 9 324 -18ZM204 192C140 192 85 157 85 101C85 34 137 18 137 18C205 41 302 75 302 130C302 157 267 192 204 192ZM268 -45C200 -67 125 -100 125 -145C125 -184 161 -200 204 -200C266 -200 308 -171 308 -125C308 -77 286 -54 268 -45Z" />
</g>
</def>
<g transform="translate(810, 100) scale(0.02) ">
 <use href="#uniE088" />
</g>

<g font-size="10" font-family="Verdana" >
<text x="810" y="150">uniE088</text>
</g>

<def>
<g id="uniE089">
 <path d="M155 47C216 47 238 29 252 14C255 35 257 51 257 67C257 83 255 97 252 115C246 152 221 198 167 198C142 198 127 190 117 179C138 170 155 143 155 120C155 84 127 56 91 56C55 56 26 84 26 120V122C26 122 26 122 26 123C26 132 28 147 32 155C45 191 87 244 187 244C277 244 342 158 362 112C372 88 387 39 387 -17C387 -78 370 -147 311 -199C253 -243 216 -245 181 -245C146 -245 15 -204 15 -88C15 10 92 47 155 47ZM192 -204C225 -204 252 -158 252 -102C252 -46 225 -1 192 -1C159 -1 131 -46 131 -102C131 -158 159 -204 192 -204Z" />
</g>
</def>
<g transform="translate(900, 100) scale(0.02) ">
 <use href="#uniE089" />
</g>

<g font-size="10" font-family="Verdana" >
<text x="900" y="150">uniE089</text>
</g>

<def>
<g id="uniE08A">
 <path d="M325 -179C300 -163 282 -134 282 -102C282 -98 282 -94 283 -90C288 -49 321 -17 362 -12C365 -12 370 -12 373 -12C423 -12 463 -52 463 -102C463 -102 463 -105 463 -108C463 -112 462 -119 461 -123C452 -166 413 -258 243 -258C25 -258 0 -77 0 -12C0 107 15 256 265 256C364 256 441 198 445 91C445 86 442 83 437 83H424C420 83 416 87 416 91C412 174 353 224 265 224C178 224 136 177 136 89V-102C136 -158 158 -222 247 -222C294 -222 315 -205 326 -188C327 -186 327 -185 327 -183C327 -182 327 -180 325 -179Z" />
</g>
</def>
<g transform="translate(90, 200) scale(0.02) ">
 <use href="#uniE08A" />
</g>

<g font-size="10" font-family="Verdana" >
<text x="90" y="250">uniE08A</text>
</g>

<def>
<g id="uniE08B">
 <path d="M424 83C420 83 416 87 416 91C412 174 353 224 265 224C262 224 259 224 256 224V-222C297 -220 316 -203 326 -187C327 -185 327 -184 327 -183C327 -181 327 -180 325 -179C300 -163 282 -134 282 -102C282 -98 282 -94 283 -90C288 -49 322 -17 363 -12C366 -12 370 -12 373 -12C423 -12 463 -52 463 -102C463 -102 463 -105 463 -108C463 -112 462 -119 461 -123C452 -164 415 -253 256 -257V-377C256 -383 251 -388 245 -388H218C212 -388 207 -383 207 -377V-256C22 -237 0 -73 0 -12C0 97 12 232 207 253V365C207 371 212 376 218 376H245C251 376 256 371 256 365V256C259 256 262 256 265 256C364 256 441 198 445 91C445 86 442 83 437 83ZM136 -102C136 -149 150 -201 207 -217V215C159 198 136 155 136 89Z" />
</g>
</def>
<g transform="translate(180, 200) scale(0.02) ">
 <use href="#uniE08B" />
</g>

<g font-size="10" font-family="Verdana" >
<text x="180" y="250">uniE08B</text>
</g>

<def>
<g id="uniE08C">
 <path d="M227 -23V-191C227 -198 221 -204 214 -204H194C187 -204 181 -198 181 -191V-23H13C6 -23 0 -17 0 -10V9C0 16 6 23 13 23H181V190C181 197 187 204 194 204H214C221 204 227 197 227 190V23H394C401 23 408 16 408 9V-10C408 -17 401 -23 394 -23Z" />
</g>
</def>
<g transform="translate(270, 200) scale(0.02) ">
 <use href="#uniE08C" />
</g>

<g font-size="10" font-family="Verdana" >
<text x="270" y="250">uniE08C</text>
</g>

<def>
<g id="uniE0A0">
 <path d="M23 -179C19 -179 18 -179 14 -179C6 -179 0 -173 0 -165C0 -157 0 157 0 164C0 171 6 178 14 178C18 178 19 178 23 178C30 178 37 170 37 164C37 158 37 -157 37 -165C37 -173 31 -179 23 -179ZM451 -179C447 -179 446 -179 442 -179C434 -179 428 -173 428 -165C428 -163 428 -130 428 -87C398 -116 347 -136 270 -136C192 -136 141 -116 111 -87C111 -130 111 -163 111 -165C111 -173 105 -179 97 -179C93 -179 92 -179 88 -179C80 -179 74 -173 74 -165C74 -157 74 157 74 164C74 171 80 178 88 178C92 178 93 178 97 178C104 178 111 170 111 164C111 162 111 129 111 85C141 115 192 135 270 135C347 135 398 115 428 85C428 129 428 162 428 164C428 171 434 178 442 178C446 178 447 178 451 178C458 178 465 170 465 164C465 158 465 -157 465 -165C465 -173 459 -179 451 -179ZM321 97C309 100 293 103 278 103C250 103 231 94 218 70C205 45 187 -20 186 -47C186 -49 186 -51 186 -53C186 -76 196 -90 218 -98C230 -101 246 -104 262 -104C289 -104 307 -97 321 -71C335 -44 354 20 354 46C354 72 345 89 321 97ZM524 -179C520 -179 519 -179 515 -179C507 -179 501 -173 501 -165C501 -157 501 157 501 164C501 171 507 178 515 178C519 178 520 178 524 178C531 178 538 170 538 164C538 158 538 -157 538 -165C538 -173 532 -179 524 -179Z" />
</g>
</def>
<g transform="translate(360, 200) scale(0.02) ">
 <use href="#uniE0A0" />
</g>

<g font-size="10" font-family="Verdana" >
<text x="360" y="250">uniE0A0</text>
</g>

<def>
<g id="uniE0A1">
 <path d="M410 -177C402 -177 396 -171 396 -163V-141H37V-163C37 -171 31 -177 23 -177H14C6 -177 0 -171 0 -163V160C0 168 6 174 14 174H23C31 174 37 168 37 160V139H396V165C396 173 402 179 410 179H419C427 179 432 173 432 165V-163C432 -171 427 -177 419 -177ZM396 70H37V-73H396Z" />
</g>
</def>
<g transform="translate(450, 200) scale(0.02) ">
 <use href="#uniE0A1" />
</g>

<g font-size="10" font-family="Verdana" >
<text x="450" y="250">uniE0A1</text>
</g>

<def>
<g id="uniE0A2">
 <path d="M187 -136C49 -136 0 -66 0 -1C0 64 49 134 187 134C325 134 373 64 373 -1C373 -66 325 -136 187 -136ZM238 96C226 100 210 102 195 102C167 102 148 94 135 69C122 44 104 -20 103 -47C101 -74 111 -90 135 -98C147 -102 163 -104 178 -104C206 -104 224 -98 238 -71C252 -44 270 20 270 45C270 71 262 89 238 96Z" />
</g>
</def>
<g transform="translate(540, 200) scale(0.02) ">
 <use href="#uniE0A2" />
</g>

<g font-size="10" font-family="Verdana" >
<text x="540" y="250">uniE0A2</text>
</g>

<def>
<g id="uniE0A3">
 <path d="M213 -132C116 -132 0 -51 0 42C0 85 31 133 112 133C216 133 325 48 325 -40C325 -99 275 -132 213 -132ZM186 44C183 46 110 86 75 86C42 86 35 59 35 50C35 8 135 -41 139 -43C143 -45 214 -85 250 -85C274 -85 290 -71 290 -49C290 -6 189 42 186 44Z" />
</g>
</def>
<g transform="translate(630, 200) scale(0.02) ">
 <use href="#uniE0A3" />
</g>

<g font-size="10" font-family="Verdana" >
<text x="630" y="250">uniE0A3</text>
</g>

<def>
<g id="uniE0A4">
 <path d="M0 42C0 85 31 133 112 133C216 133 325 48 325 -40C325 -99 275 -132 213 -132C116 -132 0 -50 0 42Z" />
</g>
</def>
<g transform="translate(720, 200) scale(0.02) ">
 <use href="#uniE0A4" />
</g>

<g font-size="10" font-family="Verdana" >
<text x="720" y="250">uniE0A4</text>
</g>

<def>
<g id="uniE0A9">
 <path d="M320 -96C323 -98 325 -102 325 -106V-107C325 -111 323 -114 321 -116L309 -128C306 -130 303 -132 299 -132C296 -132 292 -131 290 -129L163 -28L35 -129C33 -131 29 -132 26 -132C22 -132 20 -130 17 -128L4 -116C2 -114 0 -110 0 -106C0 -102 2 -98 5 -96L127 0L5 96C2 98 0 102 0 106C0 109 2 113 4 115L16 128C18 131 22 132 26 132C29 132 33 131 35 129L163 28L290 129C292 131 296 132 299 132C303 132 307 131 309 128L321 115C323 113 325 109 325 106C325 102 323 98 320 96L198 0Z" />
</g>
</def>
<g transform="translate(810, 200) scale(0.02) ">
 <use href="#uniE0A9" />
</g>

<g font-size="10" font-family="Verdana" >
<text x="810" y="250">uniE0A9</text>
</g>

<def>
<g id="uniE0AF">
 <path d="M186 -23V-123C186 -128 180 -132 172 -132H153C145 -132 139 -128 139 -123V-23H11C5 -23 0 -17 0 -9V10C0 17 5 23 11 23H140V124C140 128 146 132 153 132H172C180 132 186 128 186 124V23H314C320 23 325 17 325 10V-9C325 -17 320 -23 314 -23Z" />
</g>
</def>
<g transform="translate(900, 200) scale(0.02) ">
 <use href="#uniE0AF" />
</g>

<g font-size="10" font-family="Verdana" >
<text x="900" y="250">uniE0AF</text>
</g>

<def>
<g id="uniE0B3">
 <path d="M184 0L274 -73C288 -52 296 -27 296 0C296 30 286 58 269 80ZM162 19L250 101C227 121 196 133 163 133C127 133 93 119 69 95ZM140 -1L51 73C37 52 29 27 29 0C29 -30 39 -58 56 -80ZM163 -20L75 -101C98 -121 129 -134 162 -134C198 -134 232 -120 256 -96ZM162 -163C72 -163 0 -90 0 0C0 90 72 162 162 162C252 162 325 90 325 0C325 -90 252 -163 162 -163Z" />
</g>
</def>
<g transform="translate(90, 300) scale(0.02) ">
 <use href="#uniE0B3" />
</g>

<g font-size="10" font-family="Verdana" >
<text x="90" y="350">uniE0B3</text>
</g>

<def>
<g id="uniE0B8">
 <path d="M274 -89V89H36V-89ZM310 -125H0V125H310Z" />
</g>
</def>
<g transform="translate(180, 300) scale(0.02) ">
 <use href="#uniE0B8" />
</g>

<g font-size="10" font-family="Verdana" >
<text x="180" y="350">uniE0B8</text>
</g>

<def>
<g id="uniE0B9">
 <path d="M310 -125H0V125H310Z" />
</g>
</def>
<g transform="translate(270, 300) scale(0.02) ">
 <use href="#uniE0B9" />
</g>

<g font-size="10" font-family="Verdana" >
<text x="270" y="350">uniE0B9</text>
</g>

<def>
<g id="uniE0BD">
 <path d="M155 -122L0 136H310ZM233 77H77C72 77 69 73 69 69C69 68 70 66 70 65L149 -65C150 -67 153 -69 155 -69C157 -69 160 -67 161 -65L240 65C240 66 241 68 241 69C241 73 238 77 233 77Z" />
</g>
</def>
<g transform="translate(360, 300) scale(0.02) ">
 <use href="#uniE0BD" />
</g>

<g font-size="10" font-family="Verdana" >
<text x="360" y="350">uniE0BD</text>
</g>

<def>
<g id="uniE0BE">
 <path d="M155 -122L0 136H310Z" />
</g>
</def>
<g transform="translate(450, 300) scale(0.02) ">
 <use href="#uniE0BE" />
</g>

<g font-size="10" font-family="Verdana" >
<text x="450" y="350">uniE0BE</text>
</g>

<def>
<g id="uniE0BF">
 <path d="M204 65C206 66 207 68 207 70C207 74 204 78 200 78H32C28 78 25 74 25 71V-57C25 -61 29 -64 32 -64C34 -64 35 -64 36 -63ZM0 -122V136H339Z" />
</g>
</def>
<g transform="translate(540, 300) scale(0.02) ">
 <use href="#uniE0BF" />
</g>

<g font-size="10" font-family="Verdana" >
<text x="540" y="350">uniE0BF</text>
</g>

<def>
<g id="uniE0C0">
 <path d="M0 -122V136H339Z" />
</g>
</def>
<g transform="translate(630, 300) scale(0.02) ">
 <use href="#uniE0C0" />
</g>

<g font-size="10" font-family="Verdana" >
<text x="630" y="350">uniE0C0</text>
</g>

<def>
<g id="uniE0C1">
 <path d="M303 -63C304 -64 305 -64 307 -64C310 -64 314 -61 314 -57V71C314 74 311 78 307 78H139C135 78 132 74 132 70C132 68 133 66 135 65ZM339 -122L0 136H339Z" />
</g>
</def>
<g transform="translate(720, 300) scale(0.02) ">
 <use href="#uniE0C1" />
</g>

<g font-size="10" font-family="Verdana" >
<text x="720" y="350">uniE0C1</text>
</g>

<def>
<g id="uniE0C2">
 <path d="M339 -122L0 136H339Z" />
</g>
</def>
<g transform="translate(810, 300) scale(0.02) ">
 <use href="#uniE0C2" />
</g>

<g font-size="10" font-family="Verdana" >
<text x="810" y="350">uniE0C2</text>
</g>

<def>
<g id="uniE0CA">
 <path d="M0 -125V0C0 69 69 125 155 125C241 125 310 69 310 0V-125ZM242 60C231 69 218 76 204 81C188 86 172 89 155 89C138 89 122 86 106 81C92 76 79 69 68 60C47 44 36 22 36 0V-89H274V0C274 22 263 44 242 60Z" />
</g>
</def>
<g transform="translate(900, 300) scale(0.02) ">
 <use href="#uniE0CA" />
</g>

<g font-size="10" font-family="Verdana" >
<text x="900" y="350">uniE0CA</text>
</g>

<def>
<g id="uniE0CB">
 <path d="M0 -125V0C0 69 69 125 155 125C241 125 310 69 310 0V-125Z" />
</g>
</def>
<g transform="translate(90, 400) scale(0.02) ">
 <use href="#uniE0CB" />
</g>

<g font-size="10" font-family="Verdana" >
<text x="90" y="450">uniE0CB</text>
</g>

<def>
<g id="uniE0CC">
 <path d="M157 136L310 -44C310 -44 267 -122 157 -122C47 -122 0 -44 0 -44ZM157 -74C190 -74 219 -65 242 -48C252 -40 260 -32 264 -27L157 99L47 -27C60 -42 95 -74 157 -74Z" />
</g>
</def>
<g transform="translate(180, 400) scale(0.02) ">
 <use href="#uniE0CC" />
</g>

<g font-size="10" font-family="Verdana" >
<text x="180" y="450">uniE0CC</text>
</g>

<def>
<g id="uniE0CD">
 <path d="M157 136L310 -44C310 -44 267 -122 157 -122C47 -122 0 -44 0 -44Z" />
</g>
</def>
<g transform="translate(270, 400) scale(0.02) ">
 <use href="#uniE0CD" />
</g>

<g font-size="10" font-family="Verdana" >
<text x="270" y="450">uniE0CD</text>
</g>

<def>
<g id="uniE0CF">
 <path d="M421 -207C418 -210 415 -212 411 -212C408 -212 405 -211 403 -209L286 -112C266 -125 241 -132 213 -132C116 -132 0 -50 0 42C0 62 7 83 22 100L-93 190C-96 193 -98 197 -98 200C-98 203 -97 206 -95 209C-93 212 -89 213 -85 213C-82 213 -79 213 -77 211L39 114C57 126 81 133 112 133C216 133 325 49 325 -40C325 -63 317 -83 303 -98L419 -188C422 -191 424 -195 424 -198C424 -201 423 -204 421 -207Z" />
</g>
</def>
<g transform="translate(360, 400) scale(0.02) ">
 <use href="#uniE0CF" />
</g>

<g font-size="10" font-family="Verdana" >
<text x="360" y="450">uniE0CF</text>
</g>

<def>
<g id="uniE0D0">
 <path d="M267 71C302 40 325 0 325 -40C325 -99 275 -132 213 -132C166 -132 116 -113 75 -84L-77 -209C-80 -211 -83 -212 -86 -212C-89 -212 -93 -210 -96 -207C-97 -205 -98 -203 -98 -201C-98 -200 -99 -200 -98 -199C-98 -195 -97 -191 -94 -189L58 -70C24 -39 0 0 0 42C0 85 31 133 112 133C161 133 211 114 251 85L402 210C405 212 408 213 410 213C414 213 418 211 421 208C423 206 424 203 424 200C423 196 422 192 419 190Z" />
</g>
</def>
<g transform="translate(450, 400) scale(0.02) ">
 <use href="#uniE0D0" />
</g>

<g font-size="10" font-family="Verdana" >
<text x="450" y="450">uniE0D0</text>
</g>

<def>
<g id="uniE0D1">
 <path d="M421 -207C418 -210 415 -212 411 -212C408 -212 405 -211 403 -209L286 -113C266 -125 241 -132 213 -132C179 -132 142 -122 106 -103C40 -68 0 -9 0 42C0 56 3 70 10 83C14 89 18 94 22 99L-93 190C-96 192 -98 196 -98 200C-98 203 -97 206 -95 208C-93 211 -89 213 -85 213C-82 213 -79 212 -77 210L39 114C59 126 84 133 112 133C146 133 183 124 219 105C285 70 325 11 325 -40C325 -54 322 -68 315 -81C312 -87 308 -93 303 -98L419 -189C422 -191 424 -195 424 -199C424 -202 423 -205 421 -207ZM39 68C36 63 34 57 34 51C34 40 41 27 52 16C69 -1 102 -22 138 -42C174 -62 210 -77 234 -82C239 -83 244 -84 249 -84C250 -84 250 -84 251 -84L156 -6L48 79C45 76 42 72 39 68ZM285 -65C288 -60 289 -54 289 -48C289 -37 283 -25 272 -13C255 4 221 25 185 45C149 65 113 80 89 85C84 86 79 87 74 87C74 87 73 87 72 87L170 6L275 -77C279 -74 283 -70 285 -65Z" />
</g>
</def>
<g transform="translate(540, 400) scale(0.02) ">
 <use href="#uniE0D1" />
</g>

<g font-size="10" font-family="Verdana" >
<text x="540" y="450">uniE0D1</text>
</g>

<def>
<g id="uniE0D2">
 <path d="M268 71C304 38 325 -3 325 -40C325 -54 322 -68 315 -81C297 -114 259 -132 213 -132C179 -132 142 -122 106 -103C95 -97 85 -90 75 -83L-77 -209C-79 -211 -82 -212 -85 -212C-89 -212 -93 -210 -95 -207C-97 -205 -98 -202 -98 -199C-98 -195 -96 -191 -93 -189L59 -70C22 -37 0 5 0 42C0 56 3 70 10 83C28 116 66 133 112 133C146 133 183 124 219 105C231 99 241 92 251 85L403 210C405 212 408 213 411 213C415 213 418 211 421 208C423 206 424 203 424 200C424 196 422 192 419 190ZM138 -42C174 -62 210 -77 234 -82C239 -83 244 -84 249 -84C265 -84 278 -78 285 -65C288 -60 289 -54 289 -48C289 -37 283 -25 272 -13C260 0 238 14 214 29L170 -5L131 -38C133 -39 136 -40 138 -42ZM185 45C149 65 113 80 89 85C84 86 79 87 74 87C58 87 46 81 39 68C36 63 34 57 34 51C34 40 41 27 52 16C65 3 87 -12 113 -27L156 6L196 39C192 41 189 43 185 45Z" />
</g>
</def>
<g transform="translate(630, 400) scale(0.02) ">
 <use href="#uniE0D2" />
</g>

<g font-size="10" font-family="Verdana" >
<text x="630" y="450">uniE0D2</text>
</g>

<def>
<g id="uniE0D3">
 <path d="M445 -209C442 -212 438 -214 434 -214C431 -213 429 -213 426 -211L305 -111C277 -126 238 -136 187 -136C49 -136 0 -66 0 -1C0 34 14 70 48 96L-70 188C-73 191 -75 195 -75 199C-74 202 -74 204 -72 207C-69 210 -65 211 -61 211C-59 211 -56 211 -53 209L68 109C96 124 135 134 187 134C325 134 373 64 373 -1C373 -36 359 -72 325 -98L443 -190C446 -193 448 -197 448 -201C447 -203 447 -206 445 -209ZM103 -47C103 -50 103 -52 103 -54C103 -77 113 -91 135 -98C147 -102 163 -104 178 -104C206 -104 224 -98 238 -71C240 -68 242 -64 243 -60L123 38C113 8 104 -29 103 -47ZM270 45C270 71 262 89 238 96C226 100 210 102 195 102C167 102 148 94 135 69C133 66 132 62 130 57L194 4L251 -40C261 -11 270 27 270 45Z" />
</g>
</def>
<g transform="translate(720, 400) scale(0.02) ">
 <use href="#uniE0D3" />
</g>

<g font-size="10" font-family="Verdana" >
<text x="720" y="450">uniE0D3</text>
</g>

<def>
<g id="uniE0D4">
 <path d="M325 96C359 70 373 34 373 -1C373 -66 325 -136 187 -136C136 -136 97 -126 68 -111L-53 -211C-56 -213 -58 -213 -61 -214C-65 -214 -69 -212 -72 -209C-74 -206 -74 -203 -75 -201C-75 -197 -73 -193 -70 -190L48 -98C14 -72 0 -36 0 -1C0 64 49 134 187 134C238 134 277 124 306 109L426 209C429 211 432 212 434 212C438 212 442 210 445 207C447 204 447 202 448 199C448 195 446 191 443 188ZM135 -98C147 -102 163 -104 178 -104C206 -104 224 -98 238 -71C252 -44 270 20 270 45C270 48 270 51 270 53L194 -7L108 -78C113 -87 122 -94 135 -98ZM238 96C226 100 210 102 195 102C167 102 148 94 135 69C122 44 104 -20 103 -47C103 -49 103 -51 103 -53C103 -54 103 -55 103 -56L179 4L265 75C260 85 251 92 238 96Z" />
</g>
</def>
<g transform="translate(810, 400) scale(0.02) ">
 <use href="#uniE0D4" />
</g>

<g font-size="10" font-family="Verdana" >
<text x="810" y="450">uniE0D4</text>
</g>

<def>
<g id="uniE0D5">
 <path d="M453 -207C451 -211 447 -212 443 -212C440 -212 437 -211 435 -209L389 -172C387 -176 382 -178 377 -178C373 -178 372 -178 368 -178C360 -178 354 -172 354 -164C354 -163 354 -155 354 -142L316 -112C287 -126 247 -135 195 -135C117 -135 67 -115 37 -86C37 -129 37 -162 37 -164C37 -176 29 -178 20 -178C18 -178 16 -178 14 -178C6 -178 0 -172 0 -164C0 -158 0 68 0 142L-61 189C-64 192 -66 196 -66 200C-66 202 -65 205 -63 208C-60 211 -57 213 -53 213C-50 213 -47 212 -45 210L2 172C4 176 8 179 14 179C23 179 36 177 37 165C37 164 37 156 37 143L74 112C103 127 143 136 195 136C273 136 323 115 354 86C354 130 354 163 354 165C354 172 360 179 368 179C377 179 391 177 391 165C391 159 391 -68 391 -142L451 -189C455 -192 456 -196 456 -200C456 -202 455 -205 453 -207ZM111 -52C111 -96 152 -103 187 -103C215 -103 232 -97 247 -70C248 -67 250 -63 252 -59L131 39C121 10 112 -28 111 -46C111 -48 111 -50 111 -52ZM37 113C37 105 37 96 37 86C42 91 47 96 53 100ZM279 47C279 96 244 103 203 103C175 104 157 95 144 70C142 67 140 63 138 58L259 -39C270 -9 279 28 279 47ZM354 -86C349 -91 343 -95 337 -100L354 -113C354 -105 354 -95 354 -86Z" />
</g>
</def>
<g transform="translate(900, 400) scale(0.02) ">
 <use href="#uniE0D5" />
</g>

<g font-size="10" font-family="Verdana" >
<text x="900" y="450">uniE0D5</text>
</g>
</svg>

