<?xml version="1.0" standalone="no"?>

<svg version="1.1"
    viewBox="0 0 1003 503"
     xmlns="http://www.w3.org/2000/svg">
  <desc>shows all the symbols from font</desc>
    <g fill="none" stroke="black" stroke-width="3" >
<line x1="0" y1="1.5" x2="1000" y2="1.5" />
<line x1="1.5" y1="0" x2="1.5" y2="500" />
</g>
<g fill="red" stroke="none" >
<rect x="0" y="0" width="3" height="3" />
<rect x="997" y="0" width="3" height="3" />
<rect x="0" y="497" width="3" height="3" />
</g>
<g font-size="14" font-family="Verdana" >
<text x="10" y="20">(0,0)</text>
<text x="940" y="20">(1000,0)</text>
<text x="10" y="490">(0,500)</text>
</g>
<g style="stroke:#D3D3D3;stroke-width:0.5px;stroke-dasharray:10, 10;stroke-opacity:1" >
<line x1="0.0" y1="0" x2="0.0" y2="500" />
<line x1="90.9090909090909" y1="0" x2="90.9090909090909" y2="500" />
<line x1="181.8181818181818" y1="0" x2="181.8181818181818" y2="500" />
<line x1="272.72727272727275" y1="0" x2="272.72727272727275" y2="500" />
<line x1="363.6363636363636" y1="0" x2="363.6363636363636" y2="500" />
<line x1="454.54545454545456" y1="0" x2="454.54545454545456" y2="500" />
<line x1="545.4545454545455" y1="0" x2="545.4545454545455" y2="500" />
<line x1="636.3636363636364" y1="0" x2="636.3636363636364" y2="500" />
<line x1="727.2727272727273" y1="0" x2="727.2727272727273" y2="500" />
<line x1="818.1818181818181" y1="0" x2="818.1818181818181" y2="500" />
<line x1="909.0909090909091" y1="0" x2="909.0909090909091" y2="500" />
<line x1="1000.0" y1="0" x2="1000.0" y2="500" />
<line x1="0" y1="0.0" x2="1000" y2="0.0" />
<line x1="0" y1="100.0" x2="1000" y2="100.0" />
<line x1="0" y1="200.0" x2="1000" y2="200.0" />
<line x1="0" y1="300.0" x2="1000" y2="300.0" />
<line x1="0" y1="400.0" x2="1000" y2="400.0" />
<line x1="0" y1="500.0" x2="1000" y2="500.0" />
</g>

<def>
 <g id="uniEA21">
 <path d="M240 -184C214 -208 181 -224 125 -224C68 -224 0 -181 0 -73C0 -60 1 -46 4 -32C4 -30 7 -15 21 -15C33 -15 37 -21 37 -29C36 -38 36 -47 36 -56C36 -112 53 -163 100 -163C139 -163 171 -131 191 -111L263 -39C289 -16 322 0 378 0C434 0 503 -42 503 -148C503 -161 502 -176 499 -192C499 -193 496 -208 481 -208C471 -208 466 -203 466 -194C467 -185 467 -176 467 -168C467 -112 450 -61 403 -61C364 -61 332 -93 312 -113Z" />
</g>
</def>
<g transform="translate(90, 100) scale(0.02) ">
 <use href="#uniEA21" />
</g>

<g font-size="10" font-family="Verdana" >
<text x="90" y="150">uniEA21</text>
</g>

<def>
 <g id="uniEAA4">
 <path d="M233 -202C233 -202 227 -209 219 -216C216 -219 212 -220 209 -220C206 -220 204 -219 202 -217C200 -215 197 -212 191 -206C189 -204 187 -203 185 -203C181 -203 179 -206 179 -206C179 -206 115 -261 105 -270C94 -278 83 -281 73 -281C52 -281 33 -269 25 -260L-23 -212C-26 -209 -27 -207 -27 -204C-27 -199 -23 -195 -23 -195C-23 -195 -17 -188 -9 -181C-6 -178 -3 -177 0 -177C3 -177 5 -178 7 -180C9 -182 12 -185 18 -191C20 -193 22 -194 24 -194C28 -194 31 -191 31 -191C31 -191 95 -137 105 -128C116 -120 127 -117 137 -117C158 -117 177 -129 185 -138L233 -186C236 -189 237 -192 237 -194C237 -199 233 -202 233 -202Z" />
</g>
</def>
<g transform="translate(180, 100) scale(0.02) ">
 <use href="#uniEAA4" />
</g>

<g font-size="10" font-family="Verdana" >
<text x="180" y="150">uniEAA4</text>
</g>

<def>
 <g id="uniEAA9">
 <path d="M238 -85C238 -85 232 -92 224 -99C221 -102 217 -103 214 -103C211 -103 209 -102 207 -100C205 -98 202 -95 196 -89C194 -87 192 -86 190 -86C186 -86 184 -89 184 -89C184 -89 120 -144 110 -153C99 -161 88 -164 78 -164C57 -164 38 -152 30 -143L-18 -95C-21 -92 -22 -90 -22 -87C-22 -82 -18 -78 -18 -78C-18 -78 -12 -71 -4 -64C-1 -61 2 -60 5 -60C8 -60 10 -61 12 -63C14 -65 17 -68 23 -74C25 -76 27 -77 29 -77C33 -77 36 -74 36 -74C36 -74 100 -20 110 -11C121 -3 132 0 142 0C163 0 182 -12 190 -21L238 -69C241 -72 242 -75 242 -77C242 -82 238 -85 238 -85Z" />
</g>
</def>
<g transform="translate(270, 100) scale(0.02) ">
 <use href="#uniEAA9" />
</g>

<g font-size="10" font-family="Verdana" >
<text x="270" y="150">uniEAA9</text>
</g>

<def>
 <g id="uniEAAA">
 <path d="M-18 -85C-18 -85 -22 -82 -22 -77C-22 -75 -21 -72 -18 -69L30 -21C38 -12 57 0 78 0C88 0 99 -3 110 -11C120 -20 184 -74 184 -74C184 -74 187 -77 191 -77C193 -77 195 -76 197 -74C203 -68 206 -65 208 -63C210 -61 212 -60 215 -60C218 -60 221 -61 224 -64C232 -71 238 -78 238 -78C238 -78 242 -82 242 -87C242 -90 241 -92 238 -95L190 -143C182 -152 163 -164 142 -164C132 -164 121 -161 110 -153C100 -144 36 -89 36 -89C36 -89 34 -86 30 -86C28 -86 26 -87 24 -89C18 -95 15 -98 13 -100C11 -102 9 -103 6 -103C3 -103 -1 -102 -4 -99C-12 -92 -18 -85 -18 -85Z" />
</g>
</def>
<g transform="translate(360, 100) scale(0.02) ">
 <use href="#uniEAAA" />
</g>

<g font-size="10" font-family="Verdana" >
<text x="360" y="150">uniEAAA</text>
</g>

<def>
 <g id="uniEAAD">
 <path d="M41 -255C37 -257 31 -260 27 -260C13 -260 3 -249 3 -235C3 -231 4 -224 7 -220L72 -135C69 -135 65 -135 62 -135C35 -135 13 -125 0 -114C-6 -109 -16 -99 -21 -93C-23 -90 -24 -86 -24 -84C-24 -79 -21 -77 -21 -77C-17 -73 -11 -66 -7 -63C-3 -60 0 -59 3 -59C6 -59 8 -60 10 -61C17 -68 25 -71 33 -71C51 -71 67 -57 67 -41C67 -36 65 -31 62 -27L8 44C5 48 3 54 3 59C3 72 14 83 27 83C31 83 37 81 41 79L249 -68C255 -72 259 -81 259 -88C259 -95 255 -104 249 -108Z" />
</g>
</def>
<g transform="translate(450, 100) scale(0.02) ">
 <use href="#uniEAAD" />
</g>

<g font-size="10" font-family="Verdana" >
<text x="450" y="150">uniEAAD</text>
</g>

<def>
 <g id="uniEAAE">
 <path d="M218 79C222 81 228 84 232 84C246 84 256 73 256 59C256 55 255 48 252 44L187 -41H197C224 -41 246 -51 259 -62C265 -67 275 -77 280 -83C282 -86 283 -90 283 -92C283 -97 280 -99 280 -99C276 -103 270 -110 266 -113C262 -116 259 -117 256 -117C253 -117 251 -116 249 -115C242 -108 234 -105 226 -105C208 -105 192 -119 192 -135C192 -140 194 -145 197 -149L251 -220C254 -224 256 -230 256 -235C256 -248 245 -259 232 -259C228 -259 222 -257 218 -255L10 -108C4 -104 0 -95 0 -88C0 -81 4 -72 10 -68Z" />
</g>
</def>
<g transform="translate(540, 100) scale(0.02) ">
 <use href="#uniEAAE" />
</g>

<g font-size="10" font-family="Verdana" >
<text x="540" y="150">uniEAAE</text>
</g>

<def>
 <g id="uniECA0">
 <path d="M29 -224C24 -224 23 -224 18 -224C7 -224 0 -216 0 -206C0 -196 0 197 0 205C0 214 7 222 18 222C23 222 24 222 29 222C37 222 46 213 46 205C46 197 46 -196 46 -206C46 -216 39 -224 29 -224ZM563 -224C559 -224 557 -224 552 -224C542 -224 535 -216 535 -206C535 -203 535 -163 535 -108C497 -144 434 -170 337 -170C240 -170 176 -144 139 -108C139 -163 139 -203 139 -206C139 -216 132 -224 121 -224C116 -224 115 -224 110 -224C100 -224 92 -216 92 -206C92 -196 92 197 92 205C92 214 100 222 110 222C115 222 116 222 121 222C130 222 139 213 139 205C139 203 139 162 139 107C176 143 240 169 337 169C434 169 497 143 535 107C535 162 535 202 535 205C535 214 542 222 552 222C557 222 559 222 563 222C572 222 581 213 581 205C581 197 581 -196 581 -206C581 -216 574 -224 563 -224ZM401 121C386 125 366 129 347 129C312 129 289 118 273 87C257 56 234 -25 232 -59C232 -61 232 -63 232 -65C232 -95 245 -113 273 -122C288 -126 308 -130 327 -130C361 -130 383 -122 401 -88C419 -55 442 25 442 57C442 90 431 111 401 121ZM655 -224C650 -224 648 -224 643 -224C633 -224 626 -216 626 -206C626 -196 626 197 626 205C626 214 633 222 643 222C648 222 650 222 655 222C663 222 672 213 672 205C672 197 672 -196 672 -206C672 -216 665 -224 655 -224Z" />
</g>
</def>
<g transform="translate(630, 100) scale(0.02) ">
 <use href="#uniECA0" />
</g>

<g font-size="10" font-family="Verdana" >
<text x="630" y="150">uniECA0</text>
</g>

<def>
 <g id="uniECA2">
 <path d="M132 -56C131 -61 131 -66 131 -71C131 -82 134 -92 139 -101C148 -113 163 -122 182 -126C199 -130 207 -133 241 -133H242C293 -133 309 -85 323 -37L327 -24C337 9 342 37 342 59C342 74 340 88 335 98C327 112 314 121 293 126C279 129 261 131 246 131C205 131 179 116 162 61C146 14 144 0 132 -56ZM238 -172C62 -172 0 -83 0 0C0 83 62 172 238 172C414 172 475 83 475 0C475 -83 414 -172 238 -172Z" />
</g>
</def>
<g transform="translate(720, 100) scale(0.02) ">
 <use href="#uniECA2" />
</g>

<g font-size="10" font-family="Verdana" >
<text x="720" y="150">uniECA2</text>
</g>

<def>
 <g id="uniECA3">
 <path d="M425 -863H370V-152C352 -162 329 -169 303 -172C296 -172 289 -173 281 -173C235 -173 186 -160 140 -135C54 -88 0 -11 0 55C0 74 4 91 13 108C32 144 70 165 121 170C129 171 136 172 144 172C190 172 239 158 285 133C370 87 423 12 425 -54ZM357 -26C336 -3 293 28 246 56C198 83 150 105 120 113C113 115 106 116 99 116C80 116 63 108 53 93C49 86 47 78 47 70C47 55 54 40 68 25C89 1 133 -30 180 -57C227 -85 274 -107 305 -115C307 -115 308 -115 308 -116C315 -118 322 -119 328 -119C347 -119 362 -111 372 -94C376 -87 378 -79 378 -71C378 -55 370 -38 357 -26Z" />
</g>
</def>
<g transform="translate(810, 100) scale(0.02) ">
 <use href="#uniECA3" />
</g>

<g font-size="10" font-family="Verdana" >
<text x="810" y="150">uniECA3</text>
</g>

<def>
 <g id="uniECA5">
 <path d="M424 -862L370 -863V-151C351 -162 328 -169 301 -172C294 -172 287 -173 279 -173C234 -173 185 -160 139 -135C86 -106 43 -65 19 -20C6 5 0 30 -1 53C-1 73 4 91 13 108C36 150 86 172 145 172C189 172 238 160 285 135C371 89 424 12 424 -54Z" />
</g>
</def>
<g transform="translate(900, 100) scale(0.02) ">
 <use href="#uniECA5" />
</g>

<g font-size="10" font-family="Verdana" >
<text x="900" y="150">uniECA5</text>
</g>

<def>
 <g id="uniECA7">
 <path d="M711 -263C705 -399 651 -476 619 -520C587 -563 551 -608 551 -608C509 -660 496 -683 474 -722C449 -765 442 -786 425 -836C425 -838 424 -839 424 -839C423 -842 416 -869 413 -880C413 -884 412 -886 412 -887C411 -891 407 -901 392 -901C391 -901 390 -901 388 -900C377 -899 370 -889 370 -880V-878V-863V-692V-645V-150C351 -161 328 -168 302 -171C295 -171 287 -172 280 -172C234 -172 185 -159 140 -134C87 -106 44 -65 20 -19C7 6 0 31 0 55C0 74 4 91 13 108C36 150 86 172 146 172C190 172 239 160 286 135C372 89 425 12 425 -54C425 -54 425 -54 425 -54V-584C498 -538 660 -413 660 -224C660 -121 649 -52 627 34C625 40 624 46 624 52C624 59 626 65 634 68C636 69 638 70 640 70C650 70 654 59 658 50V49C703 -62 711 -171 711 -238C711 -247 711 -256 711 -263Z" />
</g>
</def>
<g transform="translate(90, 200) scale(0.02) ">
 <use href="#uniECA7" />
</g>

<g font-size="10" font-family="Verdana" >
<text x="90" y="250">uniECA7</text>
</g>

<def>
 <g id="uniECA9">
 <path d="M563 -320C442 -435 425 -559 425 -609C492 -561 660 -460 660 -209C630 -253 596 -289 563 -320ZM700 -126C701 -130 711 -171 711 -288C711 -432 631 -538 551 -633C471 -728 432 -820 412 -912C410 -920 404 -926 390 -926C377 -926 370 -914 370 -906C370 -897 371 -224 371 -150C367 -152 337 -172 280 -172C144 -172 0 -56 0 54C0 165 120 172 146 172C271 172 425 69 425 -54C425 -178 425 -301 425 -315C485 -290 567 -214 609 -156C641 -110 662 -59 662 7C662 40 657 77 645 118C644 121 643 126 643 132C643 139 645 148 655 151C657 152 660 152 662 152C677 152 682 135 682 134C704 76 711 32 711 -37C711 -62 710 -91 700 -126Z" />
</g>
</def>
<g transform="translate(180, 200) scale(0.02) ">
 <use href="#uniECA9" />
</g>

<g font-size="10" font-family="Verdana" >
<text x="180" y="250">uniECA9</text>
</g>

<def>
 <g id="uniECAB">
 <path d="M426 -285C542 -247 663 -119 663 9C663 41 657 77 645 119C644 121 643 127 643 133C643 141 646 149 655 152C657 153 659 153 661 153C677 153 682 136 682 134C705 76 711 33 711 -36C711 -66 710 -99 693 -140C707 -184 711 -223 711 -279C711 -303 711 -329 703 -359C709 -401 711 -443 711 -485C711 -594 684 -675 619 -762C587 -805 555 -846 551 -850C495 -920 453 -993 425 -1079C425 -1080 425 -1081 424 -1082C423 -1084 417 -1111 414 -1123C411 -1135 407 -1143 393 -1143C381 -1143 371 -1136 371 -1123V-149C367 -151 337 -171 280 -171C144 -171 0 -55 0 55C0 165 120 173 146 173C271 173 425 70 426 -53ZM426 -828C570 -745 661 -621 661 -450C639 -484 608 -521 563 -562C454 -664 431 -783 426 -828ZM661 -200C639 -231 608 -267 563 -309C454 -411 431 -518 426 -557C486 -534 568 -462 609 -404C642 -357 663 -304 663 -237C663 -225 662 -212 661 -200Z" />
</g>
</def>
<g transform="translate(270, 200) scale(0.02) ">
 <use href="#uniECAB" />
</g>

<g font-size="10" font-family="Verdana" >
<text x="270" y="250">uniECAB</text>
</g>

<def>
 <g id="uniECB7">
 <path d="M78 -78C35 -78 0 -43 0 0C0 43 35 78 78 78C121 78 155 43 155 0C155 -43 121 -78 78 -78Z" />
</g>
</def>
<g transform="translate(360, 200) scale(0.02) ">
 <use href="#uniECB7" />
</g>

<g font-size="10" font-family="Verdana" >
<text x="360" y="250">uniECB7</text>
</g>

<def>
 <g id="uniED10">
 <path d="M156 -224C139 -244 118 -255 94 -255C40 -255 0 -200 0 -125C0 -50 41 5 94 5C147 5 187 -50 187 -123C187 -166 177 -197 156 -224ZM68 -214C72 -229 81 -236 93 -236C104 -236 112 -230 117 -218C121 -206 124 -169 124 -124C124 -87 121 -48 118 -36C114 -21 104 -14 93 -14C82 -14 74 -20 70 -32C65 -44 62 -82 62 -125C62 -163 65 -202 68 -214Z" />
</g>
</def>
<g transform="translate(450, 200) scale(0.02) ">
 <use href="#uniED10" />
</g>

<g font-size="10" font-family="Verdana" >
<text x="450" y="250">uniED10</text>
</g>

<def>
 <g id="uniED11">
 <path d="M104 -255H91C69 -238 43 -231 0 -230V-210H15C43 -210 47 -209 47 -190C47 -187 47 -184 47 -180V-52C47 -43 47 -37 47 -34C47 -28 47 -27 45 -25C41 -21 34 -20 15 -20H3V0H147V-19H136C116 -19 109 -21 106 -25C104 -28 104 -30 104 -52Z" />
</g>
</def>
<g transform="translate(540, 200) scale(0.02) ">
 <use href="#uniED11" />
</g>

<g font-size="10" font-family="Verdana" >
<text x="540" y="250">uniED11</text>
</g>

<def>
 <g id="uniED12">
 <path d="M165 -96L161 -78C157 -63 156 -59 152 -57C149 -54 148 -54 125 -54H56C69 -65 78 -72 92 -81C143 -114 153 -122 164 -135C176 -151 183 -170 183 -187C183 -226 145 -255 95 -255C46 -255 8 -223 8 -182C8 -157 22 -141 44 -141C62 -141 74 -152 74 -171C74 -187 67 -196 51 -203C47 -205 45 -207 45 -210C45 -222 64 -234 82 -234C107 -234 122 -219 122 -192C122 -162 110 -141 72 -100C32 -58 18 -41 0 -16V1C5 1 14 0 19 0H154C161 0 165 0 176 1L184 -96Z" />
</g>
</def>
<g transform="translate(630, 200) scale(0.02) ">
 <use href="#uniED12" />
</g>

<g font-size="10" font-family="Verdana" >
<text x="630" y="250">uniED12</text>
</g>

<def>
 <g id="uniED13">
 <path d="M155 -122C145 -128 137 -130 118 -133C132 -136 138 -138 146 -142C165 -152 175 -170 175 -191C175 -229 142 -255 91 -255C64 -255 43 -248 28 -235C16 -224 9 -209 9 -196C9 -177 24 -163 41 -163C59 -163 71 -174 71 -191C71 -201 67 -209 57 -218C55 -220 54 -221 54 -223C54 -229 67 -236 81 -236C104 -236 117 -220 117 -192C117 -160 107 -141 89 -141C86 -141 80 -142 77 -143C69 -145 67 -145 63 -145C54 -145 49 -142 49 -133C49 -125 55 -120 62 -120C65 -120 67 -120 73 -121C81 -121 84 -122 86 -122C108 -122 119 -104 119 -71C119 -34 104 -14 78 -14C63 -14 47 -21 47 -29C47 -31 48 -33 50 -35C61 -45 63 -50 63 -61C63 -78 50 -90 32 -90C13 -90 0 -76 0 -56C0 -20 35 5 87 5C113 5 138 -2 155 -13C171 -25 182 -47 182 -70C182 -92 172 -112 155 -122Z" />
</g>
</def>
<g transform="translate(720, 200) scale(0.02) ">
 <use href="#uniED13" />
</g>

<g font-size="10" font-family="Verdana" >
<text x="720" y="250">uniED13</text>
</g>

<def>
 <g id="uniED14">
 <path d="M154 -89V-200C154 -206 155 -229 156 -255H131L0 -92V-65H97V-52C97 -43 97 -37 97 -34C97 -28 97 -27 95 -24C92 -21 84 -20 67 -20H63V0H186V-19H182C167 -20 159 -21 157 -25C154 -29 154 -30 154 -52V-65H190V-89ZM97 -89H26L97 -179Z" />
</g>
</def>
<g transform="translate(810, 200) scale(0.02) ">
 <use href="#uniED14" />
</g>

<g font-size="10" font-family="Verdana" >
<text x="810" y="250">uniED14</text>
</g>

<def>
 <g id="uniED15">
 <path d="M19 -137C10 -128 9 -126 9 -121C9 -121 9 -120 9 -120C9 -113 15 -107 22 -107C22 -107 23 -107 23 -107C23 -107 23 -107 23 -107C31 -107 37 -114 37 -122C37 -123 37 -126 37 -128C46 -135 64 -141 76 -141C76 -141 76 -141 77 -141C103 -141 117 -121 117 -82C117 -39 102 -15 73 -15C57 -15 41 -23 41 -31C41 -33 42 -34 46 -36C60 -43 65 -49 65 -62C65 -80 53 -91 35 -91C14 -91 0 -77 0 -54C0 -18 32 5 82 5C141 5 181 -31 181 -84C181 -131 143 -166 92 -166C75 -166 64 -163 40 -152L45 -198C63 -195 77 -193 91 -193C120 -193 145 -203 158 -221C165 -230 171 -243 171 -251C171 -254 170 -255 168 -255C166 -255 164 -254 162 -254C149 -251 127 -249 97 -249C67 -249 49 -250 27 -255C25 -225 25 -222 21 -163Z" />
</g>
</def>
<g transform="translate(900, 200) scale(0.02) ">
 <use href="#uniED15" />
</g>

<g font-size="10" font-family="Verdana" >
<text x="900" y="250">uniED15</text>
</g>

<def>
 <g id="uniED24">
 <path d="M115 -154C91 -154 77 -147 62 -130C62 -147 66 -176 69 -191C78 -220 91 -236 110 -236C119 -236 125 -233 125 -228C125 -226 125 -224 122 -221C118 -216 115 -206 115 -200C115 -184 128 -172 147 -172C167 -172 180 -185 180 -205C180 -236 154 -255 113 -255C78 -255 52 -242 31 -214C10 -186 0 -153 0 -110C0 -74 7 -49 24 -28C42 -6 66 5 96 5C149 5 187 -31 187 -80C187 -124 157 -154 115 -154ZM67 -102C71 -118 82 -128 96 -127C115 -126 124 -109 124 -76C124 -35 114 -12 95 -12C75 -12 64 -33 64 -70C64 -83 65 -94 67 -102Z" />
</g>
</def>
<g transform="translate(90, 300) scale(0.02) ">
 <use href="#uniED24" />
</g>

<g font-size="10" font-family="Verdana" >
<text x="90" y="350">uniED24</text>
</g>

<def>
 <g id="uniED25">
 <path d="M180 -255C156 -251 136 -250 99 -250C64 -250 51 -251 12 -255L0 -147L20 -145L23 -161C30 -193 33 -198 46 -198C46 -198 46 -198 46 -198C48 -198 50 -198 52 -197C62 -197 84 -196 93 -196L126 -197H140L116 -161L98 -133C70 -89 70 -89 61 -69C54 -53 51 -42 51 -30C51 -9 64 5 84 5C107 5 120 -9 120 -35C120 -38 120 -41 120 -44C120 -104 129 -131 180 -240Z" />
</g>
</def>
<g transform="translate(180, 300) scale(0.02) ">
 <use href="#uniED25" />
</g>

<g font-size="10" font-family="Verdana" >
<text x="180" y="350">uniED25</text>
</g>

<def>
 <g id="uniED26">
 <path d="M187 -78C187 -111 170 -134 136 -148C146 -152 151 -155 156 -158C170 -168 178 -183 178 -200C178 -233 147 -255 100 -255C44 -255 8 -225 8 -178C8 -150 21 -129 50 -114C39 -110 34 -109 28 -106C10 -96 0 -80 0 -59C0 -20 35 5 90 5C148 5 187 -28 187 -78ZM47 -60C47 -79 53 -91 69 -104C84 -100 102 -95 111 -92C134 -84 142 -74 142 -56C142 -31 123 -14 94 -14C65 -14 47 -31 47 -60ZM133 -195C133 -179 127 -165 115 -156C100 -159 89 -163 82 -165C66 -171 55 -186 55 -202C55 -221 71 -236 94 -236C118 -236 133 -220 133 -195Z" />
</g>
</def>
<g transform="translate(270, 300) scale(0.02) ">
 <use href="#uniED26" />
</g>

<g font-size="10" font-family="Verdana" >
<text x="270" y="350">uniED26</text>
</g>

<def>
 <g id="uniED27">
 <path d="M71 -95C93 -95 109 -102 124 -119C124 -87 122 -69 117 -52C108 -26 95 -14 74 -14C66 -14 62 -16 62 -21C62 -23 63 -26 64 -27C71 -38 72 -40 72 -48C72 -65 59 -77 41 -77C22 -77 7 -62 7 -41C7 -13 33 5 74 5C111 5 141 -10 160 -39C178 -65 187 -99 187 -139C187 -172 180 -197 165 -217C146 -242 120 -255 90 -255C38 -255 0 -219 0 -169C0 -126 30 -95 71 -95ZM62 -177C62 -216 73 -236 93 -236C102 -236 110 -231 114 -220C119 -210 122 -191 122 -174C122 -142 111 -122 92 -122C83 -122 72 -129 68 -137C64 -146 62 -159 62 -177Z" />
</g>
</def>
<g transform="translate(360, 300) scale(0.02) ">
 <use href="#uniED27" />
</g>

<g font-size="10" font-family="Verdana" >
<text x="360" y="350">uniED27</text>
</g>

<def>
 <g id="uniED80">
 <path d="M191 -163C191 -219 164 -254 121 -254C90 -254 63 -238 38 -204C15 -173 0 -127 0 -85C0 -31 28 5 72 5C136 5 191 -73 191 -163ZM75 -169C88 -214 102 -236 119 -236C131 -236 138 -225 138 -206C138 -178 127 -116 114 -76C100 -29 89 -13 73 -13C60 -13 52 -23 52 -38C52 -64 63 -126 75 -169Z" />
</g>
</def>
<g transform="translate(450, 300) scale(0.02) ">
 <use href="#uniED80" />
</g>

<g font-size="10" font-family="Verdana" >
<text x="450" y="350">uniED80</text>
</g>

<def>
 <g id="uniED81">
 <path d="M167 -254H152C136 -242 90 -230 53 -228L49 -210H81C93 -210 97 -208 97 -201C97 -197 96 -191 94 -187L58 -52C55 -41 54 -35 53 -34C52 -28 51 -26 49 -24C45 -21 38 -20 21 -19H3L0 0H151L154 -19H136C113 -19 108 -21 108 -29C108 -33 109 -40 113 -52Z" />
</g>
</def>
<g transform="translate(540, 300) scale(0.02) ">
 <use href="#uniED81" />
</g>

<g font-size="10" font-family="Verdana" >
<text x="540" y="350">uniED81</text>
</g>

<def>
 <g id="uniED82">
 <path d="M179 -90L176 -83C162 -54 155 -49 130 -49H59C65 -54 75 -61 95 -74C157 -111 157 -111 164 -117C193 -139 208 -163 208 -188C208 -206 199 -226 186 -237C173 -248 153 -254 130 -254C78 -254 40 -222 40 -179C40 -156 55 -139 75 -139C93 -139 104 -151 104 -168C104 -180 97 -189 86 -194C74 -200 72 -201 72 -207C72 -219 90 -232 110 -232C133 -232 149 -216 149 -194C149 -176 141 -156 127 -139C117 -125 98 -108 63 -77C17 -37 0 -17 0 -3C0 -2 0 -1 0 0H164L195 -84Z" />
</g>
</def>
<g transform="translate(630, 300) scale(0.02) ">
 <use href="#uniED82" />
</g>

<g font-size="10" font-family="Verdana" >
<text x="630" y="350">uniED82</text>
</g>

<def>
 <g id="uniED83">
 <path d="M156 -118C149 -123 143 -125 125 -129C147 -134 157 -138 169 -146C185 -157 195 -176 195 -195C195 -230 163 -253 119 -253C74 -253 39 -228 39 -196C39 -178 51 -165 68 -165C84 -165 96 -176 96 -191C96 -199 91 -207 84 -212C78 -217 78 -217 78 -219C78 -227 93 -234 108 -234C128 -234 139 -221 139 -199C139 -184 131 -162 120 -151C113 -142 105 -139 95 -139C95 -139 95 -139 94 -139C91 -139 86 -140 83 -141C81 -142 77 -142 74 -142C74 -142 74 -142 74 -142C67 -142 62 -138 62 -130C62 -123 67 -118 75 -118C75 -118 75 -118 75 -118C77 -118 81 -119 83 -120C91 -122 91 -122 94 -122C110 -122 118 -110 118 -88C118 -69 113 -49 105 -35C97 -23 80 -13 66 -13C51 -13 36 -21 36 -30C36 -34 37 -35 43 -37C55 -40 62 -49 62 -62C62 -78 50 -89 33 -89C13 -89 0 -74 0 -53C0 -17 29 5 77 5C135 5 177 -29 177 -76C177 -92 168 -109 156 -118Z" />
</g>
</def>
<g transform="translate(720, 300) scale(0.02) ">
 <use href="#uniED83" />
</g>

<g font-size="10" font-family="Verdana" >
<text x="720" y="350">uniED83</text>
</g>

<def>
 <g id="uniED84">
 <path d="M197 -90H156L200 -254H166L0 -86V-66H95L92 -52C88 -41 88 -37 87 -34C85 -28 85 -28 82 -24C79 -21 71 -20 55 -19H46L43 0H173L176 -19H170C146 -19 141 -21 141 -29C141 -33 143 -40 146 -52L150 -66H193ZM102 -90H32L128 -189Z" />
</g>
</def>
<g transform="translate(810, 300) scale(0.02) ">
 <use href="#uniED84" />
</g>

<g font-size="10" font-family="Verdana" >
<text x="810" y="350">uniED84</text>
</g>

<def>
 <g id="uniED85">
 <path d="M38 -140C28 -135 24 -129 24 -122C24 -114 29 -109 36 -109C46 -109 53 -116 55 -130C73 -138 78 -139 88 -139C111 -139 124 -122 124 -93C124 -48 99 -13 66 -13C50 -13 36 -21 36 -29C36 -31 37 -32 41 -33C55 -38 62 -47 62 -61C62 -77 50 -88 33 -88C13 -88 0 -73 0 -52C0 -17 29 5 74 5C137 5 183 -38 183 -97C183 -136 155 -162 111 -162C94 -162 81 -159 63 -153L77 -199C105 -193 105 -193 122 -193C150 -193 170 -199 185 -212C196 -222 206 -240 206 -251C206 -253 205 -254 204 -254C203 -254 202 -254 200 -253C184 -246 169 -244 150 -244C126 -244 100 -247 71 -254Z" />
</g>
</def>
<g transform="translate(900, 300) scale(0.02) ">
 <use href="#uniED85" />
</g>

<g font-size="10" font-family="Verdana" >
<text x="900" y="350">uniED85</text>
</g>

<def>
 <g id="uniED86">
 <path d="M111 -155C94 -155 84 -152 70 -141C80 -176 88 -195 97 -209C108 -227 121 -236 135 -236C142 -236 147 -233 147 -229C147 -227 146 -226 144 -223C139 -217 136 -211 136 -204C136 -190 148 -179 165 -179C182 -179 195 -191 195 -209C195 -235 169 -254 135 -254C98 -254 67 -238 41 -204C15 -170 0 -125 0 -83C0 -29 29 5 77 5C131 5 176 -39 176 -91C176 -129 149 -155 111 -155ZM63 -105C70 -125 80 -134 95 -134C110 -134 118 -121 118 -98C118 -77 114 -53 106 -35C100 -20 89 -12 77 -12C62 -12 54 -25 54 -50C54 -69 58 -91 63 -105Z" />
</g>
</def>
<g transform="translate(90, 400) scale(0.02) ">
 <use href="#uniED86" />
</g>

<g font-size="10" font-family="Verdana" >
<text x="90" y="450">uniED86</text>
</g>

<def>
 <g id="uniED87">
 <path d="M190 -254C150 -251 130 -250 105 -250C81 -250 67 -251 37 -254L0 -161L16 -156L22 -167C38 -194 48 -202 70 -202H146L132 -184C37 -61 29 -48 29 -24C29 -7 42 5 61 5C73 5 84 -1 90 -10C94 -17 95 -22 99 -39C109 -94 124 -127 190 -240Z" />
</g>
</def>
<g transform="translate(180, 400) scale(0.02) ">
 <use href="#uniED87" />
</g>

<g font-size="10" font-family="Verdana" >
<text x="180" y="450">uniED87</text>
</g>

<def>
 <g id="uniED88">
 <path d="M182 -75C182 -100 169 -123 146 -138C182 -151 198 -170 198 -197C198 -231 169 -254 125 -254C73 -254 35 -222 35 -176C35 -154 43 -139 62 -122C47 -117 36 -111 27 -104C10 -91 0 -72 0 -54C0 -18 32 5 81 5C140 5 182 -28 182 -75ZM44 -55C44 -79 55 -98 76 -111C81 -108 82 -107 86 -105C100 -98 100 -98 103 -96C125 -84 135 -71 135 -54C135 -30 115 -12 88 -12C61 -12 44 -30 44 -55ZM158 -196C158 -176 151 -162 131 -148C112 -158 108 -160 103 -163C85 -174 79 -183 79 -198C79 -220 96 -236 120 -236C144 -236 158 -221 158 -196Z" />
</g>
</def>
<g transform="translate(270, 400) scale(0.02) ">
 <use href="#uniED88" />
</g>

<g font-size="10" font-family="Verdana" >
<text x="270" y="450">uniED88</text>
</g>

<def>
 <g id="uniED89">
 <path d="M84 -94C101 -94 111 -97 125 -108C115 -73 107 -54 98 -40C86 -22 74 -13 60 -13C53 -13 48 -16 48 -20C48 -22 49 -23 51 -26C56 -32 59 -38 59 -45C59 -59 47 -70 31 -70C13 -70 0 -58 0 -40C0 -14 26 5 60 5C97 5 128 -11 154 -45C180 -79 195 -124 195 -166C195 -220 166 -254 119 -254C64 -254 19 -210 19 -158C19 -120 46 -94 84 -94ZM89 -214C95 -229 106 -238 118 -238C133 -238 141 -224 141 -199C141 -180 137 -158 132 -144C125 -124 115 -115 100 -115C86 -115 77 -128 77 -151C77 -172 82 -196 89 -214Z" />
</g>
</def>
<g transform="translate(360, 400) scale(0.02) ">
 <use href="#uniED89" />
</g>

<g font-size="10" font-family="Verdana" >
<text x="360" y="450">uniED89</text>
</g>

<def>
 <g id="uniF400">
 <path d="M31 -500C57 -519 90 -558 90 -630C90 -720 41 -813 41 -869C41 -944 84 -986 86 -988C87 -989 88 -991 88 -992C88 -993 87 -994 87 -994C86 -995 86 -995 85 -995C84 -995 82 -994 80 -993C79 -991 1 -937 1 -856C1 -767 46 -706 46 -590C46 -569 38 -533 2 -503C1 -502 0 -501 0 -500C0 -499 1 -498 2 -497C38 -467 46 -431 46 -410C46 -294 1 -233 1 -144C1 -63 79 -8 80 -7C82 -6 84 -5 85 -5C86 -5 86 -5 87 -6C88 -6 88 -7 88 -8C87 -9 87 -11 86 -12C84 -14 41 -56 41 -131C41 -187 90 -280 90 -370C90 -442 57 -481 31 -500Z" />
</g>
</def>
<g transform="translate(450, 400) scale(0.02) ">
 <use href="#uniF400" />
</g>

<g font-size="10" font-family="Verdana" >
<text x="450" y="450">uniF400</text>
</g>

<def>
 <g id="uniF401">
 <path d="M8 -500C23 -519 51 -558 51 -630C51 -721 19 -814 19 -870C19 -931 48 -988 49 -990C50 -991 50 -992 50 -992C50 -993 50 -994 49 -994C49 -994 48 -995 47 -995C47 -995 46 -994 45 -993C44 -991 0 -937 0 -856C0 -767 29 -706 29 -591C29 -569 21 -533 1 -503C0 -502 -1 -501 -1 -500C-1 -498 0 -497 1 -496C21 -466 29 -431 29 -409C29 -294 0 -233 0 -144C0 -63 44 -7 45 -6C46 -5 48 -4 49 -5C50 -6 50 -6 50 -7C50 -8 50 -9 49 -10C48 -12 19 -69 19 -130C19 -186 51 -279 51 -370C51 -443 23 -481 8 -500Z" />
</g>
</def>
<g transform="translate(540, 400) scale(0.02) ">
 <use href="#uniF401" />
</g>

<g font-size="10" font-family="Verdana" >
<text x="540" y="450">uniF401</text>
</g>

<def>
 <g id="uniF402">
 <path d="M7 -500C20 -519 44 -558 44 -630C44 -721 16 -814 16 -870C16 -931 42 -988 43 -990C44 -991 44 -992 44 -992C44 -993 44 -994 43 -994C43 -994 42 -995 41 -995C41 -995 40 -994 39 -993C38 -991 0 -937 0 -856C0 -767 25 -706 25 -591C25 -569 19 -533 1 -503C1 -502 0 -501 0 -500C0 -498 1 -497 1 -496C19 -466 25 -431 25 -409C25 -294 0 -233 0 -144C0 -63 38 -7 39 -6C40 -5 42 -4 43 -5C44 -6 44 -6 44 -7C44 -8 44 -9 43 -10C42 -12 16 -69 16 -130C16 -186 44 -279 44 -370C44 -443 20 -481 7 -500Z" />
</g>
</def>
<g transform="translate(630, 400) scale(0.02) ">
 <use href="#uniF402" />
</g>

<g font-size="10" font-family="Verdana" >
<text x="630" y="450">uniF402</text>
</g>

<def>
 <g id="uniF403">
 <path d="M36 -14C36 -15 22 -29 22 -66V-413C22 -415 22 -418 22 -423C22 -440 21 -471 9 -500C21 -529 22 -560 22 -577C22 -582 22 -585 22 -587V-934C22 -971 36 -986 36 -986C37 -987 38 -989 38 -990C38 -991 38 -992 37 -993C36 -994 35 -995 34 -995C33 -995 32 -995 32 -994C30 -993 14 -977 14 -934V-587C14 -565 13 -531 1 -502H0C0 -502 0 -502 0 -501C0 -501 0 -501 0 -501C0 -501 0 -501 0 -501V-500C0 -499 0 -499 0 -499C0 -499 0 -499 0 -499C0 -498 0 -498 0 -498H1C13 -469 14 -435 14 -413V-66C14 -23 31 -7 32 -6C32 -5 33 -5 34 -5C35 -5 37 -6 37 -7C38 -8 38 -9 38 -10C38 -11 37 -13 36 -14Z" />
</g>
</def>
<g transform="translate(720, 400) scale(0.02) ">
 <use href="#uniF403" />
</g>

<g font-size="10" font-family="Verdana" >
<text x="720" y="450">uniF403</text>
</g>

<def>
 <g id="uniF40E">
 <path d="M471 -224C466 -224 465 -224 460 -224C450 -224 442 -216 442 -206C442 -203 442 -163 442 -108C405 -144 341 -170 244 -170C148 -170 84 -144 47 -108C47 -163 47 -203 47 -206C47 -216 40 -224 29 -224C24 -224 23 -224 18 -224C8 -224 0 -216 0 -206C0 -196 0 197 0 205C0 214 8 222 18 222C23 222 24 222 29 222C38 222 47 213 47 205C47 203 47 162 47 107C84 143 148 169 244 169C341 169 405 143 442 107C442 162 442 202 442 205C442 214 450 222 460 222C465 222 466 222 471 222C480 222 488 213 488 205C488 197 488 -196 488 -206C488 -216 481 -224 471 -224ZM309 121C294 125 274 128 255 128C220 128 196 118 180 87C164 56 142 -25 140 -59C140 -61 140 -63 140 -65C140 -95 153 -113 180 -122C196 -126 215 -130 234 -130C269 -130 291 -122 309 -88C327 -55 349 25 349 57C349 90 339 111 309 121Z" />
</g>
</def>
<g transform="translate(810, 400) scale(0.02) ">
 <use href="#uniF40E" />
</g>

<g font-size="10" font-family="Verdana" >
<text x="810" y="450">uniF40E</text>
</g>

<def>
 <g id="uniF40F">
 <path d="M0 125L289 200V75L0 0Z" />
</g>
</def>
<g transform="translate(900, 400) scale(0.02) ">
 <use href="#uniF40F" />
</g>

<g font-size="10" font-family="Verdana" >
<text x="900" y="450">uniF40F</text>
</g>
</svg>

