<?xml version="1.0" standalone="no"?>

<svg version="1.1"
    viewBox="0 0 1003 503"
     xmlns="http://www.w3.org/2000/svg">
  <desc>shows all the symbols from font</desc>
    <g fill="none" stroke="black" stroke-width="3" >
<line x1="0" y1="1.5" x2="1000" y2="1.5" />
<line x1="1.5" y1="0" x2="1.5" y2="500" />
</g>
<g fill="red" stroke="none" >
<rect x="0" y="0" width="3" height="3" />
<rect x="997" y="0" width="3" height="3" />
<rect x="0" y="497" width="3" height="3" />
</g>
<g font-size="14" font-family="Verdana" >
<text x="10" y="20">(0,0)</text>
<text x="940" y="20">(1000,0)</text>
<text x="10" y="490">(0,500)</text>
</g>
<g style="stroke:#D3D3D3;stroke-width:0.5px;stroke-dasharray:10, 10;stroke-opacity:1" >
<line x1="0.0" y1="0" x2="0.0" y2="500" />
<line x1="90.9090909090909" y1="0" x2="90.9090909090909" y2="500" />
<line x1="181.8181818181818" y1="0" x2="181.8181818181818" y2="500" />
<line x1="272.72727272727275" y1="0" x2="272.72727272727275" y2="500" />
<line x1="363.6363636363636" y1="0" x2="363.6363636363636" y2="500" />
<line x1="454.54545454545456" y1="0" x2="454.54545454545456" y2="500" />
<line x1="545.4545454545455" y1="0" x2="545.4545454545455" y2="500" />
<line x1="636.3636363636364" y1="0" x2="636.3636363636364" y2="500" />
<line x1="727.2727272727273" y1="0" x2="727.2727272727273" y2="500" />
<line x1="818.1818181818181" y1="0" x2="818.1818181818181" y2="500" />
<line x1="909.0909090909091" y1="0" x2="909.0909090909091" y2="500" />
<line x1="1000.0" y1="0" x2="1000.0" y2="500" />
<line x1="0" y1="0.0" x2="1000" y2="0.0" />
<line x1="0" y1="100.0" x2="1000" y2="100.0" />
<line x1="0" y1="200.0" x2="1000" y2="200.0" />
<line x1="0" y1="300.0" x2="1000" y2="300.0" />
<line x1="0" y1="400.0" x2="1000" y2="400.0" />
<line x1="0" y1="500.0" x2="1000" y2="500.0" />
</g>

<def>
<g id="uniF411">
 <path d="M306 -204L0 -125V0L306 -79Z" />
</g>
</def>
<g transform="translate(90, 100) scale(0.02) ">
 <use href="#uniF411" />
</g>

<g font-size="10" font-family="Verdana" >
<text x="90" y="150">uniF411</text>
</g>

<def>
<g id="uniF412">
 <path d="M0 125L289 200V75L0 0ZM0 313L289 388V263L0 188Z" />
</g>
</def>
<g transform="translate(180, 100) scale(0.02) ">
 <use href="#uniF412" />
</g>

<g font-size="10" font-family="Verdana" >
<text x="180" y="150">uniF412</text>
</g>

<def>
<g id="uniF414">
 <path d="M306 -204L0 -125V0L306 -79ZM306 -392L0 -313V-188L306 -267Z" />
</g>
</def>
<g transform="translate(270, 100) scale(0.02) ">
 <use href="#uniF414" />
</g>

<g font-size="10" font-family="Verdana" >
<text x="270" y="150">uniF414</text>
</g>

<def>
<g id="uniF415">
 <path d="M0 125L289 200V75L0 0ZM0 313L289 388V263L0 188ZM0 -63L289 13V-112L0 -188Z" />
</g>
</def>
<g transform="translate(360, 100) scale(0.02) ">
 <use href="#uniF415" />
</g>

<g font-size="10" font-family="Verdana" >
<text x="360" y="150">uniF415</text>
</g>

<def>
<g id="uniF417">
 <path d="M306 -204L0 -125V0L306 -79ZM306 -392L0 -313V-188L306 -267ZM306 -204L0 -125V0L306 -79ZM306 -17L0 63V188L306 108Z" />
</g>
</def>
<g transform="translate(450, 100) scale(0.02) ">
 <use href="#uniF417" />
</g>

<g font-size="10" font-family="Verdana" >
<text x="450" y="150">uniF417</text>
</g>

<def>
<g id="uniF418">
 <path d="M0 125L289 200V75L0 0ZM0 -62L289 13V-112L0 -187ZM0 -249L289 -174V-299L0 -374ZM0 313L289 388V263L0 188Z" />
</g>
</def>
<g transform="translate(540, 100) scale(0.02) ">
 <use href="#uniF418" />
</g>

<g font-size="10" font-family="Verdana" >
<text x="540" y="150">uniF418</text>
</g>

<def>
<g id="uniF41A">
 <path d="M306 -391L0 -312V-187L306 -266ZM306 -204L0 -125V1L306 -79ZM306 -16L0 63V188L306 109ZM306 171L0 251V376L306 296Z" />
</g>
</def>
<g transform="translate(630, 100) scale(0.02) ">
 <use href="#uniF41A" />
</g>

<g font-size="10" font-family="Verdana" >
<text x="630" y="150">uniF41A</text>
</g>

<def>
<g id="uniF41B">
 <path d="M0 125L289 201V76L0 0ZM0 -62L289 13V-112L0 -187ZM0 -249L289 -174V-299L0 -374ZM0 313L289 388V263L0 188ZM0 -436L289 -361V-486L0 -561Z" />
</g>
</def>
<g transform="translate(720, 100) scale(0.02) ">
 <use href="#uniF41B" />
</g>

<g font-size="10" font-family="Verdana" >
<text x="720" y="150">uniF41B</text>
</g>

<def>
<g id="uniF41D">
 <path d="M306 -392L0 -313V-188L306 -267ZM306 -204L0 -125V0L306 -79ZM306 -17L0 63V188L306 108ZM306 171L0 250V375L306 296ZM306 358L0 438V563L306 483Z" />
</g>
</def>
<g transform="translate(810, 100) scale(0.02) ">
 <use href="#uniF41D" />
</g>

<g font-size="10" font-family="Verdana" >
<text x="810" y="150">uniF41D</text>
</g>

<def>
<g id="uniF41E">
 <path d="M0 126L289 201V76L0 1ZM0 -62L289 13V-112L0 -187ZM0 -249L289 -174V-299L0 -374ZM0 313L289 388V263L0 188ZM0 -436L289 -361V-486L0 -561ZM0 -623L289 -548V-673L0 -748Z" />
</g>
</def>
<g transform="translate(900, 100) scale(0.02) ">
 <use href="#uniF41E" />
</g>

<g font-size="10" font-family="Verdana" >
<text x="900" y="150">uniF41E</text>
</g>

<def>
<g id="uniF420">
 <path d="M306 -392L0 -313V-188L306 -267ZM306 -205L0 -126V-1L306 -80ZM306 -17L0 62V187L306 108ZM306 170L0 250V375L306 295ZM306 358L0 437V562L306 483ZM306 545L0 625V750L306 670Z" />
</g>
</def>
<g transform="translate(90, 200) scale(0.02) ">
 <use href="#uniF420" />
</g>

<g font-size="10" font-family="Verdana" >
<text x="90" y="250">uniF420</text>
</g>

<def>
<g id="uniF421">
 <path d="M0 126L289 201V76L0 1ZM0 -62L289 13V-112L0 -187ZM0 -249L289 -174V-299L0 -374ZM0 313L289 388V263L0 188ZM0 -436L289 -361V-486L0 -561ZM0 -623L289 -548V-673L0 -748ZM0 -811L289 -736V-861L0 -936Z" />
</g>
</def>
<g transform="translate(180, 200) scale(0.02) ">
 <use href="#uniF421" />
</g>

<g font-size="10" font-family="Verdana" >
<text x="180" y="250">uniF421</text>
</g>

<def>
<g id="uniF423">
 <path d="M306 -392L0 -313V-188L306 -267ZM306 -204L0 -125V0L306 -79ZM306 -17L0 63V188L306 108ZM306 171L0 250V375L306 296ZM306 358L0 438V563L306 483ZM306 546L0 625V750L306 671ZM306 733L0 813V938L306 858Z" />
</g>
</def>
<g transform="translate(270, 200) scale(0.02) ">
 <use href="#uniF423" />
</g>

<g font-size="10" font-family="Verdana" >
<text x="270" y="250">uniF423</text>
</g>

<def>
<g id="uniF424">
 <path d="M0 126L289 201V76L0 1ZM0 -62L289 13V-112L0 -187ZM0 -249L289 -174V-299L0 -374ZM0 313L289 388V263L0 188ZM0 -436L289 -361V-486L0 -561ZM0 -623L289 -548V-673L0 -748ZM0 -811L289 -736V-861L0 -936ZM0 -998L289 -923V-1048L0 -1123Z" />
</g>
</def>
<g transform="translate(360, 200) scale(0.02) ">
 <use href="#uniF424" />
</g>

<g font-size="10" font-family="Verdana" >
<text x="360" y="250">uniF424</text>
</g>

<def>
<g id="uniF426">
 <path d="M306 -392L0 -313V-188L306 -267ZM306 -205L0 -126V-1L306 -80ZM306 -17L0 62V187L306 108ZM306 170L0 250V375L306 295ZM306 358L0 437V562L306 483ZM306 545L0 625V750L306 670ZM306 733L0 812V937L306 858ZM306 920L0 1000V1125L306 1045Z" />
</g>
</def>
<g transform="translate(450, 200) scale(0.02) ">
 <use href="#uniF426" />
</g>

<g font-size="10" font-family="Verdana" >
<text x="450" y="250">uniF426</text>
</g>

<def>
<g id="uniF4BA">
 <path d="M247 97C235 100 219 103 204 103C176 103 157 94 144 70C131 45 113 -20 112 -47C112 -49 112 -51 112 -52C112 -76 122 -90 144 -98C156 -101 172 -104 187 -104C215 -104 233 -97 247 -71C261 -44 279 20 279 46C279 72 271 89 247 97ZM377 -179C373 -179 372 -179 368 -179C360 -179 354 -173 354 -165C354 -163 354 -130 354 -87C324 -116 273 -136 195 -136C118 -136 67 -116 37 -87C37 -130 37 -163 37 -165C37 -173 31 -179 23 -179C19 -179 18 -179 14 -179C6 -179 0 -173 0 -165C0 -157 0 157 0 164C0 171 6 178 14 178C18 178 19 178 23 178C30 178 37 170 37 164C37 162 37 129 37 85C67 115 118 135 195 135C273 135 324 115 354 85C354 129 354 162 354 164C354 171 360 178 368 178C372 178 373 178 377 178C384 178 391 170 391 164C391 158 391 -157 391 -165C391 -173 385 -179 377 -179Z" />
</g>
</def>
<g transform="translate(540, 200) scale(0.02) ">
 <use href="#uniF4BA" />
</g>

<g font-size="10" font-family="Verdana" >
<text x="540" y="250">uniF4BA</text>
</g>

<def>
<g id="uniF5DD">
 <path d="M257 -155C207 -155 179 -124 174 -118L178 -439C178 -447 172 -453 164 -453H152C144 -453 138 -447 138 -439L143 162C143 170 149 176 157 176C159 176 163 175 165 174C250 131 339 48 339 -54C339 -105 315 -155 257 -155ZM372 203C375 199 457 146 457 -4C457 -154 374 -208 372 -212C370 -214 368 -215 365 -215C362 -215 359 -211 359 -208C359 -206 359 -204 360 -203C401 -133 415 -61 415 -4C415 101 369 172 360 194C359 197 359 198 359 199C359 202 362 206 365 206C368 206 371 204 372 203ZM85 207C86 208 89 210 92 210C95 210 98 206 98 203C98 202 98 201 97 198C88 176 42 105 42 0C42 -57 56 -129 97 -199C98 -200 98 -202 98 -204C98 -207 95 -211 92 -211C89 -211 87 -210 85 -208C83 -204 0 -150 0 0C0 150 82 203 85 207ZM171 127L174 -68C176 -77 191 -106 230 -106C266 -106 269 -72 269 -51C269 36 236 76 171 127Z" />
</g>
</def>
<g transform="translate(630, 200) scale(0.02) ">
 <use href="#uniF5DD" />
</g>

<g font-size="10" font-family="Verdana" >
<text x="630" y="250">uniF5DD</text>
</g>

<def>
<g id="uniF5DE">
 <path d="M309 -183C307 -185 304 -186 300 -186L298 -185C298 -185 297 -185 297 -185L171 -150V-325H143V170C143 181 152 183 161 183L287 148V323H314C314 157 314 -1 314 -172C314 -176 312 -181 309 -183ZM372 207C375 203 457 150 457 0C457 -150 374 -204 372 -208C370 -210 368 -211 365 -211C362 -211 359 -207 359 -204C359 -202 359 -200 360 -199C401 -129 415 -57 415 0C415 105 369 176 360 198C359 201 359 202 359 203C359 206 362 210 365 210C368 210 371 208 372 207ZM85 207C86 208 89 210 92 210C95 210 98 206 98 203C98 202 98 201 97 198C88 176 42 105 42 0C42 -57 56 -129 97 -199C98 -200 98 -202 98 -204C98 -207 95 -211 92 -211C89 -211 87 -210 85 -208C83 -204 0 -150 0 0C0 150 82 203 85 207ZM171 97V-67L287 -100V65Z" />
</g>
</def>
<g transform="translate(720, 200) scale(0.02) ">
 <use href="#uniF5DE" />
</g>

<g font-size="10" font-family="Verdana" >
<text x="720" y="250">uniF5DE</text>
</g>

<def>
<g id="uniF5DF">
 <path d="M371 -105C377 -106 382 -113 382 -119V-178C382 -188 375 -192 366 -192L333 -185V-334H305V-179L216 -161V-302H188V-155L149 -147C143 -146 138 -139 138 -133V-75C138 -64 146 -61 155 -61L188 -68V97L149 105C143 106 138 113 138 119V177C138 188 146 191 155 191L188 184V333H216V178L305 160V301H333V154L371 147C377 146 382 139 382 133V74C382 64 375 60 366 60L333 67V-98ZM435 207C438 203 520 150 520 0C520 -150 437 -204 435 -208C433 -210 431 -211 428 -211C425 -211 422 -207 422 -204C422 -202 422 -200 423 -199C464 -129 478 -57 478 0C478 105 432 176 423 198C422 201 422 202 422 203C422 206 425 210 428 210C431 210 434 208 435 207ZM85 207C86 208 89 210 92 210C95 210 98 206 98 203C98 202 98 201 97 198C88 176 42 105 42 0C42 -57 56 -129 97 -199C98 -200 98 -202 98 -204C98 -207 95 -211 92 -211C89 -211 87 -210 85 -208C83 -204 0 -150 0 0C0 150 82 203 85 207ZM216 -74L305 -92V73L216 92Z" />
</g>
</def>
<g transform="translate(810, 200) scale(0.02) ">
 <use href="#uniF5DF" />
</g>

<g font-size="10" font-family="Verdana" >
<text x="810" y="250">uniF5DF</text>
</g>

<def>
<g id="uniF5E0">
 <path d="M446 206C449 202 531 149 531 -1C531 -151 448 -205 446 -209C444 -211 442 -212 439 -212C436 -212 433 -208 433 -205C433 -203 433 -201 434 -200C475 -130 489 -58 489 -1C489 104 443 175 434 197C433 200 433 201 433 202C433 205 436 209 439 209C442 209 445 207 446 206ZM85 207C86 208 89 210 92 210C95 210 98 206 98 203C98 202 98 201 97 198C88 176 42 105 42 0C42 -57 56 -129 97 -199C98 -200 98 -202 98 -204C98 -207 95 -211 92 -211C89 -211 87 -210 85 -208C83 -204 0 -150 0 0C0 150 82 203 85 207ZM214 70L264 22H267L316 70V123C316 131 322 137 330 137H389C397 137 403 131 403 123V64C403 56 397 51 389 51H336L286 1V-1L336 -51H389C397 -51 403 -57 403 -65V-124C403 -132 397 -138 389 -138H330C322 -138 316 -132 316 -124V-71L267 -21H264L214 -71V-124C214 -132 209 -138 201 -138H142C134 -138 128 -132 128 -124V-65C128 -57 134 -51 142 -51H195L244 -2V1L195 51H142C134 51 128 56 128 64V123C128 131 134 137 142 137H201C209 137 214 131 214 123Z" />
</g>
</def>
<g transform="translate(900, 200) scale(0.02) ">
 <use href="#uniF5E0" />
</g>

<g font-size="10" font-family="Verdana" >
<text x="900" y="250">uniF5E0</text>
</g>

<def>
<g id="uniF5E1">
 <path d="M429 -155C379 -155 350 -125 345 -119L349 -439C349 -447 343 -453 335 -453H323C315 -453 309 -447 309 -439L312 -138C299 -148 283 -155 261 -155C211 -155 182 -124 177 -118L181 -439C181 -447 175 -453 167 -453H155C147 -453 141 -447 141 -439L146 163C146 171 152 177 160 177C162 177 166 175 168 174C226 145 277 103 313 49L314 163C314 171 320 177 328 177C330 177 334 175 336 174C422 131 512 48 512 -55C512 -107 488 -155 429 -155ZM545 199C548 195 630 142 630 -8C630 -158 547 -212 545 -216C543 -218 541 -219 538 -219C535 -219 532 -215 532 -212C532 -210 532 -208 533 -207C574 -137 588 -65 588 -8C588 97 542 168 533 190C532 193 532 194 532 195C532 198 535 202 538 202C541 202 544 200 545 199ZM85 207C86 208 89 210 92 210C95 210 98 206 98 203C98 202 98 201 97 198C88 176 42 105 42 0C42 -57 56 -129 97 -199C98 -200 98 -202 98 -204C98 -207 95 -211 92 -211C89 -211 87 -210 85 -208C83 -204 0 -150 0 0C0 150 82 203 85 207ZM174 128L177 -68C179 -77 194 -106 234 -106C270 -106 273 -72 273 -51C273 39 241 75 174 128ZM342 128L345 -68C347 -77 362 -106 402 -106C438 -106 441 -72 441 -51C441 39 409 75 342 128Z" />
</g>
</def>
<g transform="translate(90, 300) scale(0.02) ">
 <use href="#uniF5E1" />
</g>

<g font-size="10" font-family="Verdana" >
<text x="90" y="350">uniF5E1</text>
</g>

<def>
<g id="uniF630">
 <path d="M-149 -253V-198H77L-149 -41V-28V28H77L-149 185V253H151V197H-75L151 37V28V-28H-75L151 -188V-253Z" />
</g>
</def>
<g transform="translate(180, 300) scale(0.02) ">
 <use href="#uniF630" />
</g>

<g font-size="10" font-family="Verdana" >
<text x="180" y="350">uniF630</text>
</g>
</svg>

