<?xml version="1.0" standalone="no"?>

<svg version="1.1"
    viewBox="0 0 1003 503"
     xmlns="http://www.w3.org/2000/svg">
  <desc>shows all the symbols from font</desc>
    <g fill="none" stroke="black" stroke-width="3" >
<line x1="0" y1="1.5" x2="1000" y2="1.5" />
<line x1="1.5" y1="0" x2="1.5" y2="500" />
</g>
<g fill="red" stroke="none" >
<rect x="0" y="0" width="3" height="3" />
<rect x="997" y="0" width="3" height="3" />
<rect x="0" y="497" width="3" height="3" />
</g>
<g font-size="14" font-family="Verdana" >
<text x="10" y="20">(0,0)</text>
<text x="940" y="20">(1000,0)</text>
<text x="10" y="490">(0,500)</text>
</g>
<g style="stroke:#D3D3D3;stroke-width:0.5px;stroke-dasharray:10, 10;stroke-opacity:1" >
<line x1="0.0" y1="0" x2="0.0" y2="500" />
<line x1="90.9090909090909" y1="0" x2="90.9090909090909" y2="500" />
<line x1="181.8181818181818" y1="0" x2="181.8181818181818" y2="500" />
<line x1="272.72727272727275" y1="0" x2="272.72727272727275" y2="500" />
<line x1="363.6363636363636" y1="0" x2="363.6363636363636" y2="500" />
<line x1="454.54545454545456" y1="0" x2="454.54545454545456" y2="500" />
<line x1="545.4545454545455" y1="0" x2="545.4545454545455" y2="500" />
<line x1="636.3636363636364" y1="0" x2="636.3636363636364" y2="500" />
<line x1="727.2727272727273" y1="0" x2="727.2727272727273" y2="500" />
<line x1="818.1818181818181" y1="0" x2="818.1818181818181" y2="500" />
<line x1="909.0909090909091" y1="0" x2="909.0909090909091" y2="500" />
<line x1="1000.0" y1="0" x2="1000.0" y2="500" />
<line x1="0" y1="0.0" x2="1000" y2="0.0" />
<line x1="0" y1="100.0" x2="1000" y2="100.0" />
<line x1="0" y1="200.0" x2="1000" y2="200.0" />
<line x1="0" y1="300.0" x2="1000" y2="300.0" />
<line x1="0" y1="400.0" x2="1000" y2="400.0" />
<line x1="0" y1="500.0" x2="1000" y2="500.0" />
</g>

<def>
 <g id="uniE0D6">
 <path d="M391 142C391 68 391 -158 391 -164C391 -173 385 -178 377 -178C373 -178 372 -178 368 -178C360 -178 354 -172 354 -164C354 -162 354 -130 354 -86C324 -115 273 -135 195 -135C144 -135 104 -126 74 -112L37 -142C37 -155 37 -163 37 -164C37 -173 31 -178 23 -178C19 -178 18 -178 14 -178C8 -178 4 -176 2 -171L-44 -209C-47 -211 -50 -212 -53 -212C-56 -212 -60 -211 -63 -207C-65 -205 -66 -202 -66 -199C-66 -195 -64 -192 -61 -189L0 -142C0 -68 0 159 0 165C0 172 6 179 14 179C18 179 19 179 23 179C30 179 37 171 37 165C37 163 37 130 37 86C67 115 118 136 195 136C247 136 287 127 317 112L354 143C354 156 354 164 354 165C354 172 360 179 368 179C372 179 373 179 377 179C381 179 386 175 389 171L435 210C438 212 440 213 443 213C448 213 451 211 454 208C455 205 456 203 456 200C456 196 455 192 452 189ZM144 -97C156 -100 172 -103 187 -103C215 -103 233 -97 247 -70C261 -43 279 21 279 47C279 49 279 52 279 54L203 -6L117 -76C122 -86 131 -93 144 -97ZM54 -100C48 -95 42 -91 37 -86C37 -95 37 -104 37 -113ZM247 98C235 101 219 103 204 103C176 103 157 95 144 70C131 46 113 -19 112 -46C112 -48 111 -49 111 -50C111 -52 111 -53 112 -54L188 6L274 76C269 86 260 93 247 98ZM337 100C343 96 349 91 354 86C354 96 354 105 354 113Z" />
</g>
</def>
<g transform="translate(90, 100) scale(0.02) ">
 <use href="#uniE0D6" />
</g>

<g font-size="10" font-family="Verdana" >
<text x="90" y="150">uniE0D6</text>
</g>

<def>
 <g id="uniE0D7">
 <path d="M350 -179C343 -179 336 -172 336 -165V-32C288 -66 198 -129 196 -130C194 -132 191 -133 186 -133C182 -133 179 -132 177 -130L36 -31V-165C36 -172 30 -179 23 -179H14C6 -179 0 -172 0 -165V164C0 172 6 178 14 178H23C30 178 36 172 36 164V31L173 126C179 131 183 132 186 132C190 132 194 131 196 129C198 128 287 65 336 30V164C336 172 343 178 350 178H359C367 178 373 172 373 164V-165C373 -172 367 -179 359 -179ZM153 80L71 23L220 -81L302 -24Z" />
</g>
</def>
<g transform="translate(180, 100) scale(0.02) ">
 <use href="#uniE0D7" />
</g>

<g font-size="10" font-family="Verdana" >
<text x="180" y="150">uniE0D7</text>
</g>

<def>
 <g id="uniE0D8">
 <path d="M196 130C198 129 351 21 368 9C371 7 373 4 373 0C373 -3 371 -7 368 -9C351 -21 199 -127 196 -129C194 -131 191 -132 186 -132C182 -132 179 -131 177 -129L5 -8C2 -6 0 -3 0 1C0 4 1 7 3 9L173 127C179 132 183 133 186 133C190 133 194 132 196 130ZM153 81L71 24L220 -80L302 -23Z" />
</g>
</def>
<g transform="translate(270, 100) scale(0.02) ">
 <use href="#uniE0D8" />
</g>

<g font-size="10" font-family="Verdana" >
<text x="270" y="150">uniE0D8</text>
</g>

<def>
 <g id="uniE0D9">
 <path d="M330 9C333 7 335 4 335 0C335 -3 333 -7 330 -9L176 -130C174 -132 171 -133 167 -133C164 -133 161 -132 159 -130L5 -9C2 -7 0 -4 0 0C0 3 2 7 5 9L159 129C161 131 164 132 167 132C171 132 174 131 176 129ZM197 80L64 -23L138 -81L271 23Z" />
</g>
</def>
<g transform="translate(360, 100) scale(0.02) ">
 <use href="#uniE0D9" />
</g>

<g font-size="10" font-family="Verdana" >
<text x="360" y="150">uniE0D9</text>
</g>

<def>
 <g id="uniE0DB">
 <path d="M330 10C333 7 335 4 335 1C335 -3 333 -7 330 -9L176 -130C174 -132 171 -133 167 -133C164 -133 161 -132 159 -130L5 -9C2 -7 0 -3 0 0C0 4 2 7 5 10L159 129C161 131 164 132 167 132C171 132 174 131 176 129Z" />
</g>
</def>
<g transform="translate(450, 100) scale(0.02) ">
 <use href="#uniE0DB" />
</g>

<g font-size="10" font-family="Verdana" >
<text x="450" y="150">uniE0DB</text>
</g>

<def>
 <g id="uniE0EC">
 <path d="M230 -230C103 -230 0 -127 0 0C0 127 103 230 230 230C357 230 460 127 460 0C460 -127 357 -230 230 -230ZM230 206C116 206 24 113 24 0C24 -114 117 -206 230 -206C344 -206 436 -113 436 0C436 114 345 206 230 206ZM388 -96C391 -98 393 -102 393 -106V-107C393 -111 391 -114 389 -116L377 -128C374 -130 371 -132 367 -132C364 -132 360 -131 358 -129L231 -28L103 -129C101 -131 97 -132 94 -132C90 -132 88 -130 85 -128L72 -116C70 -114 68 -110 68 -106C68 -102 70 -98 73 -96L195 0L73 96C70 98 68 102 68 106C68 109 70 113 72 115L84 128C86 131 90 132 94 132C97 132 101 131 103 129L231 28L358 129C360 131 364 132 367 132C371 132 375 131 377 128L389 115C391 113 393 109 393 106C393 102 391 98 388 96L266 0Z" />
</g>
</def>
<g transform="translate(540, 100) scale(0.02) ">
 <use href="#uniE0EC" />
</g>

<g font-size="10" font-family="Verdana" >
<text x="540" y="150">uniE0EC</text>
</g>

<def>
 <g id="uniE0F5">
 <path d="M85 207C86 208 89 210 92 210C93 210 95 209 96 208C98 206 98 204 98 203C98 202 98 201 97 198C88 176 42 105 42 0C42 -57 56 -129 97 -199C98 -200 98 -202 98 -204C98 -206 97 -208 95 -210C94 -211 93 -211 92 -211C89 -211 87 -210 85 -208C83 -204 0 -150 0 0C0 150 82 203 85 207Z" />
</g>
</def>
<g transform="translate(630, 100) scale(0.02) ">
 <use href="#uniE0F5" />
</g>

<g font-size="10" font-family="Verdana" >
<text x="630" y="150">uniE0F5</text>
</g>

<def>
 <g id="uniE0F6">
 <path d="M13 207C16 203 98 150 98 0C98 -150 15 -204 13 -208C11 -210 9 -211 6 -211C5 -211 4 -211 3 -210C1 -208 0 -206 0 -204C0 -202 0 -200 1 -199C42 -129 56 -57 56 0C56 105 10 176 1 198C0 201 0 202 0 203C0 204 0 206 2 208C3 209 5 210 6 210C9 210 12 208 13 207Z" />
</g>
</def>
<g transform="translate(720, 100) scale(0.02) ">
 <use href="#uniE0F6" />
</g>

<g font-size="10" font-family="Verdana" >
<text x="720" y="150">uniE0F6</text>
</g>

<def>
 <g id="uniE11C">
 <path d="M337 -204C335 -207 331 -208 328 -208C325 -208 322 -207 320 -204L228 -112L143 -198C140 -200 137 -201 134 -201C131 -201 128 -200 126 -198C123 -195 122 -192 122 -189C122 -186 123 -183 126 -181L184 -122C168 -129 151 -133 132 -133C59 -133 0 -73 0 0C0 18 4 36 10 52L-48 -7C-50 -9 -53 -10 -57 -10C-60 -10 -63 -9 -65 -7C-67 -4 -69 -1 -69 2C-69 5 -67 8 -65 10L20 95L-72 187C-74 190 -75 193 -75 196C-75 199 -74 202 -72 204C-70 207 -66 208 -63 208C-60 208 -57 207 -55 204L37 112L122 198C125 200 128 201 131 201C134 201 137 200 139 198C142 195 143 192 143 189C143 186 142 183 139 181L81 122C97 129 114 133 133 133C206 133 265 73 265 0C265 -18 261 -36 255 -52L313 7C315 9 318 10 322 10C325 10 328 9 330 7C332 4 334 1 334 -2C334 -5 332 -8 330 -10L245 -95L337 -187C339 -190 340 -193 340 -196C340 -199 339 -202 337 -204Z" />
</g>
</def>
<g transform="translate(810, 100) scale(0.02) ">
 <use href="#uniE11C" />
</g>

<g font-size="10" font-family="Verdana" >
<text x="810" y="150">uniE11C</text>
</g>

<def>
 <g id="uniE11D">
 <path d="M337 -204C335 -207 331 -208 328 -208C325 -208 322 -207 320 -204L228 -112L143 -198C140 -200 137 -201 134 -201C131 -201 128 -200 126 -198C123 -195 122 -192 122 -189C122 -186 123 -183 126 -181L184 -122C168 -129 151 -133 133 -133C59 -133 0 -73 0 0C0 18 4 36 10 52L-48 -7C-50 -9 -53 -10 -57 -10C-60 -10 -63 -9 -65 -7C-67 -4 -69 -1 -69 2C-69 5 -67 8 -65 10L20 95L-72 187C-74 190 -75 193 -75 196C-75 199 -74 202 -72 204C-70 207 -66 208 -63 208C-60 208 -57 207 -55 204L37 112L122 198C125 200 128 201 131 201C134 201 137 200 139 198C142 195 143 192 143 189C143 186 142 183 139 181L81 122C97 129 114 133 133 133C206 133 265 73 265 0C265 -18 261 -36 255 -52L313 7C315 9 318 10 322 10C325 10 328 9 330 7C332 4 334 1 334 -2C334 -5 332 -8 330 -10L245 -95L337 -187C339 -190 340 -193 340 -196C340 -199 339 -202 337 -204ZM133 -101C156 -101 177 -92 195 -79L53 62C40 45 32 23 32 0C32 -55 77 -101 133 -101ZM133 101C109 101 88 92 70 79L212 -62C225 -45 233 -23 233 0C233 55 188 101 133 101Z" />
</g>
</def>
<g transform="translate(900, 100) scale(0.02) ">
 <use href="#uniE11D" />
</g>

<g font-size="10" font-family="Verdana" >
<text x="900" y="150">uniE11D</text>
</g>

<def>
 <g id="uniE120">
 <path d="M0 126H325V-626H0ZM50 -576H275V76H50Z" />
</g>
</def>
<g transform="translate(90, 200) scale(0.02) ">
 <use href="#uniE120" />
</g>

<g font-size="10" font-family="Verdana" >
<text x="90" y="250">uniE120</text>
</g>

<def>
 <g id="uniE121">
 <path d="M0 126H325V-626H0Z" />
</g>
</def>
<g transform="translate(180, 200) scale(0.02) ">
 <use href="#uniE121" />
</g>

<g font-size="10" font-family="Verdana" >
<text x="180" y="250">uniE121</text>
</g>

<def>
 <g id="uniE1D0">
 <path d="M23 -179C19 -179 18 -179 14 -179C6 -179 0 -173 0 -165C0 -157 0 157 0 164C0 171 6 178 14 178C18 178 19 178 23 178C30 178 37 170 37 164C37 158 37 -157 37 -165C37 -173 31 -179 23 -179ZM451 -179C447 -179 446 -179 442 -179C434 -179 428 -173 428 -165C428 -163 428 -130 428 -87C398 -116 347 -136 270 -136C192 -136 141 -116 111 -87C111 -130 111 -163 111 -165C111 -173 105 -179 97 -179C93 -179 92 -179 88 -179C80 -179 74 -173 74 -165C74 -157 74 157 74 164C74 171 80 178 88 178C92 178 93 178 97 178C104 178 111 170 111 164C111 162 111 129 111 85C141 115 192 135 270 135C347 135 398 115 428 85C428 129 428 162 428 164C428 171 434 178 442 178C446 178 447 178 451 178C458 178 465 170 465 164C465 158 465 -157 465 -165C465 -173 459 -179 451 -179ZM321 97C309 100 293 103 278 103C250 103 231 94 218 70C205 45 187 -20 186 -47C186 -49 186 -51 186 -53C186 -76 196 -90 218 -98C230 -101 246 -104 262 -104C289 -104 307 -97 321 -71C335 -44 354 20 354 46C354 72 345 89 321 97ZM524 -179C520 -179 519 -179 515 -179C507 -179 501 -173 501 -165C501 -157 501 157 501 164C501 171 507 178 515 178C519 178 520 178 524 178C531 178 538 170 538 164C538 158 538 -157 538 -165C538 -173 532 -179 524 -179Z" />
</g>
</def>
<g transform="translate(270, 200) scale(0.02) ">
 <use href="#uniE1D0" />
</g>

<g font-size="10" font-family="Verdana" >
<text x="270" y="250">uniE1D0</text>
</g>

<def>
 <g id="uniE1D1">
 <path d="M410 -177C402 -177 396 -171 396 -163V-141H37V-163C37 -171 31 -177 23 -177H14C6 -177 0 -171 0 -163V160C0 168 6 174 14 174H23C31 174 37 168 37 160V139H396V165C396 173 402 179 410 179H419C427 179 432 173 432 165V-163C432 -171 427 -177 419 -177ZM396 70H37V-73H396Z" />
</g>
</def>
<g transform="translate(360, 200) scale(0.02) ">
 <use href="#uniE1D1" />
</g>

<g font-size="10" font-family="Verdana" >
<text x="360" y="250">uniE1D1</text>
</g>

<def>
 <g id="uniE1D2">
 <path d="M187 -136C49 -136 0 -66 0 -1C0 64 49 134 187 134C325 134 373 64 373 -1C373 -66 325 -136 187 -136ZM238 96C226 100 210 102 195 102C167 102 148 94 135 69C122 44 104 -20 103 -47C101 -74 111 -90 135 -98C147 -102 163 -104 178 -104C206 -104 224 -98 238 -71C252 -44 270 20 270 45C270 71 262 89 238 96Z" />
</g>
</def>
<g transform="translate(450, 200) scale(0.02) ">
 <use href="#uniE1D2" />
</g>

<g font-size="10" font-family="Verdana" >
<text x="450" y="250">uniE1D2</text>
</g>

<def>
 <g id="uniE1D3">
 <path d="M300 -102C279 -122 248 -133 213 -133C116 -133 0 -52 0 41C0 84 31 132 112 132C216 132 325 47 325 -41V-875H300ZM186 43C183 45 110 85 75 85C42 85 35 58 35 49C35 7 135 -42 139 -44C143 -46 214 -86 250 -86C274 -86 290 -72 290 -50C290 -7 189 41 186 43Z" />
</g>
</def>
<g transform="translate(540, 200) scale(0.02) ">
 <use href="#uniE1D3" />
</g>

<g font-size="10" font-family="Verdana" >
<text x="540" y="250">uniE1D3</text>
</g>

<def>
 <g id="uniE1D4">
 <path d="M25 102C46 122 77 133 112 133C209 133 325 51 325 -41C325 -84 294 -132 213 -132C109 -132 0 -47 0 41V875H25ZM139 -43C143 -45 215 -85 250 -85C283 -85 290 -58 290 -49C290 -7 190 42 186 44C183 46 111 86 75 86C51 86 35 71 35 50C35 7 136 -41 139 -43Z" />
</g>
</def>
<g transform="translate(630, 200) scale(0.02) ">
 <use href="#uniE1D4" />
</g>

<g font-size="10" font-family="Verdana" >
<text x="630" y="250">uniE1D4</text>
</g>

<def>
 <g id="uniE1D5">
 <path d="M300 -875V-103C279 -123 248 -134 213 -134C116 -134 0 -52 0 40C0 83 31 131 112 131C216 131 325 46 325 -42V-875Z" />
</g>
</def>
<g transform="translate(720, 200) scale(0.02) ">
 <use href="#uniE1D5" />
</g>

<g font-size="10" font-family="Verdana" >
<text x="720" y="250">uniE1D5</text>
</g>

<def>
 <g id="uniE1D6">
 <path d="M25 875V102C45 122 77 133 112 133C209 133 325 52 325 -41C325 -84 294 -132 213 -132C109 -132 0 -47 0 41V875Z" />
</g>
</def>
<g transform="translate(810, 200) scale(0.02) ">
 <use href="#uniE1D6" />
</g>

<g font-size="10" font-family="Verdana" >
<text x="810" y="250">uniE1D6</text>
</g>

<def>
 <g id="uniE1D7">
 <path d="M325 -630C438 -576 549 -431 549 -302C549 -230 530 -156 504 -84C502 -78 500 -73 500 -69C500 -65 502 -62 506 -60C508 -59 509 -59 511 -59C517 -59 523 -63 527 -70C577 -159 589 -273 589 -334C589 -463 522 -539 510 -558C498 -577 418 -681 391 -723C353 -780 336 -837 335 -841C334 -844 325 -879 325 -880C324 -884 318 -888 313 -888C306 -888 300 -882 300 -875V-101C279 -121 248 -132 213 -132C116 -132 0 -50 0 42C0 85 31 133 112 133C216 133 325 48 325 -40Z" />
</g>
</def>
<g transform="translate(900, 200) scale(0.02) ">
 <use href="#uniE1D7" />
</g>

<g font-size="10" font-family="Verdana" >
<text x="900" y="250">uniE1D7</text>
</g>

<def>
 <g id="uniE1D8">
 <path d="M0 875C0 883 6 888 13 888C18 888 24 885 25 881C25 879 34 844 35 841C36 837 45 799 80 741C120 675 180 628 230 559C279 489 309 423 309 334C309 249 291 177 245 89C291 56 325 10 325 -40C325 -83 294 -131 213 -131C114 -131 11 -55 1 29C0 31 0 33 0 35C0 38 0 41 0 44ZM25 103C46 123 77 134 112 134C147 134 185 123 219 105C254 185 267 236 267 302C267 386 238 428 220 459C162 557 74 611 25 632Z" />
</g>
</def>
<g transform="translate(90, 300) scale(0.02) ">
 <use href="#uniE1D8" />
</g>

<g font-size="10" font-family="Verdana" >
<text x="90" y="350">uniE1D8</text>
</g>

<def>
 <g id="uniE1D9">
 <path d="M579 -405C579 -457 565 -504 531 -549C484 -610 433 -662 395 -717C357 -772 332 -864 329 -875C328 -882 326 -887 315 -887C303 -887 300 -881 300 -875V-101C279 -121 248 -132 213 -132C116 -132 0 -50 0 42C0 85 31 133 112 133C216 133 325 48 325 -40V-480C414 -432 521 -318 521 -211C521 -171 512 -121 498 -84C496 -79 494 -74 494 -68C494 -62 499 -56 506 -56C513 -56 517 -64 521 -70C539 -98 565 -152 565 -208C565 -237 563 -261 560 -282C570 -319 579 -356 579 -405ZM534 -364C526 -380 517 -392 509 -404C482 -439 452 -470 403 -519C369 -554 343 -591 336 -639C387 -639 452 -570 487 -523C527 -472 535 -431 535 -393C535 -383 535 -373 534 -364Z" />
</g>
</def>
<g transform="translate(180, 300) scale(0.02) ">
 <use href="#uniE1D9" />
</g>

<g font-size="10" font-family="Verdana" >
<text x="180" y="350">uniE1D9</text>
</g>

<def>
 <g id="uniE1DA">
 <path d="M37 637C38 632 39 628 39 625C46 600 54 563 113 518C171 473 240 418 267 369C267 446 246 495 220 528C159 603 85 624 37 637ZM0 39V875C0 883 7 891 15 891C23 891 28 883 30 875C45 772 76 742 116 705C170 655 309 579 309 398C309 365 306 329 300 293C304 280 306 262 306 236C306 169 271 120 240 91C289 59 325 10 325 -41C325 -84 294 -132 213 -132C109 -132 0 -48 0 39ZM25 460V102C46 122 77 133 112 133C146 133 183 123 216 106C245 138 265 172 265 231C265 244 264 257 261 269L260 272C254 293 243 311 227 330C162 405 73 446 25 460Z" />
</g>
</def>
<g transform="translate(270, 300) scale(0.02) ">
 <use href="#uniE1DA" />
</g>

<g font-size="10" font-family="Verdana" >
<text x="270" y="350">uniE1DA</text>
</g>

<def>
 <g id="uniE1DB">
 <path d="M325 -480C413 -434 520 -320 520 -215C520 -171 513 -126 498 -85C496 -80 494 -74 494 -69C494 -64 496 -60 501 -58C503 -57 505 -56 506 -56C536 -60 565 -185 565 -209C565 -237 563 -262 560 -283C570 -321 579 -364 579 -414C579 -439 575 -464 568 -487C575 -515 579 -545 579 -581C579 -633 565 -680 531 -725C483 -787 433 -838 395 -894C357 -949 332 -1042 329 -1052C328 -1059 326 -1064 315 -1064C303 -1064 300 -1059 300 -1052V-873V-814V-101C279 -121 248 -132 213 -132C116 -132 0 -50 0 42C0 85 31 133 112 133C216 133 325 49 325 -40ZM535 -552C534 -554 532 -556 531 -558C483 -620 401 -690 363 -745C348 -767 340 -792 335 -814C386 -814 451 -745 487 -698C527 -646 535 -605 535 -566C535 -561 535 -557 535 -552ZM534 -365C526 -380 517 -393 509 -404C482 -439 452 -470 403 -519C368 -555 343 -591 335 -640C387 -640 452 -577 487 -531C528 -478 535 -436 535 -397C535 -386 535 -376 534 -365Z" />
</g>
</def>
<g transform="translate(360, 300) scale(0.02) ">
 <use href="#uniE1DB" />
</g>

<g font-size="10" font-family="Verdana" >
<text x="360" y="350">uniE1DB</text>
</g>

<def>
 <g id="uniE1DC">
 <path d="M0 1067C0 1074 7 1083 15 1083C23 1083 28 1075 30 1067C45 963 76 944 116 905C170 855 309 778 309 593C309 557 305 516 299 476C302 459 305 442 306 426C306 420 306 414 306 408C306 405 306 403 306 400C306 370 301 342 295 316C302 294 306 269 306 239C306 171 271 120 240 91C289 59 325 10 325 -41C325 -84 294 -132 213 -132C109 -132 0 -47 0 41ZM225 711C163 788 85 813 35 826C40 804 49 780 63 758C101 703 190 657 241 598C251 587 260 575 267 562C267 637 251 679 225 711ZM25 460V102C46 122 77 133 112 133C146 133 183 123 216 106C245 138 265 172 265 231C265 268 253 299 227 330C162 405 73 446 25 460ZM266 396C266 446 249 488 218 526C179 574 124 606 37 639C38 634 39 629 39 625C46 600 57 566 113 518C172 468 227 431 254 396C258 391 262 385 265 380C266 385 266 391 266 396Z" />
</g>
</def>
<g transform="translate(450, 300) scale(0.02) ">
 <use href="#uniE1DC" />
</g>

<g font-size="10" font-family="Verdana" >
<text x="450" y="350">uniE1DC</text>
</g>

<def>
 <g id="uniE1DD">
 <path d="M531 -558C483 -620 401 -690 363 -746C348 -767 340 -792 335 -814C386 -814 451 -752 487 -705C528 -652 535 -611 535 -572C535 -566 535 -559 535 -553C533 -555 532 -557 531 -558ZM112 133C216 133 325 48 325 -40V-481C426 -427 520 -318 520 -201C520 -176 513 -126 498 -85C496 -80 494 -75 494 -70C494 -65 496 -61 501 -59C503 -58 504 -57 506 -57C513 -57 517 -65 521 -71C539 -100 565 -153 565 -210C565 -238 563 -263 560 -284C570 -321 579 -366 579 -414C579 -440 575 -465 567 -488C574 -518 579 -552 579 -588C579 -616 574 -642 566 -668C574 -698 579 -730 579 -769C579 -821 565 -868 531 -913C483 -975 433 -1026 395 -1082C357 -1137 332 -1230 329 -1240C328 -1247 326 -1252 315 -1252C303 -1252 300 -1247 300 -1240V-101C279 -121 248 -132 213 -132C116 -132 0 -51 0 42C0 85 31 133 112 133ZM534 -727C533 -729 532 -731 531 -732C483 -794 401 -868 363 -923C346 -949 337 -978 333 -1002H334C386 -1002 451 -933 487 -886C527 -834 535 -793 535 -755C535 -746 535 -737 534 -727ZM534 -366C526 -381 517 -393 508 -404C482 -439 452 -471 403 -520C368 -555 343 -592 335 -640C387 -640 451 -578 487 -531C528 -478 535 -437 535 -398C535 -387 535 -376 534 -366Z" />
</g>
</def>
<g transform="translate(540, 300) scale(0.02) ">
 <use href="#uniE1DD" />
</g>

<g font-size="10" font-family="Verdana" >
<text x="540" y="350">uniE1DD</text>
</g>

<def>
 <g id="uniE1DE">
 <path d="M0 1254C0 1261 7 1270 15 1270C23 1270 29 1262 30 1254C45 1150 76 1130 116 1092C170 1042 309 965 309 780C309 744 306 704 299 664C303 648 305 631 306 615C307 608 307 602 307 595C307 592 307 590 307 587C307 555 301 525 294 498C301 473 304 449 306 425C306 420 307 414 307 408C307 405 307 402 307 400C306 370 302 341 296 316C302 294 306 269 306 239C306 170 271 120 241 91C289 58 325 10 325 -41C325 -84 294 -132 213 -132C109 -132 0 -47 0 41ZM225 898C164 974 86 999 36 1013C41 992 50 968 64 948C102 893 190 846 241 788C251 777 260 765 267 752C267 825 251 866 225 898ZM64 758C102 703 190 657 241 598C251 588 259 577 265 565C266 572 266 579 266 585C266 636 249 677 218 716C179 764 124 796 35 829C40 806 48 781 64 758ZM25 460V102C46 122 77 133 112 133C146 133 183 123 216 106C245 138 266 171 266 231C266 268 253 299 227 329C162 405 74 446 25 460ZM266 396C266 446 249 487 218 526C179 574 125 606 37 639C38 633 39 629 40 625C46 600 57 565 113 518C173 468 227 431 254 396C258 391 262 385 266 380C266 385 266 391 266 396Z" />
</g>
</def>
<g transform="translate(630, 300) scale(0.02) ">
 <use href="#uniE1DE" />
</g>

<g font-size="10" font-family="Verdana" >
<text x="630" y="350">uniE1DE</text>
</g>

<def>
 <g id="uniE1DF">
 <path d="M566 -868C574 -897 579 -929 579 -968C579 -1019 565 -1075 531 -1120C483 -1181 433 -1233 395 -1288C357 -1343 332 -1429 329 -1438C328 -1445 326 -1451 315 -1451C303 -1451 300 -1445 300 -1438V-873V-674V-101C279 -121 248 -132 213 -132C116 -132 0 -50 0 42C0 85 31 133 112 133C216 133 325 48 325 -40V-480C412 -434 520 -320 520 -215C520 -171 513 -126 498 -85C496 -80 494 -74 494 -69C494 -64 496 -61 501 -58C503 -57 505 -56 506 -57C536 -61 565 -185 565 -209C565 -237 563 -261 560 -282C570 -320 579 -363 579 -413C579 -440 574 -467 566 -492C574 -524 579 -560 579 -600C579 -628 574 -655 565 -680C573 -713 579 -749 579 -790C579 -817 575 -843 566 -868ZM534 -929C533 -930 532 -932 531 -934C483 -996 401 -1070 363 -1125C346 -1150 337 -1179 333 -1204H334C386 -1204 451 -1140 487 -1092C527 -1041 535 -996 535 -956C535 -946 535 -937 534 -929ZM333 -1016H334C386 -1016 451 -954 487 -906C528 -854 535 -813 535 -774C535 -762 534 -751 534 -740C533 -741 532 -742 531 -744C483 -806 401 -880 363 -935C345 -961 337 -991 333 -1016ZM534 -553C533 -554 532 -555 531 -557C483 -619 401 -689 363 -744C345 -770 337 -801 333 -826H334C386 -826 451 -764 487 -717C528 -664 535 -623 535 -584C535 -574 535 -563 534 -553ZM534 -365C526 -380 517 -393 508 -404C482 -439 452 -466 403 -515C364 -554 342 -585 334 -639C386 -639 451 -577 487 -530C528 -477 535 -436 535 -397C535 -386 535 -376 534 -365Z" />
</g>
</def>
<g transform="translate(720, 300) scale(0.02) ">
 <use href="#uniE1DF" />
</g>

<g font-size="10" font-family="Verdana" >
<text x="720" y="350">uniE1DF</text>
</g>

<def>
 <g id="uniE1E0">
 <path d="M0 1442C0 1449 7 1457 15 1457C23 1457 28 1449 30 1441C45 1338 76 1318 116 1280C170 1229 309 1152 309 968C309 931 306 891 299 851C303 835 305 818 306 802C306 795 306 789 306 782C306 779 306 777 306 774C306 743 301 713 294 686C301 662 304 638 306 615C306 608 306 601 306 595C306 592 306 589 306 587C306 555 300 524 294 498C300 473 304 448 306 425C306 419 306 414 306 408C306 405 306 402 306 399C306 370 301 341 295 316C302 294 306 268 306 239C306 170 271 120 241 91C289 58 325 10 325 -41C325 -84 294 -132 213 -132C109 -132 0 -47 0 41ZM241 788C250 777 258 766 265 755C266 760 266 766 266 772C266 822 249 864 218 903C179 950 124 983 35 1016C40 994 49 969 63 948C101 893 190 846 241 788ZM25 459V102C46 122 77 133 112 133C146 133 183 123 216 106C245 138 265 171 265 231C265 268 253 299 227 329C162 404 73 446 25 459ZM225 1086C163 1162 85 1187 36 1201C41 1179 49 1155 63 1135C101 1080 190 1033 241 975C251 963 260 951 267 939C267 1012 251 1053 225 1086ZM265 565C266 572 266 579 266 585C266 635 249 677 218 716C179 763 124 796 35 829C39 806 48 780 63 758C101 703 190 656 241 598C250 588 258 577 265 565ZM113 518C172 468 227 430 254 395C258 390 262 385 265 379C266 385 266 390 266 396C266 446 249 487 218 526C179 573 124 605 37 639C38 633 39 628 39 625C46 599 57 565 113 518Z" />
</g>
</def>
<g transform="translate(810, 300) scale(0.02) ">
 <use href="#uniE1E0" />
</g>

<g font-size="10" font-family="Verdana" >
<text x="810" y="350">uniE1E0</text>
</g>

<def>
 <g id="uniE1E1">
 <path d="M334 -1014C386 -1014 451 -951 487 -904C528 -852 535 -810 535 -772C535 -760 535 -749 534 -738C533 -739 532 -740 531 -742C483 -804 401 -878 363 -933C345 -959 337 -989 333 -1014ZM334 -1201C386 -1201 451 -1139 487 -1092C528 -1040 535 -998 535 -959C535 -949 535 -938 534 -927C533 -929 532 -930 531 -931C483 -993 401 -1067 363 -1123C346 -1148 337 -1177 333 -1201ZM334 -1388C386 -1388 451 -1324 487 -1277C527 -1226 535 -1181 535 -1141C535 -1132 535 -1123 534 -1114C533 -1116 532 -1118 531 -1119C483 -1181 401 -1255 363 -1311C346 -1336 337 -1364 333 -1388ZM325 -478C413 -432 520 -318 520 -213C520 -169 513 -124 498 -83C496 -78 494 -72 494 -67C494 -62 496 -58 501 -56C503 -55 505 -54 506 -54C536 -58 565 -183 565 -207C565 -235 563 -259 560 -280C570 -318 579 -361 579 -411C579 -438 574 -465 566 -490C574 -522 579 -558 579 -598C579 -626 574 -652 565 -678C573 -711 579 -747 579 -787C579 -815 574 -842 566 -867C574 -899 579 -935 579 -975C579 -1002 575 -1028 566 -1053C574 -1082 579 -1114 579 -1152C579 -1204 565 -1259 531 -1304C483 -1366 433 -1417 395 -1473C357 -1528 332 -1613 329 -1623C328 -1630 326 -1635 315 -1635C303 -1635 300 -1630 300 -1623V-871V-576V-99C279 -119 248 -130 213 -130C116 -130 0 -48 0 44C0 87 31 135 112 135C216 135 325 51 325 -38ZM534 -550C533 -552 532 -553 531 -555C483 -617 401 -687 363 -742C345 -768 337 -798 333 -824H334C386 -824 451 -762 487 -714C528 -662 535 -621 535 -582C535 -571 535 -561 534 -550ZM534 -363C526 -378 517 -391 509 -402C482 -437 452 -463 403 -512C364 -552 342 -583 334 -637C386 -637 451 -575 487 -527C528 -475 535 -433 535 -395C535 -384 535 -373 534 -363Z" />
</g>
</def>
<g transform="translate(900, 300) scale(0.02) ">
 <use href="#uniE1E1" />
</g>

<g font-size="10" font-family="Verdana" >
<text x="900" y="350">uniE1E1</text>
</g>

<def>
 <g id="uniE1E2">
 <path d="M0 1629C0 1636 7 1645 15 1645C23 1645 28 1637 30 1629C45 1525 76 1505 116 1467C170 1417 309 1340 309 1155C309 1119 306 1079 299 1039C303 1022 305 1005 306 990C306 983 306 976 306 969C306 967 306 964 306 962C306 930 300 900 294 873C301 849 304 825 306 802C306 795 306 788 306 782C306 779 306 777 306 774C306 742 301 712 294 686C301 662 304 637 306 615C306 608 306 601 306 594C306 592 306 589 306 587C306 555 300 524 294 497C300 473 304 448 306 425C306 419 306 413 306 408C306 405 306 402 306 399C306 369 301 341 295 315C302 293 306 268 306 238C306 170 271 120 241 91C289 58 325 10 325 -41C325 -84 294 -132 213 -132C109 -132 0 -48 0 41ZM225 1273C163 1349 85 1374 36 1388C41 1367 49 1343 63 1322C101 1267 190 1221 241 1162C251 1151 260 1139 267 1126C267 1199 251 1241 225 1273ZM63 1134C101 1079 190 1033 241 974C250 964 258 953 265 941C266 947 266 953 266 959C266 1009 249 1051 218 1090C179 1138 124 1170 35 1204C40 1181 48 1156 63 1134ZM266 771C266 822 249 864 218 903C179 950 124 982 35 1016C40 993 49 969 63 947C101 892 190 846 241 787C250 777 258 766 265 754C266 760 266 766 266 771ZM63 758C101 702 190 656 241 598C250 587 258 576 265 565C266 572 266 578 266 585C266 635 249 677 218 715C179 763 124 795 35 829C39 806 48 780 63 758ZM25 459V102C46 122 77 133 112 133C146 133 183 122 216 105C245 138 265 171 265 230C265 268 253 299 227 329C162 404 73 446 25 459ZM266 395C266 446 249 487 218 526C179 573 124 605 37 638C38 633 39 628 39 624C46 599 57 565 113 518C172 467 227 430 254 395C258 390 262 385 265 379C266 385 266 390 266 395Z" />
</g>
</def>
<g transform="translate(90, 400) scale(0.02) ">
 <use href="#uniE1E2" />
</g>

<g font-size="10" font-family="Verdana" >
<text x="90" y="450">uniE1E2</text>
</g>

<def>
 <g id="uniE1E3">
 <path d="M334 -1015C386 -1015 451 -953 487 -906C528 -853 535 -812 535 -773C535 -762 534 -750 534 -739C533 -740 532 -742 531 -743C483 -805 401 -879 363 -934C345 -960 337 -991 333 -1015ZM334 -1573C386 -1573 451 -1509 487 -1461C528 -1409 535 -1363 535 -1322C535 -1316 535 -1309 535 -1302C533 -1304 532 -1306 531 -1308C483 -1370 401 -1444 363 -1499C347 -1523 338 -1550 334 -1573ZM300 -101C279 -121 248 -132 213 -132C116 -132 0 -50 0 42C0 85 31 133 112 133C216 133 325 49 325 -40V-480C412 -434 520 -318 520 -215C520 -171 513 -126 498 -84C496 -79 494 -73 494 -68C494 -64 496 -60 501 -57C503 -56 504 -56 506 -56C513 -56 517 -64 521 -70C539 -98 565 -152 565 -208C565 -237 563 -261 560 -282C570 -319 579 -363 579 -412C579 -440 574 -466 566 -491C574 -523 579 -559 579 -599C579 -627 574 -654 565 -679C573 -712 579 -748 579 -789C579 -817 574 -843 566 -869C574 -901 579 -937 579 -977C579 -1004 574 -1031 566 -1056C574 -1088 579 -1124 579 -1164C579 -1190 575 -1215 567 -1239C574 -1268 579 -1299 579 -1337C579 -1389 565 -1444 531 -1489C483 -1551 433 -1602 395 -1657C357 -1712 332 -1798 329 -1807C328 -1815 326 -1820 315 -1820C303 -1820 300 -1814 300 -1807ZM534 -1117C533 -1118 532 -1119 531 -1121C483 -1183 401 -1257 363 -1312C346 -1337 337 -1366 333 -1390H334C386 -1390 451 -1328 487 -1281C528 -1228 535 -1187 535 -1148C535 -1138 535 -1127 534 -1117ZM534 -552C533 -553 532 -555 531 -556C483 -618 401 -688 363 -743C345 -769 337 -800 333 -825H334C386 -825 451 -763 487 -716C528 -664 535 -622 535 -584C535 -573 535 -562 534 -552ZM534 -364C526 -380 517 -392 508 -403C482 -438 452 -465 403 -514C364 -553 342 -585 334 -638C386 -638 451 -576 487 -529C528 -476 535 -435 535 -396C535 -385 535 -375 534 -364ZM333 -1203H334C386 -1203 451 -1141 487 -1094C528 -1041 535 -999 535 -961C535 -950 535 -939 534 -929C533 -930 532 -931 531 -933C483 -995 401 -1069 363 -1124C346 -1150 337 -1179 333 -1203Z" />
</g>
</def>
<g transform="translate(180, 400) scale(0.02) ">
 <use href="#uniE1E3" />
</g>

<g font-size="10" font-family="Verdana" >
<text x="180" y="450">uniE1E3</text>
</g>

<def>
 <g id="uniE1E4">
 <path d="M0 1817C0 1824 7 1833 15 1833C23 1833 28 1825 30 1817C45 1713 76 1694 116 1655C170 1605 309 1528 309 1343C309 1307 306 1267 299 1227C303 1210 305 1194 306 1178C306 1171 306 1164 306 1158C306 1155 306 1153 306 1150C306 1118 300 1088 294 1062C301 1037 304 1013 306 990C306 983 306 977 306 970C306 967 306 965 306 962C306 931 300 900 294 874C301 850 304 825 306 802C306 796 306 789 306 782C306 780 306 777 306 775C306 743 301 713 294 686C301 662 304 638 306 615C306 608 306 602 306 595C306 592 306 590 306 587C306 555 300 525 294 498C300 473 304 449 306 426C306 420 306 414 306 408C306 405 306 402 306 400C306 370 301 341 295 316C302 294 306 269 306 239C306 171 271 120 241 91C289 59 325 11 325 -41C325 -84 294 -132 213 -132C109 -132 0 -47 0 41ZM218 903C179 951 124 983 35 1016C40 994 49 969 63 948C101 893 190 846 241 788C250 778 258 766 265 755C266 761 266 766 266 772C266 822 249 864 218 903ZM25 460V102C46 122 77 133 112 133C146 133 183 123 216 106C245 138 265 172 265 231C265 268 253 299 227 329C162 405 73 446 25 460ZM36 1576C41 1555 49 1531 63 1511C101 1456 190 1409 241 1351C251 1339 260 1327 267 1315C267 1388 251 1429 225 1461C163 1537 85 1562 36 1576ZM241 598C250 588 258 577 265 565C266 572 266 579 266 585C266 636 249 677 218 716C179 764 124 796 35 829C39 807 48 781 63 758C101 703 190 657 241 598ZM37 639C38 634 39 629 39 625C46 600 57 565 113 518C172 468 227 431 254 396C258 391 262 385 265 380C266 385 266 391 266 396C266 446 249 488 218 526C179 574 124 606 37 639ZM63 1135C101 1080 190 1033 241 975C250 965 258 953 265 942C266 948 266 954 266 959C266 1010 249 1052 218 1091C179 1139 124 1171 35 1204C40 1182 48 1157 63 1135ZM266 1147C266 1198 249 1240 218 1279C179 1326 124 1359 35 1392C40 1370 48 1345 63 1323C101 1268 190 1221 241 1163C250 1152 258 1141 265 1130C266 1136 266 1141 266 1147Z" />
</g>
</def>
<g transform="translate(270, 400) scale(0.02) ">
 <use href="#uniE1E4" />
</g>

<g font-size="10" font-family="Verdana" >
<text x="270" y="450">uniE1E4</text>
</g>

<def>
 <g id="uniE1E5">
 <path d="M334 -1015C386 -1015 451 -953 487 -906C528 -854 535 -812 535 -774C535 -762 534 -751 534 -739C533 -741 532 -742 531 -743C483 -805 401 -879 363 -934C345 -961 337 -991 333 -1015ZM566 -1241C574 -1273 579 -1308 579 -1347C579 -1373 575 -1398 567 -1422C574 -1451 579 -1482 579 -1519C579 -1571 565 -1627 531 -1671C483 -1733 433 -1785 395 -1840C357 -1895 332 -1981 329 -1990C328 -1997 326 -2002 315 -2002C303 -2002 300 -1997 300 -1990V-101C279 -121 248 -132 213 -132C116 -132 0 -50 0 42C0 85 31 133 112 133C216 133 325 49 325 -40V-478C413 -432 520 -320 520 -215C520 -171 513 -126 498 -85C496 -80 494 -74 494 -69C494 -64 496 -60 501 -58C503 -57 505 -56 506 -56C536 -60 565 -185 565 -209C565 -237 563 -261 560 -282C570 -320 579 -363 579 -413C579 -440 574 -466 566 -492C574 -524 579 -560 579 -599C579 -627 574 -654 565 -680C573 -712 579 -749 579 -789C579 -817 574 -843 566 -869C574 -901 579 -937 579 -977C579 -1005 574 -1031 566 -1056C574 -1088 579 -1124 579 -1164C579 -1191 575 -1217 566 -1241ZM534 -1117C533 -1118 532 -1120 531 -1121C483 -1183 401 -1257 363 -1312C346 -1337 337 -1366 333 -1390H334C386 -1390 451 -1328 487 -1281C528 -1228 535 -1187 535 -1149C535 -1138 535 -1127 534 -1117ZM534 -552C533 -554 532 -555 531 -556C483 -618 401 -688 363 -744C345 -769 337 -800 333 -825H334C386 -825 451 -763 487 -716C528 -664 535 -622 535 -584C535 -573 535 -563 534 -552ZM534 -365C526 -380 517 -393 508 -404C482 -439 452 -465 403 -514C364 -553 342 -585 334 -639C386 -639 451 -576 487 -529C528 -477 535 -435 535 -397C535 -386 535 -375 534 -365ZM333 -1203H334C386 -1203 451 -1141 487 -1094C528 -1041 535 -1000 535 -961C535 -950 535 -940 534 -929C533 -930 532 -932 531 -933C483 -995 401 -1069 363 -1124C346 -1150 337 -1179 333 -1203ZM487 -1463C527 -1412 535 -1372 535 -1334C535 -1324 535 -1313 534 -1303C533 -1305 532 -1306 531 -1308C483 -1370 401 -1444 363 -1499C347 -1523 338 -1550 334 -1573C386 -1573 451 -1511 487 -1463ZM487 -1644C528 -1592 535 -1546 535 -1505C535 -1498 535 -1492 535 -1485C533 -1487 532 -1489 531 -1491C483 -1553 401 -1627 363 -1682C347 -1706 338 -1733 334 -1756C386 -1756 451 -1691 487 -1644Z" />
</g>
</def>
<g transform="translate(360, 400) scale(0.02) ">
 <use href="#uniE1E5" />
</g>

<g font-size="10" font-family="Verdana" >
<text x="360" y="450">uniE1E5</text>
</g>

<def>
 <g id="uniE1E6">
 <path d="M0 1993C0 2000 7 2009 15 2009C23 2009 28 2000 30 1993C48 1920 76 1885 116 1847C170 1797 309 1719 309 1535C309 1498 306 1457 299 1417C303 1399 305 1382 306 1366C306 1359 307 1352 307 1346C307 1343 307 1341 307 1338C307 1306 301 1276 294 1249C301 1225 304 1201 306 1178C306 1171 307 1164 307 1158C307 1155 307 1153 307 1150C307 1118 301 1088 294 1062C301 1037 304 1013 306 990C306 983 307 977 307 970C307 967 307 965 307 962C307 931 301 900 294 874C301 850 304 825 306 802C306 796 307 789 307 782C307 780 307 777 307 775C307 743 301 713 294 686C301 662 304 638 306 615C306 608 307 602 307 595C307 592 307 590 307 587C307 555 300 525 294 498C301 473 304 449 306 426C306 420 307 414 307 408C307 405 307 402 307 400C306 370 302 341 296 316C302 294 306 269 306 239C306 171 271 120 241 91C289 59 325 11 325 -41C325 -84 294 -132 213 -132C109 -132 0 -47 0 41ZM225 1653C163 1729 85 1754 35 1768C40 1746 48 1720 63 1699C102 1643 190 1597 241 1539C251 1527 260 1515 267 1502C267 1578 252 1620 225 1653ZM218 903C179 951 124 983 36 1016C40 994 49 969 63 948C102 893 190 846 241 788C251 778 259 766 265 755C266 761 266 766 266 772C266 822 249 864 218 903ZM35 1204C40 1182 49 1157 63 1135C102 1080 190 1033 241 975C250 965 258 953 265 942C266 948 266 954 266 959C266 1010 250 1052 218 1091C179 1139 124 1171 35 1204ZM266 1335C266 1386 250 1427 218 1467C179 1514 124 1546 35 1580C40 1557 49 1532 63 1511C102 1456 190 1409 241 1351C250 1340 258 1329 265 1318C266 1323 266 1329 266 1335ZM218 1279C179 1326 124 1359 35 1392C40 1370 49 1345 63 1323C102 1268 190 1221 241 1163C250 1152 258 1141 265 1130C266 1136 266 1141 266 1147C266 1198 249 1240 218 1279ZM63 758C102 703 190 657 241 598C250 588 258 577 265 565C266 572 266 579 266 585C266 636 249 677 218 716C179 764 124 796 35 829C40 807 48 781 63 758ZM25 460V102C46 122 77 133 112 133C146 133 183 123 216 106C245 138 265 172 265 231C265 268 253 299 227 329C162 405 73 446 25 460ZM266 396C266 446 249 488 218 526C179 574 124 606 37 639C38 634 39 629 40 625C46 600 57 565 113 518C173 468 227 431 254 396C258 391 262 385 266 380C266 385 266 391 266 396Z" />
</g>
</def>
<g transform="translate(450, 400) scale(0.02) ">
 <use href="#uniE1E6" />
</g>

<g font-size="10" font-family="Verdana" >
<text x="450" y="450">uniE1E6</text>
</g>

<def>
 <g id="uniE1E7">
 <path d="M0 0C0 28 22 50 50 50C78 50 100 28 100 0C100 -28 78 -50 50 -50C22 -50 0 -28 0 0Z" />
</g>
</def>
<g transform="translate(540, 400) scale(0.02) ">
 <use href="#uniE1E7" />
</g>

<g font-size="10" font-family="Verdana" >
<text x="540" y="450">uniE1E7</text>
</g>

<def>
 <g id="uniE220">
 <path d="M-145 -33V93L145 30V-96Z" />
</g>
</def>
<g transform="translate(630, 400) scale(0.02) ">
 <use href="#uniE220" />
</g>

<g font-size="10" font-family="Verdana" >
<text x="630" y="450">uniE220</text>
</g>

<def>
 <g id="uniE221">
 <path d="M-145 -126V-1L145 -63V-189ZM-145 62V188L145 125V-1Z" />
</g>
</def>
<g transform="translate(720, 400) scale(0.02) ">
 <use href="#uniE221" />
</g>

<g font-size="10" font-family="Verdana" >
<text x="720" y="450">uniE221</text>
</g>

<def>
 <g id="uniE222">
 <path d="M-145 -220V-94L145 -157V-283ZM-145 -31V94L145 32V-94ZM-145 157V283L145 220V94Z" />
</g>
</def>
<g transform="translate(810, 400) scale(0.02) ">
 <use href="#uniE222" />
</g>

<g font-size="10" font-family="Verdana" >
<text x="810" y="450">uniE222</text>
</g>

<def>
 <g id="uniE223">
 <path d="M-145 -315V-189L145 -252V-378ZM-145 -126V-1L145 -63V-189ZM-145 62V188L145 125V-1ZM-145 251V377L145 314V188Z" />
</g>
</def>
<g transform="translate(900, 400) scale(0.02) ">
 <use href="#uniE223" />
</g>

<g font-size="10" font-family="Verdana" >
<text x="900" y="450">uniE223</text>
</g>
</svg>

