<?xml version="1.0" standalone="no"?>

<svg version="1.1"
    viewBox="0 0 1003 503"
     xmlns="http://www.w3.org/2000/svg">
  <desc>shows all the symbols from font</desc>
    <g fill="none" stroke="black" stroke-width="3" >
<line x1="0" y1="1.5" x2="1000" y2="1.5" />
<line x1="1.5" y1="0" x2="1.5" y2="500" />
</g>
<g fill="red" stroke="none" >
<rect x="0" y="0" width="3" height="3" />
<rect x="997" y="0" width="3" height="3" />
<rect x="0" y="497" width="3" height="3" />
</g>
<g font-size="14" font-family="Verdana" >
<text x="10" y="20">(0,0)</text>
<text x="940" y="20">(1000,0)</text>
<text x="10" y="490">(0,500)</text>
</g>
<g style="stroke:#D3D3D3;stroke-width:0.5px;stroke-dasharray:10, 10;stroke-opacity:1" >
<line x1="0.0" y1="0" x2="0.0" y2="500" />
<line x1="90.9090909090909" y1="0" x2="90.9090909090909" y2="500" />
<line x1="181.8181818181818" y1="0" x2="181.8181818181818" y2="500" />
<line x1="272.72727272727275" y1="0" x2="272.72727272727275" y2="500" />
<line x1="363.6363636363636" y1="0" x2="363.6363636363636" y2="500" />
<line x1="454.54545454545456" y1="0" x2="454.54545454545456" y2="500" />
<line x1="545.4545454545455" y1="0" x2="545.4545454545455" y2="500" />
<line x1="636.3636363636364" y1="0" x2="636.3636363636364" y2="500" />
<line x1="727.2727272727273" y1="0" x2="727.2727272727273" y2="500" />
<line x1="818.1818181818181" y1="0" x2="818.1818181818181" y2="500" />
<line x1="909.0909090909091" y1="0" x2="909.0909090909091" y2="500" />
<line x1="1000.0" y1="0" x2="1000.0" y2="500" />
<line x1="0" y1="0.0" x2="1000" y2="0.0" />
<line x1="0" y1="100.0" x2="1000" y2="100.0" />
<line x1="0" y1="200.0" x2="1000" y2="200.0" />
<line x1="0" y1="300.0" x2="1000" y2="300.0" />
<line x1="0" y1="400.0" x2="1000" y2="400.0" />
<line x1="0" y1="500.0" x2="1000" y2="500.0" />
</g>

<def>
 <g id="uniE224">
 <path d="M-145 -410V-284L145 -347V-473ZM-145 -221V-95L145 -158V-284ZM-145 -32V94L145 31V-95ZM-145 156V282L145 219V94ZM-145 345V471L145 408V282Z" />
</g>
</def>
<g transform="translate(90, 100) scale(0.02) ">
 <use href="#uniE224" />
</g>

<g font-size="10" font-family="Verdana" >
<text x="90" y="150">uniE224</text>
</g>

<def>
 <g id="uniE225">
 <path d="M-145 -33V93L145 30V-96Z" />
</g>
</def>
<g transform="translate(180, 100) scale(0.02) ">
 <use href="#uniE225" />
</g>

<g font-size="10" font-family="Verdana" >
<text x="180" y="150">uniE225</text>
</g>

<def>
 <g id="uniE226">
 <path d="M-145 -126V-1L145 -63V-189ZM-145 62V188L145 125V-1Z" />
</g>
</def>
<g transform="translate(270, 100) scale(0.02) ">
 <use href="#uniE226" />
</g>

<g font-size="10" font-family="Verdana" >
<text x="270" y="150">uniE226</text>
</g>

<def>
 <g id="uniE227">
 <path d="M-145 -220V-94L145 -157V-283ZM-145 -31V94L145 32V-94ZM-145 157V283L145 220V94Z" />
</g>
</def>
<g transform="translate(360, 100) scale(0.02) ">
 <use href="#uniE227" />
</g>

<g font-size="10" font-family="Verdana" >
<text x="360" y="150">uniE227</text>
</g>

<def>
 <g id="uniE228">
 <path d="M-145 -315V-189L145 -252V-378ZM-145 -126V-1L145 -63V-189ZM-145 62V188L145 125V-1ZM-145 251V377L145 314V188Z" />
</g>
</def>
<g transform="translate(450, 100) scale(0.02) ">
 <use href="#uniE228" />
</g>

<g font-size="10" font-family="Verdana" >
<text x="450" y="150">uniE228</text>
</g>

<def>
 <g id="uniE229">
 <path d="M-145 -410V-284L145 -347V-473ZM-145 -221V-95L145 -158V-284ZM-145 -32V94L145 31V-95ZM-145 156V282L145 219V94ZM-145 345V471L145 408V282Z" />
</g>
</def>
<g transform="translate(540, 100) scale(0.02) ">
 <use href="#uniE229" />
</g>

<g font-size="10" font-family="Verdana" >
<text x="540" y="150">uniE229</text>
</g>

<def>
 <g id="uniE22A">
 <path d="M-76 85L150 -75V-140H-150V-85H76L-150 72V140H150V85Z" />
</g>
</def>
<g transform="translate(630, 100) scale(0.02) ">
 <use href="#uniE22A" />
</g>

<g font-size="10" font-family="Verdana" >
<text x="630" y="150">uniE22A</text>
</g>

<def>
 <g id="uniE22E">
 <path d="M179 -11C187 -4 197 0 207 0C217 0 227 -4 235 -11C250 -27 250 -51 235 -67C227 -75 217 -78 207 -78C197 -78 187 -75 179 -67C164 -51 164 -27 179 -11ZM11 -11C19 -4 29 0 39 0C49 0 59 -4 67 -11C82 -27 82 -51 67 -67C59 -75 49 -78 39 -78C29 -78 19 -75 11 -67C-4 -51 -4 -27 11 -11Z" />
</g>
</def>
<g transform="translate(720, 100) scale(0.02) ">
 <use href="#uniE22E" />
</g>

<g font-size="10" font-family="Verdana" >
<text x="720" y="150">uniE22E</text>
</g>

<def>
 <g id="uniE22F">
 <path d="M350 -11C358 -4 368 0 378 0C388 0 398 -4 406 -11C421 -27 421 -51 406 -67C398 -75 388 -78 378 -78C368 -78 358 -75 350 -67C335 -51 335 -27 350 -11ZM179 -11C187 -4 197 0 207 0C217 0 227 -4 235 -11C250 -27 250 -51 235 -67C227 -75 217 -78 207 -78C197 -78 187 -75 179 -67C164 -51 164 -27 179 -11ZM11 -11C19 -4 29 0 39 0C49 0 59 -4 67 -11C82 -27 82 -51 67 -67C59 -75 49 -78 39 -78C29 -78 19 -75 11 -67C-4 -51 -4 -27 11 -11Z" />
</g>
</def>
<g transform="translate(810, 100) scale(0.02) ">
 <use href="#uniE22F" />
</g>

<g font-size="10" font-family="Verdana" >
<text x="810" y="150">uniE22F</text>
</g>

<def>
 <g id="uniE230">
 <path d="M518 -11C526 -4 536 0 546 0C556 0 566 -4 574 -11C589 -27 589 -51 574 -67C566 -75 556 -78 546 -78C536 -78 526 -75 518 -67C503 -51 503 -27 518 -11ZM350 -11C358 -4 368 0 378 0C388 0 398 -4 406 -11C421 -27 421 -51 406 -67C398 -75 388 -78 378 -78C368 -78 358 -75 350 -67C335 -51 335 -27 350 -11ZM179 -11C187 -4 197 0 207 0C217 0 227 -4 235 -11C250 -27 250 -51 235 -67C227 -75 217 -78 207 -78C197 -78 187 -75 179 -67C164 -51 164 -27 179 -11ZM11 -11C19 -4 29 0 39 0C49 0 59 -4 67 -11C82 -27 82 -51 67 -67C59 -75 49 -78 39 -78C29 -78 19 -75 11 -67C-4 -51 -4 -27 11 -11Z" />
</g>
</def>
<g transform="translate(900, 100) scale(0.02) ">
 <use href="#uniE230" />
</g>

<g font-size="10" font-family="Verdana" >
<text x="900" y="150">uniE230</text>
</g>

<def>
 <g id="uniE231">
 <path d="M350 -179C358 -172 368 -168 378 -168C388 -168 398 -172 406 -179C421 -195 421 -219 406 -235C398 -243 388 -246 378 -246C368 -246 358 -243 350 -235C335 -219 335 -195 350 -179ZM179 -179C187 -172 197 -168 207 -168C217 -168 227 -172 235 -179C250 -195 250 -219 235 -235C227 -243 217 -246 207 -246C197 -246 187 -243 179 -235C164 -219 164 -195 179 -179ZM11 -179C19 -172 29 -168 39 -168C49 -168 59 -172 67 -179C82 -195 82 -219 67 -235C59 -243 49 -246 39 -246C29 -246 19 -243 11 -235C-4 -219 -4 -195 11 -179ZM350 -11C358 -4 368 0 378 0C388 0 398 -4 406 -11C421 -27 421 -51 406 -67C398 -75 388 -78 378 -78C368 -78 358 -75 350 -67C335 -51 335 -27 350 -11ZM179 -11C187 -4 197 0 207 0C217 0 227 -4 235 -11C250 -27 250 -51 235 -67C227 -75 217 -78 207 -78C197 -78 187 -75 179 -67C164 -51 164 -27 179 -11ZM11 -11C19 -4 29 0 39 0C49 0 59 -4 67 -11C82 -27 82 -51 67 -67C59 -75 49 -78 39 -78C29 -78 19 -75 11 -67C-4 -51 -4 -27 11 -11Z" />
</g>
</def>
<g transform="translate(90, 200) scale(0.02) ">
 <use href="#uniE231" />
</g>

<g font-size="10" font-family="Verdana" >
<text x="90" y="250">uniE231</text>
</g>

<def>
 <g id="uniE233">
 <path d="M0 0C71 0 137 -11 187 -30C243 -51 273 -81 273 -114C273 -147 243 -177 187 -198C137 -218 71 -228 0 -228C-71 -228 -137 -218 -187 -198C-243 -177 -273 -147 -273 -114C-273 -81 -243 -51 -187 -30C-137 -11 -71 0 0 0ZM0 -195C67 -195 129 -185 176 -168C216 -152 240 -132 240 -114C240 -96 216 -76 176 -60C129 -43 67 -33 0 -33C-67 -33 -129 -43 -176 -60C-216 -76 -240 -96 -240 -114C-240 -132 -216 -152 -176 -168C-129 -185 -67 -195 0 -195Z" />
</g>
</def>
<g transform="translate(180, 200) scale(0.02) ">
 <use href="#uniE233" />
</g>

<g font-size="10" font-family="Verdana" >
<text x="180" y="250">uniE233</text>
</g>

<def>
 <g id="uniE234">
 <path d="M0 0C24 0 48 -5 68 -15C86 -24 99 -35 110 -52C121 -68 126 -88 126 -109C126 -144 112 -172 84 -193C61 -209 34 -218 7 -227C-45 -245 -69 -257 -69 -285C-69 -313 -51 -326 -37 -332C-28 -335 -17 -337 -5 -337C19 -337 47 -328 69 -306L106 -343C76 -373 35 -389 -5 -389C-23 -389 -41 -386 -57 -379C-76 -371 -90 -360 -102 -344C-114 -327 -120 -307 -120 -285C-120 -253 -107 -228 -80 -209C-60 -195 -34 -186 -9 -178C14 -170 38 -162 53 -151C68 -140 74 -128 74 -109C74 -87 65 -71 45 -61C32 -55 17 -51 0 -51C-5 -51 -9 -52 -14 -52C-36 -55 -58 -63 -75 -75C-80 -79 -85 -83 -90 -88L-128 -54C-121 -46 -113 -39 -105 -33C-75 -11 -37 0 0 0Z" />
</g>
</def>
<g transform="translate(270, 200) scale(0.02) ">
 <use href="#uniE234" />
</g>

<g font-size="10" font-family="Verdana" >
<text x="270" y="250">uniE234</text>
</g>

<def>
 <g id="uniE240">
 <path d="M0 227C0 230 1 235 8 238C51 252 137 306 202 417C220 448 249 491 249 574C249 646 230 720 204 792C202 798 200 803 201 807C201 811 202 814 206 816C208 817 210 817 211 817C218 817 223 813 227 806C274 723 290 617 289 554C289 549 289 546 289 542C284 413 210 318 210 318C213 318 118 195 91 153C54 96 37 39 35 35C34 32 25 -4 25 -4C24 -8 19 -12 13 -12C6 -12 0 -6 0 1Z" />
</g>
</def>
<g transform="translate(360, 200) scale(0.02) ">
 <use href="#uniE240" />
</g>

<g font-size="10" font-family="Verdana" >
<text x="360" y="250">uniE240</text>
</g>

<def>
 <g id="uniE241">
 <path d="M0 -1C0 6 6 12 13 12C18 12 24 8 25 4C25 3 34 -32 35 -35C36 -39 45 -77 81 -136C120 -201 180 -248 230 -318C279 -388 309 -454 309 -542C309 -633 288 -709 235 -806C232 -813 226 -817 220 -817C218 -817 216 -817 215 -816C210 -814 208 -810 208 -804C208 -801 209 -796 211 -792C251 -699 267 -646 267 -574C267 -491 238 -448 220 -417C155 -306 50 -252 8 -238C1 -235 0 -230 0 -227Z" />
</g>
</def>
<g transform="translate(450, 200) scale(0.02) ">
 <use href="#uniE241" />
</g>

<g font-size="10" font-family="Verdana" >
<text x="450" y="250">uniE241</text>
</g>

<def>
 <g id="uniE242">
 <path d="M209 473C182 438 152 406 103 357C64 318 46 284 39 258C38 253 37 246 36 238C87 238 152 307 188 354C227 405 236 445 236 483C236 493 235 503 234 513C226 497 217 484 209 473ZM0 381C0 384 8 388 15 391C41 400 119 450 179 539C213 590 221 626 221 660C221 666 221 671 220 677C220 701 213 752 198 792C197 797 194 803 194 808C194 812 196 816 201 819C203 820 204 820 206 820C213 820 217 812 221 806C239 778 265 724 265 668C265 639 263 615 260 594C270 557 279 520 279 471C279 419 265 372 231 327C184 265 133 213 95 158C57 103 29 0 29 0C27 -7 26 -12 15 -12C3 -12 0 -7 0 0Z" />
</g>
</def>
<g transform="translate(540, 200) scale(0.02) ">
 <use href="#uniE242" />
</g>

<g font-size="10" font-family="Verdana" >
<text x="540" y="250">uniE242</text>
</g>

<def>
 <g id="uniE243">
 <path d="M37 -240C38 -245 39 -249 39 -252C46 -277 54 -314 113 -359C171 -404 240 -460 267 -508C265 -431 246 -383 220 -349C159 -274 85 -253 37 -240ZM0 10C0 18 7 26 15 26C23 26 28 18 30 10C45 -93 76 -123 116 -161C169 -212 309 -289 309 -474C309 -507 306 -544 300 -581C304 -594 306 -612 306 -638C306 -717 260 -772 227 -798C223 -801 217 -803 211 -803C207 -803 203 -802 199 -800C195 -798 194 -797 194 -795C194 -792 200 -788 204 -784C239 -747 265 -713 265 -646C265 -633 264 -620 260 -608L259 -605C259 -605 259 -605 259 -605C254 -585 243 -566 227 -548C157 -467 60 -425 15 -415C8 -412 0 -390 0 -388Z" />
</g>
</def>
<g transform="translate(630, 200) scale(0.02) ">
 <use href="#uniE243" />
</g>

<g font-size="10" font-family="Verdana" >
<text x="630" y="250">uniE243</text>
</g>

<def>
 <g id="uniE244">
 <path d="M209 474C182 439 152 408 103 358C64 319 46 285 39 259C38 254 37 246 35 238C87 238 152 300 188 347C227 399 236 439 236 477C236 489 235 501 234 513C226 497 217 485 209 474ZM188 180C227 231 236 272 236 310C236 316 235 321 235 326C234 324 232 322 231 320C184 258 101 188 63 133C48 111 40 86 35 64C86 64 152 133 188 180ZM0 382C0 385 8 389 15 392C41 401 119 451 179 540C213 591 221 627 221 661C221 667 221 672 220 678C220 702 213 753 198 793C197 798 194 804 194 809C194 813 196 817 201 820C203 821 204 821 206 821C213 821 217 813 221 807C239 779 265 725 265 669C265 640 263 616 260 595C270 557 279 514 279 464C279 439 275 414 268 391C274 365 279 338 279 306C279 303 279 300 279 297C279 245 265 198 231 153C184 91 133 39 95 -16C57 -71 29 -174 29 -174C27 -181 26 -186 15 -186C3 -186 0 -181 0 -174Z" />
</g>
</def>
<g transform="translate(720, 200) scale(0.02) ">
 <use href="#uniE244" />
</g>

<g font-size="10" font-family="Verdana" >
<text x="720" y="250">uniE244</text>
</g>

<def>
 <g id="uniE245">
 <path d="M35 -51C40 -73 49 -98 63 -119C101 -174 189 -220 241 -279C251 -290 260 -302 267 -315C267 -241 251 -199 225 -166C163 -90 85 -65 35 -51ZM113 -359C172 -409 227 -446 254 -481C258 -486 262 -492 265 -497C266 -492 266 -486 266 -481C266 -431 249 -390 218 -351C179 -303 124 -271 37 -238C38 -244 39 -249 39 -252C46 -278 56 -312 113 -359ZM0 200C0 207 7 216 15 216C23 216 28 208 30 200C45 96 76 66 116 28C169 -22 309 -99 309 -284C309 -321 305 -361 299 -401C302 -418 305 -435 306 -452C306 -457 306 -463 306 -469C306 -472 306 -475 306 -477C306 -507 301 -536 295 -561C302 -583 306 -608 306 -638C306 -717 260 -772 227 -798C223 -801 218 -803 212 -803C208 -803 203 -802 199 -800C195 -798 194 -797 194 -795C194 -792 200 -789 204 -784C239 -747 265 -713 265 -646C265 -609 253 -578 227 -548C157 -467 60 -425 15 -415C8 -412 0 -390 0 -388Z" />
</g>
</def>
<g transform="translate(810, 200) scale(0.02) ">
 <use href="#uniE245" />
</g>

<g font-size="10" font-family="Verdana" >
<text x="810" y="250">uniE245</text>
</g>

<def>
 <g id="uniE246">
 <path d="M231 320C184 258 101 188 63 133C48 112 40 87 35 64C87 64 152 127 188 174C227 225 236 266 236 304C236 311 235 319 235 326C234 324 232 322 231 320ZM209 474C182 439 152 408 103 359C64 320 46 285 39 260C38 254 37 247 35 238C87 238 152 301 188 348C227 399 236 440 236 478C236 490 235 501 234 513C226 498 217 485 209 474ZM188 -7C227 44 236 84 236 122C236 132 235 142 234 151C233 150 232 148 231 147C184 85 101 11 63 -45C46 -70 37 -99 33 -123H35C86 -123 151 -54 188 -7ZM0 383C0 385 8 390 15 392C41 402 119 451 179 540C213 591 220 627 221 661C221 667 221 672 220 678C220 703 213 753 198 793C197 798 194 804 194 809C194 814 196 818 201 820C203 821 205 822 206 822C213 821 217 814 221 808C239 779 265 725 265 669C265 641 263 616 260 595C270 558 279 514 279 464C279 439 275 414 268 391C274 363 279 333 279 300C279 297 279 294 279 290C279 263 275 237 266 211C273 183 279 154 279 118C279 115 279 113 279 110C279 58 265 11 231 -34C184 -96 133 -148 95 -203C57 -258 29 -361 29 -361C27 -368 26 -373 15 -373C3 -373 0 -368 0 -361Z" />
</g>
</def>
<g transform="translate(900, 200) scale(0.02) ">
 <use href="#uniE246" />
</g>

<g font-size="10" font-family="Verdana" >
<text x="900" y="250">uniE246</text>
</g>

<def>
 <g id="uniE247">
 <path d="M36 136C41 115 49 91 63 71C101 16 189 -31 241 -89C251 -101 260 -113 267 -125C267 -53 251 -11 225 21C163 97 86 122 36 136ZM113 -359C172 -409 227 -447 254 -481C258 -487 262 -492 265 -498C266 -492 266 -487 266 -481C266 -431 249 -390 218 -351C179 -304 124 -271 37 -238C38 -244 39 -249 39 -252C46 -278 56 -312 113 -359ZM218 -161C179 -113 124 -81 35 -48C39 -71 48 -97 63 -119C101 -174 189 -221 241 -279C250 -289 258 -300 265 -312C266 -305 266 -298 266 -292C266 -242 249 -200 218 -161ZM0 387C0 394 7 403 15 403C23 403 28 394 30 387C45 283 76 253 116 215C169 165 309 87 309 -97C309 -133 305 -173 299 -213C303 -230 305 -246 306 -262C306 -269 306 -276 306 -282C306 -285 306 -287 306 -290C306 -322 300 -352 294 -379C300 -404 304 -429 306 -452C306 -458 306 -463 306 -469C306 -472 306 -475 306 -478C306 -507 301 -536 295 -561C302 -583 306 -608 306 -638C306 -717 260 -772 227 -798C223 -801 218 -803 212 -804C208 -804 203 -803 199 -800C195 -799 194 -797 194 -795C194 -792 200 -789 204 -784C239 -747 265 -713 265 -646C265 -609 253 -578 227 -548C157 -467 60 -425 15 -415C8 -412 0 -391 0 -388Z" />
</g>
</def>
<g transform="translate(90, 300) scale(0.02) ">
 <use href="#uniE247" />
</g>

<g font-size="10" font-family="Verdana" >
<text x="90" y="350">uniE247</text>
</g>

<def>
 <g id="uniE248">
 <path d="M0 382C0 384 8 389 15 391C41 400 119 450 179 539C213 590 221 626 221 660C221 666 221 671 220 677C220 702 213 752 198 792C197 797 194 803 194 808C194 813 196 817 201 819C203 820 204 820 206 821C213 821 217 812 221 807C239 778 265 724 265 668C265 640 263 616 260 595C270 557 279 514 279 464C279 437 275 410 266 385C275 349 279 314 279 277C279 249 275 223 265 197C275 160 279 125 279 87C279 60 275 34 266 10C275 -24 279 -56 279 -90C279 -142 265 -197 231 -242C184 -304 133 -356 95 -411C57 -466 32 -551 29 -561C27 -568 26 -573 15 -573C3 -573 0 -568 0 -561ZM188 -215C228 -163 236 -118 236 -77C236 -68 235 -60 235 -51C233 -53 232 -55 231 -56C184 -118 101 -192 63 -248C46 -273 37 -302 33 -326H35C86 -326 151 -262 188 -215ZM209 473C182 438 152 412 103 363C64 323 46 292 39 266C38 260 36 249 34 238H35C86 238 151 300 188 347C227 399 236 440 236 478C236 490 235 501 234 512C226 497 217 484 209 473ZM231 320C184 258 101 188 63 133C46 107 37 77 33 51H35C86 51 151 113 188 161C227 212 236 253 236 291C236 302 235 314 234 325C233 323 232 322 231 320ZM231 133C184 71 101 -3 63 -58C45 -84 37 -114 33 -139H35C86 -139 151 -76 188 -29C227 22 236 64 236 102C236 114 235 126 234 137C233 136 232 135 231 133Z" />
</g>
</def>
<g transform="translate(180, 300) scale(0.02) ">
 <use href="#uniE248" />
</g>

<g font-size="10" font-family="Verdana" >
<text x="180" y="350">uniE248</text>
</g>

<def>
 <g id="uniE249">
 <path d="M0 575C0 582 7 591 15 591C23 591 28 583 30 575C45 471 76 441 116 403C169 353 309 276 309 91C309 55 305 15 299 -25C303 -42 305 -59 306 -75C306 -81 306 -88 306 -95C306 -97 306 -100 306 -102C306 -134 300 -164 294 -191C301 -215 304 -239 306 -262C306 -269 306 -275 306 -282C306 -285 306 -287 306 -290C306 -322 300 -352 294 -379C300 -404 304 -428 306 -451C306 -457 306 -463 306 -469C306 -472 306 -475 306 -477C306 -507 301 -536 295 -561C302 -583 306 -608 306 -638C306 -717 260 -772 227 -798C223 -801 217 -803 211 -803C207 -803 203 -802 199 -800C195 -798 194 -797 194 -795C194 -792 200 -788 204 -784C239 -747 265 -713 265 -646C265 -609 253 -578 227 -548C157 -467 60 -425 15 -415C8 -412 0 -390 0 -388ZM218 26C179 74 124 106 35 139C40 117 49 92 63 71C101 16 189 -31 241 -89C250 -99 258 -111 265 -122C266 -116 266 -111 266 -105C266 -55 249 -13 218 26ZM218 -161C179 -113 124 -81 35 -48C39 -70 48 -96 63 -119C101 -174 189 -220 241 -279C250 -289 258 -300 265 -312C266 -305 266 -298 266 -292C266 -241 249 -200 218 -161ZM113 -359C172 -409 227 -446 254 -481C258 -486 262 -492 265 -497C266 -492 266 -486 266 -481C265 -431 249 -389 218 -351C179 -303 124 -271 37 -238C38 -243 39 -248 39 -252C46 -277 56 -312 113 -359ZM36 324C41 302 49 279 63 258C101 203 189 156 241 98C251 87 260 75 267 62C265 135 251 177 225 209C163 285 85 310 36 324Z" />
</g>
</def>
<g transform="translate(270, 300) scale(0.02) ">
 <use href="#uniE249" />
</g>

<g font-size="10" font-family="Verdana" >
<text x="270" y="350">uniE249</text>
</g>

<def>
 <g id="uniE24A">
 <path d="M0 381C0 384 8 388 15 391C41 400 119 450 179 539C213 590 221 626 221 660C221 666 221 671 220 677C220 702 213 752 198 792C197 797 194 803 194 808C194 815 199 820 206 820C213 820 217 812 221 806C239 778 265 724 265 668C265 640 263 615 260 595C270 557 279 513 279 464C279 436 275 410 266 385C275 349 279 314 279 277C279 249 275 222 265 197C275 160 279 125 279 87C279 60 275 33 266 8C275 -28 279 -64 279 -101C279 -128 275 -153 266 -178C275 -211 279 -243 279 -277C279 -329 265 -384 231 -429C184 -491 133 -543 95 -598C57 -653 32 -738 29 -748C27 -755 26 -760 15 -760C3 -760 0 -755 0 -748ZM188 -402C228 -350 236 -305 236 -265C236 -256 235 -248 235 -239C233 -241 232 -243 231 -244C184 -306 101 -380 63 -436C46 -461 37 -489 33 -513H35C86 -513 151 -449 188 -402ZM209 473C182 438 152 412 103 362C64 323 46 292 39 266C38 260 36 249 34 238H35C86 238 151 300 188 347C227 399 236 440 236 478C236 490 235 501 234 512C226 497 217 484 209 473ZM231 320C184 258 101 188 63 133C46 107 37 76 33 51H35C86 51 151 113 188 160C227 212 236 253 236 291C236 302 235 313 234 324C233 323 232 322 231 320ZM231 133C184 71 101 -3 63 -58C45 -84 37 -114 33 -139H35C86 -139 151 -77 188 -29C227 22 236 63 236 102C236 114 235 125 234 137C233 136 232 135 231 133ZM231 -57C184 -119 101 -193 63 -248C46 -273 37 -302 33 -327H35C86 -327 151 -264 188 -217C227 -165 236 -124 236 -86C236 -75 235 -64 234 -52C233 -54 232 -55 231 -57Z" />
</g>
</def>
<g transform="translate(360, 300) scale(0.02) ">
 <use href="#uniE24A" />
</g>

<g font-size="10" font-family="Verdana" >
<text x="360" y="350">uniE24A</text>
</g>

<def>
 <g id="uniE24B">
 <path d="M0 763C0 770 7 779 15 779C23 779 28 771 30 763C45 659 76 629 116 591C169 541 309 464 309 279C309 243 305 203 299 163C303 146 305 129 306 113C306 107 306 100 306 93C306 91 306 88 306 86C306 54 300 24 294 -3C301 -27 304 -52 306 -74C306 -81 306 -88 306 -95C306 -97 306 -100 306 -102C306 -134 300 -164 294 -190C301 -215 304 -239 306 -262C306 -268 306 -275 306 -282C306 -284 306 -287 306 -290C306 -322 300 -352 294 -379C300 -403 304 -428 306 -451C306 -457 306 -463 306 -469C306 -472 306 -474 306 -477C306 -507 301 -535 295 -561C302 -583 306 -608 306 -638C306 -717 260 -772 227 -798C223 -801 217 -803 211 -803C207 -803 203 -802 199 -800C195 -798 194 -796 194 -795C194 -792 200 -788 204 -783C239 -747 265 -713 265 -646C265 -609 253 -578 227 -547C157 -466 60 -425 15 -414C8 -412 0 -390 0 -388ZM218 214C179 262 124 294 35 327C40 305 48 280 63 258C101 203 189 157 241 98C250 88 258 77 265 65C266 71 266 77 266 82C266 133 249 175 218 214ZM218 26C179 74 124 106 35 139C40 117 49 93 63 71C101 16 189 -30 241 -89C250 -99 258 -110 265 -122C266 -116 266 -110 266 -105C266 -54 249 -13 218 26ZM218 -161C179 -113 124 -81 35 -47C39 -70 48 -96 63 -119C101 -174 189 -220 241 -279C250 -289 258 -300 265 -311C266 -305 266 -298 266 -291C266 -241 249 -200 218 -161ZM113 -359C172 -409 227 -446 254 -481C258 -486 262 -491 265 -497C266 -492 266 -486 266 -481C265 -431 249 -389 218 -350C179 -303 124 -271 37 -238C38 -243 39 -248 39 -252C46 -277 56 -311 113 -359ZM36 512C41 490 49 467 63 446C101 391 189 344 241 286C251 275 260 263 267 250C265 323 251 365 225 397C163 473 85 498 36 512Z" />
</g>
</def>
<g transform="translate(450, 300) scale(0.02) ">
 <use href="#uniE24B" />
</g>

<g font-size="10" font-family="Verdana" >
<text x="450" y="350">uniE24B</text>
</g>

<def>
 <g id="uniE24C">
 <path d="M0 381C0 384 8 388 15 391C41 400 119 450 179 539C213 590 221 626 221 660C221 666 221 671 220 677C220 701 213 752 198 792C197 797 194 803 194 808C194 812 196 816 201 819C203 820 204 820 206 820C213 820 217 812 221 806C239 778 265 724 265 668C265 639 263 615 260 594C270 557 279 513 279 464C279 436 275 410 266 385C273 355 279 322 279 286C279 283 279 280 279 277C279 249 275 222 265 197C273 166 279 133 279 96C279 93 279 90 279 87C279 59 275 33 266 8C273 -22 279 -55 279 -92C279 -95 279 -98 279 -101C279 -128 275 -155 266 -180C273 -210 279 -243 279 -279C279 -282 279 -285 279 -288C279 -314 275 -339 267 -363C274 -390 279 -418 279 -452C279 -455 279 -458 279 -460C279 -512 265 -567 231 -612C184 -674 133 -726 95 -781C57 -836 29 -931 29 -931C27 -938 26 -943 15 -943C3 -943 0 -938 0 -931ZM188 -585C227 -534 236 -489 236 -449C236 -441 235 -434 235 -426C234 -428 232 -430 231 -431C184 -493 101 -567 63 -623C47 -646 38 -673 34 -696H35C86 -696 151 -632 188 -585ZM209 473C182 438 152 411 103 362C64 323 46 292 39 266C38 260 36 249 34 238H35C86 238 151 300 188 347C227 399 236 440 236 478C236 490 235 501 234 512C226 496 217 484 209 473ZM231 320C184 258 101 188 63 133C46 107 37 76 33 51H35C86 51 151 113 188 160C227 212 236 253 236 291C236 302 235 313 234 324C233 323 232 321 231 320ZM231 133C184 71 101 -3 63 -58C45 -84 37 -114 33 -139H35C86 -139 151 -77 188 -30C227 22 236 63 236 101C236 114 235 125 234 137C233 136 232 134 231 133ZM231 -57C184 -119 101 -193 63 -248C46 -273 37 -303 33 -327H35C86 -327 151 -265 188 -217C227 -166 236 -124 236 -86C236 -75 235 -64 234 -53C233 -54 232 -55 231 -57ZM231 -245C184 -307 101 -381 63 -436C46 -461 37 -490 33 -514H35C86 -514 151 -451 188 -404C227 -353 236 -312 236 -274C236 -263 235 -251 234 -240C233 -242 232 -243 231 -245Z" />
</g>
</def>
<g transform="translate(540, 300) scale(0.02) ">
 <use href="#uniE24C" />
</g>

<g font-size="10" font-family="Verdana" >
<text x="540" y="350">uniE24C</text>
</g>

<def>
 <g id="uniE24D">
 <path d="M0 950C0 957 7 966 15 966C23 966 28 958 30 950C45 846 76 816 116 778C169 728 309 651 309 466C309 430 305 390 299 350C303 333 305 317 306 301C306 294 306 287 306 281C306 278 306 275 306 273C306 241 300 211 294 184C301 160 304 136 306 113C306 106 306 99 306 93C306 90 306 88 306 85C306 53 300 23 294 -3C301 -28 304 -52 306 -75C306 -82 306 -88 306 -95C306 -98 306 -100 306 -103C306 -134 300 -164 294 -191C301 -215 304 -239 306 -262C306 -269 306 -276 306 -282C306 -285 306 -287 306 -290C306 -322 300 -352 294 -379C300 -404 304 -429 306 -452C306 -458 306 -463 306 -469C306 -472 306 -475 306 -478C306 -507 301 -536 295 -561C302 -583 306 -609 306 -638C306 -717 260 -772 227 -798C223 -801 218 -803 212 -804C208 -804 203 -803 199 -800C195 -799 194 -797 194 -795C194 -792 200 -789 204 -784C239 -747 265 -713 265 -646C265 -609 253 -578 227 -548C157 -467 60 -425 15 -415C8 -412 0 -391 0 -388ZM218 401C179 449 124 481 35 515C40 492 48 467 63 446C101 390 189 344 241 286C250 275 258 264 265 253C266 258 266 264 266 270C266 321 249 362 218 401ZM218 214C179 261 124 293 35 327C40 305 48 279 63 258C101 203 189 156 241 98C250 87 258 76 265 65C266 71 266 76 266 82C266 133 249 175 218 214ZM218 26C179 73 124 106 35 139C40 117 49 92 63 71C101 16 189 -31 241 -89C250 -100 258 -111 265 -122C266 -117 266 -111 266 -105C266 -55 249 -13 218 26ZM218 -161C179 -113 124 -81 35 -48C39 -71 48 -97 63 -119C101 -174 189 -221 241 -279C250 -289 258 -300 265 -312C266 -305 266 -298 266 -292C266 -242 249 -200 218 -161ZM113 -359C172 -409 227 -447 254 -482C258 -487 262 -492 265 -498C266 -492 266 -487 266 -481C266 -431 249 -390 218 -351C179 -304 124 -271 37 -238C38 -244 39 -249 39 -252C46 -278 56 -312 113 -359ZM36 699C41 678 49 654 63 633C101 578 189 532 241 473C251 462 260 450 267 437C267 510 251 552 225 584C163 660 85 685 36 699Z" />
</g>
</def>
<g transform="translate(630, 300) scale(0.02) ">
 <use href="#uniE24D" />
</g>

<g font-size="10" font-family="Verdana" >
<text x="630" y="350">uniE24D</text>
</g>

<def>
 <g id="uniE24E">
 <path d="M0 381C0 384 8 388 15 391C41 400 119 450 179 538C213 590 221 626 221 660C221 704 213 751 198 792C197 797 194 803 194 808C194 812 196 816 201 819C203 820 204 820 206 820C213 820 217 812 221 806C239 778 265 724 265 667C265 639 263 615 260 594C270 557 279 513 279 464C279 436 275 410 266 385C273 355 279 322 279 286C279 283 279 280 279 277C279 249 275 222 265 196C273 166 279 133 279 96C279 93 279 90 279 87C279 59 275 33 266 7C273 -22 279 -56 279 -92C279 -95 279 -98 279 -101C279 -128 275 -155 266 -180C273 -210 279 -243 279 -279C279 -282 279 -285 279 -288C279 -315 275 -340 266 -365C274 -394 279 -427 279 -462C279 -465 279 -468 279 -471C279 -497 275 -522 267 -546C274 -573 279 -601 279 -635C279 -638 279 -641 279 -643C279 -695 265 -750 231 -795C184 -857 133 -909 95 -964C57 -1019 29 -1114 29 -1114C27 -1121 26 -1126 15 -1126C3 -1126 0 -1121 0 -1114ZM188 -768C227 -717 236 -672 236 -632C236 -624 235 -617 235 -609C234 -611 232 -613 231 -614C184 -676 101 -750 63 -806C47 -829 38 -857 34 -880L35 -879C86 -879 151 -815 188 -768ZM209 473C182 438 152 411 103 362C64 323 46 291 39 266C38 260 36 249 34 238H35C86 238 151 300 188 347C227 399 236 440 236 478C236 489 235 501 234 512C226 496 217 484 209 473ZM231 320C184 258 101 188 63 133C46 107 37 76 33 51H35C86 51 151 113 188 160C227 212 236 253 236 291C236 302 235 313 234 324C233 323 232 321 231 320ZM231 133C184 71 101 -3 63 -58C45 -84 37 -115 33 -139H35C86 -139 151 -77 188 -30C227 22 236 63 236 101C236 113 235 125 234 137C233 136 232 134 231 133ZM231 -57C184 -119 101 -193 63 -248C46 -273 37 -303 33 -327H35C86 -327 151 -265 188 -218C227 -166 236 -125 236 -86C236 -75 235 -64 234 -53C233 -54 232 -55 231 -57ZM231 -245C184 -307 101 -381 63 -436C46 -461 37 -490 33 -514H35C86 -514 151 -452 188 -404C227 -353 236 -312 236 -274C236 -263 235 -252 234 -240C233 -242 232 -243 231 -245ZM231 -432C184 -494 101 -568 63 -623C47 -646 38 -673 34 -697H35C86 -697 151 -634 188 -587C227 -536 236 -496 236 -458C236 -448 235 -437 234 -427C233 -428 232 -430 231 -432Z" />
</g>
</def>
<g transform="translate(720, 300) scale(0.02) ">
 <use href="#uniE24E" />
</g>

<g font-size="10" font-family="Verdana" >
<text x="720" y="350">uniE24E</text>
</g>

<def>
 <g id="uniE24F">
 <path d="M0 1126C0 1133 7 1142 15 1142C23 1142 28 1133 30 1126C48 1053 76 1008 116 970C169 920 309 843 309 658C309 621 305 580 299 540C302 523 305 505 306 489C306 482 306 476 306 469C306 466 306 464 306 461C306 429 300 399 294 373C301 348 304 324 306 301C306 294 306 288 306 281C306 278 306 276 306 273C306 242 300 211 294 185C301 161 304 136 306 113C306 107 306 100 306 93C306 91 306 88 306 86C306 54 300 24 294 -3C301 -27 304 -52 306 -75C306 -81 306 -88 306 -95C306 -97 306 -100 306 -102C306 -134 300 -164 294 -190C301 -215 304 -239 306 -262C306 -268 306 -275 306 -282C306 -285 306 -287 306 -290C306 -322 300 -352 294 -379C300 -404 304 -428 306 -451C306 -457 306 -463 306 -469C306 -472 306 -474 306 -477C306 -507 301 -535 295 -561C302 -583 306 -608 306 -638C306 -717 260 -772 227 -798C223 -801 217 -803 211 -803C207 -803 203 -802 199 -800C195 -798 194 -797 194 -795C194 -792 200 -788 204 -784C239 -747 265 -713 265 -646C265 -609 253 -578 227 -547C157 -466 60 -425 15 -414C8 -412 0 -390 0 -388ZM218 590C179 637 124 670 35 703C40 681 48 656 63 634C101 579 189 532 241 474C250 463 258 452 265 441C266 447 266 452 266 458C266 509 249 551 218 590ZM218 402C179 450 124 482 35 515C40 493 48 468 63 446C101 391 189 344 241 286C250 276 258 264 265 253C266 259 266 265 266 270C266 321 249 363 218 402ZM218 214C179 262 124 294 35 327C40 305 48 280 63 258C101 203 189 157 241 98C250 88 258 77 265 65C266 71 266 77 266 82C266 133 249 175 218 214ZM218 26C179 74 124 106 35 139C40 117 49 93 63 71C101 16 189 -30 241 -89C250 -99 258 -110 265 -122C266 -116 266 -110 266 -105C266 -54 249 -13 218 26ZM218 -161C179 -113 124 -81 35 -47C39 -70 48 -96 63 -119C101 -174 189 -220 241 -279C250 -289 258 -300 265 -312C266 -305 266 -298 266 -291C266 -241 249 -200 218 -161ZM113 -359C172 -409 227 -446 254 -481C258 -486 262 -492 265 -497C266 -492 266 -486 266 -481C265 -431 249 -389 218 -351C179 -303 124 -271 37 -238C38 -243 39 -248 39 -252C46 -277 56 -311 113 -359ZM35 891C40 869 48 844 63 822C101 767 189 720 241 662C251 650 260 638 267 626C267 701 251 743 225 776C163 852 85 877 35 891Z" />
</g>
</def>
<g transform="translate(810, 300) scale(0.02) ">
 <use href="#uniE24F" />
</g>

<g font-size="10" font-family="Verdana" >
<text x="810" y="350">uniE24F</text>
</g>

<def>
 <g id="uniE250">
 <path d="M39 267C84 271 143 318 183 362C229 413 240 459 240 494C240 511 237 526 235 538L227 576C226 580 224 586 224 592C224 600 227 608 237 610C240 611 244 611 246 611C257 611 261 604 267 588C275 562 284 526 284 485C284 427 267 368 232 323C184 261 121 229 83 174C45 119 30 12 30 12C29 5 27 0 15 0C3 0 0 5 0 12V267Z" />
</g>
</def>
<g transform="translate(900, 300) scale(0.02) ">
 <use href="#uniE250" />
</g>

<g font-size="10" font-family="Verdana" >
<text x="900" y="350">uniE250</text>
</g>

<def>
 <g id="uniE251">
 <path d="M0 -12C0 -5 3 0 15 0C27 0 29 -5 30 -12C30 -12 45 -119 83 -174C121 -229 184 -260 232 -322C267 -367 284 -427 284 -485C284 -526 275 -562 267 -588C261 -604 257 -611 246 -611C244 -611 240 -611 237 -610C227 -608 224 -600 224 -592C224 -586 226 -580 227 -576L235 -538C237 -526 240 -511 240 -494C240 -459 229 -413 183 -362C143 -318 84 -271 39 -267L0 -266Z" />
</g>
</def>
<g transform="translate(90, 400) scale(0.02) ">
 <use href="#uniE251" />
</g>

<g font-size="10" font-family="Verdana" >
<text x="90" y="450">uniE251</text>
</g>

<def>
 <g id="uniE260">
 <path d="M201 -79C195 -118 171 -155 120 -155C70 -155 41 -124 36 -118L40 -439C40 -447 34 -453 26 -453H14C6 -453 0 -447 0 -439L5 162C5 170 11 176 19 176C21 176 25 175 27 174C31 172 96 140 150 79C188 36 203 -13 203 -54C203 -63 202 -71 201 -79ZM132 -40C132 -25 128 21 103 59C86 85 52 112 33 127L36 -68C38 -77 53 -106 93 -106C129 -106 132 -72 132 -51C132 -46 132 -43 132 -40Z" />
</g>
</def>
<g transform="translate(180, 400) scale(0.02) ">
 <use href="#uniE260" />
</g>

<g font-size="10" font-family="Verdana" >
<text x="180" y="450">uniE260</text>
</g>

<def>
 <g id="uniE261">
 <path d="M166 -183C164 -185 161 -186 158 -186C157 -186 155 -185 154 -185L28 -150V-325H0V170C0 178 6 183 14 183C15 183 17 183 18 183L144 148V323H171C171 157 171 -1 171 -172C171 -176 169 -181 166 -183ZM28 97V-67L144 -100V65Z" />
</g>
</def>
<g transform="translate(270, 400) scale(0.02) ">
 <use href="#uniE261" />
</g>

<g font-size="10" font-family="Verdana" >
<text x="270" y="450">uniE261</text>
</g>

<def>
 <g id="uniE262">
 <path d="M233 -105C239 -106 244 -113 244 -119V-178C244 -186 238 -192 230 -192C229 -192 229 -192 228 -192L195 -185V-334H167V-179L78 -161V-302H50V-155L11 -147C5 -146 0 -139 0 -133V-131V-73V-75C0 -67 6 -61 14 -61C15 -61 16 -61 17 -61L50 -68V97L11 105C5 106 0 113 0 119V177C0 185 6 191 14 191C15 191 16 191 17 191L50 184V333H78V178L167 160V301H195V154L233 147C239 146 244 139 244 133V74C244 66 238 60 230 60C229 60 229 60 228 60L195 67V-98ZM78 -74L167 -92V73L78 92Z" />
</g>
</def>
<g transform="translate(360, 400) scale(0.02) ">
 <use href="#uniE262" />
</g>

<g font-size="10" font-family="Verdana" >
<text x="360" y="450">uniE262</text>
</g>

<def>
 <g id="uniE263">
 <path d="M250 -51H261C269 -51 275 -57 275 -65V-124C275 -132 269 -138 261 -138H202C194 -138 188 -132 188 -124V-112V-71L139 -21H136L86 -71V-124C86 -132 81 -138 73 -138H14C6 -138 0 -132 0 -124V-65C0 -57 6 -51 14 -51H24H25H67L116 -2V1L67 51H25H24H14C6 51 0 56 0 64V123C0 131 6 137 14 137H73C81 137 86 131 86 123V70L136 22H139L188 70V112V113V123C188 131 194 137 202 137H261C269 137 275 131 275 123V64C275 56 269 51 261 51H251H250H208L158 1V-1L208 -51Z" />
</g>
</def>
<g transform="translate(450, 400) scale(0.02) ">
 <use href="#uniE263" />
</g>

<g font-size="10" font-family="Verdana" >
<text x="450" y="450">uniE263</text>
</g>

<def>
 <g id="uniE264">
 <path d="M369 -80C363 -119 339 -155 288 -155C238 -155 209 -125 204 -119L208 -439C208 -447 202 -453 194 -453H182C174 -453 168 -447 168 -439L171 -138C158 -148 142 -155 120 -155C70 -155 41 -124 36 -118L40 -439C40 -447 34 -453 26 -453H14C6 -453 0 -447 0 -439L5 162C5 170 11 176 19 176C21 176 25 174 27 173C31 171 96 140 150 79C157 71 166 57 172 48L173 162C173 170 179 176 187 176C189 176 193 174 195 173C199 171 264 139 318 78C356 35 371 -14 371 -55C371 -64 370 -72 369 -80ZM132 -40C132 -25 128 21 103 59C86 85 52 112 33 127L36 -68C38 -77 53 -106 93 -106C129 -106 132 -72 132 -51C132 -46 132 -43 132 -40ZM300 -40C300 -25 296 21 271 59C254 85 220 112 201 127L204 -68C206 -77 221 -106 261 -106C297 -106 300 -72 300 -51C300 -46 300 -43 300 -40Z" />
</g>
</def>
<g transform="translate(540, 400) scale(0.02) ">
 <use href="#uniE264" />
</g>

<g font-size="10" font-family="Verdana" >
<text x="540" y="450">uniE264</text>
</g>

<def>
 <g id="uniE265">
 <path d="M233 -105C239 -106 244 -113 244 -119V-178C244 -188 237 -192 228 -192L195 -185V-334H167V-179L78 -161V-302H50V-155L11 -147C5 -146 0 -139 0 -133V-75C0 -64 8 -61 17 -61L50 -68V97L11 105C5 106 0 113 0 119V177C0 188 8 191 17 191L50 184V333H78V178L167 160V301H195V154L233 147C239 146 244 139 244 133V74C244 64 237 60 228 60L195 67V-98ZM397 70L447 22H450L499 70V123C499 131 505 137 513 137H572C580 137 586 131 586 123V64C586 56 580 51 572 51H519L469 1V-1L519 -51H572C580 -51 586 -57 586 -65V-124C586 -132 580 -138 572 -138H513C505 -138 499 -132 499 -124V-71L450 -21H447L397 -71V-124C397 -132 392 -138 384 -138H325C317 -138 311 -132 311 -124V-65C311 -57 317 -51 325 -51H378L427 -2V1L378 51H325C317 51 311 56 311 64V123C311 131 317 137 325 137H384C392 137 397 131 397 123ZM78 -74L167 -92V73L78 92Z" />
</g>
</def>
<g transform="translate(630, 400) scale(0.02) ">
 <use href="#uniE265" />
</g>

<g font-size="10" font-family="Verdana" >
<text x="630" y="450">uniE265</text>
</g>

<def>
 <g id="uniE266">
 <path d="M537 -79C531 -118 507 -155 456 -155C406 -155 377 -124 372 -118L376 -439C376 -447 370 -453 362 -453H350C342 -453 336 -447 336 -439L339 -138C326 -148 310 -155 288 -155C238 -155 209 -124 204 -118L208 -439C208 -447 202 -453 194 -453H182C174 -453 168 -447 168 -439L171 -138C168 -141 162 -144 158 -146V-147C157 -147 156 -148 155 -148H154C153 -148 153 -149 152 -149L151 -150C150 -150 150 -150 149 -150L148 -151C147 -151 146 -152 145 -152C144 -152 143 -152 142 -152C141 -152 141 -153 140 -153C139 -153 139 -153 138 -153C137 -153 138 -154 137 -154C136 -154 135 -154 134 -154H133C132 -154 131 -155 130 -155H128H126H124C123 -155 121 -155 120 -155C70 -155 41 -124 36 -118L40 -439C40 -447 34 -453 26 -453H14C6 -453 0 -447 0 -439L5 162C5 170 11 176 19 176C20 176 22 175 23 175C24 175 25 174 26 174H27C31 172 96 140 150 79C151 78 152 75 153 74L155 73C156 72 156 71 157 70C157 69 158 69 158 68C159 67 160 66 161 65L162 64C163 63 164 60 165 59L166 57C167 56 167 56 168 55L169 53L171 50C171 49 172 49 172 48L173 162C173 170 179 176 187 176C189 176 193 175 195 174C199 172 264 140 318 79C325 71 334 57 340 48L341 162C341 170 347 176 355 176C357 176 361 175 363 174C367 172 432 140 486 79C524 36 539 -13 539 -54C539 -63 538 -71 537 -79ZM132 -40C132 -25 128 21 103 59C86 85 52 112 33 127L36 -68C38 -77 53 -106 93 -106C129 -106 132 -72 132 -51C132 -46 132 -43 132 -40ZM300 -40C300 -25 296 21 271 59C254 85 220 112 201 127L204 -68C206 -77 221 -106 261 -106C297 -106 300 -72 300 -51C300 -46 300 -43 300 -40ZM468 -40C468 -25 464 21 439 59C422 85 388 112 369 127L372 -68C374 -77 389 -106 429 -106C465 -106 468 -72 468 -51C468 -46 468 -43 468 -40Z" />
</g>
</def>
<g transform="translate(720, 400) scale(0.02) ">
 <use href="#uniE266" />
</g>

<g font-size="10" font-family="Verdana" >
<text x="720" y="450">uniE266</text>
</g>

<def>
 <g id="uniE267">
 <path d="M357 -155C307 -155 278 -124 273 -118L277 -439C277 -447 271 -453 263 -453H251C243 -453 237 -447 237 -439L242 162C242 170 248 176 256 176C258 176 262 175 264 174C350 131 440 49 440 -54C440 -106 416 -155 357 -155ZM166 -183C164 -185 161 -186 157 -186L155 -185C155 -185 154 -185 154 -185L28 -150V-325H0V170C0 181 9 183 18 183L144 148V323H171C171 157 171 -1 171 -172C171 -176 169 -181 166 -183ZM270 127L273 -68C275 -77 290 -106 330 -106C366 -106 369 -72 369 -51C369 38 336 75 270 127ZM28 97V-67L144 -100V65Z" />
</g>
</def>
<g transform="translate(810, 400) scale(0.02) ">
 <use href="#uniE267" />
</g>

<g font-size="10" font-family="Verdana" >
<text x="810" y="450">uniE267</text>
</g>

<def>
 <g id="uniE268">
 <path d="M467 -107C473 -108 478 -115 478 -121V-180C478 -191 471 -194 462 -194L429 -187V-336H401V-181L312 -163V-304H284V-157L245 -149C239 -148 234 -141 234 -135V-77C234 -66 242 -63 251 -63L284 -70V95L245 103C239 104 234 111 234 117V175C234 186 242 189 251 189L284 182V331H312V176L401 158V299H429V152L467 145C473 144 478 137 478 131V72C478 61 471 58 462 58L429 65V-100ZM166 -183C164 -185 161 -186 157 -186L155 -185C155 -185 154 -185 154 -185L28 -150V-325H0V170C0 181 9 183 18 183L144 148V323H171C171 157 171 -1 171 -172C171 -176 169 -181 166 -183ZM28 97V-67L144 -100V65ZM312 -76L401 -94V71L312 89Z" />
</g>
</def>
<g transform="translate(900, 400) scale(0.02) ">
 <use href="#uniE268" />
</g>

<g font-size="10" font-family="Verdana" >
<text x="900" y="450">uniE268</text>
</g>
</svg>

