<?xml version="1.0" standalone="no"?>

<svg version="1.1"
    viewBox="0 0 1003 503"
     xmlns="http://www.w3.org/2000/svg">
  <desc>shows all the symbols from font</desc>
    <g fill="none" stroke="black" stroke-width="3" >
<line x1="0" y1="1.5" x2="1000" y2="1.5" />
<line x1="1.5" y1="0" x2="1.5" y2="500" />
</g>
<g fill="red" stroke="none" >
<rect x="0" y="0" width="3" height="3" />
<rect x="997" y="0" width="3" height="3" />
<rect x="0" y="497" width="3" height="3" />
</g>
<g font-size="14" font-family="Verdana" >
<text x="10" y="20">(0,0)</text>
<text x="940" y="20">(1000,0)</text>
<text x="10" y="490">(0,500)</text>
</g>
<g style="stroke:#D3D3D3;stroke-width:0.5px;stroke-dasharray:10, 10;stroke-opacity:1" >
<line x1="0.0" y1="0" x2="0.0" y2="500" />
<line x1="90.9090909090909" y1="0" x2="90.9090909090909" y2="500" />
<line x1="181.8181818181818" y1="0" x2="181.8181818181818" y2="500" />
<line x1="272.72727272727275" y1="0" x2="272.72727272727275" y2="500" />
<line x1="363.6363636363636" y1="0" x2="363.6363636363636" y2="500" />
<line x1="454.54545454545456" y1="0" x2="454.54545454545456" y2="500" />
<line x1="545.4545454545455" y1="0" x2="545.4545454545455" y2="500" />
<line x1="636.3636363636364" y1="0" x2="636.3636363636364" y2="500" />
<line x1="727.2727272727273" y1="0" x2="727.2727272727273" y2="500" />
<line x1="818.1818181818181" y1="0" x2="818.1818181818181" y2="500" />
<line x1="909.0909090909091" y1="0" x2="909.0909090909091" y2="500" />
<line x1="1000.0" y1="0" x2="1000.0" y2="500" />
<line x1="0" y1="0.0" x2="1000" y2="0.0" />
<line x1="0" y1="100.0" x2="1000" y2="100.0" />
<line x1="0" y1="200.0" x2="1000" y2="200.0" />
<line x1="0" y1="300.0" x2="1000" y2="300.0" />
<line x1="0" y1="400.0" x2="1000" y2="400.0" />
<line x1="0" y1="500.0" x2="1000" y2="500.0" />
</g>

<def>
<g id="uniE269">
 <path d="M524 -105C530 -106 535 -113 535 -119V-178C535 -188 528 -192 519 -192L486 -185V-334H458V-179L369 -161V-302H341V-155L302 -147C296 -146 291 -139 291 -133V-75C291 -64 299 -61 308 -61L341 -68V97L302 105C296 106 291 113 291 119V177C291 188 299 191 308 191L341 184V333H369V178L458 160V301H486V154L524 147C530 146 535 139 535 133V74C535 64 528 60 519 60L486 67V-98ZM233 -105C239 -106 244 -113 244 -119V-178C244 -188 237 -192 228 -192L195 -185V-334H167V-179L78 -161V-302H50V-155L11 -147C5 -146 0 -139 0 -133V-75C0 -64 8 -61 17 -61L50 -68V97L11 105C5 106 0 113 0 119V177C0 188 8 191 17 191L50 184V333H78V178L167 160V301H195V154L233 147C239 146 244 139 244 133V74C244 64 237 60 228 60L195 67V-98ZM369 -74L458 -92V73L369 92ZM78 -74L167 -92V73L78 92Z" />
</g>
</def>
<g transform="translate(90, 100) scale(0.02) ">
 <use href="#uniE269" />
</g>

<g font-size="10" font-family="Verdana" >
<text x="90" y="150">uniE269</text>
</g>

<def>
<g id="uniE26A">
 <path d="M85 207C86 208 89 210 92 210C93 210 95 209 96 208C98 206 98 204 98 203C98 202 98 201 97 198C88 176 42 105 42 0C42 -57 56 -129 97 -199C98 -200 98 -202 98 -204C98 -206 97 -208 95 -210C94 -211 93 -211 92 -211C89 -211 87 -210 85 -208C83 -204 0 -150 0 0C0 150 82 203 85 207Z" />
</g>
</def>
<g transform="translate(180, 100) scale(0.02) ">
 <use href="#uniE26A" />
</g>

<g font-size="10" font-family="Verdana" >
<text x="180" y="150">uniE26A</text>
</g>

<def>
<g id="uniE26B">
 <path d="M14 207C17 203 99 150 99 0C99 -150 16 -204 14 -208C12 -210 10 -211 7 -211C6 -211 5 -211 4 -210C2 -208 1 -206 1 -204C1 -202 1 -200 2 -199C43 -129 57 -57 57 0C57 105 11 176 2 198C1 201 1 202 1 203C1 204 1 206 3 208C4 209 6 210 7 210C10 210 13 208 14 207Z" />
</g>
</def>
<g transform="translate(270, 100) scale(0.02) ">
 <use href="#uniE26B" />
</g>

<g font-size="10" font-family="Verdana" >
<text x="270" y="150">uniE26B</text>
</g>

<def>
<g id="uniE26C">
 <path d="M0 193C0 202 7 209 16 209H81V177H32V-178H81V-210H16C7 -210 0 -203 0 -194Z" />
</g>
</def>
<g transform="translate(360, 100) scale(0.02) ">
 <use href="#uniE26C" />
</g>

<g font-size="10" font-family="Verdana" >
<text x="360" y="150">uniE26C</text>
</g>

<def>
<g id="uniE26D">
 <path d="M0 -210V-178H49V177H0V209H65C74 209 81 202 81 193V-194C81 -203 74 -210 65 -210Z" />
</g>
</def>
<g transform="translate(450, 100) scale(0.02) ">
 <use href="#uniE26D" />
</g>

<g font-size="10" font-family="Verdana" >
<text x="450" y="150">uniE26D</text>
</g>

<def>
<g id="uniE270">
 <path d="M278 -90C272 -129 248 -166 197 -166C147 -166 119 -135 114 -129L116 -354L172 -312C174 -310 178 -309 181 -309C189 -309 194 -315 194 -323C194 -325 193 -329 192 -331L109 -448C107 -451 101 -454 97 -454C93 -454 88 -451 86 -448L3 -331C2 -329 0 -325 0 -323C0 -315 6 -309 14 -309C17 -309 20 -310 22 -312L78 -354L83 152C83 159 89 165 96 165H97C100 165 103 164 105 163C109 161 173 129 227 68C265 25 280 -24 280 -65C280 -74 279 -82 278 -90ZM210 -50C210 -35 206 11 181 49C164 75 130 102 111 117L113 -78C115 -87 130 -116 170 -116C207 -116 210 -79 210 -59C210 -55 210 -52 210 -50Z" />
</g>
</def>
<g transform="translate(540, 100) scale(0.02) ">
 <use href="#uniE270" />
</g>

<g font-size="10" font-family="Verdana" >
<text x="540" y="150">uniE270</text>
</g>

<def>
<g id="uniE271">
 <path d="M278 -90C272 -129 248 -166 197 -166C147 -166 119 -135 114 -129L117 -449V-450C117 -458 111 -463 103 -463H91C83 -463 77 -458 77 -450V-449L83 151V352L22 305C20 303 17 303 14 303C6 303 0 308 0 316C0 318 2 322 3 324L86 442C88 445 93 448 97 448C101 448 106 445 108 442L192 324C193 322 194 318 194 316C194 308 189 303 181 303C178 303 174 303 172 305L111 352V160C129 151 181 120 227 68C265 25 280 -24 280 -65C280 -74 279 -82 278 -90ZM118 381L117 382ZM209 -50C209 -35 205 11 180 49C163 75 130 102 111 117L113 -78C115 -87 130 -116 170 -116C206 -116 209 -82 209 -61C209 -56 209 -53 209 -50Z" />
</g>
</def>
<g transform="translate(630, 100) scale(0.02) ">
 <use href="#uniE271" />
</g>

<g font-size="10" font-family="Verdana" >
<text x="630" y="150">uniE271</text>
</g>

<def>
<g id="uniE272">
 <path d="M249 -183C247 -185 244 -186 241 -186C240 -186 238 -185 237 -185L111 -150V-354L172 -307C174 -305 178 -305 181 -305C189 -305 194 -310 194 -318C194 -320 193 -324 192 -326L109 -444C107 -447 101 -450 97 -450C93 -450 88 -447 86 -444L3 -326C2 -324 0 -320 0 -318C0 -310 6 -305 14 -305C17 -305 20 -305 22 -307L83 -353V170C83 178 89 183 97 183C98 183 100 183 101 183L227 148V323H255V-172C255 -176 252 -181 249 -183ZM111 97V-67L227 -100V65Z" />
</g>
</def>
<g transform="translate(720, 100) scale(0.02) ">
 <use href="#uniE272" />
</g>

<g font-size="10" font-family="Verdana" >
<text x="720" y="150">uniE272</text>
</g>

<def>
<g id="uniE273">
 <path d="M251 307C249 305 244 303 241 303C238 303 235 304 233 306L171 352V-171C171 -179 166 -185 158 -185C157 -185 155 -184 154 -184L28 -149V-325H0V171C0 179 6 184 14 184C15 184 17 184 18 184L144 149V353L83 306C81 304 77 303 74 303C66 303 60 309 60 317C60 319 62 323 63 325L146 443C148 446 154 448 158 448C162 448 167 446 169 443L252 325C253 323 255 319 255 317C255 314 253 309 251 307ZM144 -99V66L28 98V-66Z" />
</g>
</def>
<g transform="translate(810, 100) scale(0.02) ">
 <use href="#uniE273" />
</g>

<g font-size="10" font-family="Verdana" >
<text x="810" y="150">uniE273</text>
</g>

<def>
<g id="uniE274">
 <path d="M192 -454C190 -457 186 -459 181 -459C177 -459 172 -457 170 -454L86 -336C85 -334 84 -331 84 -329C84 -325 85 -321 88 -318C91 -316 94 -314 98 -314C101 -315 104 -315 106 -317L167 -363V-178L78 -160V-277H50V-154L11 -146C5 -144 0 -139 0 -132V-74C0 -70 2 -66 5 -64C8 -62 11 -60 14 -60C15 -60 16 -61 17 -61L50 -68V98L11 106C5 107 0 113 0 119V177C0 181 2 185 5 188C8 190 11 191 14 191C15 191 16 191 17 191L50 184V333H78V178L167 160V304H195V155L233 147C240 146 244 140 244 133V74C244 70 242 66 239 64C237 62 234 61 231 61C230 61 229 61 228 61L195 68V-97L233 -105C240 -106 244 -112 244 -118V-177C244 -181 242 -185 239 -188C237 -190 233 -191 230 -191C229 -191 228 -191 228 -191L195 -184V-364L256 -317C259 -315 261 -315 264 -314C268 -314 271 -316 274 -318C277 -321 278 -325 278 -328C278 -331 277 -334 276 -336ZM78 92V-73L167 -91V73Z" />
</g>
</def>
<g transform="translate(900, 100) scale(0.02) ">
 <use href="#uniE274" />
</g>

<g font-size="10" font-family="Verdana" >
<text x="900" y="150">uniE274</text>
</g>

<def>
<g id="uniE275">
 <path d="M86 452C89 456 93 458 97 458C102 458 106 456 109 452L192 335C194 332 194 330 194 327C194 326 194 326 194 325C194 322 193 319 190 317C188 314 184 313 181 313C178 313 175 314 172 316L111 362V177L200 158V275H228V152L267 144C274 143 278 137 278 131V73C278 69 276 65 273 62C271 60 268 59 264 59C263 59 263 59 262 59L228 66V-99L267 -107C274 -109 278 -114 278 -121V-179C278 -183 276 -187 273 -189C271 -191 268 -192 264 -192C263 -192 263 -192 262 -192L228 -185V-334H200V-180L111 -162V-306H83V-156L45 -149C39 -147 34 -142 34 -135V-76C34 -72 36 -68 39 -65C42 -63 47 -62 51 -62L83 -69V95L45 103C39 104 34 110 34 117V176C34 180 36 184 39 186C41 188 45 189 48 190C49 190 50 189 51 189L83 182V363L22 316C20 314 16 313 13 313C10 313 7 315 4 317C2 320 0 323 0 327C0 330 1 332 3 335ZM200 -93V72L111 90V-75Z" />
</g>
</def>
<g transform="translate(90, 200) scale(0.02) ">
 <use href="#uniE275" />
</g>

<g font-size="10" font-family="Verdana" >
<text x="90" y="250">uniE275</text>
</g>

<def>
<g id="uniE276">
 <path d="M67 51H25C25 51 25 51 25 51H14C6 51 0 57 0 64V123C0 131 6 137 14 137H73C81 137 87 131 87 123V70L136 22H139L188 70V112C188 112 188 112 188 112V123C188 131 195 137 202 137H261C269 137 275 131 275 123V64C275 57 269 51 261 51H250C250 51 250 51 250 51H208L158 1V-2L208 -51H250C250 -51 250 -51 250 -51H261C269 -51 275 -57 275 -65V-124C275 -132 269 -138 261 -138H248V-360L309 -314C312 -312 314 -311 317 -311C321 -311 324 -312 327 -315C330 -317 331 -321 331 -325C331 -328 330 -330 329 -333L245 -450C243 -454 239 -456 234 -456C230 -456 225 -454 223 -450L140 -333C138 -330 137 -327 137 -324C137 -320 139 -317 141 -315C144 -312 148 -311 152 -311C154 -311 157 -312 159 -313L220 -359V-138H202C195 -138 188 -132 188 -124V-112C188 -112 188 -112 188 -112V-71L139 -21H136L87 -71V-124C87 -132 81 -138 73 -138H14C6 -138 0 -132 0 -124V-65C0 -57 6 -51 14 -51H25C25 -51 25 -51 25 -51H67L117 -2V1Z" />
</g>
</def>
<g transform="translate(180, 200) scale(0.02) ">
 <use href="#uniE276" />
</g>

<g font-size="10" font-family="Verdana" >
<text x="180" y="250">uniE276</text>
</g>

<def>
<g id="uniE277">
 <path d="M265 -52H307C307 -52 307 -52 307 -52H318C326 -52 332 -58 332 -65V-124C332 -132 326 -138 318 -138H259C251 -138 245 -132 245 -124V-71L196 -23H193L144 -71V-113C144 -113 144 -113 144 -113V-124C144 -132 137 -138 130 -138H71C63 -138 57 -132 57 -124V-65C57 -58 63 -52 71 -52H82C82 -52 82 -52 82 -52H124L174 -2V1L124 50H82C82 50 82 50 82 50H71C63 50 57 56 57 64V123C57 131 63 137 71 137H84V359L23 313C20 311 18 310 15 310C11 310 8 311 5 314C2 316 1 320 1 324C1 327 2 329 3 332L87 449C89 453 93 455 98 455C102 455 107 453 109 449L192 332C194 329 195 326 195 323C195 319 193 316 191 314C188 311 184 310 180 310C178 310 175 311 173 312L112 358V137H130C137 137 144 131 144 123V111C144 111 144 111 144 111V70L193 20H196L245 70V123C245 131 251 137 259 137H318C326 137 332 131 332 123V64C332 56 326 50 318 50H307C307 50 307 50 307 50H265L215 1V-2Z" />
</g>
</def>
<g transform="translate(270, 200) scale(0.02) ">
 <use href="#uniE277" />
</g>

<g font-size="10" font-family="Verdana" >
<text x="270" y="250">uniE277</text>
</g>

<def>
<g id="uniE278">
 <path d="M196 173C200 171 264 140 319 79C357 35 372 -14 372 -55C372 -63 371 -72 370 -79C364 -119 340 -155 289 -155C239 -155 210 -124 205 -118L208 -358L264 -315C266 -313 269 -312 272 -312C276 -312 281 -314 283 -318C285 -320 286 -323 286 -326C286 -329 285 -332 284 -334L200 -452C198 -455 193 -457 189 -457C185 -457 180 -455 178 -452L94 -334C93 -332 92 -329 92 -326C92 -322 94 -317 98 -315C100 -313 103 -312 106 -312C109 -312 112 -313 114 -315L170 -357L172 -137C159 -148 142 -155 120 -155C70 -155 42 -124 37 -118L40 -426C40 -433 34 -440 26 -440C26 -440 26 -440 26 -440H14C7 -440 0 -434 0 -426C0 -426 0 -426 0 -426L6 162C6 170 11 176 18 176C23 176 28 173 28 173C32 172 96 140 150 79C159 69 167 58 174 47L175 162C175 170 181 176 186 176C192 176 196 173 196 173ZM132 -40C132 -25 129 22 103 59C86 85 53 113 34 127L36 -68C38 -77 53 -106 93 -106C128 -105 132 -73 133 -53C133 -47 132 -43 132 -40ZM301 -40C301 -25 298 21 272 59C255 85 222 113 203 127L205 -68C207 -77 222 -106 262 -106C298 -106 301 -71 301 -51C301 -46 301 -42 301 -40Z" />
</g>
</def>
<g transform="translate(360, 200) scale(0.02) ">
 <use href="#uniE278" />
</g>

<g font-size="10" font-family="Verdana" >
<text x="360" y="250">uniE278</text>
</g>

<def>
<g id="uniE279">
 <path d="M447 -80C441 -119 417 -156 366 -156C316 -156 287 -125 282 -119L285 -440C285 -448 279 -454 271 -454H260C252 -454 246 -448 246 -440L249 -138C236 -149 219 -155 197 -155C147 -155 118 -124 113 -118L117 -439C117 -447 111 -453 103 -453H91C83 -453 77 -447 77 -439L82 162V354L22 308C20 306 16 305 13 305C5 305 0 311 0 319C0 321 1 325 2 327L85 444C87 447 93 450 97 450C101 450 106 447 108 444L191 327C192 325 194 321 194 319C194 311 188 305 180 305C177 305 174 306 172 308L110 354V170C128 161 181 130 227 78C234 70 244 56 250 47L251 161C251 169 257 175 265 175C267 175 271 173 273 172C277 170 341 139 395 78C433 35 449 -15 449 -56C449 -64 448 -73 447 -80ZM209 -40C209 -25 205 21 180 59C163 85 129 112 110 127L113 -68C115 -77 130 -106 170 -106C206 -106 209 -72 209 -51C209 -46 209 -43 209 -40ZM378 -41C378 -26 374 20 349 58C332 84 298 111 279 126L281 -69C283 -78 299 -107 339 -107C375 -107 378 -73 378 -52C378 -47 378 -44 378 -41Z" />
</g>
</def>
<g transform="translate(450, 200) scale(0.02) ">
 <use href="#uniE279" />
</g>

<g font-size="10" font-family="Verdana" >
<text x="450" y="250">uniE279</text>
</g>

<def>
<g id="uniE27A">
 <path d="M109 -319C107 -322 101 -325 97 -325C93 -325 88 -322 86 -319L3 -202C2 -200 0 -196 0 -194C0 -186 6 -180 14 -180C17 -180 20 -181 22 -183L83 -229V124H111V-229L172 -183C174 -181 178 -180 181 -180C189 -180 195 -186 195 -194C195 -196 193 -200 192 -202Z" />
</g>
</def>
<g transform="translate(540, 200) scale(0.02) ">
 <use href="#uniE27A" />
</g>

<g font-size="10" font-family="Verdana" >
<text x="540" y="250">uniE27A</text>
</g>

<def>
<g id="uniE27B">
 <path d="M86 68C88 71 93 74 97 74C101 74 107 71 109 68L192 -49C193 -51 194 -55 194 -57C194 -65 189 -71 181 -71C178 -71 174 -71 172 -69L111 -23V-388H83V-22L22 -68C20 -70 17 -71 14 -71C6 -71 0 -65 0 -57C0 -55 2 -51 3 -49Z" />
</g>
</def>
<g transform="translate(630, 200) scale(0.02) ">
 <use href="#uniE27B" />
</g>

<g font-size="10" font-family="Verdana" >
<text x="630" y="250">uniE27B</text>
</g>

<def>
<g id="uniE280">
 <path d="M0 -58C0 18 45 73 74 101C115 140 170 173 170 173C172 174 173 176 176 176C183 176 189 170 189 163L193 -439C193 -446 187 -452 180 -452H172C165 -452 159 -446 159 -439L161 -121C155 -129 133 -151 87 -151C37 -151 0 -120 0 -58ZM103 -107C147 -107 161 -80 161 -71C161 -69 162 -71 162 -74L163 124C144 108 111 77 93 50C68 12 64 -25 64 -40C64 -43 64 -47 64 -52C64 -73 67 -107 103 -107Z" />
</g>
</def>
<g transform="translate(720, 200) scale(0.02) ">
 <use href="#uniE280" />
</g>

<g font-size="10" font-family="Verdana" >
<text x="720" y="250">uniE280</text>
</g>

<def>
<g id="uniE281">
 <path d="M422 -58C422 -120 385 -151 335 -151C289 -151 267 -129 261 -121L263 -439C263 -446 257 -452 250 -452H242C235 -452 229 -446 229 -439L233 163C233 170 239 176 246 176C249 176 250 174 252 173C252 173 307 140 348 101C377 73 422 18 422 -58ZM0 -58C0 49 86 123 170 173C172 174 173 176 176 176C183 176 189 170 189 163L193 -439C193 -446 187 -452 180 -452H172C165 -452 159 -446 159 -439L161 -121C155 -129 133 -151 87 -151C37 -151 0 -120 0 -58ZM319 -107C355 -107 358 -73 358 -52C358 28 317 75 259 124L260 -74C260 -71 261 -69 261 -71C261 -80 275 -107 319 -107ZM103 -107C147 -107 161 -80 161 -71C161 -69 162 -71 162 -74L163 124C105 75 64 28 64 -52C64 -73 67 -107 103 -107Z" />
</g>
</def>
<g transform="translate(810, 200) scale(0.02) ">
 <use href="#uniE281" />
</g>

<g font-size="10" font-family="Verdana" >
<text x="810" y="250">uniE281</text>
</g>

<def>
<g id="uniE282">
 <path d="M169 -100C175 -101 180 -108 180 -114V-173C180 -181 174 -187 166 -187C165 -187 164 -186 163 -186L104 -174V-320H76V-168L11 -154C5 -153 0 -147 0 -141V-83C0 -75 6 -69 14 -69C15 -69 16 -69 17 -69L76 -81V84L11 98C5 99 0 105 0 111V169C0 177 6 183 14 183C15 183 16 183 17 183L76 171V316H104V165L169 152C175 151 180 144 180 138V79C180 71 174 66 166 66C165 66 164 66 163 66L104 78V-87Z" />
</g>
</def>
<g transform="translate(900, 200) scale(0.02) ">
 <use href="#uniE282" />
</g>

<g font-size="10" font-family="Verdana" >
<text x="900" y="250">uniE282</text>
</g>

<def>
<g id="uniE283">
 <path d="M278 -110C284 -111 289 -118 289 -124V-183C289 -191 284 -197 276 -197C275 -197 274 -197 273 -197L242 -190V-339H214V-184L155 -172V-323H128V-167L75 -156V-307H48V-150L11 -142C5 -141 0 -135 0 -129V-71C0 -63 6 -57 14 -57C15 -57 16 -57 17 -57L48 -64V102L11 110C5 111 0 117 0 123V181C0 189 6 195 14 195C15 195 16 195 17 195L48 189V328H75V183L128 172V313H155V167L214 155V296H242V149L278 142C284 141 290 134 290 128V69C290 61 284 55 276 55C275 55 274 55 273 55L242 62V-103ZM128 85L75 96V-69L128 -80ZM155 -85L214 -97V68L155 80Z" />
</g>
</def>
<g transform="translate(90, 300) scale(0.02) ">
 <use href="#uniE283" />
</g>

<g font-size="10" font-family="Verdana" >
<text x="90" y="350">uniE283</text>
</g>

<def>
<g id="uniE284">
 <path d="M0 -58C0 18 45 74 70 106C106 151 136 173 136 173C138 174 140 176 143 176C150 176 156 170 156 163L160 -439C160 -446 154 -452 147 -452H138C131 -452 125 -446 125 -439L128 -142C128 -142 119 -151 87 -151C37 -151 0 -120 0 -58ZM101 -107C126 -107 128 -83 128 -74L130 124C116 110 92 78 79 50C60 9 57 -25 57 -40C57 -55 57 -107 101 -107Z" />
</g>
</def>
<g transform="translate(180, 300) scale(0.02) ">
 <use href="#uniE284" />
</g>

<g font-size="10" font-family="Verdana" >
<text x="180" y="350">uniE284</text>
</g>

<def>
<g id="uniE285">
 <path d="M321 -151C260 -151 235 -126 229 -121L232 -439C232 -446 226 -452 219 -452H210C203 -452 197 -446 197 -439L201 163C201 170 207 176 214 176C217 176 220 174 222 173C222 173 301 135 342 96C371 68 416 18 416 -58C416 -120 371 -151 321 -151ZM0 -58C0 18 45 74 70 106C106 151 136 173 136 173C138 174 140 176 143 176C150 176 156 170 156 163L160 -439C160 -446 154 -452 147 -452H138C131 -452 125 -446 125 -439L128 -142C128 -142 119 -151 87 -151C37 -151 0 -120 0 -58ZM348 -40C348 -25 346 13 319 50C299 77 249 114 227 124L229 -59V-63C229 -87 249 -107 293 -107C349 -107 348 -55 348 -40ZM101 -107C126 -107 128 -83 128 -74L130 124C90 84 57 17 57 -40C57 -55 57 -107 101 -107Z" />
</g>
</def>
<g transform="translate(270, 300) scale(0.02) ">
 <use href="#uniE285" />
</g>

<g font-size="10" font-family="Verdana" >
<text x="270" y="350">uniE285</text>
</g>

<def>
<g id="uniE440">
 <path d="M275 -80C269 -120 246 -156 194 -156C142 -156 114 -124 110 -119L111 -220L233 -291V-335L112 -264V-339L233 -410V-454L113 -383L114 -440C114 -448 108 -454 100 -454H88C80 -454 74 -448 74 -440L75 -361L0 -317V-273L75 -317L76 -243L0 -198V-154L76 -199L79 163C79 171 85 176 93 176C96 176 98 175 101 174C101 174 168 142 224 79C262 36 277 -14 277 -55C277 -64 276 -72 275 -80ZM206 -40C206 -25 202 21 177 59C160 85 126 113 107 128L110 -67C112 -76 126 -106 167 -106C203 -106 206 -72 206 -51C206 -46 206 -43 206 -40Z" />
</g>
</def>
<g transform="translate(360, 300) scale(0.02) ">
 <use href="#uniE440" />
</g>

<g font-size="10" font-family="Verdana" >
<text x="360" y="350">uniE440</text>
</g>

<def>
<g id="uniE442">
 <path d="M275 -80C269 -120 246 -156 194 -156C142 -156 114 -124 110 -119L112 -242L233 -314V-358L112 -287L114 -440C114 -448 108 -454 100 -454H88C80 -454 74 -448 74 -440L76 -265L0 -221V-177L76 -221L79 163C79 171 85 176 93 176C96 176 99 175 101 174C101 174 168 142 224 79C262 36 277 -14 277 -55C277 -64 276 -72 275 -80ZM206 -40C206 -25 202 21 177 59C160 85 127 113 108 128L110 -67C112 -76 126 -106 167 -106C203 -106 206 -72 206 -51C206 -46 206 -43 206 -40Z" />
</g>
</def>
<g transform="translate(450, 300) scale(0.02) ">
 <use href="#uniE442" />
</g>

<g font-size="10" font-family="Verdana" >
<text x="450" y="350">uniE442</text>
</g>

<def>
<g id="uniE446">
 <path d="M343 -84C341 -86 338 -87 335 -87C334 -87 333 -86 332 -86L187 -47V-88L286 -114C292 -116 295 -120 295 -126V-185C295 -189 293 -194 290 -196C288 -198 285 -198 282 -198C281 -198 280 -198 279 -198L187 -173V-318H161V-166L62 -139C56 -137 53 -132 53 -126V-68C53 -64 55 -60 58 -58C60 -56 63 -55 66 -55C67 -55 68 -56 69 -56L161 -80V-40L10 2C4 4 0 8 0 14V72C0 76 2 80 5 82C7 84 10 85 13 85C14 85 15 85 16 85L161 46V86L62 113C56 115 53 119 53 125V183C53 187 55 192 58 194C60 196 63 196 66 196C67 196 68 196 69 196L161 171V316H187V164L286 138C292 136 295 131 295 125V66C295 62 293 58 290 56C288 54 285 53 282 53C281 53 280 54 279 54L187 79V38L338 -3C344 -5 348 -9 348 -15V-74C348 -78 346 -82 343 -84Z" />
</g>
</def>
<g transform="translate(540, 300) scale(0.02) ">
 <use href="#uniE446" />
</g>

<g font-size="10" font-family="Verdana" >
<text x="540" y="350">uniE446</text>
</g>

<def>
<g id="uniE447">
 <path d="M343 -84C341 -85 337 -87 335 -87C334 -87 333 -87 332 -87L246 -63V-103L286 -114C291 -115 295 -122 295 -127V-186C295 -193 290 -199 283 -199C282 -199 280 -198 279 -198L246 -189V-334H220V-182L129 -157V-303H103V-150L62 -139C57 -138 53 -132 53 -127V-68C53 -64 55 -60 58 -58C60 -57 64 -56 66 -56C67 -56 68 -56 69 -56L103 -65V-24L10 1C5 2 0 9 0 14V72C0 76 2 80 5 82C7 83 11 85 13 85C14 85 15 84 16 84L103 61V102L62 113C57 114 53 120 53 125V126V184C53 191 59 196 66 196C67 196 68 196 69 196L103 187V332H129V180L220 156V301H246V149L286 138C291 137 295 131 295 126V66C295 62 293 58 290 56C288 55 284 53 282 53C281 53 280 54 279 54L246 63V22L339 -3C344 -4 348 -10 348 -15V-74C348 -78 346 -82 343 -84ZM220 -96V-56L129 -31V-72ZM129 95V54L220 29V70Z" />
</g>
</def>
<g transform="translate(630, 300) scale(0.02) ">
 <use href="#uniE447" />
</g>

<g font-size="10" font-family="Verdana" >
<text x="630" y="350">uniE447</text>
</g>

<def>
<g id="uniE4A0">
 <path d="M18 -234C17 -234 15 -235 14 -235C6 -235 0 -229 0 -221V-198C0 -192 5 -187 10 -185L224 -118L10 -50C5 -48 0 -43 0 -37V-14C0 -6 6 0 14 0C15 0 17 -1 18 -1L351 -104C356 -106 361 -112 361 -118C361 -124 356 -129 351 -131Z" />
</g>
</def>
<g transform="translate(720, 300) scale(0.02) ">
 <use href="#uniE4A0" />
</g>

<g font-size="10" font-family="Verdana" >
<text x="720" y="350">uniE4A0</text>
</g>

<def>
<g id="uniE4A1">
 <path d="M18 1C18 1 17 1 17 1L15 0C6 0 0 6 0 14V37C0 43 5 48 10 50L224 117L10 185C5 187 0 192 0 198V221C0 229 6 235 15 235L17 234C17 234 18 234 18 234L351 131C356 129 361 123 361 117C361 111 356 106 351 104Z" />
</g>
</def>
<g transform="translate(810, 300) scale(0.02) ">
 <use href="#uniE4A1" />
</g>

<g font-size="10" font-family="Verdana" >
<text x="810" y="350">uniE4A1</text>
</g>

<def>
<g id="uniE4A2">
 <path d="M11 -11C27 4 51 4 67 -11C82 -27 82 -51 67 -66C51 -82 27 -82 11 -66C-4 -51 -4 -27 11 -11Z" />
</g>
</def>
<g transform="translate(900, 300) scale(0.02) ">
 <use href="#uniE4A2" />
</g>

<g font-size="10" font-family="Verdana" >
<text x="900" y="350">uniE4A2</text>
</g>

<def>
<g id="uniE4A3">
 <path d="M11 67C19 75 29 78 39 78C49 78 59 75 67 67C82 51 82 27 67 12C59 4 49 0 39 0C29 0 19 4 11 12C-4 27 -4 51 11 67Z" />
</g>
</def>
<g transform="translate(90, 400) scale(0.02) ">
 <use href="#uniE4A3" />
</g>

<g font-size="10" font-family="Verdana" >
<text x="90" y="450">uniE4A3</text>
</g>

<def>
<g id="uniE4A4">
 <path d="M14 -46C6 -46 0 -40 0 -32V-14C0 -6 6 0 14 0H302C310 0 316 -6 316 -14V-32C316 -40 310 -46 302 -46Z" />
</g>
</def>
<g transform="translate(180, 400) scale(0.02) ">
 <use href="#uniE4A4" />
</g>

<g font-size="10" font-family="Verdana" >
<text x="180" y="450">uniE4A4</text>
</g>

<def>
<g id="uniE4A5">
 <path d="M14 0C6 0 0 6 0 14V32C0 40 6 46 14 46H302C310 46 316 40 316 32V14C316 6 310 0 302 0Z" />
</g>
</def>
<g transform="translate(270, 400) scale(0.02) ">
 <use href="#uniE4A5" />
</g>

<g font-size="10" font-family="Verdana" >
<text x="270" y="450">uniE4A5</text>
</g>

<def>
<g id="uniE4A6">
 <path d="M113 -248C107 -248 104 -245 104 -245L69 -208C67 -206 66 -205 64 -205C62 -205 61 -206 59 -208L24 -245C24 -245 21 -248 15 -248C9 -248 0 -244 0 -235C0 -224 51 -15 51 -15C52 -11 54 0 64 0C74 0 76 -11 77 -15C77 -15 127 -224 127 -235C127 -244 119 -248 113 -248Z" />
</g>
</def>
<g transform="translate(360, 400) scale(0.02) ">
 <use href="#uniE4A6" />
</g>

<g font-size="10" font-family="Verdana" >
<text x="360" y="450">uniE4A6</text>
</g>

<def>
<g id="uniE4A7">
 <path d="M14 248C20 248 23 245 23 245L58 208C60 206 61 205 63 205C65 205 66 206 68 208L103 245C103 245 106 248 112 248C118 248 127 244 127 235C127 224 76 15 76 15C75 11 73 0 63 0C53 0 51 11 50 15C50 15 0 224 0 235C0 244 8 248 14 248Z" />
</g>
</def>
<g transform="translate(450, 400) scale(0.02) ">
 <use href="#uniE4A7" />
</g>

<g font-size="10" font-family="Verdana" >
<text x="450" y="450">uniE4A7</text>
</g>

<def>
<g id="uniE4A8">
 <path d="M118 -254C108 -254 82 -231 61 -231C39 -231 13 -254 4 -254C1 -254 0 -253 0 -249C0 -245 2 -237 5 -228C36 -127 51 -8 51 -8C53 -3 57 0 61 0C65 0 69 -3 71 -8C71 -8 86 -127 117 -228C120 -237 122 -245 122 -249C122 -253 120 -254 118 -254Z" />
</g>
</def>
<g transform="translate(540, 400) scale(0.02) ">
 <use href="#uniE4A8" />
</g>

<g font-size="10" font-family="Verdana" >
<text x="540" y="450">uniE4A8</text>
</g>

<def>
<g id="uniE4A9">
 <path d="M4 254C14 254 39 231 61 231C83 231 108 254 118 254C120 254 122 253 122 249C122 245 120 237 117 228C86 127 71 8 71 8C69 3 65 0 61 0C57 0 53 3 51 8C51 8 36 127 5 228C2 237 0 245 0 249C0 253 2 254 4 254Z" />
</g>
</def>
<g transform="translate(630, 400) scale(0.02) ">
 <use href="#uniE4A9" />
</g>

<g font-size="10" font-family="Verdana" >
<text x="630" y="450">uniE4A9</text>
</g>

<def>
<g id="uniE4AC">
 <path d="M25 -7L120 -166L207 -7C209 -3 215 0 220 0H283C291 0 296 -6 296 -14C296 -16 296 -19 295 -21L160 -247C157 -251 154 -252 148 -253C144 -253 138 -251 136 -247L1 -21Z" />
</g>
</def>
<g transform="translate(720, 400) scale(0.02) ">
 <use href="#uniE4AC" />
</g>

<g font-size="10" font-family="Verdana" >
<text x="720" y="450">uniE4AC</text>
</g>

<def>
<g id="uniE4AD">
 <path d="M271 7L176 166L89 7C87 3 81 0 76 0H13C5 0 0 6 0 14C0 16 0 19 1 21L136 247C139 251 142 252 148 253C152 253 158 251 160 247L295 21Z" />
</g>
</def>
<g transform="translate(810, 400) scale(0.02) ">
 <use href="#uniE4AD" />
</g>

<g font-size="10" font-family="Verdana" >
<text x="810" y="450">uniE4AD</text>
</g>

<def>
<g id="uniE4AE">
 <path d="M25 -140L120 -299L207 -140C209 -136 215 -133 220 -133H283C291 -133 296 -139 296 -147C296 -149 296 -152 295 -154L160 -380C157 -384 154 -385 148 -386C144 -386 138 -384 136 -380L1 -154ZM120 -11C128 -4 138 0 148 0C158 0 168 -4 176 -11C191 -27 191 -51 176 -67C168 -75 158 -78 148 -78C138 -78 128 -75 120 -67C105 -51 105 -27 120 -11Z" />
</g>
</def>
<g transform="translate(900, 400) scale(0.02) ">
 <use href="#uniE4AE" />
</g>

<g font-size="10" font-family="Verdana" >
<text x="900" y="450">uniE4AE</text>
</g>
</svg>

