<?xml version="1.0" standalone="no"?>

<svg version="1.1"
    viewBox="0 0 1003 503"
     xmlns="http://www.w3.org/2000/svg">
  <desc>shows all the symbols from font</desc>
    <g fill="none" stroke="black" stroke-width="3" >
<line x1="0" y1="1.5" x2="1000" y2="1.5" />
<line x1="1.5" y1="0" x2="1.5" y2="500" />
</g>
<g fill="red" stroke="none" >
<rect x="0" y="0" width="3" height="3" />
<rect x="997" y="0" width="3" height="3" />
<rect x="0" y="497" width="3" height="3" />
</g>
<g font-size="14" font-family="Verdana" >
<text x="10" y="20">(0,0)</text>
<text x="940" y="20">(1000,0)</text>
<text x="10" y="490">(0,500)</text>
</g>
<g style="stroke:#D3D3D3;stroke-width:0.5px;stroke-dasharray:10, 10;stroke-opacity:1" >
<line x1="0.0" y1="0" x2="0.0" y2="500" />
<line x1="90.9090909090909" y1="0" x2="90.9090909090909" y2="500" />
<line x1="181.8181818181818" y1="0" x2="181.8181818181818" y2="500" />
<line x1="272.72727272727275" y1="0" x2="272.72727272727275" y2="500" />
<line x1="363.6363636363636" y1="0" x2="363.6363636363636" y2="500" />
<line x1="454.54545454545456" y1="0" x2="454.54545454545456" y2="500" />
<line x1="545.4545454545455" y1="0" x2="545.4545454545455" y2="500" />
<line x1="636.3636363636364" y1="0" x2="636.3636363636364" y2="500" />
<line x1="727.2727272727273" y1="0" x2="727.2727272727273" y2="500" />
<line x1="818.1818181818181" y1="0" x2="818.1818181818181" y2="500" />
<line x1="909.0909090909091" y1="0" x2="909.0909090909091" y2="500" />
<line x1="1000.0" y1="0" x2="1000.0" y2="500" />
<line x1="0" y1="0.0" x2="1000" y2="0.0" />
<line x1="0" y1="100.0" x2="1000" y2="100.0" />
<line x1="0" y1="200.0" x2="1000" y2="200.0" />
<line x1="0" y1="300.0" x2="1000" y2="300.0" />
<line x1="0" y1="400.0" x2="1000" y2="400.0" />
<line x1="0" y1="500.0" x2="1000" y2="500.0" />
</g>

<def>
 <g id="uniE4AF">
 <path d="M176 11C168 4 158 0 148 0C138 0 128 4 120 11C105 27 105 51 120 67C128 75 138 78 148 78C158 78 168 75 176 67C191 51 191 27 176 11ZM271 140L176 299L89 140C87 136 81 133 76 133H13C5 133 0 139 0 147C0 149 0 152 1 154L136 380C139 384 142 385 148 386C152 386 158 384 160 380L295 154Z" />
</g>
</def>
<g transform="translate(90, 100) scale(0.02) ">
 <use href="#uniE4AF" />
</g>

<g font-size="10" font-family="Verdana" >
<text x="90" y="150">uniE4AF</text>
</g>

<def>
 <g id="uniE4B0">
 <path d="M18 -343C18 -343 17 -343 17 -343L15 -344C6 -344 0 -338 0 -330V-307C0 -301 5 -296 10 -294L224 -227L10 -159C5 -157 0 -152 0 -146V-123C0 -115 6 -109 15 -109L17 -110C17 -110 18 -110 18 -110L351 -213C356 -215 361 -221 361 -227C361 -233 356 -238 351 -240ZM152 -11C160 -4 170 0 180 0C190 0 200 -4 208 -11C223 -27 223 -51 208 -67C200 -75 190 -78 180 -78C170 -78 160 -75 152 -67C137 -51 137 -27 152 -11Z" />
</g>
</def>
<g transform="translate(180, 100) scale(0.02) ">
 <use href="#uniE4B0" />
</g>

<g font-size="10" font-family="Verdana" >
<text x="180" y="150">uniE4B0</text>
</g>

<def>
 <g id="uniE4B1">
 <path d="M152 67C160 75 170 78 180 78C190 78 200 75 208 67C223 51 223 27 208 12C200 4 190 0 180 0C170 0 160 4 152 12C137 27 137 51 152 67ZM18 110C18 110 17 110 17 110L15 109C6 109 0 115 0 123V146C0 152 5 157 10 159L224 226L10 294C5 296 0 301 0 307V330C0 338 6 344 15 344L17 343C17 343 18 343 18 343L351 240C356 238 361 232 361 226C361 220 356 215 351 213Z" />
</g>
</def>
<g transform="translate(270, 100) scale(0.02) ">
 <use href="#uniE4B1" />
</g>

<g font-size="10" font-family="Verdana" >
<text x="270" y="150">uniE4B1</text>
</g>

<def>
 <g id="uniE4B2">
 <path d="M14 -187C6 -187 0 -181 0 -173V-155C0 -147 6 -141 14 -141H302C310 -141 316 -147 316 -155V-173C316 -181 310 -187 302 -187ZM130 -11C138 -4 148 0 158 0C168 0 178 -4 186 -11C201 -27 201 -51 186 -67C178 -75 168 -78 158 -78C148 -78 138 -75 130 -67C115 -51 115 -27 130 -11Z" />
</g>
</def>
<g transform="translate(360, 100) scale(0.02) ">
 <use href="#uniE4B2" />
</g>

<g font-size="10" font-family="Verdana" >
<text x="360" y="150">uniE4B2</text>
</g>

<def>
 <g id="uniE4B3">
 <path d="M130 67C138 75 148 78 158 78C168 78 178 75 186 67C201 51 201 27 186 12C178 4 168 0 158 0C148 0 138 4 130 12C115 27 115 51 130 67ZM14 141C6 141 0 147 0 155V173C0 181 6 187 14 187H302C310 187 316 181 316 173V155C316 147 310 141 302 141Z" />
</g>
</def>
<g transform="translate(450, 100) scale(0.02) ">
 <use href="#uniE4B3" />
</g>

<g font-size="10" font-family="Verdana" >
<text x="450" y="150">uniE4B3</text>
</g>

<def>
 <g id="uniE4B4">
 <path d="M18 -357C18 -357 17 -357 17 -357L15 -358C6 -358 0 -352 0 -344V-321C0 -315 5 -310 10 -308L224 -241L10 -173C5 -171 0 -166 0 -160V-137C0 -129 6 -123 15 -123L17 -124C17 -124 18 -124 18 -124L351 -227C356 -229 361 -235 361 -241C361 -247 356 -252 351 -254ZM36 -46C28 -46 22 -40 22 -32V-14C22 -6 28 0 36 0H324C332 0 338 -6 338 -14V-32C338 -40 332 -46 324 -46Z" />
</g>
</def>
<g transform="translate(540, 100) scale(0.02) ">
 <use href="#uniE4B4" />
</g>

<g font-size="10" font-family="Verdana" >
<text x="540" y="150">uniE4B4</text>
</g>

<def>
 <g id="uniE4B5">
 <path d="M36 0C28 0 22 6 22 14V32C22 40 28 46 36 46H324C332 46 338 40 338 32V14C338 6 332 0 324 0ZM18 124C18 124 17 124 17 124L15 123C6 123 0 129 0 137V160C0 166 5 171 10 173L224 240L10 308C5 310 0 315 0 321V344C0 352 6 358 15 358L17 357C17 357 18 357 18 357L351 254C356 252 361 246 361 240C361 234 356 229 351 227Z" />
</g>
</def>
<g transform="translate(630, 100) scale(0.02) ">
 <use href="#uniE4B5" />
</g>

<g font-size="10" font-family="Verdana" >
<text x="630" y="150">uniE4B5</text>
</g>

<def>
 <g id="uniE4B6">
 <path d="M2 -2C3 -1 5 0 7 0C43 0 203 -137 206 -140C209 -143 212 -149 212 -154C212 -159 209 -165 206 -168L168 -206C165 -209 159 -212 154 -212C149 -212 143 -209 140 -206C140 -206 0 -43 0 -7C0 -5 1 -3 2 -2Z" />
</g>
</def>
<g transform="translate(720, 100) scale(0.02) ">
 <use href="#uniE4B6" />
</g>

<g font-size="10" font-family="Verdana" >
<text x="720" y="150">uniE4B6</text>
</g>

<def>
 <g id="uniE4B7">
 <path d="M2 2C1 3 0 5 0 7C0 43 140 206 140 206C143 209 149 212 154 212C159 212 165 209 168 206L206 168C209 165 212 159 212 154C212 149 209 143 206 140C203 137 43 0 7 0C5 0 3 1 2 2Z" />
</g>
</def>
<g transform="translate(810, 100) scale(0.02) ">
 <use href="#uniE4B7" />
</g>

<g font-size="10" font-family="Verdana" >
<text x="810" y="150">uniE4B7</text>
</g>

<def>
 <g id="uniE4B8">
 <path d="M332 0C331 0 330 0 329 0C321 0 317 7 315 12C313 18 298 105 171 105C44 105 29 18 27 12C25 7 21 0 13 0C12 0 11 0 10 0C2 2 0 9 0 14C0 15 0 16 0 17C1 22 25 162 171 162C317 162 341 22 342 17C342 16 342 15 342 14C342 9 340 2 332 0Z" />
</g>
</def>
<g transform="translate(900, 100) scale(0.02) ">
 <use href="#uniE4B8" />
</g>

<g font-size="10" font-family="Verdana" >
<text x="900" y="150">uniE4B8</text>
</g>

<def>
 <g id="uniE4B9">
 <path d="M332 0C340 -2 342 -9 342 -14C342 -15 342 -16 342 -17C341 -22 317 -162 171 -162C25 -162 1 -22 0 -17C0 -16 0 -15 0 -14C0 -9 2 -2 10 0C11 0 12 0 13 0C21 0 25 -7 27 -12C29 -18 44 -105 171 -105C298 -105 313 -18 315 -12C317 -7 321 0 329 0C330 0 331 0 332 0Z" />
</g>
</def>
<g transform="translate(90, 200) scale(0.02) ">
 <use href="#uniE4B9" />
</g>

<g font-size="10" font-family="Verdana" >
<text x="90" y="250">uniE4B9</text>
</g>

<def>
 <g id="uniE4BA">
 <path d="M570 -14C568 -17 537 -52 496 -77C462 -97 434 -111 407 -119C369 -131 329 -137 287 -137C244 -137 204 -131 166 -119C139 -111 111 -97 77 -77C36 -52 6 -18 3 -14C1 -12 0 -9 0 -7C0 -6 0 -4 2 -2C4 0 7 0 9 0C9 0 13 0 17 -3C21 -6 48 -26 90 -45C128 -62 184 -81 287 -81C389 -81 445 -62 483 -45C525 -26 552 -6 556 -3C560 0 564 0 564 0C567 0 569 -1 570 -2C572 -4 573 -6 573 -8C573 -9 573 -10 570 -14Z" />
</g>
</def>
<g transform="translate(180, 200) scale(0.02) ">
 <use href="#uniE4BA" />
</g>

<g font-size="10" font-family="Verdana" >
<text x="180" y="250">uniE4BA</text>
</g>

<def>
 <g id="uniE4BB">
 <path d="M530 13C533 10 533 9 533 7C533 6 532 4 530 2C529 1 527 0 525 0C525 0 521 0 517 3C513 6 489 24 449 42C414 57 362 75 267 75C171 75 119 57 84 42C45 24 20 6 16 3C12 0 8 0 8 0C6 0 4 0 2 2C0 4 0 6 0 7C0 9 1 11 3 13C6 17 34 49 72 72C103 91 129 103 155 111C189 122 227 127 267 127C306 127 344 122 378 111C404 103 430 91 461 72C499 49 528 16 530 13Z" />
</g>
</def>
<g transform="translate(270, 200) scale(0.02) ">
 <use href="#uniE4BB" />
</g>

<g font-size="10" font-family="Verdana" >
<text x="270" y="250">uniE4BB</text>
</g>

<def>
 <g id="uniE4BC">
 <path d="M36 -123L131 -282L218 -123C220 -119 226 -116 231 -116H294C302 -116 307 -122 307 -130C307 -132 307 -135 306 -137L171 -363C168 -367 165 -368 159 -369C155 -369 149 -367 147 -363L12 -137ZM14 -46C6 -46 0 -40 0 -32V-14C0 -6 6 0 14 0H302C310 0 316 -6 316 -14V-32C316 -40 310 -46 302 -46Z" />
</g>
</def>
<g transform="translate(360, 200) scale(0.02) ">
 <use href="#uniE4BC" />
</g>

<g font-size="10" font-family="Verdana" >
<text x="360" y="250">uniE4BC</text>
</g>

<def>
 <g id="uniE4BD">
 <path d="M14 0C6 0 0 6 0 14V32C0 40 6 46 14 46H302C310 46 316 40 316 32V14C316 6 310 0 302 0ZM280 123L185 282L98 123C96 119 90 116 85 116H22C14 116 9 122 9 130C9 132 9 135 10 137L145 363C148 367 151 368 157 369C161 369 167 367 169 363L304 137Z" />
</g>
</def>
<g transform="translate(450, 200) scale(0.02) ">
 <use href="#uniE4BD" />
</g>

<g font-size="10" font-family="Verdana" >
<text x="450" y="250">uniE4BD</text>
</g>

<def>
 <g id="uniE4C0">
 <path d="M540 -260C446 -362 363 -368 311 -368C259 -368 177 -362 83 -260C34 -206 0 -99 0 -45C0 -26 4 -13 14 -13C42 -13 28 -99 112 -184C186 -258 285 -259 309 -259C310 -259 310 -259 311 -259C312 -259 312 -259 313 -259C337 -259 436 -258 510 -184C594 -99 580 -13 608 -13C618 -13 622 -25 622 -45C622 -99 589 -207 540 -260ZM242 -69C242 -31 273 0 311 0C349 0 380 -31 380 -69C380 -107 349 -138 311 -138C273 -138 242 -107 242 -69Z" />
</g>
</def>
<g transform="translate(540, 200) scale(0.02) ">
 <use href="#uniE4C0" />
</g>

<g font-size="10" font-family="Verdana" >
<text x="540" y="250">uniE4C0</text>
</g>

<def>
 <g id="uniE4C1">
 <path d="M540 260C589 207 622 99 622 45C622 25 618 13 608 13C580 13 594 99 510 184C436 258 337 259 313 259C312 259 312 259 311 259C310 259 310 259 309 259C285 259 186 258 112 184C28 99 42 13 14 13C4 13 0 26 0 45C0 99 34 206 83 260C177 362 259 368 311 368C363 368 446 362 540 260ZM242 69C242 107 273 138 311 138C349 138 380 107 380 69C380 31 349 0 311 0C273 0 242 31 242 69Z" />
</g>
</def>
<g transform="translate(630, 200) scale(0.02) ">
 <use href="#uniE4C1" />
</g>

<g font-size="10" font-family="Verdana" >
<text x="630" y="250">uniE4C1</text>
</g>

<def>
 <g id="uniE4C4">
 <path d="M252 -103C252 -65 283 -34 321 -34C359 -34 390 -65 390 -103C390 -141 359 -172 321 -172C283 -172 252 -141 252 -103ZM331 -448C329 -451 324 -454 320 -454C316 -454 311 -451 309 -448L3 -22C2 -20 0 -16 0 -14C0 -6 6 0 14 0H57C61 0 66 -3 68 -6L320 -357L574 -6C576 -3 581 0 585 0H628C636 0 642 -6 642 -14C642 -16 640 -20 639 -22Z" />
</g>
</def>
<g transform="translate(720, 200) scale(0.02) ">
 <use href="#uniE4C4" />
</g>

<g font-size="10" font-family="Verdana" >
<text x="720" y="250">uniE4C4</text>
</g>

<def>
 <g id="uniE4C5">
 <path d="M252 103C252 141 283 172 321 172C359 172 390 141 390 103C390 65 359 34 321 34C283 34 252 65 252 103ZM639 22C640 20 642 16 642 14C642 6 636 0 628 0H585C581 0 576 3 574 6L320 357L68 6C66 3 61 0 57 0H14C6 0 0 6 0 14C0 16 2 20 3 22L309 448C311 451 316 454 320 454C324 454 329 451 331 448Z" />
</g>
</def>
<g transform="translate(810, 200) scale(0.02) ">
 <use href="#uniE4C5" />
</g>

<g font-size="10" font-family="Verdana" >
<text x="810" y="250">uniE4C5</text>
</g>

<def>
 <g id="uniE4C6">
 <path d="M28 0V-277H596V0H623V-354C623 -362 617 -368 609 -368H14C6 -368 0 -362 0 -354V0ZM243 -103C243 -65 274 -34 312 -34C350 -34 380 -65 380 -103C380 -141 350 -172 312 -172C274 -172 243 -141 243 -103Z" />
</g>
</def>
<g transform="translate(900, 200) scale(0.02) ">
 <use href="#uniE4C6" />
</g>

<g font-size="10" font-family="Verdana" >
<text x="900" y="250">uniE4C6</text>
</g>

<def>
 <g id="uniE4C7">
 <path d="M0 354C0 362 6 368 14 368H609C617 368 623 362 623 354V0H596V277H28V0H0ZM243 103C243 141 274 172 312 172C350 172 380 141 380 103C380 65 350 34 312 34C274 34 243 65 243 103Z" />
</g>
</def>
<g transform="translate(90, 300) scale(0.02) ">
 <use href="#uniE4C7" />
</g>

<g font-size="10" font-family="Verdana" >
<text x="90" y="350">uniE4C7</text>
</g>

<def>
 <g id="uniE4C8">
 <path d="M192 0V-277H650V0H678V-354C678 -362 672 -368 664 -368H178C170 -368 164 -362 164 -354V0ZM352 -103C352 -65 383 -34 421 -34C459 -34 490 -65 490 -103C490 -141 459 -172 421 -172C383 -172 352 -141 352 -103ZM28 0V-459H814V0H842V-536C842 -544 836 -549 828 -549H14C6 -549 0 -544 0 -536V0Z" />
</g>
</def>
<g transform="translate(180, 300) scale(0.02) ">
 <use href="#uniE4C8" />
</g>

<g font-size="10" font-family="Verdana" >
<text x="180" y="350">uniE4C8</text>
</g>

<def>
 <g id="uniE4C9">
 <path d="M164 354C164 362 170 368 178 368H664C672 368 678 362 678 354V0H650V277H192V0H164ZM352 103C352 141 383 172 421 172C459 172 490 141 490 103C490 65 459 34 421 34C383 34 352 65 352 103ZM0 536C0 544 6 549 14 549H828C836 549 842 544 842 536V0H814V459H28V0H0Z" />
</g>
</def>
<g transform="translate(270, 300) scale(0.02) ">
 <use href="#uniE4C9" />
</g>

<g font-size="10" font-family="Verdana" >
<text x="270" y="350">uniE4C9</text>
</g>

<def>
 <g id="uniE4CE">
 <path d="M57 0C149 -64 191 -127 191 -198C191 -275 147 -321 80 -321C32 -321 0 -287 0 -247C0 -204 37 -171 80 -171C109 -171 123 -178 126 -179C128 -180 131 -181 133 -181C135 -181 136 -181 138 -180C140 -179 141 -176 141 -170C141 -127 102 -78 33 -30Z" />
</g>
</def>
<g transform="translate(360, 300) scale(0.02) ">
 <use href="#uniE4CE" />
</g>

<g font-size="10" font-family="Verdana" >
<text x="360" y="350">uniE4CE</text>
</g>

<def>
 <g id="uniE4D1">
 <path d="M198 -490C198 -490 198 -490 198 -490C194 -490 190 -487 188 -483L1 -15C0 -14 0 -12 0 -11C0 -5 5 0 11 0H35C39 0 43 -3 45 -7L232 -475C232 -476 233 -478 233 -479C233 -485 228 -490 222 -490ZM148 -15C148 -14 147 -12 147 -11C147 -5 152 0 158 0H182C186 0 190 -3 192 -7L379 -475C380 -476 380 -478 380 -479C380 -485 375 -490 369 -490H345C341 -490 337 -487 335 -483Z" />
</g>
</def>
<g transform="translate(450, 300) scale(0.02) ">
 <use href="#uniE4D1" />
</g>

<g font-size="10" font-family="Verdana" >
<text x="450" y="350">uniE4D1</text>
</g>

<def>
 <g id="uniE4D3">
 <path d="M38 1C42 1 46 -3 46 -8V-490C46 -496 42 -500 36 -500H10C4 -500 0 -496 0 -490V-8C0 -3 4 1 8 1ZM176 1C180 1 184 -3 184 -8V-490C184 -496 180 -500 174 -500H148C142 -500 138 -496 138 -490V-8C138 -3 142 1 146 1Z" />
</g>
</def>
<g transform="translate(540, 300) scale(0.02) ">
 <use href="#uniE4D3" />
</g>

<g font-size="10" font-family="Verdana" >
<text x="540" y="350">uniE4D3</text>
</g>

<def>
 <g id="uniE4D4">
 <path d="M182 -491C176 -491 171 -487 170 -481C162 -419 123 -242 1 -18C0 -16 0 -14 0 -12C0 -6 4 0 11 0C15 0 19 -2 21 -5C180 -237 211 -418 221 -477C221 -478 221 -478 221 -479C221 -485 215 -491 209 -491ZM329 -491C323 -491 319 -487 318 -481C310 -419 270 -242 148 -18C147 -16 147 -14 147 -13C147 -6 152 0 159 0C163 0 167 -2 169 -5C328 -237 358 -418 368 -477C368 -478 368 -478 368 -479C368 -485 363 -491 357 -491Z" />
</g>
</def>
<g transform="translate(630, 300) scale(0.02) ">
 <use href="#uniE4D4" />
</g>

<g font-size="10" font-family="Verdana" >
<text x="630" y="350">uniE4D4</text>
</g>

<def>
 <g id="uniE4D7">
 <path d="M38 1C42 1 46 -3 46 -8V-490C46 -496 42 -500 36 -500H10C4 -500 0 -496 0 -490V-8C0 -3 4 1 8 1Z" />
</g>
</def>
<g transform="translate(720, 300) scale(0.02) ">
 <use href="#uniE4D7" />
</g>

<g font-size="10" font-family="Verdana" >
<text x="720" y="350">uniE4D7</text>
</g>

<def>
 <g id="uniE4E0">
 <path d="M110 250C118 250 125 243 125 235V-235C125 -243 118 -250 110 -250H15C6 -250 0 -243 0 -235V235C0 243 6 250 15 250ZM435 250C443 250 450 243 450 235V-235C450 -243 443 -250 435 -250H340C331 -250 325 -243 325 -235V235C325 243 331 250 340 250Z" />
</g>
</def>
<g transform="translate(810, 300) scale(0.02) ">
 <use href="#uniE4E0" />
</g>

<g font-size="10" font-family="Verdana" >
<text x="810" y="350">uniE4E0</text>
</g>

<def>
 <g id="uniE4E1">
 <path d="M110 250C118 250 125 243 125 235V-235C125 -243 118 -250 110 -250H15C7 -250 0 -243 0 -235V235C0 243 7 250 15 250Z" />
</g>
</def>
<g transform="translate(900, 300) scale(0.02) ">
 <use href="#uniE4E1" />
</g>

<g font-size="10" font-family="Verdana" >
<text x="900" y="350">uniE4E1</text>
</g>

<def>
 <g id="uniE4E2">
 <path d="M110 11C119 11 125 4 125 -4V-247C125 -255 119 -262 110 -262H15C7 -262 0 -255 0 -247V-4C0 4 7 11 15 11Z" />
</g>
</def>
<g transform="translate(90, 400) scale(0.02) ">
 <use href="#uniE4E2" />
</g>

<g font-size="10" font-family="Verdana" >
<text x="90" y="450">uniE4E2</text>
</g>

<def>
 <g id="uniE4E3">
 <path d="M14 -5C6 -5 0 1 0 9V117C0 125 6 131 14 131H311C319 131 325 125 325 117V9C325 1 319 -5 311 -5Z" />
</g>
</def>
<g transform="translate(180, 400) scale(0.02) ">
 <use href="#uniE4E3" />
</g>

<g font-size="10" font-family="Verdana" >
<text x="180" y="450">uniE4E3</text>
</g>

<def>
 <g id="uniE4E4">
 <path d="M0 -10C0 4 0 4 14 4H311C325 4 325 4 325 -10V-118C325 -132 325 -132 311 -132H14C0 -132 0 -132 0 -118Z" />
</g>
</def>
<g transform="translate(270, 400) scale(0.02) ">
 <use href="#uniE4E4" />
</g>

<g font-size="10" font-family="Verdana" >
<text x="270" y="450">uniE4E4</text>
</g>

<def>
 <g id="uniE4E5">
 <path d="M230 166C229 165 227 163 224 159L109 17C108 16 107 13 107 11C107 8 108 4 109 2L211 -152C212 -154 213 -157 213 -159V-168C213 -171 212 -174 210 -176L48 -395C48 -395 44 -401 38 -401C35 -401 33 -400 30 -398C26 -395 25 -391 25 -388C25 -382 28 -377 28 -377L104 -273C106 -270 107 -266 107 -261C107 -257 106 -252 104 -249L3 -95C2 -93 1 -89 1 -87V-78C1 -75 2 -72 4 -70L116 69C112 68 103 66 91 66C74 66 52 70 34 86C12 106 0 134 0 159C0 173 3 187 11 198C32 230 107 325 107 325C107 325 112 331 119 331C121 331 123 331 125 329C130 325 132 321 132 317C132 313 130 310 129 308C126 303 94 245 94 245C94 245 87 231 87 213C87 200 91 184 104 171C116 159 130 155 143 155C156 155 167 159 175 164L214 189C214 189 218 191 222 191C226 191 229 190 232 186C234 182 235 180 235 177C235 174 234 172 232 169Z" />
</g>
</def>
<g transform="translate(360, 400) scale(0.02) ">
 <use href="#uniE4E5" />
</g>

<g font-size="10" font-family="Verdana" >
<text x="360" y="450">uniE4E5</text>
</g>

<def>
 <g id="uniE4E6">
 <path d="M267 -203C266 -203 264 -204 263 -204C257 -204 252 -201 250 -196C246 -190 215 -131 170 -98C157 -88 141 -81 125 -78C136 -91 143 -107 143 -126C143 -165 111 -197 72 -197C32 -197 0 -165 0 -126C0 -95 19 -70 45 -59C60 -52 80 -47 100 -47C129 -47 160 -56 187 -76C199 -85 211 -97 222 -109L108 247L135 255L275 -186C276 -187 276 -189 276 -191C276 -196 273 -200 267 -203Z" />
</g>
</def>
<g transform="translate(450, 400) scale(0.02) ">
 <use href="#uniE4E6" />
</g>

<g font-size="10" font-family="Verdana" >
<text x="450" y="450">uniE4E6</text>
</g>

<def>
 <g id="uniE4E7">
 <path d="M343 -186C344 -188 344 -189 344 -191C344 -196 341 -201 335 -203C333 -204 331 -204 330 -204C324 -204 320 -201 317 -196C293 -148 253 -94 198 -80C210 -94 215 -110 215 -128C215 -167 180 -197 141 -197C101 -195 72 -162 72 -123C73 -93 93 -68 119 -58C137 -50 156 -48 175 -48C225 -50 264 -75 294 -114L249 45C235 92 178 157 127 170C138 156 144 139 144 122C144 82 110 53 71 53C31 53 1 87 1 127C1 157 22 182 48 191C67 199 84 201 104 201C154 199 193 174 223 135L121 500L148 507Z" />
</g>
</def>
<g transform="translate(540, 400) scale(0.02) ">
 <use href="#uniE4E7" />
</g>

<g font-size="10" font-family="Verdana" >
<text x="540" y="450">uniE4E7</text>
</g>

<def>
 <g id="uniE4E8">
 <path d="M151 -49C242 -49 279 -112 283 -119L246 32C224 84 186 151 128 167C139 153 142 137 142 119C142 79 110 53 71 53C32 53 0 83 0 123C0 175 44 200 97 200C150 200 192 171 222 129L131 501L158 507L390 -443C391 -444 391 -446 391 -447C391 -453 387 -457 381 -459C380 -460 378 -460 377 -460C371 -460 367 -456 364 -451C345 -409 299 -350 251 -338C263 -353 266 -368 266 -386C266 -424 235 -453 196 -453C157 -453 124 -423 124 -381C124 -351 146 -322 173 -313C186 -308 200 -306 216 -305C220 -305 224 -305 229 -306C278 -309 318 -337 346 -376L307 -215C287 -165 244 -95 188 -81C200 -96 203 -111 203 -129C203 -169 170 -196 131 -196C92 -196 61 -165 61 -125C61 -78 106 -49 151 -49Z" />
</g>
</def>
<g transform="translate(630, 400) scale(0.02) ">
 <use href="#uniE4E8" />
</g>

<g font-size="10" font-family="Verdana" >
<text x="630" y="450">uniE4E8</text>
</g>

<def>
 <g id="uniE4E9">
 <path d="M144 752L171 758C196 638 420 -440 422 -447C422 -449 423 -450 423 -451C423 -457 419 -462 413 -463C412 -464 411 -464 409 -464C401 -464 399 -461 395 -454C391 -447 368 -398 329 -362C317 -351 302 -343 286 -338C295 -349 300 -365 300 -379C300 -421 265 -451 228 -451C191 -451 157 -422 157 -379C157 -323 208 -304 250 -304C291 -304 329 -323 348 -342C366 -360 370 -365 379 -379L380 -380L347 -224C341 -208 314 -145 277 -112C265 -100 250 -92 234 -87C243 -99 248 -93 248 -128C248 -163 220 -200 176 -200C132 -200 105 -164 105 -130C105 -96 127 -53 198 -53C286 -53 323 -120 327 -128L294 31C287 48 260 110 225 142C212 154 197 162 182 167C190 155 195 147 195 125C195 102 179 54 123 54C68 54 52 106 52 125C52 144 61 201 145 201C229 201 270 134 274 126L243 276C234 312 198 368 172 392C159 403 144 411 129 416C137 405 142 391 142 375C142 348 121 304 71 304C20 304 0 348 0 375C0 402 17 450 92 450C185 450 219 383 222 375Z" />
</g>
</def>
<g transform="translate(720, 400) scale(0.02) ">
 <use href="#uniE4E9" />
</g>

<g font-size="10" font-family="Verdana" >
<text x="720" y="450">uniE4E9</text>
</g>

<def>
 <g id="uniE4EA">
 <path d="M470 -714C467 -716 463 -717 461 -717C454 -717 451 -714 447 -707C443 -700 420 -651 381 -615C369 -604 354 -596 338 -591C347 -603 352 -618 352 -632C352 -674 317 -704 280 -704C243 -704 209 -675 209 -632C209 -576 260 -557 302 -557C343 -557 381 -576 400 -595C418 -613 422 -618 431 -632L432 -633L399 -477C393 -461 366 -398 329 -365C317 -353 302 -345 286 -340C295 -352 300 -346 300 -381C300 -416 272 -453 228 -453C184 -453 157 -417 157 -383C157 -349 179 -306 250 -306C338 -306 375 -373 379 -381L346 -222C339 -205 312 -144 277 -111C264 -99 249 -91 234 -87C242 -98 247 -106 247 -128C247 -151 231 -199 175 -199C120 -199 104 -147 104 -128C104 -109 113 -53 197 -53C281 -53 322 -119 326 -127L295 23C286 59 250 115 224 139C211 150 196 158 181 163C189 152 194 138 194 122C194 95 173 50 123 50C72 50 52 95 52 122C52 149 69 197 144 197C237 197 271 130 274 122L241 284C229 320 196 370 172 393C159 404 144 412 129 417C137 405 142 392 142 376C142 348 121 304 71 304C20 304 -1 349 -1 376C-1 403 17 451 92 451C178 451 213 394 221 379L143 753L170 759C195 639 472 -692 474 -700C474 -701 475 -704 475 -705C475 -708 474 -711 470 -714Z" />
</g>
</def>
<g transform="translate(810, 400) scale(0.02) ">
 <use href="#uniE4EA" />
</g>

<g font-size="10" font-family="Verdana" >
<text x="810" y="450">uniE4EA</text>
</g>

<def>
 <g id="uniE4EB">
 <path d="M515 -723C514 -723 513 -723 511 -723C506 -723 501 -719 499 -714C496 -703 472 -657 433 -622C420 -610 405 -602 390 -597C399 -609 404 -623 404 -638C404 -641 403 -643 403 -646C399 -683 368 -710 332 -710C330 -710 327 -710 325 -710C288 -706 261 -675 261 -638C261 -636 261 -634 261 -631C264 -601 286 -578 313 -570C325 -566 339 -563 354 -563C359 -563 364 -563 369 -564C397 -567 427 -578 452 -601C463 -612 474 -625 483 -638L484 -639L451 -485C445 -469 418 -406 381 -372C369 -361 354 -353 338 -348C347 -360 352 -374 352 -389C352 -392 352 -394 351 -397C347 -434 316 -461 280 -461C278 -461 275 -461 273 -460C236 -456 209 -425 209 -389C209 -387 209 -384 209 -382C212 -352 233 -328 261 -321C273 -316 287 -314 302 -314C307 -314 312 -314 317 -315C345 -318 375 -329 400 -352C411 -362 422 -375 431 -388L398 -230C391 -212 365 -156 330 -123C317 -112 302 -104 287 -99C295 -110 300 -125 300 -140C300 -142 300 -145 299 -148C296 -184 265 -212 228 -212C226 -212 224 -211 221 -211C184 -207 157 -176 157 -140C157 -138 157 -135 158 -133C161 -103 182 -79 209 -72C220 -68 233 -65 246 -65C248 -65 250 -65 252 -65C256 -65 261 -65 265 -66C293 -69 323 -80 348 -103C359 -113 370 -126 379 -139L348 11C348 11 347 15 346 16C343 26 316 91 277 126C264 138 249 146 234 151C242 139 247 125 247 111C247 109 247 108 247 106C247 105 247 103 247 102C243 65 212 38 176 38C173 38 171 38 168 38C132 42 104 73 104 109C104 112 104 114 105 117C108 147 129 170 156 178C168 182 182 185 197 185C202 185 207 184 212 184C240 181 270 169 295 147C307 136 318 123 327 110L326 113L294 267C288 283 261 347 224 380C212 391 197 399 181 404C190 393 195 378 195 363C195 361 195 358 194 355C191 319 159 291 123 292C121 292 118 292 116 292C80 296 53 326 52 362C52 364 52 367 53 370C56 400 77 424 104 432C116 436 130 438 145 438C150 438 155 438 160 437C188 435 218 423 243 400C254 390 265 377 274 364L241 521C235 539 208 600 172 632C159 644 144 652 129 657C137 645 142 631 142 616C142 613 142 611 142 608C138 571 107 544 71 544C68 544 66 544 63 544C27 548 0 579 0 615C0 618 0 620 0 623C3 653 24 676 52 684C64 688 78 691 92 691C97 691 102 690 107 690C136 687 166 675 191 653C202 643 212 630 221 617L143 992L170 998L526 -707C526 -708 527 -709 526 -710C526 -716 522 -722 515 -723Z" />
</g>
</def>
<g transform="translate(900, 400) scale(0.02) ">
 <use href="#uniE4EB" />
</g>

<g font-size="10" font-family="Verdana" >
<text x="900" y="450">uniE4EB</text>
</g>
</svg>

