<?xml version="1.0" standalone="no"?>

<svg version="1.1"
    viewBox="0 0 1003 503"
     xmlns="http://www.w3.org/2000/svg">
  <desc>shows all the symbols from font</desc>
    <g fill="none" stroke="black" stroke-width="3" >
<line x1="0" y1="1.5" x2="1000" y2="1.5" />
<line x1="1.5" y1="0" x2="1.5" y2="500" />
</g>
<g fill="red" stroke="none" >
<rect x="0" y="0" width="3" height="3" />
<rect x="997" y="0" width="3" height="3" />
<rect x="0" y="497" width="3" height="3" />
</g>
<g font-size="14" font-family="Verdana" >
<text x="10" y="20">(0,0)</text>
<text x="940" y="20">(1000,0)</text>
<text x="10" y="490">(0,500)</text>
</g>
<g style="stroke:#D3D3D3;stroke-width:0.5px;stroke-dasharray:10, 10;stroke-opacity:1" >
<line x1="0.0" y1="0" x2="0.0" y2="500" />
<line x1="90.9090909090909" y1="0" x2="90.9090909090909" y2="500" />
<line x1="181.8181818181818" y1="0" x2="181.8181818181818" y2="500" />
<line x1="272.72727272727275" y1="0" x2="272.72727272727275" y2="500" />
<line x1="363.6363636363636" y1="0" x2="363.6363636363636" y2="500" />
<line x1="454.54545454545456" y1="0" x2="454.54545454545456" y2="500" />
<line x1="545.4545454545455" y1="0" x2="545.4545454545455" y2="500" />
<line x1="636.3636363636364" y1="0" x2="636.3636363636364" y2="500" />
<line x1="727.2727272727273" y1="0" x2="727.2727272727273" y2="500" />
<line x1="818.1818181818181" y1="0" x2="818.1818181818181" y2="500" />
<line x1="909.0909090909091" y1="0" x2="909.0909090909091" y2="500" />
<line x1="1000.0" y1="0" x2="1000.0" y2="500" />
<line x1="0" y1="0.0" x2="1000" y2="0.0" />
<line x1="0" y1="100.0" x2="1000" y2="100.0" />
<line x1="0" y1="200.0" x2="1000" y2="200.0" />
<line x1="0" y1="300.0" x2="1000" y2="300.0" />
<line x1="0" y1="400.0" x2="1000" y2="400.0" />
<line x1="0" y1="500.0" x2="1000" y2="500.0" />
</g>

<def>
 <g id="uniE4EC">
 <path d="M566 -967C559 -967 555 -964 552 -958C548 -950 525 -901 486 -866C473 -854 458 -846 443 -841C451 -853 456 -868 456 -882C456 -924 422 -954 385 -954C348 -954 314 -925 314 -882C314 -826 365 -807 407 -807C448 -807 486 -826 505 -845C523 -863 527 -868 536 -882L537 -883L504 -727C498 -711 471 -648 434 -615C421 -603 407 -595 391 -590C398 -597 405 -610 405 -631C405 -666 377 -703 333 -703C289 -703 262 -667 262 -633C262 -599 284 -557 355 -557C443 -557 480 -624 484 -631L451 -473C444 -455 417 -394 382 -361C369 -350 354 -342 339 -337C347 -349 352 -356 352 -379C352 -401 336 -450 280 -450C224 -450 209 -397 209 -378C209 -359 218 -303 302 -303C386 -303 426 -369 431 -377L400 -230C391 -195 355 -138 329 -114C316 -103 301 -95 286 -90C294 -102 299 -115 299 -131C299 -159 278 -203 228 -203C177 -203 156 -158 156 -131C156 -104 174 -56 249 -56C342 -56 376 -123 379 -131L345 25C334 60 301 111 277 133C264 145 249 153 234 158C242 146 247 132 247 117C247 89 226 45 175 45C125 45 104 89 104 116C104 144 122 192 197 192C283 192 318 134 326 120L292 283C279 318 248 365 225 386C212 398 197 406 182 411C190 399 195 385 195 370C195 342 174 298 123 298C73 298 52 342 52 369C52 397 70 445 145 445C227 445 263 392 273 375L239 536C225 571 195 616 173 637C160 649 145 657 130 662C138 650 143 636 143 621C143 593 122 549 71 549C21 549 0 593 0 620C0 648 18 696 93 696C174 696 209 645 220 627L143 998L170 1004C195 884 577 -943 579 -951C579 -952 579 -953 579 -955C579 -958 576 -967 566 -967Z" />
</g>
</def>
<g transform="translate(90, 100) scale(0.02) ">
 <use href="#uniE4EC" />
</g>

<g font-size="10" font-family="Verdana" >
<text x="90" y="150">uniE4EC</text>
</g>

<def>
 <g id="uniE4ED">
 <path d="M558 -986C553 -970 525 -907 489 -873C476 -862 461 -854 446 -849C454 -861 459 -875 459 -890C459 -891 459 -892 459 -893C459 -895 459 -896 459 -898C455 -934 424 -962 388 -962C385 -962 383 -962 380 -961C344 -958 317 -927 316 -892C316 -889 316 -886 317 -883C320 -853 341 -829 368 -822C380 -817 394 -815 409 -815C414 -815 419 -815 424 -816C452 -819 482 -830 507 -853C519 -863 529 -876 538 -890L505 -731C499 -713 472 -652 436 -620C423 -608 408 -600 393 -595C401 -607 406 -622 406 -637C406 -640 406 -642 406 -644C402 -681 371 -708 335 -708C332 -708 330 -708 327 -708C291 -704 263 -673 263 -637C263 -634 264 -632 264 -629C267 -599 288 -576 316 -568C328 -564 341 -561 356 -561C361 -561 366 -562 371 -562C400 -565 430 -577 454 -599C466 -609 476 -622 485 -636C485 -636 462 -520 453 -481C448 -457 422 -405 383 -370C370 -358 355 -351 340 -346C348 -357 353 -372 353 -387C353 -389 353 -392 353 -395C349 -431 318 -458 282 -458C279 -458 277 -458 274 -458C238 -454 210 -423 211 -387C211 -385 211 -382 211 -380C214 -350 235 -326 263 -318C275 -314 290 -312 305 -312C310 -312 314 -312 318 -313C347 -315 377 -327 402 -350C413 -360 424 -373 433 -387L400 -229C395 -213 367 -150 330 -116C318 -105 303 -97 287 -92C296 -104 301 -118 301 -133C301 -134 301 -135 301 -136C301 -138 301 -139 300 -141C297 -177 266 -205 230 -205C227 -205 225 -205 222 -204C185 -200 158 -169 158 -133C158 -131 158 -128 159 -126C162 -96 183 -72 210 -65C222 -60 236 -58 251 -58C256 -58 261 -58 266 -59C294 -62 324 -73 349 -96C361 -106 371 -119 380 -133L347 25C341 43 314 104 278 136C265 148 250 156 235 161C243 149 248 135 248 119C248 117 248 114 248 112C244 75 213 48 177 48C175 48 172 48 170 48C133 52 106 83 106 119C106 122 106 124 106 127C109 156 130 180 158 188C169 192 181 194 195 194C197 194 199 194 201 194C205 194 209 194 213 194C242 191 272 179 297 157C308 146 318 134 328 120L295 275C289 292 261 355 226 387C213 399 198 407 183 412C191 400 196 385 196 370C196 367 196 365 196 363C192 326 161 299 125 299C122 299 120 299 117 299C81 303 53 334 53 370C53 373 54 375 54 378C57 407 78 431 105 439C116 443 129 445 142 445C144 445 146 445 148 445C153 445 157 445 161 445C190 442 220 430 244 408C256 397 266 385 275 372L243 524C238 537 210 604 173 638C160 649 145 657 130 662C138 651 143 636 143 621C143 619 143 616 143 613C139 577 108 549 72 550C69 550 67 550 64 550C28 554 1 585 1 621C1 623 1 626 1 628C4 658 25 682 53 689C64 694 78 696 92 696C98 696 103 696 108 695C137 692 167 681 192 658C203 648 213 635 223 622L144 998L171 1004L633 -1209C633 -1211 634 -1212 634 -1213C633 -1219 629 -1224 623 -1226C621 -1226 620 -1226 618 -1226C613 -1225 608 -1222 606 -1216C603 -1206 579 -1160 540 -1124C528 -1113 513 -1104 497 -1100C506 -1111 511 -1125 511 -1141C511 -1143 511 -1146 510 -1148C506 -1185 475 -1212 439 -1212C437 -1212 434 -1212 432 -1212C395 -1208 368 -1177 368 -1141C368 -1138 368 -1136 368 -1134C372 -1104 393 -1080 420 -1072C433 -1068 447 -1066 463 -1066C467 -1066 471 -1066 476 -1066C504 -1069 541 -1086 559 -1104C577 -1121 591 -1142 591 -1142Z" />
</g>
</def>
<g transform="translate(180, 100) scale(0.02) ">
 <use href="#uniE4ED" />
</g>

<g font-size="10" font-family="Verdana" >
<text x="180" y="150">uniE4ED</text>
</g>

<def>
 <g id="uniE4F2">
 <path d="M9 -203C3 -200 0 -196 0 -191C0 -189 0 -187 1 -185L141 255L168 247L54 -109C65 -97 77 -85 89 -76C116 -56 148 -47 176 -47C197 -47 216 -52 231 -59C257 -70 276 -95 276 -126C276 -165 244 -197 205 -197C165 -197 133 -165 133 -126C133 -107 140 -91 151 -78C135 -81 120 -88 106 -98C61 -131 30 -190 26 -196C24 -201 19 -204 13 -204C12 -204 10 -203 9 -203Z" />
</g>
</def>
<g transform="translate(270, 100) scale(0.02) ">
 <use href="#uniE4F2" />
</g>

<g font-size="10" font-family="Verdana" >
<text x="270" y="150">uniE4F2</text>
</g>

<def>
 <g id="uniE4F3">
 <path d="M229 -264H153H76H0V-236H63V-14H0V14H76H153H229V-14H167V-236H229Z" />
</g>
</def>
<g transform="translate(360, 100) scale(0.02) ">
 <use href="#uniE4F3" />
</g>

<g font-size="10" font-family="Verdana" >
<text x="360" y="150">uniE4F3</text>
</g>

<def>
 <g id="uniE4F4">
 <path d="M312 -14H13H-139V14H0V108C0 116 5 122 13 122H312C320 122 325 116 325 108V14H464V-14Z" />
</g>
</def>
<g transform="translate(450, 100) scale(0.02) ">
 <use href="#uniE4F4" />
</g>

<g font-size="10" font-family="Verdana" >
<text x="450" y="150">uniE4F4</text>
</g>

<def>
 <g id="uniE4F5">
 <path d="M464 -14H325V-108C325 -116 320 -122 312 -122H13C5 -122 0 -116 0 -108V-14H-139V14H13H312H464Z" />
</g>
</def>
<g transform="translate(540, 100) scale(0.02) ">
 <use href="#uniE4F5" />
</g>

<g font-size="10" font-family="Verdana" >
<text x="540" y="150">uniE4F5</text>
</g>

<def>
 <g id="uniE4F6">
 <path d="M288 180C292 185 299 188 305 188C307 188 310 187 312 186C315 184 317 181 317 177C317 174 316 171 313 167L118 -64C137 -56 157 -52 175 -52C183 -52 190 -53 197 -54C217 -57 235 -64 249 -74C271 -86 285 -110 285 -136C285 -139 285 -143 284 -146C279 -182 248 -207 214 -207C210 -207 205 -207 201 -206C166 -200 141 -169 142 -135C142 -132 142 -130 142 -127C145 -108 154 -92 167 -81C151 -82 135 -86 120 -94C71 -120 31 -174 27 -179C24 -182 20 -185 15 -185C15 -185 14 -185 13 -185C11 -185 8 -185 6 -184C2 -181 0 -177 0 -173C0 -171 1 -168 3 -165L187 57C169 50 152 47 135 47C127 47 119 48 112 49C92 52 73 59 59 68C37 81 23 105 24 131C24 134 24 138 24 141C30 176 60 202 95 202C99 202 103 201 107 201C142 195 166 165 167 131C167 128 167 125 166 122C164 103 155 87 141 75C157 76 174 80 189 88C238 114 276 165 281 171Z" />
</g>
</def>
<g transform="translate(630, 100) scale(0.02) ">
 <use href="#uniE4F6" />
</g>

<g font-size="10" font-family="Verdana" >
<text x="630" y="150">uniE4F6</text>
</g>

<def>
 <g id="uniE500">
 <path d="M481 -250H355L0 250H126ZM127 -125C127 -160 98 -188 64 -188C29 -188 1 -160 1 -125C1 -90 29 -62 64 -62C98 -62 127 -90 127 -125ZM481 126C481 91 452 63 418 63C383 63 355 91 355 126C355 161 383 189 418 189C452 189 481 161 481 126Z" />
</g>
</def>
<g transform="translate(720, 100) scale(0.02) ">
 <use href="#uniE500" />
</g>

<g font-size="10" font-family="Verdana" >
<text x="720" y="150">uniE500</text>
</g>

<def>
 <g id="uniE501">
 <path d="M481 -250H355L0 250H126ZM735 -250H609L254 250H380ZM127 -125C127 -160 98 -188 64 -188C29 -188 1 -160 1 -125C1 -90 29 -62 64 -62C98 -62 127 -90 127 -125ZM735 126C735 91 706 63 672 63C637 63 609 91 609 126C609 161 637 189 672 189C706 189 735 161 735 126Z" />
</g>
</def>
<g transform="translate(810, 100) scale(0.02) ">
 <use href="#uniE501" />
</g>

<g font-size="10" font-family="Verdana" >
<text x="810" y="150">uniE501</text>
</g>

<def>
 <g id="uniE502">
 <path d="M481 -250H355L0 250H126ZM735 -250H609L254 250H380ZM989 -250H863L508 250H634ZM1243 -250H1117L762 250H888ZM127 -125C127 -160 98 -188 64 -188C29 -188 1 -160 1 -125C1 -90 29 -62 64 -62C98 -62 127 -90 127 -125ZM1243 126C1243 91 1214 63 1180 63C1145 63 1117 91 1117 126C1117 161 1145 189 1180 189C1214 189 1243 161 1243 126Z" />
</g>
</def>
<g transform="translate(900, 100) scale(0.02) ">
 <use href="#uniE502" />
</g>

<g font-size="10" font-family="Verdana" >
<text x="900" y="150">uniE502</text>
</g>

<def>
 <g id="uniE503">
 <path d="M127 -125C127 -160 98 -188 64 -188C29 -188 1 -160 1 -125C1 -90 29 -62 64 -62C98 -62 127 -90 127 -125Z" />
</g>
</def>
<g transform="translate(90, 200) scale(0.02) ">
 <use href="#uniE503" />
</g>

<g font-size="10" font-family="Verdana" >
<text x="90" y="250">uniE503</text>
</g>

<def>
 <g id="uniE504">
 <path d="M481 -250H355L0 250H126Z" />
</g>
</def>
<g transform="translate(180, 200) scale(0.02) ">
 <use href="#uniE504" />
</g>

<g font-size="10" font-family="Verdana" >
<text x="180" y="250">uniE504</text>
</g>

<def>
 <g id="uniE505">
 <path d="M127 127C127 92 98 64 64 64C29 64 1 92 1 127C1 162 29 190 64 190C98 190 127 162 127 127Z" />
</g>
</def>
<g transform="translate(270, 200) scale(0.02) ">
 <use href="#uniE505" />
</g>

<g font-size="10" font-family="Verdana" >
<text x="270" y="250">uniE505</text>
</g>

<def>
 <g id="uniE510">
 <path d="M280 -123C280 -162 261 -197 225 -220C280 -241 306 -270 306 -311C306 -364 260 -399 194 -399C112 -399 54 -349 54 -279C54 -245 66 -222 96 -196C73 -187 56 -179 41 -168C16 -148 0 -119 0 -90C0 -36 50 0 124 0C217 0 280 -51 280 -123ZM67 -93C67 -129 85 -159 117 -178C125 -173 126 -173 133 -170C154 -159 154 -159 158 -157C193 -136 208 -117 208 -90C208 -54 177 -27 135 -27C94 -27 67 -53 67 -93ZM244 -310C244 -278 232 -258 203 -236C172 -252 167 -254 159 -259C131 -276 122 -289 122 -313C122 -347 147 -371 184 -371C221 -371 244 -348 244 -310Z" />
</g>
</def>
<g transform="translate(360, 200) scale(0.02) ">
 <use href="#uniE510" />
</g>

<g font-size="10" font-family="Verdana" >
<text x="360" y="250">uniE510</text>
</g>

<def>
 <g id="uniE511">
 <path d="M452 -400L332 -394L328 -372H339C361 -372 367 -369 367 -358C367 -353 365 -345 360 -328L345 -279C343 -270 340 -254 340 -244C340 -203 370 -178 410 -178C490 -178 540 -292 540 -360C540 -384 525 -400 504 -400C485 -400 473 -388 473 -371C473 -361 478 -353 487 -345C505 -328 506 -326 506 -317C506 -286 471 -210 434 -210C421 -210 408 -222 408 -236C408 -245 409 -247 419 -288ZM754 -394L747 -372C736 -390 717 -399 690 -399C623 -399 562 -331 562 -259C562 -211 594 -178 640 -178C671 -178 692 -189 713 -217C713 -206 714 -206 715 -203C719 -188 734 -178 752 -178C793 -178 827 -222 846 -255L829 -266C812 -240 789 -216 782 -216C777 -216 776 -221 776 -225C776 -228 777 -231 780 -243L824 -394ZM280 -123C280 -162 261 -197 225 -220C280 -241 306 -270 306 -312C306 -364 260 -399 194 -399C112 -399 54 -349 54 -279C54 -245 66 -222 96 -196C49 -178 0 -148 0 -90C0 -36 50 0 124 0C217 0 280 -51 280 -123ZM706 -374C723 -374 734 -362 734 -342C734 -309 706 -209 663 -209C645 -209 635 -223 635 -245C635 -282 659 -374 706 -374ZM244 -310C244 -278 232 -258 203 -236C172 -252 167 -254 159 -259C131 -277 122 -289 122 -313C122 -347 147 -371 184 -371C221 -371 244 -348 244 -310ZM67 -93C67 -129 85 -159 117 -178C125 -173 126 -173 133 -170C154 -159 154 -159 159 -157C194 -136 208 -117 208 -90C208 -54 177 -27 136 -27C94 -27 67 -53 67 -93Z" />
</g>
</def>
<g transform="translate(450, 200) scale(0.02) ">
 <use href="#uniE511" />
</g>

<g font-size="10" font-family="Verdana" >
<text x="450" y="250">uniE511</text>
</g>

<def>
 <g id="uniE512">
 <path d="M280 -123C280 -162 261 -197 225 -220C280 -241 306 -270 306 -312C306 -364 260 -399 194 -399C112 -399 54 -349 54 -279C54 -245 66 -222 96 -196C49 -178 0 -148 0 -90C0 -36 50 0 124 0C217 0 280 -51 280 -123ZM244 -310C244 -278 232 -258 203 -236C172 -252 167 -254 159 -259C131 -277 122 -289 122 -313C122 -347 147 -371 184 -371C221 -371 244 -348 244 -310ZM444 -222L324 -216L320 -194H331C353 -194 359 -191 359 -180C359 -175 357 -167 352 -150L337 -101C335 -92 332 -76 332 -66C332 -25 362 0 402 0C482 0 532 -114 532 -182C532 -206 517 -222 496 -222C477 -222 465 -210 465 -193C465 -183 470 -175 479 -167C497 -150 498 -148 498 -139C498 -108 463 -32 426 -32C413 -32 400 -44 400 -58C400 -67 401 -69 411 -110ZM746 -216L739 -194C728 -212 709 -221 682 -221C615 -221 554 -153 554 -81C554 -33 586 0 632 0C663 0 684 -11 705 -39C705 -28 706 -28 707 -25C711 -10 726 0 744 0C785 0 819 -44 838 -77L821 -88C804 -62 781 -38 774 -38C769 -38 768 -43 768 -47C768 -50 769 -53 772 -65L816 -216ZM698 -196C715 -196 726 -184 726 -164C726 -131 698 -31 655 -31C637 -31 627 -45 627 -67C627 -104 651 -196 698 -196ZM67 -93C67 -129 85 -159 117 -178C125 -173 126 -173 133 -170C154 -159 154 -159 159 -157C194 -136 208 -117 208 -90C208 -54 177 -27 136 -27C94 -27 67 -53 67 -93Z" />
</g>
</def>
<g transform="translate(540, 200) scale(0.02) ">
 <use href="#uniE512" />
</g>

<g font-size="10" font-family="Verdana" >
<text x="540" y="250">uniE512</text>
</g>

<def>
 <g id="uniE513">
 <path d="M280 -123C280 -162 261 -197 225 -220C280 -241 306 -270 306 -312C306 -364 260 -399 194 -399C112 -399 54 -349 54 -279C54 -245 66 -222 96 -196C49 -178 0 -148 0 -90C0 -36 50 0 124 0C217 0 280 -51 280 -123ZM244 -310C244 -278 232 -258 203 -236C172 -252 167 -254 159 -259C131 -277 122 -289 122 -313C122 -347 147 -371 184 -371C221 -371 244 -348 244 -310ZM468 -341L348 -336L344 -313H355C378 -313 384 -311 384 -300C384 -295 382 -291 376 -269L332 -122C323 -90 322 -88 322 -74C322 -31 358 -2 414 -2C491 -2 562 -69 562 -147C562 -191 528 -224 485 -224C463 -224 448 -219 427 -201ZM785 -218L779 -197C768 -215 748 -224 722 -224C655 -224 592 -156 592 -84C592 -36 625 -2 671 -2C702 -2 724 -14 745 -42C745 -18 755 -2 783 -2C806 -2 826 -13 848 -39C858 -49 871 -67 878 -79L860 -90C844 -65 821 -40 814 -40C811 -40 807 -43 807 -47C807 -50 807 -52 812 -68L856 -218ZM736 -200C753 -200 765 -186 765 -166C765 -132 738 -34 694 -34C677 -34 667 -47 667 -69C667 -103 691 -200 736 -200ZM459 -192C475 -192 487 -178 487 -159C487 -126 460 -21 417 -21C399 -21 387 -36 387 -56C387 -90 414 -192 459 -192ZM67 -93C67 -129 85 -159 117 -178C125 -173 126 -173 133 -170C154 -159 154 -159 159 -157C194 -136 208 -117 208 -90C208 -54 177 -27 136 -27C94 -27 67 -53 67 -93Z" />
</g>
</def>
<g transform="translate(630, 200) scale(0.02) ">
 <use href="#uniE513" />
</g>

<g font-size="10" font-family="Verdana" >
<text x="630" y="250">uniE513</text>
</g>

<def>
 <g id="uniE514">
 <path d="M256 -391H234C209 -373 138 -353 82 -351L74 -324H124C142 -324 149 -320 149 -309C149 -305 148 -298 145 -289L89 -80C85 -63 83 -54 82 -52C80 -44 78 -40 74 -38C70 -32 58 -30 32 -29H5L0 0H232L237 -29H209C173 -29 166 -33 166 -45C166 -51 168 -62 173 -80ZM316 -214C302 -208 295 -198 295 -186C295 -175 304 -167 314 -167C329 -167 340 -178 343 -199C371 -211 379 -213 394 -213C429 -213 450 -186 450 -141C450 -73 410 -20 360 -20C337 -20 315 -31 315 -43C315 -47 316 -48 321 -49C343 -57 354 -71 354 -93C354 -117 336 -134 309 -134C278 -134 258 -112 258 -78C258 -25 303 9 372 9C469 9 541 -58 541 -148C541 -208 496 -249 428 -249C404 -249 383 -244 355 -234L376 -306C420 -297 421 -297 446 -297C490 -297 520 -305 543 -325C561 -340 575 -367 575 -385C575 -388 574 -390 572 -390C571 -390 570 -389 566 -388C542 -378 519 -374 489 -374C452 -374 413 -379 368 -390Z" />
</g>
</def>
<g transform="translate(720, 200) scale(0.02) ">
 <use href="#uniE514" />
</g>

<g font-size="10" font-family="Verdana" >
<text x="720" y="250">uniE514</text>
</g>

<def>
 <g id="uniE515">
 <path d="M721 -383L608 -376L604 -354H615C638 -354 643 -351 643 -340C643 -336 641 -326 637 -311L593 -165H664L683 -229C693 -265 705 -290 723 -314C739 -334 753 -345 762 -345C767 -345 770 -340 770 -334C770 -325 766 -303 756 -272L724 -165H796L811 -216C827 -270 839 -297 857 -318C871 -335 885 -345 895 -345C902 -345 907 -340 907 -334C907 -328 904 -317 900 -306L878 -243C870 -219 867 -208 867 -197C867 -176 886 -160 911 -160C944 -160 975 -183 1007 -233L990 -246C988 -244 987 -244 983 -238C966 -215 966 -215 963 -211C952 -200 946 -196 942 -196C938 -196 933 -198 933 -201C933 -203 935 -209 936 -212L963 -287C970 -306 973 -322 973 -336C973 -363 954 -383 923 -383C897 -383 873 -367 843 -332C843 -346 843 -346 841 -351C835 -370 815 -383 792 -383C764 -383 736 -364 708 -327ZM1217 -376L1211 -354C1200 -373 1180 -382 1154 -382C1086 -382 1025 -314 1025 -241C1025 -193 1057 -160 1103 -160C1134 -160 1156 -171 1177 -198C1177 -188 1177 -188 1179 -185C1182 -170 1197 -160 1215 -160C1239 -160 1259 -171 1281 -197C1290 -207 1303 -225 1310 -237L1293 -248C1276 -222 1253 -197 1246 -197C1243 -197 1239 -201 1239 -205C1239 -208 1239 -209 1244 -225L1288 -376ZM1121 -315C1134 -344 1150 -357 1169 -357C1186 -357 1197 -344 1197 -325C1197 -302 1187 -265 1173 -235C1160 -206 1144 -191 1126 -191C1109 -191 1098 -205 1098 -227C1098 -251 1108 -287 1121 -315ZM256 -391H234C209 -373 138 -353 82 -351L74 -324H124C142 -324 149 -320 149 -309C149 -305 148 -298 145 -289L89 -80C85 -63 83 -54 82 -52C80 -44 78 -40 74 -38C70 -32 58 -30 32 -29H5L0 0H232L237 -29H209C173 -29 166 -33 166 -45C166 -51 168 -62 173 -80ZM316 -214C302 -208 295 -198 295 -186C295 -175 304 -167 314 -167C329 -167 340 -178 343 -199C371 -211 379 -213 394 -213C429 -213 450 -186 450 -141C450 -73 410 -20 360 -20C337 -20 315 -31 315 -43C315 -47 316 -48 321 -49C343 -57 354 -71 354 -93C354 -117 336 -134 309 -134C278 -134 258 -112 258 -78C258 -25 303 9 372 9C469 9 541 -58 541 -148C541 -208 496 -249 428 -249C404 -249 383 -244 355 -234L376 -306C420 -297 421 -297 446 -297C490 -297 520 -305 543 -325C561 -340 575 -367 575 -385C575 -388 574 -390 572 -390C571 -390 570 -389 566 -388C542 -378 519 -374 489 -374C452 -374 413 -379 368 -390Z" />
</g>
</def>
<g transform="translate(810, 200) scale(0.02) ">
 <use href="#uniE515" />
</g>

<g font-size="10" font-family="Verdana" >
<text x="810" y="250">uniE515</text>
</g>

<def>
 <g id="uniE516">
 <path d="M257 -392H235C210 -374 138 -354 82 -352L75 -325H124C143 -325 149 -321 149 -310C149 -305 148 -299 146 -290L89 -80C85 -64 83 -55 82 -53C80 -45 78 -41 75 -38C70 -33 58 -31 32 -30H5L0 0H233L238 -30H210C174 -30 167 -33 167 -45C167 -51 168 -62 173 -80ZM318 -215C303 -209 297 -199 297 -187C297 -176 305 -168 315 -168C331 -168 342 -179 345 -200C372 -212 381 -214 395 -214C431 -214 452 -187 452 -142C452 -74 412 -21 362 -21C338 -21 316 -32 316 -44C316 -47 318 -48 323 -50C345 -57 356 -72 356 -93C356 -118 337 -135 311 -135C279 -135 260 -113 260 -79C260 -25 304 8 374 8C471 8 543 -58 543 -149C543 -210 498 -250 430 -250C406 -250 385 -245 357 -235L378 -307C422 -298 423 -298 448 -298C492 -298 522 -307 546 -327C563 -342 578 -369 578 -386C578 -389 576 -391 574 -391C573 -391 572 -390 569 -389C545 -379 521 -375 491 -375C454 -375 415 -381 370 -391ZM699 -217L586 -210L582 -189H594C616 -189 621 -186 621 -175C621 -171 619 -161 615 -145L571 0H642L661 -63C671 -99 683 -124 701 -148C717 -168 731 -179 740 -179C745 -179 748 -174 748 -168C748 -159 744 -138 735 -107L702 0H774L789 -51C805 -105 817 -132 835 -153C849 -170 863 -179 873 -179C880 -179 885 -174 885 -168C885 -163 882 -152 878 -141L856 -78C848 -55 845 -42 845 -32C845 -10 865 6 889 6C922 6 953 -17 985 -68L968 -80C966 -78 965 -78 961 -72C944 -49 944 -49 941 -45C930 -34 924 -30 920 -30C916 -30 912 -33 912 -36C912 -38 913 -43 914 -46L941 -122C948 -141 951 -156 951 -170C951 -198 931 -217 901 -217C875 -217 851 -202 821 -167C821 -181 821 -180 819 -186C813 -204 793 -217 771 -217C742 -217 713 -198 686 -162ZM1195 -210L1189 -189C1178 -208 1159 -217 1132 -217C1065 -217 1003 -149 1003 -76C1003 -28 1035 6 1081 6C1112 6 1134 -6 1155 -33C1155 -23 1155 -22 1157 -19C1160 -4 1175 6 1194 6C1217 6 1237 -5 1259 -31C1268 -41 1281 -59 1288 -71L1271 -82C1254 -57 1231 -32 1224 -32C1221 -32 1218 -35 1218 -39C1218 -40 1217 -41 1218 -42C1218 -44 1219 -48 1222 -60L1266 -210ZM1099 -149C1113 -178 1128 -192 1147 -192C1164 -192 1175 -178 1175 -159C1175 -136 1165 -99 1151 -69C1138 -40 1122 -26 1104 -26C1087 -26 1076 -39 1076 -61C1076 -85 1086 -122 1099 -149Z" />
</g>
</def>
<g transform="translate(900, 200) scale(0.02) ">
 <use href="#uniE516" />
</g>

<g font-size="10" font-family="Verdana" >
<text x="900" y="250">uniE516</text>
</g>

<def>
 <g id="uniE517">
 <path d="M582 -138L577 -127C555 -82 545 -74 507 -74H398C407 -83 422 -94 453 -113C549 -171 549 -171 559 -179C603 -213 626 -251 626 -290C626 -358 568 -390 507 -390C427 -390 368 -340 368 -274C368 -238 391 -213 422 -213C449 -213 467 -232 467 -258C467 -277 459 -289 439 -298C420 -306 417 -309 417 -317C417 -336 446 -356 476 -356C511 -356 535 -332 535 -297C535 -270 523 -239 502 -213C485 -192 458 -165 404 -119C333 -57 306 -26 306 -3C306 -2 306 -1 306 0H559L606 -130ZM276 -138L270 -127C249 -82 239 -75 201 -75H92C100 -83 116 -94 147 -113C243 -171 243 -171 253 -179C297 -213 320 -251 320 -290C320 -358 262 -390 201 -390C121 -390 62 -340 62 -274C62 -238 85 -213 116 -213C143 -213 161 -232 161 -259C161 -277 153 -289 133 -298C114 -306 111 -309 111 -317C111 -337 140 -356 169 -356C205 -356 229 -332 229 -297C229 -270 217 -239 196 -213C179 -193 152 -166 98 -119C27 -57 0 -26 0 -3C0 -2 0 -1 0 0H253L300 -130Z" />
</g>
</def>
<g transform="translate(90, 300) scale(0.02) ">
 <use href="#uniE517" />
</g>

<g font-size="10" font-family="Verdana" >
<text x="90" y="350">uniE517</text>
</g>

<def>
 <g id="uniE518">
 <path d="M276 -138L271 -127C249 -82 239 -75 201 -75H92C100 -83 116 -94 147 -113C243 -171 243 -171 253 -180C297 -214 320 -251 320 -290C320 -358 262 -390 201 -390C121 -390 62 -340 62 -274C62 -238 85 -214 116 -214C143 -214 161 -232 161 -259C161 -277 153 -289 133 -298C114 -306 111 -309 111 -317C111 -337 140 -356 169 -356C205 -356 229 -332 229 -297C229 -271 217 -239 196 -214C179 -193 152 -166 98 -119C27 -57 0 -26 0 -3C0 -2 0 -1 0 0H253L300 -130ZM792 -390L680 -384L676 -361H687C709 -361 715 -359 715 -348C715 -343 713 -334 708 -318L665 -173H736L755 -236C765 -272 777 -297 795 -321C811 -341 825 -352 834 -352C838 -352 842 -348 842 -341C842 -332 838 -311 828 -279L796 -173H868L883 -223C899 -278 911 -304 929 -326C943 -342 956 -352 967 -352C974 -352 979 -348 979 -341C979 -336 976 -325 972 -314L950 -250C942 -227 939 -215 939 -205C939 -184 958 -167 983 -167C1015 -167 1047 -190 1079 -241L1061 -254C1058 -246 1025 -203 1014 -203C1010 -203 1005 -206 1005 -208C1005 -210 1007 -216 1008 -220L1035 -294C1042 -313 1045 -329 1045 -343C1045 -371 1026 -390 995 -390C968 -390 944 -374 915 -339C915 -370 897 -390 864 -390C836 -390 808 -372 779 -335ZM582 -138L577 -127C556 -82 545 -75 507 -75H398C407 -83 422 -94 453 -113C549 -171 549 -171 559 -179C603 -213 626 -251 626 -290C626 -358 568 -390 507 -390C427 -390 368 -340 368 -274C368 -238 391 -213 422 -213C449 -213 467 -232 467 -258C467 -277 459 -289 439 -298C420 -306 417 -309 417 -317C417 -337 446 -356 476 -356C511 -356 535 -332 535 -297C535 -270 523 -239 502 -213C485 -192 458 -166 404 -119C333 -57 306 -26 306 -3C306 -2 306 -1 306 0H559L606 -130ZM1289 -384L1283 -361C1272 -380 1252 -389 1226 -389C1158 -389 1097 -321 1097 -248C1097 -200 1129 -167 1175 -167C1206 -167 1227 -178 1249 -206C1249 -182 1261 -167 1287 -167C1329 -167 1363 -211 1382 -244L1365 -255C1348 -230 1325 -205 1318 -205C1315 -205 1311 -208 1311 -212C1311 -215 1311 -216 1316 -232L1360 -384ZM1241 -364C1258 -364 1269 -351 1269 -332C1269 -299 1241 -198 1198 -198C1180 -198 1170 -212 1170 -234C1170 -271 1193 -364 1241 -364Z" />
</g>
</def>
<g transform="translate(180, 300) scale(0.02) ">
 <use href="#uniE518" />
</g>

<g font-size="10" font-family="Verdana" >
<text x="180" y="350">uniE518</text>
</g>

<def>
 <g id="uniE519">
 <path d="M276 -138L271 -127C249 -82 239 -75 201 -75H92C100 -83 116 -94 147 -113C243 -171 243 -171 253 -180C297 -214 320 -251 320 -290C320 -358 262 -390 201 -390C121 -390 62 -340 62 -274C62 -238 85 -214 116 -214C143 -214 161 -232 161 -259C161 -277 153 -289 133 -298C114 -306 111 -309 111 -317C111 -337 140 -356 169 -356C205 -356 229 -332 229 -297C229 -271 217 -239 196 -214C179 -193 152 -166 98 -119C27 -57 0 -26 0 -3C0 -2 0 -1 0 0H253L300 -130ZM582 -138L577 -127C556 -82 545 -75 507 -75H398C407 -83 422 -94 453 -113C549 -171 549 -171 559 -179C603 -213 626 -251 626 -290C626 -358 568 -390 507 -390C427 -390 368 -340 368 -274C368 -238 391 -213 422 -213C449 -213 467 -232 467 -258C467 -277 459 -289 439 -298C420 -306 417 -309 417 -317C417 -337 446 -356 476 -356C511 -356 535 -332 535 -297C535 -270 523 -239 502 -213C485 -192 458 -166 404 -119C333 -57 306 -26 306 -3C306 -2 306 -1 306 0H559L606 -130ZM784 -218L672 -212L668 -189H679C701 -189 707 -187 707 -176C707 -171 705 -162 700 -146L657 -1H728L747 -64C757 -100 769 -125 787 -149C803 -169 817 -180 826 -180C830 -180 834 -176 834 -169C834 -160 830 -139 820 -107L788 -1H860L875 -51C891 -106 903 -132 921 -154C935 -170 948 -180 959 -180C966 -180 971 -176 971 -169C971 -164 968 -153 964 -142L942 -78C934 -55 931 -43 931 -33C931 -12 950 5 975 5C1007 5 1039 -18 1071 -69L1053 -82C1050 -74 1017 -31 1006 -31C1002 -31 997 -34 997 -36C997 -38 999 -44 1000 -48L1027 -122C1034 -141 1037 -157 1037 -171C1037 -199 1018 -218 987 -218C960 -218 936 -202 907 -167C907 -198 889 -218 856 -218C828 -218 800 -200 771 -163ZM1281 -212L1275 -189C1264 -208 1244 -217 1218 -217C1150 -217 1089 -149 1089 -76C1089 -28 1121 5 1167 5C1198 5 1219 -6 1241 -34C1241 -10 1253 5 1279 5C1321 5 1355 -39 1374 -72L1357 -83C1340 -58 1317 -33 1310 -33C1307 -33 1303 -36 1303 -40C1303 -43 1303 -44 1308 -60L1352 -212ZM1233 -192C1250 -192 1261 -179 1261 -160C1261 -127 1233 -26 1190 -26C1172 -26 1162 -40 1162 -62C1162 -99 1185 -192 1233 -192Z" />
</g>
</def>
<g transform="translate(270, 300) scale(0.02) ">
 <use href="#uniE519" />
</g>

<g font-size="10" font-family="Verdana" >
<text x="270" y="350">uniE519</text>
</g>

<def>
 <g id="uniE51A">
 <path d="M160 13C131 -8 117 -24 104 -53C85 -93 75 -149 75 -215C75 -274 83 -324 99 -364C113 -400 127 -418 160 -441V-472C120 -451 97 -433 70 -402C25 -349 0 -284 0 -215V-214C0 -160 27 -81 61 -38C89 -2 116 20 160 43Z" />
</g>
</def>
<g transform="translate(360, 300) scale(0.02) ">
 <use href="#uniE51A" />
</g>

<g font-size="10" font-family="Verdana" >
<text x="360" y="350">uniE51A</text>
</g>

<def>
 <g id="uniE51B">
 <path d="M0 -442C29 -421 43 -405 56 -376C75 -336 85 -281 85 -215C85 -155 77 -105 61 -65C47 -29 33 -10 0 13V43C40 22 63 4 90 -27C135 -80 160 -146 160 -215C160 -269 133 -347 99 -390C71 -427 44 -449 0 -472Z" />
</g>
</def>
<g transform="translate(450, 300) scale(0.02) ">
 <use href="#uniE51B" />
</g>

<g font-size="10" font-family="Verdana" >
<text x="450" y="350">uniE51B</text>
</g>

<def>
 <g id="uniE51C">
 <path d="M280 -123C280 -162 261 -197 225 -220C280 -241 306 -270 306 -312C306 -364 260 -399 194 -399C112 -399 54 -349 54 -279C54 -245 66 -222 96 -196C49 -178 0 -148 0 -90C0 -36 50 0 124 0C217 0 280 -51 280 -123ZM244 -310C244 -278 232 -258 203 -236C172 -252 167 -254 159 -259C131 -277 122 -289 122 -313C122 -347 147 -371 184 -371C221 -371 244 -348 244 -310ZM702 -339L582 -334L578 -311H589C612 -311 618 -309 618 -298C618 -293 616 -289 610 -267L566 -120C557 -88 556 -86 556 -72C556 -29 592 0 648 0C725 0 796 -67 796 -145C796 -189 762 -222 719 -222C697 -222 682 -217 661 -199ZM439 -222L319 -216L315 -194H326C348 -194 354 -191 354 -180C354 -175 352 -167 347 -150L333 -101C330 -92 327 -76 327 -66C327 -25 357 0 397 0C477 0 527 -114 527 -182C527 -206 513 -222 491 -222C472 -222 460 -210 460 -193C460 -183 465 -175 474 -167C492 -150 493 -148 493 -139C493 -118 483 -93 466 -65C451 -43 435 -32 421 -32C408 -32 395 -44 395 -58C395 -67 396 -69 406 -110ZM693 -190C709 -190 721 -176 721 -157C721 -124 694 -19 651 -19C633 -19 621 -34 621 -54C621 -88 649 -190 693 -190ZM67 -93C67 -129 85 -159 117 -178C125 -173 126 -173 133 -170C154 -159 154 -159 159 -157C194 -136 208 -117 208 -90C208 -54 177 -27 136 -27C94 -27 67 -53 67 -93Z" />
</g>
</def>
<g transform="translate(540, 300) scale(0.02) ">
 <use href="#uniE51C" />
</g>

<g font-size="10" font-family="Verdana" >
<text x="540" y="350">uniE51C</text>
</g>

<def>
 <g id="uniE51D">
 <path d="M256 -391H234C209 -373 138 -353 82 -351L74 -324H124C142 -324 149 -320 149 -309C149 -305 148 -298 145 -289L89 -80C85 -63 83 -54 82 -52C80 -44 78 -41 74 -38C70 -32 58 -30 32 -29H5L0 0H232L237 -29H209C173 -29 166 -33 166 -45C166 -51 168 -62 173 -80ZM316 -214C302 -208 295 -198 295 -186C295 -175 304 -167 314 -167C329 -167 340 -178 343 -199C371 -211 379 -213 394 -213C429 -213 450 -186 450 -141C450 -73 410 -20 361 -20C337 -20 315 -31 315 -43C315 -47 316 -48 321 -49C343 -57 354 -72 354 -93C354 -117 336 -134 309 -134C278 -134 259 -112 259 -78C259 -25 303 9 372 9C469 9 541 -58 541 -148C541 -208 496 -249 429 -249C404 -249 384 -244 355 -234L376 -306C420 -297 421 -297 446 -297C490 -297 520 -305 543 -325C561 -340 576 -367 576 -385C576 -388 574 -390 572 -390C571 -390 570 -389 566 -388C542 -378 519 -374 489 -374C452 -374 413 -379 368 -390ZM1162 -332L1041 -327L1038 -304H1049C1072 -304 1076 -302 1076 -291C1076 -286 1075 -282 1070 -260L1026 -113C1016 -81 1016 -79 1016 -65C1016 -22 1051 7 1107 7C1186 7 1254 -58 1254 -138C1254 -182 1221 -215 1178 -215C1156 -215 1141 -210 1120 -192ZM707 -215L595 -209L591 -188H602C624 -188 630 -185 630 -174C630 -169 628 -159 623 -144L580 1H651L669 -62C680 -98 691 -123 710 -146C725 -167 739 -178 748 -178C753 -178 756 -173 756 -167C756 -157 752 -137 743 -106L711 1H782L797 -50C813 -104 825 -131 843 -152C857 -169 870 -178 880 -178C888 -178 892 -173 892 -167C892 -161 890 -151 886 -140L864 -77C856 -54 853 -41 853 -31C853 -10 872 7 897 7C929 7 960 -16 993 -67L975 -79C973 -77 972 -77 969 -71C951 -48 951 -48 948 -44C937 -33 932 -29 927 -29C924 -29 919 -33 919 -35C919 -37 920 -42 922 -45L948 -121C955 -140 959 -155 959 -169C959 -197 938 -215 909 -215C882 -215 858 -201 829 -166C829 -180 829 -179 827 -184C821 -203 801 -215 778 -215C750 -215 722 -197 694 -160ZM1152 -183C1169 -183 1181 -169 1181 -150C1181 -116 1154 -12 1110 -12C1093 -12 1080 -27 1080 -47C1080 -81 1107 -183 1152 -183Z" />
</g>
</def>
<g transform="translate(630, 300) scale(0.02) ">
 <use href="#uniE51D" />
</g>

<g font-size="10" font-family="Verdana" >
<text x="630" y="350">uniE51D</text>
</g>

<def>
 <g id="uniE51E">
 <path d="M276 -138L271 -127C249 -82 239 -75 201 -75H92C100 -83 116 -94 147 -113C243 -171 243 -171 253 -180C297 -214 320 -251 320 -290C320 -358 262 -390 201 -390C121 -390 62 -340 62 -274C62 -238 85 -214 116 -214C143 -214 161 -232 161 -259C161 -277 153 -289 133 -298C114 -306 111 -309 111 -317C111 -337 140 -356 169 -356C205 -356 229 -332 229 -297C229 -271 217 -239 196 -214C179 -193 152 -166 98 -119C27 -57 0 -26 0 -3C0 -2 0 -1 0 0H253L300 -130ZM582 -138L577 -127C556 -82 545 -75 507 -75H398C407 -83 422 -94 453 -113C549 -171 549 -171 559 -179C603 -213 626 -251 626 -290C626 -358 568 -390 507 -390C427 -390 368 -340 368 -274C368 -238 391 -213 422 -213C449 -213 467 -232 467 -258C467 -277 459 -289 439 -298C420 -306 417 -309 417 -317C417 -337 446 -356 476 -356C511 -356 535 -332 535 -297C535 -270 523 -239 502 -213C485 -192 458 -166 404 -119C333 -57 306 -26 306 -3C306 -2 306 -1 306 0H559L606 -130ZM1236 -332L1115 -327L1112 -304H1123C1146 -304 1151 -302 1151 -291C1151 -286 1149 -282 1144 -260L1100 -113C1090 -81 1090 -79 1090 -65C1090 -22 1126 7 1182 7C1259 7 1329 -60 1329 -138C1329 -182 1295 -215 1252 -215C1230 -215 1215 -210 1194 -192ZM781 -215L669 -209L665 -188H676C698 -188 704 -185 704 -174C704 -169 702 -159 697 -144L654 1H725L743 -62C754 -98 766 -123 785 -146C800 -167 813 -178 822 -178C827 -178 830 -173 830 -167C830 -157 826 -137 817 -106L785 1H856L872 -50C888 -104 899 -131 917 -152C931 -169 944 -178 954 -178C962 -178 966 -173 966 -167C966 -161 964 -151 960 -140L938 -77C930 -54 927 -41 927 -31C927 -10 946 7 971 7C1003 7 1034 -16 1067 -67L1049 -79C1047 -77 1046 -77 1043 -71C1025 -48 1025 -48 1022 -44C1011 -33 1006 -29 1001 -29C998 -29 993 -33 993 -35C993 -37 995 -42 996 -45L1022 -121C1029 -140 1033 -155 1033 -169C1033 -197 1013 -215 984 -215C957 -215 932 -201 903 -166C903 -180 903 -179 901 -184C895 -203 875 -215 852 -215C824 -215 796 -197 768 -160ZM1226 -183C1243 -183 1255 -169 1255 -150C1255 -116 1228 -12 1184 -12C1167 -12 1155 -27 1155 -47C1155 -81 1181 -183 1226 -183Z" />
</g>
</def>
<g transform="translate(720, 300) scale(0.02) ">
 <use href="#uniE51E" />
</g>

<g font-size="10" font-family="Verdana" >
<text x="720" y="350">uniE51E</text>
</g>

<def>
 <g id="uniE51F">
 <path d="M146 -339L26 -333L22 -311H33C56 -311 61 -309 61 -298C61 -293 60 -288 54 -267L10 -119C1 -87 0 -86 0 -72C0 -28 36 0 92 0C129 0 162 -12 189 -38C220 -66 240 -107 240 -145C240 -189 206 -222 163 -222C141 -222 126 -217 105 -199ZM91 -149C105 -177 119 -190 137 -190C153 -190 165 -176 165 -157C165 -137 155 -95 144 -70C130 -37 112 -19 95 -19C77 -19 65 -34 65 -54C65 -77 77 -120 91 -149ZM463 -216L457 -195C446 -213 426 -222 400 -222C333 -222 270 -154 270 -82C270 -34 303 0 349 0C380 0 401 -12 423 -40C423 -34 422 -32 422 -30C422 -28 423 -27 424 -25C427 -10 443 0 461 0C484 0 504 -11 526 -37C536 -47 548 -65 556 -77L538 -88C522 -62 499 -38 492 -38C489 -38 485 -41 485 -45C485 -48 485 -49 490 -65L534 -216ZM367 -154C381 -184 396 -198 415 -198C432 -198 443 -184 443 -164C443 -141 432 -105 419 -75C406 -46 390 -31 372 -31C355 -31 345 -45 345 -67C345 -91 354 -128 367 -154ZM764 -173C764 -202 731 -222 684 -222C627 -222 593 -195 593 -151C593 -127 602 -109 625 -96C634 -90 637 -89 663 -78C683 -71 689 -62 689 -51C689 -33 671 -19 646 -19C629 -19 617 -24 617 -30C617 -32 619 -34 620 -35C629 -43 632 -47 632 -56C632 -72 618 -85 600 -85C581 -85 568 -72 568 -52C568 -21 601 0 649 0C708 0 748 -29 748 -73C748 -105 732 -122 683 -143C656 -155 648 -163 648 -175C648 -190 664 -201 688 -201C702 -201 713 -197 713 -192C713 -191 712 -189 710 -186C704 -178 702 -175 702 -168C702 -153 715 -141 733 -141C751 -141 764 -153 764 -173ZM977 -173C977 -202 944 -222 897 -222C840 -222 805 -195 805 -151C805 -127 814 -109 837 -96C846 -90 849 -89 876 -78C895 -71 901 -62 901 -51C901 -33 883 -19 858 -19C842 -19 830 -24 830 -30V-31C830 -33 831 -34 832 -35C842 -43 844 -47 844 -56C844 -72 831 -85 812 -85C793 -85 780 -72 780 -52C780 -21 813 0 861 0C920 0 960 -29 960 -73C960 -105 945 -122 895 -143C868 -155 860 -163 860 -175C860 -190 876 -201 900 -201C914 -201 925 -197 925 -192C925 -191 924 -189 922 -186C916 -178 914 -175 914 -168C914 -153 927 -141 945 -141C964 -141 977 -153 977 -173ZM1190 -216L1183 -195C1172 -213 1154 -222 1127 -222C1060 -222 998 -154 998 -82C998 -34 1030 0 1076 0C1107 0 1128 -12 1149 -40C1149 -29 1150 -28 1151 -25C1155 -10 1170 0 1188 0C1211 0 1231 -11 1253 -37C1262 -47 1276 -65 1283 -77L1266 -88C1249 -62 1226 -38 1218 -38C1215 -38 1212 -41 1212 -45C1212 -48 1211 -49 1216 -65L1261 -216ZM1093 -154C1107 -184 1123 -198 1142 -198C1158 -198 1170 -184 1170 -164C1170 -141 1159 -105 1146 -75C1132 -46 1116 -31 1099 -31C1081 -31 1071 -45 1071 -67C1071 -91 1081 -128 1093 -154Z" />
</g>
</def>
<g transform="translate(810, 300) scale(0.02) ">
 <use href="#uniE51F" />
</g>

<g font-size="10" font-family="Verdana" >
<text x="810" y="350">uniE51F</text>
</g>

<def>
 <g id="uniE520">
 <path d="M129 163V143H54L112 -18L115 -11C115 -11 125 11 159 20C165 22 172 22 178 22C233 22 288 -34 309 -115C315 -137 317 -155 317 -171C317 -238 275 -255 260 -259C256 -260 251 -261 247 -261C216 -261 185 -235 168 -218L165 -215L163 -219C163 -219 142 -257 107 -262C103 -262 100 -263 96 -263C63 -263 29 -240 0 -157L18 -148C22 -161 32 -193 44 -209C50 -218 62 -226 71 -228C72 -228 74 -228 75 -228C78 -228 81 -227 83 -226C87 -223 88 -218 88 -211C88 -187 70 -143 65 -133L-34 143H-95V163ZM157 -12C155 -12 151 -12 149 -13C134 -19 130 -37 130 -56C130 -87 141 -123 142 -125C151 -163 180 -205 206 -220C213 -224 219 -226 225 -226C228 -226 231 -226 233 -225C237 -224 241 -220 243 -216C246 -210 247 -202 247 -193C247 -166 237 -130 231 -112C218 -73 193 -26 168 -14C165 -12 160 -12 157 -12Z" />
</g>
</def>
<g transform="translate(900, 300) scale(0.02) ">
 <use href="#uniE520" />
</g>

<g font-size="10" font-family="Verdana" >
<text x="900" y="350">uniE520</text>
</g>

<def>
 <g id="uniE521">
 <path d="M339 -44C334 -35 329 -33 324 -33C322 -33 321 -33 319 -34C314 -36 312 -40 312 -45C312 -53 316 -65 320 -78C322 -84 327 -104 329 -109C335 -127 342 -168 342 -195C342 -200 342 -205 341 -209C336 -236 324 -249 303 -249C277 -249 249 -230 236 -213L234 -209L232 -214C232 -214 216 -249 189 -249C161 -249 140 -238 123 -215L120 -211L119 -216C119 -216 106 -245 81 -250C76 -251 71 -251 67 -251C42 -251 27 -236 20 -228C14 -221 0 -197 -7 -175L8 -167C8 -167 25 -221 47 -221C49 -221 50 -221 52 -220C58 -218 60 -213 60 -205C60 -191 52 -167 41 -135C41 -134 4 -23 1 -14C1 -12 0 -11 0 -9C0 -7 1 -5 2 -3C4 -1 6 1 10 1H25C40 1 60 1 63 1C65 1 70 1 74 -15C79 -37 84 -55 88 -69C92 -84 129 -215 163 -215C165 -215 168 -214 169 -212C171 -210 172 -206 172 -201C172 -184 162 -152 150 -111C135 -62 120 -15 120 -15C120 -14 120 -13 120 -11C120 -8 120 -4 122 -2C124 0 127 1 130 1H185C189 1 194 0 196 -11C196 -12 197 -15 197 -18C217 -158 249 -200 272 -210C273 -210 274 -211 275 -211H276C277 -211 277 -210 278 -210C280 -209 283 -206 283 -201C283 -191 277 -151 256 -97C250 -81 247 -66 247 -52C247 -38 250 -26 257 -16C265 -4 283 2 297 2C342 2 359 -34 372 -69C373 -71 373 -73 374 -75L357 -83C357 -83 346 -56 339 -44Z" />
</g>
</def>
<g transform="translate(90, 400) scale(0.02) ">
 <use href="#uniE521" />
</g>

<g font-size="10" font-family="Verdana" >
<text x="90" y="450">uniE521</text>
</g>

<def>
 <g id="uniE522">
 <path d="M-85 60C-112 60 -137 85 -137 112C-137 164 -102 193 -56 193C-24 193 -1 183 24 158C68 114 116 -35 140 -120C149 -152 158 -183 165 -206V-208H237C243 -208 247 -212 247 -218V-240C247 -246 243 -250 237 -250H178V-253C206 -355 214 -373 229 -385C237 -391 244 -393 249 -393C251 -393 253 -392 254 -392C259 -391 262 -388 264 -384C265 -382 265 -381 265 -379C265 -374 263 -369 259 -367C249 -359 244 -346 244 -332C244 -327 245 -323 246 -318C249 -309 257 -300 267 -296C271 -294 278 -292 285 -292C292 -292 300 -294 309 -299C319 -304 329 -317 332 -328C334 -333 334 -339 334 -345C334 -357 331 -370 324 -382C316 -397 293 -415 261 -420C256 -421 250 -421 244 -421C220 -421 189 -413 156 -384C130 -361 107 -317 85 -252V-250H9C3 -250 -1 -246 -1 -240V-218C-1 -212 3 -208 9 -208H71V-204C61 -164 53 -130 46 -97C38 -60 29 -22 17 24L14 36C-7 118 -13 147 -37 163C-42 166 -48 168 -54 168C-59 168 -64 166 -68 163C-71 161 -73 158 -73 154C-73 153 -73 153 -73 152C-72 148 -70 144 -65 142C-46 134 -40 116 -40 100C-40 86 -49 60 -85 60Z" />
</g>
</def>
<g transform="translate(180, 400) scale(0.02) ">
 <use href="#uniE522" />
</g>

<g font-size="10" font-family="Verdana" >
<text x="180" y="450">uniE522</text>
</g>

<def>
 <g id="uniE523">
 <path d="M189 -253C166 -253 147 -242 139 -237C130 -231 123 -223 117 -215L114 -211C114 -211 105 -245 76 -252C71 -253 66 -254 61 -254C36 -254 22 -238 15 -230C9 -223 -5 -199 -12 -177L3 -169C3 -169 20 -223 42 -223C44 -223 45 -223 47 -222C52 -220 54 -214 54 -206C54 -189 45 -160 34 -125L0 -16C0 -15 0 -14 0 -12C0 -9 0 -5 2 -3C4 -1 7 0 10 0H65C69 0 74 -1 76 -12C76 -13 77 -16 77 -19C97 -160 129 -194 145 -210C149 -214 153 -216 156 -216C157 -216 158 -216 159 -215C162 -213 162 -212 162 -211C162 -210 162 -209 162 -209C153 -202 150 -194 150 -186C150 -180 152 -173 156 -169C163 -161 173 -159 182 -159C194 -159 205 -163 211 -168C222 -177 230 -191 230 -214C230 -237 211 -253 189 -253Z" />
</g>
</def>
<g transform="translate(270, 400) scale(0.02) ">
 <use href="#uniE523" />
</g>

<g font-size="10" font-family="Verdana" >
<text x="270" y="450">uniE523</text>
</g>

<def>
 <g id="uniE524">
 <path d="M168 -228C154 -220 151 -208 151 -201C151 -190 160 -173 179 -173C198 -173 205 -187 207 -197C208 -199 208 -202 208 -205C208 -228 189 -263 131 -263C64 -263 34 -219 34 -180C34 -159 41 -136 69 -120C81 -113 97 -105 114 -95C131 -85 135 -71 135 -61C135 -51 123 -17 86 -17C57 -17 50 -27 50 -32C50 -33 50 -34 51 -34C54 -36 67 -43 67 -67C67 -93 50 -104 35 -104C20 -104 0 -93 0 -63C0 -18 34 5 86 5C138 5 196 -17 196 -77C196 -137 144 -152 119 -166C94 -180 89 -186 89 -203C89 -220 108 -241 134 -241C160 -241 168 -228 168 -228Z" />
</g>
</def>
<g transform="translate(360, 400) scale(0.02) ">
 <use href="#uniE524" />
</g>

<g font-size="10" font-family="Verdana" >
<text x="360" y="450">uniE524</text>
</g>

<def>
 <g id="uniE525">
 <path d="M159 -203C161 -203 162 -202 163 -200C164 -198 164 -198 164 -197C164 -195 163 -194 162 -193C161 -192 -3 -59 -29 -38C-39 -30 -42 -23 -42 -17C-42 -8 -35 -3 -35 -3C-31 -1 -28 0 -24 0C-10 0 1 -13 6 -20C12 -30 18 -48 35 -48C52 -48 56 -35 62 -24C72 -7 95 1 118 1C137 1 155 -4 169 -15C200 -39 211 -82 211 -102C211 -122 204 -136 183 -136C166 -136 157 -121 157 -108C157 -89 173 -85 174 -81C174 -79 174 -77 174 -75C174 -68 173 -61 169 -55C164 -47 155 -39 147 -39C145 -39 142 -39 140 -41C135 -44 129 -52 113 -64C97 -76 79 -83 75 -85C73 -86 73 -86 73 -87C73 -88 74 -89 74 -89C74 -89 210 -204 217 -211C225 -219 233 -227 237 -236C238 -237 239 -240 239 -241V-247C238 -255 233 -256 231 -256H230L182 -252C170 -251 160 -251 151 -251C134 -251 121 -252 108 -254C102 -255 87 -258 79 -258C77 -258 75 -257 74 -257C68 -255 62 -250 60 -239C50 -184 29 -161 26 -154C26 -153 26 -153 26 -152C26 -148 30 -144 35 -144H46C52 -144 53 -149 56 -156C59 -163 73 -198 75 -202C77 -206 78 -206 82 -206C87 -205 100 -202 116 -201C119 -201 123 -201 126 -201C140 -201 154 -202 159 -203Z" />
</g>
</def>
<g transform="translate(450, 400) scale(0.02) ">
 <use href="#uniE525" />
</g>

<g font-size="10" font-family="Verdana" >
<text x="450" y="450">uniE525</text>
</g>

<def>
 <g id="uniE526">
 <path d="M114 -211C114 -211 105 -245 76 -252C71 -253 66 -254 61 -254C36 -254 22 -238 15 -230C9 -223 -5 -199 -12 -177L3 -169C3 -169 20 -223 42 -223C44 -223 45 -223 47 -222C52 -220 54 -214 54 -206C54 -189 45 -160 34 -125L0 -16C0 -15 0 -14 0 -12C0 -9 0 -5 2 -3C4 -1 7 0 10 0H65C70 0 74 -1 76 -12C76 -13 77 -16 77 -19C97 -160 129 -202 153 -212C154 -212 155 -213 156 -213C157 -213 158 -212 159 -212C161 -211 162 -209 163 -205C163 -205 163 -204 163 -203C163 -193 157 -153 136 -99C130 -84 127 -69 127 -56C127 -41 131 -27 138 -17C146 -5 163 1 177 1C222 1 240 -36 253 -71C254 -73 254 -74 255 -76L238 -84C238 -84 227 -57 220 -45C215 -36 210 -34 205 -34C203 -34 202 -34 200 -35C194 -37 192 -41 192 -47C192 -56 196 -68 200 -80C202 -86 208 -105 210 -111C216 -129 223 -170 223 -197C223 -202 223 -207 222 -211C217 -238 205 -251 184 -251C158 -251 130 -233 117 -215Z" />
</g>
</def>
<g transform="translate(540, 400) scale(0.02) ">
 <use href="#uniE526" />
</g>

<g font-size="10" font-family="Verdana" >
<text x="540" y="450">uniE526</text>
</g>

<def>
 <g id="uniE527">
 <path d="M1880 -259C1876 -260 1871 -261 1867 -261C1836 -261 1804 -235 1787 -218L1785 -215L1783 -218C1783 -218 1762 -256 1727 -261C1722 -262 1717 -262 1711 -262C1677 -262 1634 -249 1611 -196C1602 -243 1569 -256 1556 -259C1552 -260 1547 -261 1543 -261C1512 -261 1480 -235 1463 -218L1461 -215L1459 -218C1459 -218 1438 -256 1403 -261C1398 -262 1393 -262 1387 -262C1353 -262 1310 -249 1287 -196C1278 -243 1245 -256 1232 -259C1228 -260 1223 -261 1219 -261C1188 -261 1157 -235 1140 -218L1137 -215L1135 -218C1135 -218 1114 -256 1079 -261C1074 -262 1069 -262 1063 -262C1029 -262 986 -249 963 -196C954 -243 921 -256 908 -259C904 -260 899 -261 895 -261C864 -261 833 -235 816 -218L813 -215L811 -219C811 -219 790 -257 755 -262C750 -263 745 -263 740 -263C706 -263 662 -250 639 -196C630 -243 597 -256 584 -259C580 -260 575 -261 571 -261C540 -261 509 -235 492 -218L489 -215L487 -219C487 -219 466 -257 431 -262C426 -263 421 -263 416 -263C382 -263 338 -250 315 -196C306 -243 273 -256 260 -259C256 -260 251 -261 247 -261C216 -261 185 -235 168 -218L165 -215L163 -219C163 -219 142 -257 107 -262C103 -262 100 -263 96 -263C63 -263 29 -240 0 -157L18 -148C22 -161 32 -192 44 -208C50 -217 62 -225 71 -227C72 -227 74 -227 75 -227C78 -227 81 -226 83 -225C87 -222 88 -217 88 -210C88 -186 70 -143 65 -133L-34 143H-95V163H129V143H54L112 -18L115 -11C115 -11 125 11 159 20C165 22 172 22 178 22C233 22 288 -34 309 -114C324 -164 337 -187 347 -204C355 -217 374 -230 390 -230C393 -230 395 -230 398 -229C408 -226 412 -218 412 -208C412 -191 401 -165 389 -133L290 143H228V163H453V143H377L436 -18L439 -11C439 -11 448 11 482 20C488 22 495 22 501 22C556 22 612 -34 633 -114C648 -164 661 -187 671 -204C679 -217 698 -230 714 -230C717 -230 719 -230 722 -229C732 -226 736 -218 736 -208C736 -191 725 -165 713 -133L614 143H552V163H777V143H701L760 -18L763 -11C763 -11 772 11 806 20C812 22 819 22 825 22C880 22 936 -34 957 -114C972 -164 984 -187 994 -204C1002 -217 1021 -230 1037 -230C1040 -230 1042 -230 1045 -229C1055 -226 1060 -219 1060 -208C1060 -191 1049 -165 1037 -133L938 143H876V163H1101V143H1025L1084 -18L1086 -11C1086 -11 1096 11 1130 20C1136 22 1143 22 1149 22C1204 22 1260 -34 1281 -114C1296 -164 1308 -187 1318 -204C1326 -217 1345 -230 1361 -230C1364 -230 1366 -230 1369 -229C1379 -226 1384 -219 1384 -208C1384 -191 1373 -165 1361 -133L1262 143H1200V163H1425V143H1349L1408 -18L1410 -11C1410 -11 1420 11 1454 20C1460 22 1467 22 1473 22C1528 22 1583 -34 1604 -114C1619 -164 1632 -187 1642 -204C1650 -217 1669 -230 1685 -230C1688 -230 1690 -230 1693 -229C1703 -226 1708 -219 1708 -208C1708 -191 1697 -165 1685 -133L1586 143H1524V163H1749V143H1673L1731 -18L1734 -11C1734 -11 1744 11 1778 20C1784 22 1791 22 1797 22C1852 22 1908 -34 1929 -115C1935 -137 1937 -155 1937 -171C1937 -238 1895 -255 1880 -259ZM231 -112C218 -73 193 -26 168 -14C165 -12 160 -11 157 -11C155 -11 151 -12 149 -13C134 -19 130 -37 130 -56C130 -87 141 -123 142 -125C151 -163 180 -205 206 -220C213 -224 219 -226 225 -226C228 -226 231 -226 233 -225C237 -224 241 -220 243 -216C246 -210 247 -202 247 -193C247 -166 237 -130 231 -112ZM554 -112C541 -73 517 -26 492 -14C489 -12 484 -11 481 -11H480C478 -11 475 -12 473 -13C458 -19 454 -37 454 -56C454 -87 465 -123 466 -125C475 -163 504 -205 530 -220C537 -224 543 -226 549 -226C552 -226 555 -226 557 -225C561 -224 565 -220 567 -216C570 -210 571 -202 571 -193C571 -166 561 -130 555 -112ZM878 -112C865 -73 841 -26 816 -14C813 -12 807 -11 804 -11C802 -11 799 -12 797 -13C782 -19 778 -37 778 -56C778 -87 789 -123 790 -125C799 -163 828 -205 854 -220C861 -224 867 -226 873 -226C876 -226 879 -226 881 -225C885 -224 889 -220 891 -216C894 -211 895 -203 895 -194C895 -167 884 -130 878 -112ZM1202 -112C1189 -73 1165 -26 1140 -14C1137 -12 1131 -11 1128 -11C1126 -11 1123 -12 1121 -13C1106 -19 1102 -37 1102 -56C1102 -87 1113 -123 1114 -125C1123 -163 1151 -205 1177 -220C1184 -224 1191 -226 1197 -226C1200 -226 1203 -226 1205 -225C1209 -224 1213 -220 1215 -216C1218 -211 1219 -203 1219 -194C1219 -167 1208 -130 1202 -112ZM1526 -112C1513 -73 1489 -26 1464 -14C1461 -12 1455 -11 1452 -11C1450 -11 1447 -12 1445 -13C1430 -19 1426 -37 1426 -56C1426 -87 1437 -123 1438 -125C1447 -163 1475 -205 1501 -220C1508 -224 1515 -226 1521 -226C1524 -226 1527 -226 1529 -225C1533 -224 1537 -220 1539 -216C1542 -211 1543 -203 1543 -194C1543 -167 1532 -130 1526 -112ZM1850 -112C1837 -73 1813 -26 1788 -14C1785 -12 1779 -11 1776 -11C1774 -11 1771 -12 1769 -13C1754 -19 1750 -37 1750 -56C1750 -87 1761 -123 1762 -125C1771 -163 1799 -205 1825 -220C1832 -224 1839 -226 1845 -226C1848 -226 1851 -226 1853 -225C1857 -224 1861 -220 1863 -216C1866 -211 1867 -203 1867 -194C1867 -167 1856 -130 1850 -112Z" />
</g>
</def>
<g transform="translate(630, 400) scale(0.02) ">
 <use href="#uniE527" />
</g>

<g font-size="10" font-family="Verdana" >
<text x="630" y="450">uniE527</text>
</g>

<def>
 <g id="uniE528">
 <path d="M1556 -259C1552 -260 1547 -261 1543 -261C1512 -261 1481 -235 1464 -218L1461 -215L1459 -218C1459 -218 1438 -256 1403 -261C1398 -262 1393 -262 1388 -262C1354 -262 1310 -249 1287 -195C1278 -242 1245 -256 1232 -259C1228 -260 1223 -261 1219 -261C1188 -261 1157 -235 1140 -218L1137 -215L1135 -218C1135 -218 1114 -256 1079 -261C1074 -262 1069 -262 1064 -262C1030 -262 986 -249 963 -195C954 -242 921 -256 908 -259C904 -260 899 -261 895 -261C864 -261 833 -235 816 -218L813 -215L811 -218C811 -218 790 -256 755 -261C750 -262 745 -262 740 -262C706 -262 662 -249 639 -195C630 -242 597 -256 584 -259C580 -260 575 -261 571 -261C540 -261 509 -235 492 -218L489 -215L487 -218C487 -218 466 -256 431 -261C426 -262 421 -262 415 -262C381 -262 338 -249 315 -196C306 -243 273 -256 260 -259C256 -260 251 -261 247 -261C216 -261 185 -235 168 -218L165 -215L163 -218C163 -218 142 -256 107 -261C103 -262 100 -262 96 -262C63 -262 29 -240 0 -157L18 -148C22 -161 32 -192 44 -208C50 -217 62 -225 71 -227C72 -227 74 -227 75 -227C78 -227 81 -226 83 -225C87 -222 88 -217 88 -210C88 -186 70 -143 65 -133L-34 143H-95V163H129V143H54L112 -18L115 -11C115 -11 125 11 159 20C165 22 172 22 178 22C233 22 288 -34 309 -114C324 -164 337 -187 347 -204C355 -217 374 -230 390 -230C393 -230 395 -230 398 -229C408 -226 412 -218 412 -208C412 -191 401 -165 389 -133L290 143H228V163H453V143H378L436 -18L439 -11C439 -11 448 11 482 20C488 22 495 22 501 22C556 22 612 -34 633 -114C648 -164 661 -187 671 -204C679 -217 698 -230 714 -230C717 -230 719 -230 722 -229C732 -226 736 -218 736 -208C736 -191 725 -165 713 -133L614 143H552V163H777V143H702L760 -18L763 -11C763 -11 772 11 806 20C812 22 819 22 825 22C880 22 936 -34 957 -114C972 -164 984 -187 994 -204C1002 -217 1021 -230 1038 -230C1041 -230 1043 -230 1046 -229C1056 -226 1060 -218 1060 -208C1060 -191 1049 -165 1037 -133L938 143H876V163H1101V143H1025L1084 -18L1087 -11C1087 -11 1096 11 1130 20C1136 22 1143 22 1149 22C1204 22 1260 -34 1281 -114C1296 -164 1308 -187 1318 -204C1326 -217 1345 -230 1362 -230C1365 -230 1367 -230 1370 -229C1380 -226 1384 -218 1384 -208C1384 -191 1373 -165 1361 -133L1262 143H1200V163H1425V143H1349L1408 -18L1410 -11C1410 -11 1420 11 1454 20C1460 22 1467 22 1473 22C1528 22 1584 -34 1605 -115C1611 -137 1613 -155 1613 -171C1613 -238 1571 -255 1556 -259ZM231 -112C218 -73 193 -26 168 -14C165 -12 160 -11 157 -11C155 -11 151 -12 149 -13C134 -19 130 -37 130 -56C130 -87 141 -123 142 -125C151 -163 180 -205 206 -220C213 -224 219 -226 225 -226C228 -226 231 -226 233 -225C237 -224 241 -220 243 -216C246 -210 247 -202 247 -193C247 -166 237 -130 231 -112ZM555 -112C542 -73 517 -26 492 -14C489 -12 484 -11 481 -11C479 -11 475 -12 473 -13C458 -19 454 -37 454 -56C454 -87 465 -123 466 -125C475 -163 504 -205 530 -220C537 -224 543 -226 549 -226C552 -226 555 -226 557 -225C561 -224 565 -220 567 -216C570 -210 571 -202 571 -193C571 -166 561 -130 555 -112ZM879 -112C866 -73 841 -26 816 -14C813 -12 808 -11 805 -11C803 -11 799 -12 797 -13C782 -19 778 -37 778 -56C778 -87 789 -123 790 -125C799 -163 828 -205 854 -220C861 -224 867 -226 873 -226C876 -226 879 -226 881 -225C885 -224 889 -220 891 -216C894 -211 895 -203 895 -194C895 -167 884 -130 878 -112ZM1202 -112C1189 -73 1165 -26 1140 -14C1137 -12 1131 -11 1128 -11C1126 -11 1123 -12 1121 -13C1106 -19 1102 -37 1102 -56C1102 -87 1113 -123 1114 -125C1123 -163 1152 -205 1178 -220C1185 -224 1191 -226 1197 -226C1200 -226 1203 -226 1205 -225C1209 -224 1213 -220 1215 -216C1218 -211 1219 -203 1219 -194C1219 -167 1208 -130 1202 -112ZM1526 -112C1513 -73 1489 -26 1464 -14C1461 -12 1455 -11 1452 -11C1450 -11 1447 -12 1445 -13C1430 -19 1426 -37 1426 -56C1426 -87 1437 -123 1438 -125C1447 -163 1476 -205 1502 -220C1509 -224 1515 -226 1521 -226C1524 -226 1527 -226 1529 -225C1533 -224 1537 -220 1539 -216C1542 -211 1543 -203 1543 -194C1543 -167 1532 -130 1526 -112Z" />
</g>
</def>
<g transform="translate(720, 400) scale(0.02) ">
 <use href="#uniE528" />
</g>

<g font-size="10" font-family="Verdana" >
<text x="720" y="450">uniE528</text>
</g>

<def>
 <g id="uniE529">
 <path d="M1232 -259C1228 -260 1223 -261 1219 -261C1188 -261 1157 -235 1140 -218L1137 -215L1135 -218C1135 -218 1114 -256 1079 -261C1074 -262 1069 -262 1063 -262C1029 -262 986 -249 963 -196C954 -243 921 -256 908 -259C904 -260 899 -261 895 -261C864 -261 833 -235 816 -218L813 -215L811 -218C811 -218 790 -256 755 -261C750 -262 745 -262 739 -262C705 -262 662 -249 639 -196C630 -243 597 -256 584 -259C580 -260 575 -261 571 -261C540 -261 509 -235 492 -218L489 -215L487 -218C487 -218 466 -256 431 -261C426 -262 421 -262 415 -262C381 -262 338 -249 315 -196C306 -243 273 -256 260 -259C256 -260 251 -261 247 -261C216 -261 185 -235 168 -218L165 -215L163 -219C163 -219 142 -257 107 -262C103 -262 100 -263 96 -263C63 -263 29 -240 0 -157L18 -148C22 -161 32 -192 44 -208C50 -217 62 -225 71 -227C72 -227 74 -227 75 -227C78 -227 81 -226 83 -225C87 -222 88 -217 88 -210C88 -186 70 -143 65 -133L-34 143H-95V163H129V143H54L112 -18L115 -11C115 -11 125 11 159 20C165 22 172 22 178 22C233 22 288 -34 309 -114C324 -164 337 -187 347 -204C355 -217 374 -230 390 -230C393 -230 395 -230 398 -229C408 -226 412 -218 412 -208C412 -191 401 -165 389 -133L290 143H228V163H453V143H378L436 -18L439 -11C439 -11 448 11 482 20C488 22 495 22 501 22C556 22 612 -34 633 -114C648 -164 660 -187 670 -204C678 -217 697 -230 714 -230C717 -230 719 -230 722 -229C732 -226 736 -218 736 -208C736 -191 725 -165 713 -133L614 143H552V163H777V143H701L760 -18L763 -11C763 -11 772 11 806 20C812 22 819 22 825 22C880 22 936 -34 957 -114C972 -164 984 -187 994 -204C1002 -217 1021 -230 1038 -230C1041 -230 1043 -230 1046 -229C1056 -226 1060 -218 1060 -208C1060 -191 1049 -165 1037 -133L938 143H876V163H1101V143H1025L1084 -18L1086 -11C1086 -11 1096 11 1130 20C1136 22 1143 22 1149 22C1204 22 1260 -34 1281 -115C1287 -137 1289 -155 1289 -171C1289 -238 1247 -255 1232 -259ZM231 -112C218 -73 193 -26 168 -14C165 -12 160 -11 157 -11C155 -11 151 -12 149 -13C134 -19 130 -37 130 -56C130 -87 141 -123 142 -125C151 -163 180 -205 206 -220C213 -224 219 -226 225 -226C228 -226 231 -226 233 -225C237 -224 241 -220 243 -216C246 -210 247 -202 247 -193C247 -166 237 -130 231 -112ZM555 -112C542 -73 517 -26 492 -14C489 -12 484 -11 481 -11H480C478 -11 475 -12 473 -13C458 -19 454 -37 454 -56C454 -87 465 -123 466 -125C475 -163 504 -205 530 -220C537 -224 543 -226 549 -226C552 -226 555 -226 557 -225C561 -224 565 -220 567 -216C570 -210 571 -202 571 -193C571 -166 561 -130 555 -112ZM878 -112C865 -73 841 -26 816 -14C813 -12 807 -11 804 -11C802 -11 799 -12 797 -13C782 -19 778 -37 778 -56C778 -87 789 -123 790 -125C799 -163 828 -205 854 -220C861 -224 867 -226 873 -226C876 -226 879 -226 881 -225C885 -224 889 -220 891 -216C894 -211 895 -203 895 -194C895 -167 884 -130 878 -112ZM1202 -112C1189 -73 1165 -26 1140 -14C1137 -12 1131 -11 1128 -11C1126 -11 1123 -12 1121 -13C1106 -19 1102 -37 1102 -56C1102 -87 1113 -123 1114 -125C1123 -163 1152 -205 1178 -220C1185 -224 1191 -226 1197 -226C1200 -226 1203 -226 1205 -225C1209 -224 1213 -220 1215 -216C1218 -211 1219 -203 1219 -194C1219 -167 1208 -130 1202 -112Z" />
</g>
</def>
<g transform="translate(810, 400) scale(0.02) ">
 <use href="#uniE529" />
</g>

<g font-size="10" font-family="Verdana" >
<text x="810" y="450">uniE529</text>
</g>

<def>
 <g id="uniE52A">
 <path d="M908 -259C904 -260 899 -261 895 -261C864 -261 833 -235 816 -218L813 -215L811 -219C811 -219 790 -257 755 -262C750 -263 745 -263 740 -263C706 -263 662 -250 639 -196C630 -243 597 -256 584 -259C580 -260 575 -261 571 -261C540 -261 509 -235 492 -218L489 -215L487 -219C487 -219 466 -257 431 -262C426 -263 421 -263 416 -263C382 -263 338 -250 315 -196C306 -243 273 -256 260 -259C256 -260 251 -261 247 -261C216 -261 185 -235 168 -218L165 -215L163 -219C163 -219 142 -257 107 -262C103 -262 100 -263 96 -263C63 -263 29 -240 0 -157L18 -148C22 -161 33 -193 45 -209C51 -218 62 -226 71 -228C72 -228 74 -228 75 -228C78 -228 81 -227 83 -226C87 -223 88 -218 88 -211C88 -187 70 -143 65 -133L-34 143H-95V163H129V143H54L112 -18L115 -11C115 -11 125 11 159 20C165 22 172 22 178 22C233 22 288 -34 309 -114C324 -164 337 -187 347 -204C355 -217 374 -230 390 -230C393 -230 395 -230 398 -229C408 -226 412 -218 412 -208C412 -191 401 -165 389 -133L290 143H228V163H453V143H378L436 -18L439 -11C439 -11 448 11 482 20C488 22 495 22 501 22C556 22 612 -34 633 -114C648 -164 661 -187 671 -204C679 -217 698 -230 714 -230C717 -230 719 -230 722 -229C732 -226 736 -218 736 -208C736 -191 725 -165 713 -133L614 143H552V163H777V143H701L760 -18L763 -11C763 -11 772 11 806 20C812 22 819 22 825 22C880 22 936 -34 957 -115C963 -137 965 -155 965 -171C965 -238 923 -255 908 -259ZM231 -112C218 -73 193 -26 168 -14C165 -12 160 -12 157 -12C155 -12 151 -12 149 -13C134 -19 130 -37 130 -56C130 -87 141 -123 142 -125C151 -163 180 -205 206 -220C213 -224 219 -226 225 -226C228 -226 231 -226 233 -225C237 -224 241 -220 243 -216C246 -210 247 -202 247 -193C247 -166 237 -130 231 -112ZM555 -112C542 -73 517 -26 492 -14C489 -12 484 -12 481 -12C479 -12 475 -12 473 -13C458 -19 454 -37 454 -56C454 -87 465 -123 466 -125C475 -163 504 -205 530 -220C537 -224 543 -226 549 -226C552 -226 555 -226 557 -225C561 -224 565 -220 567 -216C570 -210 571 -202 571 -193C571 -166 561 -130 555 -112ZM879 -112C866 -73 841 -26 816 -14C813 -12 807 -12 804 -12C802 -12 799 -12 797 -13C782 -19 778 -37 778 -56C778 -87 789 -123 790 -125C799 -163 828 -205 854 -220C861 -224 867 -226 873 -226C876 -226 879 -226 881 -225C885 -224 889 -220 891 -216C894 -211 895 -203 895 -194C895 -167 884 -130 878 -112Z" />
</g>
</def>
<g transform="translate(900, 400) scale(0.02) ">
 <use href="#uniE52A" />
</g>

<g font-size="10" font-family="Verdana" >
<text x="900" y="450">uniE52A</text>
</g>
</svg>

