<?xml version="1.0" standalone="no"?>

<svg version="1.1"
    viewBox="0 0 1003 503"
     xmlns="http://www.w3.org/2000/svg">
  <desc>shows all the symbols from font</desc>
    <g fill="none" stroke="black" stroke-width="3" >
<line x1="0" y1="1.5" x2="1000" y2="1.5" />
<line x1="1.5" y1="0" x2="1.5" y2="500" />
</g>
<g fill="red" stroke="none" >
<rect x="0" y="0" width="3" height="3" />
<rect x="997" y="0" width="3" height="3" />
<rect x="0" y="497" width="3" height="3" />
</g>
<g font-size="14" font-family="Verdana" >
<text x="10" y="20">(0,0)</text>
<text x="940" y="20">(1000,0)</text>
<text x="10" y="490">(0,500)</text>
</g>
<g style="stroke:#D3D3D3;stroke-width:0.5px;stroke-dasharray:10, 10;stroke-opacity:1" >
<line x1="0.0" y1="0" x2="0.0" y2="500" />
<line x1="90.9090909090909" y1="0" x2="90.9090909090909" y2="500" />
<line x1="181.8181818181818" y1="0" x2="181.8181818181818" y2="500" />
<line x1="272.72727272727275" y1="0" x2="272.72727272727275" y2="500" />
<line x1="363.6363636363636" y1="0" x2="363.6363636363636" y2="500" />
<line x1="454.54545454545456" y1="0" x2="454.54545454545456" y2="500" />
<line x1="545.4545454545455" y1="0" x2="545.4545454545455" y2="500" />
<line x1="636.3636363636364" y1="0" x2="636.3636363636364" y2="500" />
<line x1="727.2727272727273" y1="0" x2="727.2727272727273" y2="500" />
<line x1="818.1818181818181" y1="0" x2="818.1818181818181" y2="500" />
<line x1="909.0909090909091" y1="0" x2="909.0909090909091" y2="500" />
<line x1="1000.0" y1="0" x2="1000.0" y2="500" />
<line x1="0" y1="0.0" x2="1000" y2="0.0" />
<line x1="0" y1="100.0" x2="1000" y2="100.0" />
<line x1="0" y1="200.0" x2="1000" y2="200.0" />
<line x1="0" y1="300.0" x2="1000" y2="300.0" />
<line x1="0" y1="400.0" x2="1000" y2="400.0" />
<line x1="0" y1="500.0" x2="1000" y2="500.0" />
</g>

<def>
 <g id="uniE52B">
 <path d="M584 -259C580 -260 575 -261 571 -261C540 -261 509 -235 492 -218L489 -215L487 -219C487 -219 466 -257 431 -262C426 -263 421 -263 416 -263C382 -263 338 -250 315 -196C306 -243 273 -256 260 -259C256 -260 251 -261 247 -261C216 -261 185 -235 168 -218L165 -215L163 -219C163 -219 142 -257 107 -262C103 -262 100 -263 96 -263C63 -263 29 -240 0 -157L18 -148C22 -161 33 -193 45 -209C51 -218 62 -226 71 -228C72 -228 74 -228 75 -228C78 -228 81 -227 83 -226C87 -223 88 -218 88 -211C88 -187 70 -143 65 -133L-34 143H-95V163H129V143H54L112 -18L115 -11C115 -11 125 11 159 20C165 22 172 22 178 22C233 22 288 -34 309 -114C324 -164 337 -187 347 -204C355 -217 374 -230 390 -230C393 -230 395 -230 398 -229C408 -226 412 -218 412 -208C412 -191 401 -165 389 -133L290 143H228V163H453V143H378L436 -18L439 -11C439 -11 448 11 482 20C488 22 495 22 501 22C556 22 612 -34 633 -115C639 -137 641 -155 641 -171C641 -238 599 -255 584 -259ZM231 -112C218 -73 193 -26 168 -14C165 -12 160 -12 157 -12C155 -12 151 -12 149 -13C134 -19 130 -37 130 -56C130 -87 141 -123 142 -125C151 -163 180 -205 206 -220C213 -224 219 -226 225 -226C228 -226 231 -226 233 -225C237 -224 241 -220 243 -216C246 -210 247 -202 247 -193C247 -166 237 -130 231 -112ZM555 -112C542 -73 517 -26 492 -14C489 -12 484 -12 481 -12C479 -12 475 -12 473 -13C458 -19 454 -37 454 -56C454 -87 465 -123 466 -125C475 -163 504 -205 530 -220C537 -224 543 -226 549 -226C552 -226 555 -226 557 -225C561 -224 565 -220 567 -216C570 -210 571 -202 571 -193C571 -166 561 -130 555 -112Z" />
</g>
</def>
<g transform="translate(90, 100) scale(0.02) ">
 <use href="#uniE52B" />
</g>

<g font-size="10" font-family="Verdana" >
<text x="90" y="150">uniE52B</text>
</g>

<def>
 <g id="uniE52C">
 <path d="M508 163V143H433L491 -18L494 -11C494 -11 504 11 538 20C544 22 551 22 557 22C642 22 696 -95 696 -171C696 -212 672 -261 626 -261C595 -261 564 -235 547 -218L544 -215L542 -219C542 -219 521 -257 486 -262C485 -262 484 -262 483 -262L478 -263C421 -263 395 -203 379 -157L397 -148C401 -161 411 -193 423 -209C429 -218 441 -226 450 -228C451 -228 453 -228 454 -228C457 -228 460 -228 462 -226C466 -223 467 -218 467 -211C467 -187 449 -143 444 -133L345 143H284V163ZM339 -44C334 -35 329 -33 324 -33C322 -33 321 -33 319 -34C314 -36 312 -40 312 -45C312 -53 325 -100 329 -109C335 -127 342 -168 342 -195C342 -200 342 -205 341 -209C336 -236 324 -249 303 -249C277 -249 249 -230 236 -213L234 -209L232 -214C232 -214 216 -249 189 -249C161 -249 140 -238 123 -215L120 -211L119 -216C119 -216 106 -245 81 -250C76 -251 71 -251 67 -251C26 -251 4 -209 -7 -175L8 -167C8 -167 25 -221 47 -221C49 -221 50 -221 52 -220C58 -218 60 -213 60 -205C60 -191 52 -167 41 -135C41 -134 4 -23 1 -13L0 -10C0 -7 1 -5 2 -3C4 -1 6 1 10 1H63C65 1 70 1 74 -15C84 -61 126 -215 163 -215C165 -215 168 -214 169 -212C171 -210 172 -206 172 -201C172 -184 162 -152 150 -111C135 -62 120 -15 120 -15C120 -14 120 -13 120 -11C120 -4 122 1 130 1H185C189 1 194 0 196 -11C196 -12 197 -15 197 -18C217 -158 249 -200 273 -210L274 -211C275 -211 275 -211 275 -211H276C277 -210 278 -210 278 -210C280 -209 283 -206 283 -201C283 -191 277 -151 256 -97C250 -81 247 -66 247 -52C247 -21 263 2 297 2C342 2 359 -34 373 -71V-74C374 -74 374 -75 374 -75L357 -83C357 -83 346 -56 339 -44ZM536 -12C534 -12 530 -12 528 -13C513 -19 509 -37 509 -56C509 -87 520 -123 521 -125C528 -156 566 -226 605 -226C607 -226 610 -226 612 -225C624 -222 626 -203 626 -193C626 -145 591 -35 547 -14C544 -12 539 -12 536 -12Z" />
</g>
</def>
<g transform="translate(180, 100) scale(0.02) ">
 <use href="#uniE52C" />
</g>

<g font-size="10" font-family="Verdana" >
<text x="180" y="150">uniE52C</text>
</g>

<def>
 <g id="uniE52D">
 <path d="M289 60C262 60 237 85 237 112C237 164 272 193 318 193C350 193 373 183 398 158C442 114 490 -35 514 -120C523 -152 532 -183 539 -206V-208H611C617 -208 621 -212 621 -218V-240C621 -246 617 -250 611 -250H552V-253C580 -355 588 -373 603 -385C611 -391 618 -393 623 -393C625 -393 627 -392 628 -392C634 -391 639 -385 639 -379C639 -374 637 -369 633 -367C623 -359 618 -346 618 -332C618 -327 619 -323 620 -318C623 -309 631 -300 641 -296C645 -294 652 -292 659 -292C680 -292 701 -308 706 -328C708 -333 708 -339 708 -345C708 -395 663 -421 618 -421C525 -421 484 -326 459 -252V-250H383C377 -250 373 -246 373 -240V-218C373 -212 377 -208 383 -208H445V-204C435 -164 427 -130 420 -97C412 -60 403 -22 391 24L388 36C367 118 361 147 337 163C332 166 326 168 320 168C315 168 310 166 306 163C302 160 301 157 301 152C302 148 304 144 309 142C328 134 334 116 334 100C334 86 325 60 289 60ZM339 -44C334 -35 329 -33 324 -33C322 -33 321 -33 319 -34C314 -36 312 -40 312 -45C312 -53 325 -100 329 -109C335 -127 342 -168 342 -195C342 -200 342 -205 341 -209C336 -236 324 -249 303 -249C277 -249 249 -230 236 -213L234 -209L232 -214C232 -214 216 -249 189 -249C161 -249 140 -238 123 -215L120 -211L119 -216C119 -216 106 -245 81 -250C76 -251 71 -251 67 -251C26 -251 4 -209 -7 -175L8 -167C8 -167 25 -221 47 -221C49 -221 50 -221 52 -220C58 -218 60 -213 60 -205C60 -191 52 -167 41 -135C41 -134 4 -23 1 -13L0 -10C0 -7 1 -5 2 -3C4 -1 6 1 10 1H63C65 1 70 1 74 -15C84 -61 126 -215 163 -215C165 -215 168 -214 169 -212C171 -210 172 -206 172 -201C172 -184 162 -152 150 -111C135 -62 120 -15 120 -15C120 -14 120 -13 120 -11C120 -4 122 1 130 1H185C189 1 194 0 196 -11C196 -12 197 -15 197 -18C217 -158 249 -200 273 -210L274 -211C275 -211 275 -211 275 -211H276C277 -210 278 -210 278 -210C280 -209 283 -206 283 -201C283 -191 277 -151 256 -97C250 -81 247 -66 247 -52C247 -21 263 2 297 2C342 2 359 -34 373 -71V-74C374 -74 374 -75 374 -75L357 -83C357 -83 346 -56 339 -44Z" />
</g>
</def>
<g transform="translate(270, 100) scale(0.02) ">
 <use href="#uniE52D" />
</g>

<g font-size="10" font-family="Verdana" >
<text x="270" y="150">uniE52D</text>
</g>

<def>
 <g id="uniE52E">
 <path d="M277 60C250 60 225 85 225 112C225 164 260 193 306 193C338 193 361 183 386 158C430 114 478 -35 502 -120C511 -152 520 -183 527 -206V-208H599C605 -208 609 -212 609 -218V-240C609 -246 605 -250 599 -250H540V-253C568 -355 576 -373 591 -385C599 -391 606 -393 611 -393C613 -393 615 -392 616 -392C622 -391 627 -385 627 -379C627 -374 625 -369 621 -367C611 -359 606 -346 606 -332C606 -327 607 -323 608 -318C611 -309 619 -300 629 -296C633 -294 640 -292 647 -292C668 -292 689 -308 694 -328C696 -333 696 -339 696 -345C696 -395 651 -421 606 -421C513 -421 472 -326 447 -252V-250H371C365 -250 361 -246 361 -240V-218C361 -212 365 -208 371 -208H433V-204C423 -164 415 -130 408 -97C400 -60 391 -22 379 24L376 36C355 118 349 147 325 163C320 166 314 168 308 168C303 168 298 166 294 163C290 160 289 157 289 152C290 148 292 144 297 142C316 134 322 116 322 100C322 86 313 60 277 60ZM129 163V143H54L112 -18L115 -11C115 -11 125 11 159 20C165 22 172 22 178 22C263 22 317 -95 317 -171C317 -212 293 -261 247 -261C216 -261 185 -235 168 -218L165 -215L163 -219C163 -219 142 -257 107 -262C106 -262 105 -262 104 -262L99 -263C42 -263 16 -203 0 -157L18 -148C22 -161 32 -193 44 -209C50 -218 62 -226 71 -228C72 -228 74 -228 75 -228C78 -228 81 -228 83 -226C87 -223 88 -218 88 -211C88 -187 70 -143 65 -133L-34 143H-95V163ZM157 -12C155 -12 151 -12 149 -13C134 -19 130 -37 130 -56C130 -87 141 -123 142 -125C149 -156 187 -226 226 -226C228 -226 231 -226 233 -225C245 -222 247 -203 247 -193C247 -145 212 -35 168 -14C165 -12 160 -12 157 -12Z" />
</g>
</def>
<g transform="translate(360, 100) scale(0.02) ">
 <use href="#uniE52E" />
</g>

<g font-size="10" font-family="Verdana" >
<text x="360" y="150">uniE52E</text>
</g>

<def>
 <g id="uniE52F">
 <path d="M181 -253C209 -356 217 -374 232 -386C240 -392 247 -394 252 -394C254 -394 256 -393 257 -393C262 -392 265 -389 267 -385C268 -383 268 -382 268 -380C268 -375 266 -370 262 -368C252 -360 247 -347 247 -334C247 -329 248 -324 249 -319C252 -310 260 -300 270 -296C274 -294 280 -293 286 -293C293 -293 302 -295 312 -300C322 -305 332 -318 335 -329C337 -335 338 -342 338 -348C338 -360 335 -372 328 -383C320 -398 295 -416 263 -421C258 -422 252 -422 245 -422C221 -422 190 -415 158 -385C132 -361 109 -318 87 -252L86 -250H10C4 -250 0 -246 0 -240V-218C0 -212 4 -208 10 -208H73L72 -204C62 -164 54 -129 47 -96C39 -59 30 -20 18 26L15 38C-6 120 -13 149 -37 165C-42 168 -48 170 -54 170C-59 170 -63 169 -67 166C-70 164 -74 160 -73 155C-72 151 -69 147 -64 145C-45 137 -39 118 -39 102C-39 88 -49 62 -85 62C-112 62 -137 88 -137 115C-137 168 -101 196 -55 196C-23 196 0 185 25 160C69 116 117 -34 142 -119C151 -151 160 -183 167 -206V-208H323L322 -204C312 -164 304 -129 297 -96C289 -59 280 -20 268 26L265 38C244 120 237 149 213 165C208 168 202 170 196 170C191 170 187 169 183 166C180 164 176 159 177 154C178 150 181 147 186 145C205 137 211 118 211 102C211 88 201 62 165 62C138 62 113 87 113 114C113 167 149 196 195 196C227 196 250 185 275 160C319 116 367 -34 392 -119C401 -151 410 -183 417 -206V-208H490C496 -208 500 -212 500 -218V-240C500 -246 496 -250 490 -250H430L431 -253C459 -356 467 -374 482 -386C490 -392 497 -394 502 -394C504 -394 506 -393 507 -393C512 -392 515 -389 517 -385C518 -383 518 -382 518 -380C518 -375 516 -370 512 -368C502 -360 497 -347 497 -334C497 -329 498 -324 499 -319C502 -310 510 -300 520 -296C524 -294 530 -293 536 -293C543 -293 552 -295 562 -300C572 -305 582 -318 585 -329C587 -335 588 -342 588 -348C588 -360 585 -372 578 -383C570 -398 545 -416 513 -421C508 -422 502 -422 495 -422C471 -422 440 -415 408 -385C382 -361 359 -318 337 -252L336 -250H180Z" />
</g>
</def>
<g transform="translate(450, 100) scale(0.02) ">
 <use href="#uniE52F" />
</g>

<g font-size="10" font-family="Verdana" >
<text x="450" y="150">uniE52F</text>
</g>

<def>
 <g id="uniE530">
 <path d="M837 -357C836 -365 832 -377 828 -384C820 -399 796 -417 764 -422C759 -423 752 -423 747 -423C739 -423 727 -422 719 -420C700 -415 679 -405 658 -385C632 -361 609 -318 587 -252L586 -250H430L431 -254C459 -357 467 -374 482 -386C490 -392 497 -394 502 -394C504 -394 506 -393 507 -393C512 -392 515 -389 517 -385C518 -383 518 -382 518 -380C518 -375 516 -370 512 -368C502 -360 497 -347 497 -334C497 -329 498 -324 499 -319C502 -310 510 -300 520 -296C524 -294 530 -293 536 -293C543 -293 552 -295 562 -300C572 -305 583 -318 586 -329C588 -334 588 -340 588 -346C588 -358 585 -371 578 -383C570 -398 545 -416 513 -421C508 -422 502 -422 495 -422C471 -422 440 -415 408 -385C382 -361 359 -318 337 -252L336 -250H180L181 -254C209 -357 217 -374 232 -386C240 -392 247 -394 252 -394C254 -394 256 -393 257 -393C262 -392 265 -389 267 -385C268 -383 268 -382 268 -380C268 -375 266 -370 262 -368C252 -360 247 -347 247 -334C247 -329 248 -324 249 -319C252 -310 260 -300 270 -296C274 -294 280 -293 286 -293C293 -293 302 -295 312 -300C322 -305 332 -318 335 -329C337 -335 338 -342 338 -348C338 -360 335 -372 328 -383C320 -398 295 -416 263 -421C258 -422 252 -422 245 -422C221 -422 190 -415 158 -385C132 -361 109 -318 87 -252L86 -250H10C4 -250 0 -246 0 -240V-218C0 -212 4 -208 10 -208H73L72 -204C62 -164 54 -129 47 -96C39 -59 30 -20 18 26L15 38C-6 120 -13 149 -37 165C-42 168 -48 170 -54 170C-59 170 -63 169 -67 166C-70 164 -74 159 -73 154C-72 150 -69 147 -64 145C-45 137 -39 118 -39 102C-39 88 -49 62 -85 62C-112 62 -137 88 -137 115C-137 168 -101 196 -55 196C-23 196 0 185 25 160C69 116 117 -34 142 -119C151 -151 160 -183 167 -206V-208H323L322 -204C312 -164 304 -129 297 -96C289 -59 280 -20 268 26L265 38C244 120 237 149 213 165C208 168 202 170 196 170C191 170 187 169 183 166C180 164 176 159 177 154C178 150 181 147 186 145C205 137 211 118 211 102C211 88 201 62 165 62C138 62 113 87 113 114C113 167 149 196 195 196C227 196 250 185 275 160C319 116 367 -34 392 -119C401 -151 410 -183 417 -206V-208H576L542 -74C534 -44 527 -12 518 25L515 37C502 88 495 119 485 139C479 151 472 159 463 165C461 167 457 168 454 169C451 170 450 170 446 170C432 170 427 161 427 154C427 147 435 145 436 145C455 137 461 118 461 102C461 88 451 62 415 62C388 62 363 87 363 114C363 160 390 188 427 194C432 195 440 195 445 195C477 195 500 185 525 160C569 116 617 -34 642 -119C651 -151 660 -183 667 -206V-207L668 -208H740C746 -208 750 -212 750 -218V-240C750 -246 746 -251 740 -251H680L681 -254C703 -334 713 -363 723 -377C725 -380 730 -385 732 -387C736 -390 741 -394 752 -394C766 -394 768 -385 768 -381C768 -375 767 -372 762 -368C752 -360 747 -348 747 -335C747 -330 747 -324 749 -319C750 -316 751 -313 753 -311C757 -306 764 -299 770 -297C773 -296 779 -294 783 -294C785 -294 787 -294 788 -294C795 -294 803 -295 812 -300C822 -305 833 -318 836 -329C837 -334 838 -341 838 -346C838 -349 837 -353 837 -356Z" />
</g>
</def>
<g transform="translate(540, 100) scale(0.02) ">
 <use href="#uniE530" />
</g>

<g font-size="10" font-family="Verdana" >
<text x="540" y="150">uniE530</text>
</g>

<def>
 <g id="uniE531">
 <path d="M1018 -381C1018 -375 1016 -370 1012 -368C1002 -360 997 -348 997 -335C997 -330 997 -324 999 -319C1000 -316 1001 -313 1003 -311C1007 -306 1014 -299 1020 -297C1023 -296 1029 -294 1033 -294C1035 -294 1037 -294 1038 -294C1045 -294 1053 -295 1062 -300C1072 -305 1083 -318 1086 -329C1087 -334 1088 -341 1088 -346C1088 -349 1087 -353 1087 -356V-357C1086 -365 1082 -377 1078 -384C1070 -399 1046 -417 1014 -422C1009 -423 1002 -423 997 -423C989 -423 977 -422 969 -420C950 -415 929 -405 908 -385C882 -361 858 -318 837 -252L836 -250H680L681 -253C709 -356 717 -374 732 -386C740 -392 747 -394 752 -394C754 -394 756 -393 757 -393C762 -392 765 -389 767 -385C768 -383 768 -382 768 -380C768 -375 766 -370 762 -368C752 -360 747 -347 747 -334C747 -329 748 -324 749 -319C752 -310 760 -300 770 -296C774 -294 780 -293 786 -293C793 -293 802 -295 812 -300C822 -305 833 -318 836 -329C838 -334 838 -340 838 -346C838 -358 835 -371 828 -383C820 -398 795 -416 763 -421C758 -422 752 -422 745 -422C721 -422 690 -415 658 -385C632 -361 609 -318 587 -252L586 -250H430L431 -253C459 -356 467 -374 482 -386C490 -392 497 -394 502 -394C504 -394 506 -393 507 -393C512 -392 515 -389 517 -385C518 -383 518 -382 518 -380C518 -375 516 -370 512 -368C502 -360 497 -347 497 -334C497 -329 498 -324 499 -319C502 -310 510 -300 520 -296C524 -294 530 -293 536 -293C543 -293 552 -295 562 -300C572 -305 582 -318 585 -329C587 -335 588 -342 588 -348C588 -360 585 -372 578 -383C570 -398 545 -416 513 -421C508 -422 502 -422 495 -422C471 -422 440 -415 408 -385C382 -361 359 -318 337 -252L336 -250H180L181 -253C209 -356 217 -374 232 -386C240 -392 247 -394 252 -394C254 -394 256 -393 257 -393C262 -392 265 -389 267 -385C268 -383 268 -382 268 -380C268 -375 266 -370 262 -368C252 -360 247 -347 247 -334C247 -329 248 -324 249 -319C252 -310 260 -300 270 -296C274 -294 280 -293 286 -293C293 -293 302 -295 312 -300C322 -305 332 -318 335 -329C337 -335 338 -342 338 -348C338 -360 335 -372 328 -383C320 -398 295 -416 263 -421C258 -422 252 -422 245 -422C221 -422 190 -415 158 -385C132 -361 109 -318 87 -252L86 -250H10C4 -250 0 -246 0 -240V-218C0 -212 4 -208 10 -208H73L72 -204C62 -164 54 -129 47 -96C39 -59 30 -20 18 26L15 38C-6 120 -13 149 -37 165C-42 168 -48 170 -54 170C-59 170 -63 169 -67 166C-70 164 -74 159 -73 154C-72 150 -69 147 -64 145C-45 137 -39 118 -39 102C-39 88 -49 62 -85 62C-112 62 -137 88 -137 115C-137 168 -101 196 -55 196C-23 196 0 185 25 160C69 116 117 -34 142 -119C151 -151 160 -183 167 -206V-208H323L322 -204C312 -164 304 -129 297 -96C289 -59 280 -20 268 26L265 38C244 120 237 149 213 165C208 168 202 170 196 170C191 170 187 169 183 166C180 164 176 159 177 154C178 150 181 147 186 145C205 137 211 118 211 102C211 88 201 62 165 62C138 62 113 88 113 115C113 168 149 196 195 196C227 196 250 185 275 160C319 116 367 -34 392 -119C401 -151 410 -183 417 -206V-208H573L572 -204C562 -164 554 -129 547 -96C539 -59 530 -20 518 26L515 38C494 120 487 149 463 165C458 168 452 170 446 170C441 170 437 169 433 166C430 164 426 159 427 154C428 150 431 147 436 145C455 137 461 118 461 102C461 88 451 62 415 62C388 62 363 88 363 115C363 168 399 196 445 196C477 196 500 185 525 160C569 116 617 -34 642 -119C651 -151 660 -183 667 -206V-208H823L822 -205C814 -173 807 -144 801 -116C800 -110 798 -103 797 -97C795 -90 794 -82 792 -74C785 -44 777 -12 768 25L765 37C752 88 745 119 735 139C729 151 722 159 713 165C711 167 707 168 704 169C701 170 700 170 696 170C682 170 677 161 677 154C677 147 685 145 686 145C705 137 711 118 711 102C711 88 701 62 665 62C638 62 613 87 613 114C613 160 640 188 677 194C682 195 690 195 695 195C727 195 750 185 775 160C819 116 867 -34 892 -119C901 -151 910 -183 917 -206V-207L918 -208H990C996 -208 1000 -212 1000 -218V-240C1000 -246 996 -251 990 -251H930L931 -254C953 -334 963 -363 973 -377C975 -380 980 -385 982 -387C986 -390 991 -394 1002 -394C1017 -394 1018 -382 1018 -381Z" />
</g>
</def>
<g transform="translate(630, 100) scale(0.02) ">
 <use href="#uniE531" />
</g>

<g font-size="10" font-family="Verdana" >
<text x="630" y="150">uniE531</text>
</g>

<def>
 <g id="uniE532">
 <path d="M946 174C932 174 927 165 927 158C927 151 935 149 936 149C955 141 961 122 961 106C961 92 951 66 915 66C888 66 863 91 863 118C863 164 890 192 927 198C932 199 940 199 945 199C977 199 1000 189 1025 164C1069 120 1117 -30 1142 -115C1151 -147 1160 -179 1167 -202V-203L1168 -204H1240C1246 -204 1250 -208 1250 -214V-236C1250 -242 1246 -247 1240 -247H1180L1181 -250C1203 -330 1213 -359 1223 -373C1225 -376 1229 -381 1232 -383C1235 -385 1239 -388 1242 -389C1244 -390 1248 -390 1251 -390C1253 -390 1255 -390 1257 -390C1258 -390 1258 -389 1259 -389C1262 -388 1266 -385 1267 -382C1268 -380 1268 -378 1268 -377C1268 -371 1266 -366 1262 -364C1252 -356 1247 -344 1247 -331C1247 -326 1247 -320 1249 -315C1250 -312 1251 -309 1253 -307C1257 -302 1264 -295 1270 -293C1273 -292 1279 -290 1283 -290C1285 -290 1287 -290 1288 -290C1295 -290 1303 -291 1312 -296C1322 -301 1333 -314 1336 -325C1337 -330 1338 -337 1338 -342C1338 -345 1337 -349 1337 -352V-353C1336 -361 1332 -373 1328 -380C1320 -395 1296 -413 1264 -418C1259 -419 1252 -419 1247 -419C1239 -419 1227 -418 1219 -416C1200 -411 1179 -401 1158 -381C1132 -357 1109 -314 1087 -248L1086 -247H930L931 -250C959 -353 967 -371 982 -383C990 -389 997 -391 1002 -391C1004 -391 1006 -390 1007 -390C1012 -389 1015 -386 1017 -382C1018 -380 1018 -378 1018 -377C1018 -371 1016 -366 1012 -364C1002 -356 997 -343 997 -330C997 -325 998 -320 999 -315C1002 -306 1010 -297 1020 -293C1024 -291 1030 -289 1037 -289C1044 -289 1052 -291 1062 -296C1072 -301 1083 -314 1086 -325C1088 -330 1088 -336 1088 -342C1088 -355 1085 -368 1078 -380C1070 -395 1045 -413 1013 -418C1008 -419 1002 -419 996 -419C972 -419 941 -411 908 -381C882 -357 859 -314 837 -248L836 -247H680L681 -250C709 -353 717 -371 732 -383C740 -389 747 -391 752 -391C754 -391 756 -390 757 -390C762 -389 765 -386 767 -382C768 -380 768 -378 768 -377C768 -371 766 -366 762 -364C752 -356 747 -343 747 -330C747 -325 748 -320 749 -315C752 -306 760 -297 770 -293C774 -291 780 -289 787 -289C794 -289 802 -291 812 -296C822 -301 832 -314 835 -325C837 -331 838 -337 838 -344C838 -356 835 -369 828 -380C820 -395 795 -413 763 -418C758 -419 752 -419 746 -419C722 -419 691 -411 658 -381C632 -357 609 -314 587 -248L586 -247H430L431 -250C459 -353 467 -371 482 -383C490 -389 497 -391 502 -391C504 -391 506 -390 507 -390C512 -389 515 -386 517 -382C518 -380 518 -378 518 -377C518 -371 516 -366 512 -364C502 -356 497 -343 497 -330C497 -325 498 -320 499 -315C502 -306 510 -297 520 -293C524 -291 530 -289 537 -289C544 -289 552 -291 562 -296C572 -301 582 -314 585 -325C587 -331 588 -337 588 -344C588 -356 585 -369 578 -380C570 -395 545 -413 513 -418C508 -419 502 -419 496 -419C472 -419 441 -411 408 -381C382 -357 359 -314 337 -248L336 -247H180L181 -250C209 -353 217 -371 232 -383C240 -389 247 -391 252 -391C254 -391 256 -390 257 -390C262 -389 265 -386 267 -382C268 -380 268 -378 268 -377C268 -371 266 -366 262 -364C252 -356 247 -343 247 -330C247 -325 248 -320 249 -315C252 -306 260 -297 270 -293C274 -291 280 -289 287 -289C294 -289 302 -291 312 -296C322 -301 332 -314 335 -325C337 -331 338 -337 338 -344C338 -356 335 -369 328 -380C320 -395 295 -413 263 -418C258 -419 252 -419 246 -419C222 -419 191 -411 158 -381C132 -358 109 -314 87 -248L86 -247H10C4 -247 0 -242 0 -236V-214C0 -208 4 -204 10 -204H73L72 -201C62 -161 54 -126 47 -93C39 -56 30 -17 18 29L15 41C-6 123 -13 153 -37 169C-42 172 -47 174 -53 174C-58 174 -63 172 -67 169C-70 167 -74 163 -73 158C-72 154 -69 150 -64 148C-45 140 -39 122 -39 106C-39 92 -49 66 -85 66C-112 66 -137 91 -137 118C-137 171 -101 199 -55 199C-23 199 0 189 25 164C69 120 117 -30 142 -115C151 -147 160 -179 167 -202V-204H323L322 -201C312 -161 304 -126 297 -93C289 -56 280 -17 268 29L265 41C244 123 237 153 213 169C208 172 203 174 197 174C192 174 187 172 183 169C180 167 176 163 177 158C178 154 181 150 186 148C205 140 211 122 211 106C211 92 201 66 165 66C138 66 113 91 113 118C113 171 149 199 195 199C227 199 250 189 275 164C319 120 367 -30 392 -115C401 -147 410 -179 417 -202V-204H573L572 -201C562 -161 554 -126 547 -93C539 -56 530 -17 518 29L515 41C494 123 487 153 463 169C458 172 453 174 447 174C442 174 437 172 433 169C430 167 426 163 427 158C428 154 431 150 436 148C455 140 461 122 461 106C461 92 451 66 415 66C388 66 363 91 363 118C363 171 399 199 445 199C477 199 500 189 525 164C569 120 617 -30 642 -115C651 -147 660 -179 667 -202V-204H823L822 -201C812 -161 804 -126 797 -93C789 -56 780 -17 768 29L765 41C744 123 737 153 713 169C708 172 703 174 697 174C692 174 687 172 683 169C680 167 676 163 677 158C678 154 681 150 686 148C705 140 711 122 711 106C711 92 701 65 665 65C638 65 613 91 613 118C613 171 649 199 695 199C727 199 750 189 775 164C819 120 867 -30 892 -115C901 -147 910 -179 917 -202V-204H1073L1072 -201C1064 -169 1057 -140 1051 -112C1050 -106 1048 -99 1047 -93C1045 -86 1044 -78 1042 -70C1035 -40 1027 -8 1018 29L1015 41C1002 92 995 123 985 143C979 155 972 163 963 169C961 171 957 172 954 173C951 174 950 174 946 174Z" />
</g>
</def>
<g transform="translate(720, 100) scale(0.02) ">
 <use href="#uniE532" />
</g>

<g font-size="10" font-family="Verdana" >
<text x="720" y="150">uniE532</text>
</g>

<def>
 <g id="uniE533">
 <path d="M1182 166C1179 163 1177 159 1177 155C1177 148 1185 145 1186 145C1205 137 1211 118 1211 102C1211 88 1201 62 1165 62C1138 62 1113 88 1113 115C1113 161 1140 188 1177 194C1182 195 1190 196 1195 196C1227 196 1250 185 1275 160C1319 116 1367 -34 1392 -119C1401 -151 1410 -183 1417 -206V-207L1418 -208H1490C1496 -208 1500 -212 1500 -218V-240C1500 -246 1496 -250 1490 -250H1430L1431 -253C1453 -333 1463 -362 1473 -376C1475 -379 1479 -384 1482 -386C1485 -388 1489 -391 1492 -392C1494 -393 1498 -394 1501 -394C1503 -394 1505 -393 1507 -393C1508 -393 1508 -392 1509 -392C1512 -391 1516 -388 1517 -385C1518 -383 1518 -382 1518 -380C1518 -375 1516 -370 1512 -368C1502 -360 1497 -348 1497 -335C1497 -330 1497 -324 1499 -319C1500 -316 1501 -312 1503 -310C1507 -305 1514 -298 1520 -296C1523 -295 1529 -293 1533 -293C1534 -293 1536 -293 1537 -293C1544 -293 1553 -295 1562 -300C1572 -305 1583 -318 1586 -329C1587 -334 1588 -340 1588 -345C1588 -348 1587 -353 1587 -356C1586 -364 1582 -376 1578 -383C1570 -398 1546 -416 1514 -421C1509 -422 1502 -423 1497 -423C1489 -423 1476 -421 1468 -419C1449 -414 1429 -405 1408 -385C1382 -361 1359 -318 1337 -252V-251L1336 -250H1180L1181 -253C1209 -356 1217 -374 1232 -386C1240 -392 1247 -394 1252 -394C1254 -394 1256 -393 1257 -393C1262 -392 1265 -389 1267 -385C1268 -383 1268 -382 1268 -380C1268 -375 1266 -370 1262 -368C1252 -360 1247 -347 1247 -334C1247 -329 1248 -324 1249 -319C1252 -310 1260 -300 1270 -296C1274 -294 1280 -293 1286 -293C1293 -293 1302 -295 1312 -300C1322 -305 1333 -318 1336 -329C1338 -334 1338 -340 1338 -346C1338 -358 1335 -371 1328 -383C1320 -398 1296 -416 1264 -421C1259 -422 1253 -422 1246 -422C1222 -422 1190 -415 1158 -385C1132 -361 1109 -318 1087 -252L1086 -250H930L931 -253C959 -356 967 -374 982 -386C990 -392 997 -394 1002 -394C1004 -394 1006 -393 1007 -393C1012 -392 1015 -389 1017 -385C1018 -383 1018 -382 1018 -380C1018 -375 1016 -370 1012 -368C1002 -360 997 -347 997 -334C997 -329 998 -324 999 -319C1002 -310 1010 -300 1020 -296C1024 -294 1030 -293 1036 -293C1043 -293 1052 -295 1062 -300C1072 -305 1082 -318 1085 -329C1087 -335 1088 -342 1088 -348C1088 -360 1085 -372 1078 -383C1070 -398 1045 -416 1013 -421C1008 -422 1002 -422 995 -422C971 -422 940 -415 908 -385C882 -361 859 -318 837 -252L836 -250H680L681 -253C709 -356 717 -374 732 -386C740 -392 747 -394 752 -394C754 -394 756 -393 757 -393C762 -392 765 -389 767 -385C768 -383 768 -382 768 -380C768 -375 766 -370 762 -368C752 -360 747 -347 747 -334C747 -329 748 -324 749 -319C752 -310 760 -300 770 -296C774 -294 780 -293 786 -293C793 -293 802 -295 812 -300C822 -305 833 -318 836 -329C838 -334 838 -340 838 -346C838 -358 835 -371 828 -383C820 -398 795 -416 763 -421C758 -422 752 -422 745 -422C721 -422 690 -415 658 -385C632 -361 609 -318 587 -252L586 -250H430L431 -253C459 -356 467 -374 482 -386C490 -392 497 -394 502 -394C504 -394 506 -393 507 -393C512 -392 515 -389 517 -385C518 -383 518 -382 518 -380C518 -375 516 -370 512 -368C502 -360 497 -347 497 -334C497 -329 498 -324 499 -319C502 -310 510 -300 520 -296C524 -294 530 -293 536 -293C543 -293 552 -295 562 -300C572 -305 582 -318 585 -329C587 -335 588 -342 588 -348C588 -360 585 -372 578 -383C570 -398 545 -416 513 -421C508 -422 502 -422 495 -422C471 -422 440 -415 408 -385C382 -361 359 -318 337 -252L336 -250H180L181 -253C209 -356 217 -374 232 -386C240 -392 247 -394 252 -394C254 -394 256 -393 257 -393C262 -392 265 -389 267 -385C268 -383 268 -382 268 -380C268 -375 266 -370 262 -368C252 -360 247 -347 247 -334C247 -329 248 -324 249 -319C252 -310 260 -300 270 -296C274 -294 280 -293 286 -293C293 -293 302 -295 312 -300C322 -305 332 -318 335 -329C337 -335 338 -342 338 -348C338 -360 335 -372 328 -383C320 -398 295 -416 263 -421C258 -422 252 -422 245 -422C221 -422 190 -415 158 -385C132 -361 109 -318 87 -252L86 -250H10C4 -250 0 -246 0 -240V-218C0 -212 4 -208 10 -208H73L72 -204C62 -164 54 -129 47 -96C39 -59 30 -20 18 26L15 38C-6 120 -13 149 -37 165C-42 168 -48 170 -54 170C-59 170 -63 169 -67 166C-70 164 -74 159 -73 154C-72 150 -69 147 -64 145C-45 137 -39 118 -39 102C-39 88 -49 62 -85 62C-112 62 -137 88 -137 115C-137 168 -101 196 -55 196C-23 196 0 185 25 160C69 116 117 -34 142 -119C151 -151 160 -183 167 -206V-208H323L322 -204C312 -164 304 -129 297 -96C289 -59 280 -20 268 26L265 38C244 120 237 149 213 165C208 168 202 170 196 170C191 170 187 169 183 166C180 164 176 159 177 154C178 150 181 147 186 145C205 137 211 118 211 102C211 88 201 62 165 62C138 62 113 87 113 114C113 167 149 196 195 196C227 196 250 185 275 160C319 116 367 -34 392 -119C401 -151 410 -183 417 -206V-208H573L572 -204C562 -164 554 -129 547 -96C539 -59 530 -20 518 26L515 38C494 120 487 149 463 165C458 168 452 170 446 170C441 170 437 169 433 166C430 164 426 159 427 154C428 150 431 147 436 145C455 137 461 118 461 102C461 88 451 62 415 62C388 62 363 88 363 115C363 168 399 196 445 196C477 196 500 185 525 160C569 116 617 -34 642 -119C651 -151 660 -183 667 -206V-208H823L822 -204C812 -164 804 -129 797 -96C789 -59 780 -20 768 26L765 38C744 120 737 149 713 165C708 168 702 170 696 170C691 170 687 169 683 166C680 164 676 159 677 154C678 150 681 147 686 145C705 137 711 118 711 102C711 88 701 62 665 62C638 62 613 87 613 114C613 167 649 196 695 196C727 196 750 185 775 160C819 116 867 -34 892 -119C901 -151 910 -183 917 -206V-208H1073L1072 -204C1062 -164 1054 -129 1047 -96C1039 -59 1030 -20 1018 26L1015 38C994 120 987 149 963 165C958 168 952 170 946 170C941 170 937 169 933 166C930 164 926 160 927 155C928 151 931 147 936 145C955 137 961 118 961 102C961 88 951 62 915 62C888 62 863 88 863 115C863 168 899 196 945 196C977 196 1000 185 1025 160C1069 116 1117 -34 1142 -119C1151 -151 1160 -183 1167 -206V-208H1323L1322 -204C1314 -172 1307 -143 1301 -115C1300 -109 1298 -102 1297 -96C1295 -89 1294 -82 1292 -74C1285 -44 1277 -11 1268 26L1265 38C1252 89 1245 119 1235 139C1229 151 1222 159 1213 165C1211 167 1207 168 1204 169C1201 170 1198 170 1195 170C1190 170 1185 169 1182 166Z" />
</g>
</def>
<g transform="translate(810, 100) scale(0.02) ">
 <use href="#uniE533" />
</g>

<g font-size="10" font-family="Verdana" >
<text x="810" y="150">uniE533</text>
</g>

<def>
 <g id="uniE534">
 <path d="M-84 60C-111 60 -136 85 -136 112C-136 164 -101 193 -55 193C-23 193 0 183 25 158C69 114 117 -35 141 -120C150 -152 159 -183 166 -206V-208H238C244 -208 248 -212 248 -218V-240C248 -246 244 -250 238 -250H179V-253C207 -355 215 -373 230 -385C238 -391 245 -393 250 -393C252 -393 254 -392 255 -392C261 -391 266 -385 266 -379C266 -374 264 -369 260 -367C250 -359 245 -346 245 -332C245 -327 246 -323 247 -318C250 -309 258 -300 268 -296C272 -294 279 -292 286 -292C307 -292 328 -308 333 -328C335 -333 335 -339 335 -345C335 -395 290 -421 245 -421C152 -421 111 -326 86 -252V-250H10C4 -250 0 -246 0 -240V-218C0 -212 4 -208 10 -208H72V-204C62 -164 54 -130 47 -97C39 -60 30 -22 18 24L15 36C-6 118 -12 147 -36 163C-41 166 -47 168 -53 168C-58 168 -63 166 -67 163C-71 160 -72 157 -72 152C-71 148 -69 144 -64 142C-45 134 -39 116 -39 100C-39 86 -48 60 -84 60ZM393 163V143H318L376 -18L379 -11C379 -11 389 11 423 20C429 22 436 22 442 22C527 22 581 -95 581 -171C581 -212 557 -261 511 -261C480 -261 449 -235 432 -218L429 -215L427 -219C427 -219 406 -257 371 -262C370 -262 369 -262 368 -262L363 -263C306 -263 280 -203 264 -157L282 -148C286 -161 296 -193 308 -209C314 -218 326 -226 335 -228C336 -228 338 -228 339 -228C342 -228 345 -228 347 -226C351 -223 352 -218 352 -211C352 -187 334 -143 329 -133L230 143H169V163ZM421 -12C419 -12 415 -12 413 -13C398 -19 394 -37 394 -56C394 -87 405 -123 406 -125C413 -156 451 -226 490 -226C492 -226 495 -226 497 -225C509 -222 511 -203 511 -193C511 -145 476 -35 432 -14C429 -12 424 -12 421 -12Z" />
</g>
</def>
<g transform="translate(900, 100) scale(0.02) ">
 <use href="#uniE534" />
</g>

<g font-size="10" font-family="Verdana" >
<text x="900" y="150">uniE534</text>
</g>

<def>
 <g id="uniE535">
 <path d="M-85 60C-112 60 -137 85 -137 112C-137 164 -102 193 -56 193C-24 193 -1 183 24 158C68 114 116 -35 140 -120C149 -152 158 -183 165 -206V-208H237C243 -208 247 -212 247 -218V-240C247 -246 243 -250 237 -250H178V-253C206 -355 214 -373 229 -385C237 -391 244 -393 249 -393C251 -393 253 -392 254 -392C260 -391 265 -385 265 -379C265 -374 263 -369 259 -367C249 -359 244 -346 244 -332C244 -327 245 -323 246 -318C249 -309 257 -300 267 -296C271 -294 278 -292 285 -292C306 -292 327 -308 332 -328C334 -333 334 -339 334 -345C334 -395 289 -421 244 -421C151 -421 110 -326 85 -252V-250H9C3 -250 -1 -246 -1 -240V-218C-1 -212 3 -208 9 -208H71V-204C61 -164 53 -130 46 -97C38 -60 29 -22 17 24L14 36C-7 118 -13 147 -37 163C-42 166 -48 168 -54 168C-59 168 -64 166 -68 163C-72 160 -73 157 -73 152C-72 148 -70 144 -65 142C-46 134 -40 116 -40 100C-40 86 -49 60 -85 60ZM383 -203C386 -203 388 -200 388 -197C388 -195 387 -194 386 -193C385 -192 221 -59 195 -38C185 -30 182 -23 182 -17C182 -8 189 -3 189 -3C193 -1 196 0 200 0C214 0 225 -13 230 -20C236 -30 242 -48 259 -48C276 -48 280 -35 286 -24C296 -7 319 1 342 1C397 1 435 -49 435 -102C435 -122 428 -136 407 -136C390 -136 381 -121 381 -108C381 -89 397 -85 398 -81C398 -79 398 -77 398 -75C398 -61 388 -39 371 -39C369 -39 366 -39 364 -41C359 -44 353 -52 337 -64C321 -76 303 -83 299 -85C297 -86 297 -86 297 -87C297 -88 298 -89 298 -89C298 -89 434 -204 441 -211C449 -219 457 -227 461 -236C462 -237 463 -240 463 -241V-247C462 -255 457 -256 455 -256H454L406 -252C394 -251 384 -251 375 -251C358 -251 345 -252 332 -254C320 -256 310 -257 298 -257C292 -255 286 -250 284 -239C274 -184 253 -161 250 -154C250 -148 253 -144 259 -144H270C276 -144 277 -149 280 -156C283 -163 297 -198 299 -202C301 -206 302 -206 306 -206C311 -205 324 -202 340 -201C343 -201 347 -201 350 -201C364 -201 378 -202 383 -203Z" />
</g>
</def>
<g transform="translate(90, 200) scale(0.02) ">
 <use href="#uniE535" />
</g>

<g font-size="10" font-family="Verdana" >
<text x="90" y="250">uniE535</text>
</g>

<def>
 <g id="uniE536">
 <path d="M148 60C121 60 96 85 96 112C96 164 131 193 177 193C209 193 232 183 257 158C301 114 349 -35 373 -120C382 -152 391 -183 398 -206V-208H470C476 -208 480 -212 480 -218V-240C480 -246 476 -250 470 -250H411V-253C439 -355 447 -373 462 -385C470 -391 477 -393 482 -393C484 -393 486 -392 487 -392C493 -391 498 -385 498 -379C498 -374 496 -369 492 -367C482 -359 477 -346 477 -332C477 -327 478 -323 479 -318C482 -309 490 -300 500 -296C504 -294 511 -292 518 -292C539 -292 560 -308 565 -328C567 -333 567 -339 567 -345C567 -395 522 -421 477 -421C384 -421 343 -326 318 -252V-250H242C236 -250 232 -246 232 -240V-218C232 -212 236 -208 242 -208H304V-204C294 -164 286 -130 279 -97C271 -60 262 -22 250 24L247 36C226 118 220 147 196 163C191 166 185 168 179 168C174 168 169 166 165 163C161 160 160 157 160 152C161 148 163 144 168 142C187 134 193 116 193 100C193 86 184 60 148 60ZM168 -228C154 -220 151 -208 151 -201C151 -190 160 -173 179 -173C198 -173 205 -187 207 -197C208 -199 208 -202 208 -205C208 -228 189 -263 131 -263C64 -263 34 -219 34 -180C34 -159 41 -136 69 -120C81 -113 97 -105 114 -95C131 -85 135 -71 135 -61C135 -51 123 -17 86 -17C57 -17 50 -27 50 -32C50 -33 50 -34 51 -34C54 -36 67 -43 67 -67C67 -93 50 -104 35 -104C20 -104 0 -93 0 -63C0 -18 34 5 86 5C138 5 196 -17 196 -77C196 -137 144 -152 119 -166C94 -180 89 -186 89 -203C89 -220 108 -241 134 -241C160 -241 168 -228 168 -228Z" />
</g>
</def>
<g transform="translate(180, 200) scale(0.02) ">
 <use href="#uniE536" />
</g>

<g font-size="10" font-family="Verdana" >
<text x="180" y="250">uniE536</text>
</g>

<def>
 <g id="uniE537">
 <path d="M148 60C121 60 96 85 96 112C96 164 131 193 177 193C209 193 232 183 257 158C301 114 349 -35 373 -120C382 -152 391 -183 398 -206V-208H470C476 -208 480 -212 480 -218V-240C480 -246 476 -250 470 -250H411V-253C439 -355 447 -373 462 -385C470 -391 477 -393 482 -393C484 -393 486 -392 487 -392C493 -391 498 -385 498 -379C498 -374 496 -369 492 -367C482 -359 477 -346 477 -332C477 -327 478 -323 479 -318C482 -309 490 -300 500 -296C504 -294 511 -292 518 -292C539 -292 560 -308 565 -328C567 -333 567 -339 567 -345C567 -395 522 -421 477 -421C384 -421 343 -326 318 -252V-250H242C236 -250 232 -246 232 -240V-218C232 -212 236 -208 242 -208H304V-204C294 -164 286 -130 279 -97C271 -60 262 -22 250 24L247 36C226 118 220 147 196 163C191 166 185 168 179 168C174 168 169 166 165 163C161 160 160 157 160 152C161 148 163 144 168 142C187 134 193 116 193 100C193 86 184 60 148 60ZM619 159V138H543L602 -22L604 -16C604 -16 614 7 648 16C654 18 661 18 667 18C752 18 807 -99 807 -175C807 -216 783 -265 737 -265C706 -265 675 -239 658 -222L655 -219L653 -223C653 -223 632 -261 597 -266C596 -266 595 -266 594 -266L589 -267C532 -267 506 -207 490 -161L508 -152C512 -165 522 -197 534 -213C540 -222 552 -230 561 -232C562 -232 564 -232 565 -232C568 -232 570 -232 572 -230C576 -227 577 -221 577 -214C577 -189 560 -147 555 -137L456 138H394V159ZM168 -228C154 -220 151 -208 151 -201C151 -190 160 -173 179 -173C198 -173 205 -187 207 -197C208 -199 208 -202 208 -205C208 -228 189 -263 131 -263C64 -263 34 -219 34 -180C34 -159 41 -136 69 -120C81 -113 97 -105 114 -95C131 -85 135 -71 135 -61C135 -51 123 -17 86 -17C57 -17 50 -27 50 -32C50 -33 50 -34 51 -34C54 -36 67 -43 67 -67C67 -93 50 -104 35 -104C20 -104 0 -93 0 -63C0 -18 34 5 86 5C138 5 196 -17 196 -77C196 -137 144 -152 119 -166C94 -180 89 -186 89 -203C89 -220 108 -241 134 -241C160 -241 168 -228 168 -228ZM646 -16C644 -16 641 -16 639 -17C624 -23 620 -41 620 -60C620 -91 631 -127 632 -129C639 -160 677 -230 716 -230C718 -230 721 -230 723 -229C727 -228 731 -224 733 -220C736 -215 737 -207 737 -198C737 -151 700 -38 658 -18C655 -16 649 -16 646 -16Z" />
</g>
</def>
<g transform="translate(270, 200) scale(0.02) ">
 <use href="#uniE537" />
</g>

<g font-size="10" font-family="Verdana" >
<text x="270" y="250">uniE537</text>
</g>

<def>
 <g id="uniE538">
 <path d="M148 60C121 60 96 85 96 112C96 164 131 193 177 193C209 193 232 183 257 158C301 114 349 -35 373 -120C382 -152 391 -183 398 -206V-208H470C476 -208 480 -212 480 -218V-240C480 -246 476 -250 470 -250H411V-253C439 -355 447 -373 462 -385C470 -391 477 -393 482 -393C484 -393 486 -392 487 -392C493 -391 498 -385 498 -379C498 -374 496 -369 492 -367C482 -359 477 -346 477 -332C477 -327 478 -323 479 -318C482 -309 490 -300 500 -296C504 -294 511 -292 518 -292C539 -292 560 -308 565 -328C567 -333 567 -339 567 -345C567 -395 522 -421 477 -421C384 -421 343 -326 318 -252V-250H242C236 -250 232 -246 232 -240V-218C232 -212 236 -208 242 -208H304V-204C294 -164 286 -130 279 -97C271 -60 262 -22 250 24L247 36C226 118 220 147 196 163C191 166 185 168 179 168C174 168 169 166 165 163C161 160 160 157 160 152C161 148 163 144 168 142C187 134 193 116 193 100C193 86 184 60 148 60ZM1061 -261C1030 -261 999 -235 982 -218L979 -215L977 -219C977 -219 956 -257 921 -262C916 -263 911 -263 906 -263C872 -263 828 -250 805 -196C799 -229 773 -261 737 -261C706 -261 675 -235 658 -218L655 -215L653 -219C653 -219 632 -257 597 -262C596 -262 595 -262 594 -262L589 -263C532 -263 506 -203 490 -157L508 -148C512 -161 523 -193 535 -209C541 -218 552 -226 561 -228C562 -228 564 -228 565 -228C568 -228 571 -228 573 -226C577 -223 578 -218 578 -211C578 -187 560 -143 555 -133L456 143H395V163H619V143H544L602 -18L605 -11C605 -11 615 11 649 20C655 22 662 22 668 22C723 22 778 -34 799 -114C814 -164 827 -187 837 -204C845 -217 864 -230 880 -230C894 -230 902 -222 902 -208C902 -191 891 -165 879 -133L780 143H718V163H943V143H868L926 -18L929 -11C929 -11 938 11 972 20C978 22 985 22 991 22C1076 22 1131 -95 1131 -171C1131 -212 1107 -261 1061 -261ZM168 -228C154 -220 151 -208 151 -201C151 -190 160 -173 179 -173C198 -173 205 -187 207 -197C208 -199 208 -202 208 -205C208 -228 189 -263 131 -263C64 -263 34 -219 34 -180C34 -159 41 -136 69 -120C81 -113 97 -105 114 -95C131 -85 135 -71 135 -61C135 -51 123 -17 86 -17C57 -17 50 -27 50 -32C50 -33 50 -34 51 -34C54 -36 67 -43 67 -67C67 -93 50 -104 35 -104C20 -104 0 -93 0 -63C0 -18 34 5 86 5C138 5 196 -17 196 -77C196 -137 144 -152 119 -166C94 -180 89 -186 89 -203C89 -220 108 -241 134 -241C160 -241 168 -228 168 -228ZM658 -14C655 -12 650 -12 647 -12C645 -12 641 -12 639 -13C624 -19 620 -37 620 -56C620 -87 631 -123 632 -125C639 -156 677 -226 716 -226C718 -226 721 -226 723 -225C735 -222 737 -203 737 -193C737 -145 702 -35 658 -14ZM982 -14C979 -12 974 -12 971 -12C969 -12 965 -12 963 -13C948 -19 944 -37 944 -56C944 -87 955 -123 956 -125C963 -156 1001 -226 1040 -226C1042 -226 1045 -226 1047 -225C1059 -222 1061 -203 1061 -193C1061 -145 1026 -35 982 -14Z" />
</g>
</def>
<g transform="translate(360, 200) scale(0.02) ">
 <use href="#uniE538" />
</g>

<g font-size="10" font-family="Verdana" >
<text x="360" y="250">uniE538</text>
</g>

<def>
 <g id="uniE539">
 <path d="M148 60C121 60 96 85 96 112C96 164 131 193 177 193C209 193 232 183 257 158C301 114 349 -35 373 -120C382 -152 391 -183 398 -206V-208H470C476 -208 480 -212 480 -218V-240C480 -246 476 -250 470 -250H411V-253C439 -355 447 -373 462 -385C470 -391 477 -393 482 -393C484 -393 486 -392 487 -392C493 -391 498 -385 498 -379C498 -374 496 -369 492 -367C482 -359 477 -346 477 -332C477 -327 478 -323 479 -318C482 -309 490 -300 500 -296C504 -294 511 -292 518 -292C539 -292 560 -308 565 -328C567 -333 567 -339 567 -345C567 -395 522 -421 477 -421C384 -421 343 -326 318 -252V-250H242C236 -250 232 -246 232 -240V-218C232 -212 236 -208 242 -208H304V-204C294 -164 286 -130 279 -97C271 -60 262 -22 250 24L247 36C226 118 220 147 196 163C191 166 185 168 179 168C174 168 169 166 165 163C161 160 160 157 160 152C161 148 163 144 168 142C187 134 193 116 193 100C193 86 184 60 148 60ZM168 -228C154 -220 151 -208 151 -201C151 -190 160 -173 179 -173C198 -173 205 -187 207 -197C208 -199 208 -202 208 -205C208 -228 189 -263 131 -263C64 -263 34 -219 34 -180C34 -159 41 -136 69 -120C81 -113 97 -105 114 -95C131 -85 135 -71 135 -61C135 -51 123 -17 86 -17C57 -17 50 -27 50 -32C50 -33 50 -34 51 -34C54 -36 67 -43 67 -67C67 -93 50 -104 35 -104C20 -104 0 -93 0 -63C0 -18 34 5 86 5C138 5 196 -17 196 -77C196 -137 144 -152 119 -166C94 -180 89 -186 89 -203C89 -220 108 -241 134 -241C160 -241 168 -228 168 -228ZM618 -203C621 -203 623 -200 623 -197C623 -195 622 -194 621 -193C620 -192 456 -59 430 -38C420 -30 417 -23 417 -17C417 -8 424 -3 424 -3C428 -1 431 0 435 0C449 0 460 -13 465 -20C471 -30 477 -48 494 -48C511 -48 515 -35 521 -24C531 -7 554 1 577 1C632 1 670 -49 670 -102C670 -122 663 -136 642 -136C625 -136 616 -121 616 -108C616 -89 632 -85 633 -81C633 -79 633 -77 633 -75C633 -61 623 -39 606 -39C604 -39 601 -39 599 -41C594 -44 588 -52 572 -64C556 -76 538 -83 534 -85C532 -86 532 -86 532 -87C532 -88 533 -89 533 -89C533 -89 669 -204 676 -211C684 -219 692 -227 696 -236C697 -237 698 -240 698 -241V-247C697 -255 692 -256 690 -256H689L641 -252C629 -251 619 -251 610 -251C593 -251 580 -252 567 -254C555 -256 545 -257 533 -257C527 -255 521 -250 519 -239C509 -184 488 -161 485 -154C485 -148 488 -144 494 -144H505C511 -144 512 -149 515 -156C518 -163 532 -198 534 -202C536 -206 537 -206 541 -206C546 -205 559 -202 575 -201C578 -201 582 -201 585 -201C599 -201 613 -202 618 -203Z" />
</g>
</def>
<g transform="translate(450, 200) scale(0.02) ">
 <use href="#uniE539" />
</g>

<g font-size="10" font-family="Verdana" >
<text x="450" y="250">uniE539</text>
</g>

<def>
 <g id="uniE53A">
 <path d="M148 65C121 65 96 90 96 117C96 169 131 198 177 198C209 198 232 188 257 163C301 119 349 -30 373 -115C382 -147 391 -178 398 -201V-203H470C476 -203 480 -207 480 -213V-235C480 -241 476 -245 470 -245H411V-248C439 -350 447 -368 462 -380C470 -386 477 -388 482 -388C484 -388 486 -387 487 -387C493 -386 498 -380 498 -374C498 -369 496 -364 492 -362C482 -354 477 -341 477 -327C477 -322 478 -318 479 -313C482 -304 490 -295 500 -291C504 -289 511 -287 518 -287C539 -287 560 -303 565 -323C567 -328 567 -334 567 -340C567 -390 522 -416 477 -416C384 -416 343 -321 318 -247V-245H242C236 -245 232 -241 232 -235V-213C232 -207 236 -203 242 -203H304V-199C294 -159 286 -125 279 -92C271 -55 262 -17 250 29L247 41C226 123 220 152 196 168C191 171 185 173 179 173C174 173 169 171 165 168C161 165 160 162 160 157C161 153 163 149 168 147C187 139 193 121 193 105C193 91 184 65 148 65ZM824 163V143H749L807 -18L810 -11C810 -11 820 11 854 20C860 22 867 22 873 22C958 22 1012 -95 1012 -171C1012 -212 988 -261 942 -261C911 -261 880 -235 863 -218L860 -215L858 -219C858 -219 837 -257 802 -262C801 -262 800 -262 799 -262L794 -263C737 -263 711 -203 695 -157L713 -148C717 -161 727 -193 739 -209C745 -218 757 -226 766 -228C767 -228 769 -228 770 -228C773 -228 776 -228 778 -226C782 -223 783 -218 783 -211C783 -187 765 -143 760 -133L661 143H600V163ZM168 -223C154 -215 151 -203 151 -196C151 -185 160 -168 179 -168C198 -168 205 -182 207 -192C208 -194 208 -197 208 -200C208 -223 189 -258 131 -258C64 -258 34 -214 34 -175C34 -154 41 -131 69 -115C81 -108 97 -100 114 -90C131 -80 135 -66 135 -56C135 -46 123 -12 86 -12C57 -12 50 -22 50 -27C50 -28 50 -29 51 -29C54 -31 67 -38 67 -62C67 -88 50 -99 35 -99C20 -99 0 -88 0 -58C0 -13 34 10 86 10C138 10 196 -12 196 -72C196 -132 144 -147 119 -161C94 -175 89 -181 89 -198C89 -215 108 -236 134 -236C160 -236 168 -223 168 -223ZM618 -198C621 -198 623 -195 623 -192C623 -190 622 -189 621 -188C620 -187 456 -54 430 -33C420 -25 417 -18 417 -12C417 -3 424 2 424 2C428 4 431 5 435 5C449 5 460 -8 465 -15C471 -25 477 -43 494 -43C511 -43 515 -30 521 -19C531 -2 554 6 577 6C632 6 670 -44 670 -97C670 -117 663 -131 642 -131C625 -131 616 -116 616 -103C616 -84 632 -80 633 -76C633 -74 633 -72 633 -70C633 -56 623 -34 606 -34C604 -34 601 -34 599 -36C594 -39 588 -47 572 -59C556 -71 538 -78 534 -80C532 -81 532 -81 532 -82C532 -83 533 -84 533 -84C533 -84 669 -199 676 -206C684 -214 692 -222 696 -231C697 -232 698 -235 698 -236V-242C697 -250 692 -251 690 -251H689L641 -247C629 -246 619 -246 610 -246C593 -246 580 -247 567 -249C555 -251 545 -252 533 -252C527 -250 521 -245 519 -234C509 -179 488 -156 485 -149C485 -143 488 -139 494 -139H505C511 -139 512 -144 515 -151C518 -158 532 -193 534 -197C536 -201 537 -201 541 -201C546 -200 559 -197 575 -196C578 -196 582 -196 585 -196C599 -196 613 -197 618 -198ZM852 -12C850 -12 846 -12 844 -13C829 -19 825 -37 825 -56C825 -87 836 -123 837 -125C844 -156 882 -226 921 -226C923 -226 926 -226 928 -225C940 -222 942 -203 942 -193C942 -145 907 -35 863 -14C860 -12 855 -12 852 -12Z" />
</g>
</def>
<g transform="translate(540, 200) scale(0.02) ">
 <use href="#uniE53A" />
</g>

<g font-size="10" font-family="Verdana" >
<text x="540" y="250">uniE53A</text>
</g>

<def>
 <g id="uniE53B">
 <path d="M414 -253C442 -356 450 -374 465 -386C473 -392 480 -394 485 -394C487 -394 489 -393 490 -393C496 -392 501 -386 501 -380C501 -375 499 -370 495 -368C485 -360 480 -347 480 -334C480 -329 481 -324 482 -319C485 -310 493 -300 503 -296C507 -294 513 -293 519 -293C541 -293 562 -308 568 -329C570 -335 571 -342 571 -348C571 -360 568 -372 561 -383C547 -410 507 -422 478 -422C386 -422 345 -326 320 -252L319 -250H243C237 -250 233 -246 233 -240V-218C233 -212 237 -208 243 -208H306L305 -204C295 -164 287 -129 280 -96C272 -59 263 -20 251 26L248 38C227 120 220 149 196 165C191 168 185 170 179 170C174 170 170 169 166 166C163 164 159 160 160 155C161 151 164 147 169 145C188 137 194 118 194 102C194 88 184 62 148 62C121 62 96 88 96 115C96 168 132 196 178 196C210 196 233 185 258 160C302 116 350 -34 375 -119C384 -151 393 -183 400 -206V-208H556L555 -204C545 -164 537 -129 530 -96C522 -59 513 -20 501 26L498 38C477 120 470 149 446 165C441 168 435 170 429 170C424 170 420 169 416 166C413 164 409 159 410 154C411 150 414 147 419 145C438 137 444 118 444 102C444 88 434 62 398 62C371 62 346 87 346 114C346 167 382 196 428 196C460 196 483 185 508 160C552 116 600 -34 625 -119C634 -151 643 -183 650 -206V-208H723C729 -208 733 -212 733 -218V-240C733 -246 729 -250 723 -250H663L664 -253C692 -356 700 -374 715 -386C723 -392 730 -394 735 -394C737 -394 739 -393 740 -393C746 -392 751 -386 751 -380C751 -375 749 -370 745 -368C735 -360 730 -347 730 -334C730 -329 731 -324 732 -319C735 -310 743 -300 753 -296C757 -294 763 -293 769 -293C791 -293 812 -308 818 -329C820 -335 821 -342 821 -348C821 -360 818 -372 811 -383C797 -410 757 -422 728 -422C636 -422 595 -326 570 -252L569 -250H413ZM168 -228C154 -220 151 -208 151 -201C151 -190 160 -173 179 -173C198 -173 205 -187 207 -197C208 -199 208 -202 208 -205C208 -228 189 -263 131 -263C64 -263 34 -219 34 -180C34 -159 41 -136 69 -120C81 -113 97 -105 114 -95C131 -85 135 -71 135 -61C135 -51 123 -17 86 -17C57 -17 50 -27 50 -32C50 -33 50 -34 51 -34C54 -36 67 -43 67 -67C67 -93 50 -104 35 -104C20 -104 0 -93 0 -63C0 -18 34 5 86 5C138 5 196 -17 196 -77C196 -137 144 -152 119 -166C94 -180 89 -186 89 -203C89 -220 108 -241 134 -241C160 -241 168 -228 168 -228ZM870 -203C873 -203 875 -200 875 -197C875 -195 874 -194 873 -193C872 -192 708 -59 682 -38C672 -30 669 -23 669 -17C669 -8 676 -3 676 -3C680 -1 683 0 687 0C701 0 712 -13 717 -20C723 -30 729 -48 746 -48C763 -48 767 -35 773 -24C783 -7 806 1 829 1C884 1 922 -49 922 -102C922 -122 915 -136 894 -136C877 -136 868 -121 868 -108C868 -89 884 -85 885 -81C885 -79 885 -77 885 -75C885 -61 875 -39 858 -39C856 -39 853 -39 851 -41C846 -44 840 -52 824 -64C808 -76 790 -83 786 -85C784 -86 784 -86 784 -87C784 -88 785 -89 785 -89C785 -89 921 -204 928 -211C936 -219 944 -227 948 -236C949 -237 950 -240 950 -241V-247C949 -255 944 -256 942 -256H941L893 -252C881 -251 871 -251 862 -251C845 -251 832 -252 819 -254C807 -256 797 -257 785 -257C779 -255 773 -250 771 -239C761 -184 740 -161 737 -154C737 -148 740 -144 746 -144H757C763 -144 764 -149 767 -156C770 -163 784 -198 786 -202C788 -206 789 -206 793 -206C798 -205 811 -202 827 -201C830 -201 834 -201 837 -201C851 -201 865 -202 870 -203Z" />
</g>
</def>
<g transform="translate(630, 200) scale(0.02) ">
 <use href="#uniE53B" />
</g>

<g font-size="10" font-family="Verdana" >
<text x="630" y="250">uniE53B</text>
</g>

<def>
 <g id="uniE53C">
 <path d="M167 60C140 60 115 85 115 112C115 164 150 193 196 193C228 193 251 183 276 158C320 114 368 -35 392 -120C401 -152 410 -183 417 -206V-208H489C495 -208 499 -212 499 -218V-240C499 -246 495 -250 489 -250H430V-253C458 -355 466 -373 481 -385C489 -391 496 -393 501 -393C503 -393 505 -392 506 -392C512 -391 517 -385 517 -379C517 -374 515 -369 511 -367C501 -359 496 -346 496 -332C496 -327 497 -323 498 -318C501 -309 509 -300 519 -296C523 -294 530 -292 537 -292C558 -292 579 -308 584 -328C586 -333 586 -339 586 -345C586 -395 541 -421 496 -421C403 -421 362 -326 337 -252V-250H261C255 -250 251 -246 251 -240V-218C251 -212 255 -208 261 -208H323V-204C313 -164 305 -130 298 -97C290 -60 281 -22 269 24L266 36C245 118 239 147 215 163C210 166 204 168 198 168C193 168 188 166 184 163C180 160 179 157 179 152C180 148 182 144 187 142C206 134 212 116 212 100C212 86 203 60 167 60ZM189 -253C160 -253 134 -238 117 -215L114 -211C114 -211 105 -245 76 -252C71 -253 66 -254 61 -254C21 -254 -2 -210 -12 -177L3 -169C3 -169 20 -223 42 -223C44 -223 45 -223 47 -222C52 -220 54 -214 54 -206C54 -189 45 -160 34 -125L0 -16C0 -15 0 -14 0 -12C0 -5 2 0 10 0H65C69 0 74 -1 76 -12C76 -13 77 -16 77 -19C97 -160 129 -194 145 -210C149 -214 153 -216 156 -216C157 -216 158 -216 159 -215C162 -213 162 -212 162 -211C162 -210 162 -209 162 -209C153 -202 150 -194 150 -186C150 -180 152 -173 156 -169C163 -161 173 -159 182 -159C214 -159 230 -183 230 -214C230 -237 211 -253 189 -253Z" />
</g>
</def>
<g transform="translate(720, 200) scale(0.02) ">
 <use href="#uniE53C" />
</g>

<g font-size="10" font-family="Verdana" >
<text x="720" y="250">uniE53C</text>
</g>

<def>
 <g id="uniE53D">
 <path d="M167 60C140 60 115 85 115 112C115 164 150 193 196 193C228 193 251 183 276 158C320 114 368 -35 392 -120C401 -152 410 -183 417 -206V-208H489C495 -208 499 -212 499 -218V-240C499 -246 495 -250 489 -250H430V-253C458 -355 466 -373 481 -385C489 -391 496 -393 501 -393C503 -393 505 -392 506 -392C512 -391 517 -385 517 -379C517 -374 515 -369 511 -367C501 -359 496 -346 496 -332C496 -327 497 -323 498 -318C501 -309 509 -300 519 -296C523 -294 530 -292 537 -292C558 -292 579 -308 584 -328C586 -333 586 -339 586 -345C586 -395 541 -421 496 -421C403 -421 362 -326 337 -252V-250H261C255 -250 251 -246 251 -240V-218C251 -212 255 -208 261 -208H323V-204C313 -164 305 -130 298 -97C290 -60 281 -22 269 24L266 36C245 118 239 147 215 163C210 166 204 168 198 168C193 168 188 166 184 163C180 160 179 157 179 152C180 148 182 144 187 142C206 134 212 116 212 100C212 86 203 60 167 60ZM636 -203C639 -203 641 -200 641 -197C641 -195 640 -194 639 -193C638 -192 474 -59 448 -38C438 -30 435 -23 435 -17C435 -8 442 -3 442 -3C446 -1 449 0 453 0C467 0 478 -13 483 -20C489 -30 495 -48 512 -48C529 -48 533 -35 539 -24C549 -7 572 1 595 1C650 1 688 -49 688 -102C688 -122 681 -136 660 -136C643 -136 634 -121 634 -108C634 -89 650 -85 651 -81C651 -79 651 -77 651 -75C651 -61 641 -39 624 -39C622 -39 619 -39 617 -41C612 -44 606 -52 590 -64C574 -76 556 -83 552 -85C550 -86 550 -86 550 -87C550 -88 551 -89 551 -89C551 -89 687 -204 694 -211C702 -219 710 -227 714 -236C715 -237 716 -240 716 -241V-247C715 -255 710 -256 708 -256H707L659 -252C647 -251 637 -251 628 -251C611 -251 598 -252 585 -254C573 -256 563 -257 551 -257C545 -255 539 -250 537 -239C527 -184 506 -161 503 -154C503 -148 506 -144 512 -144H523C529 -144 530 -149 533 -156C536 -163 550 -198 552 -202C554 -206 555 -206 559 -206C564 -205 577 -202 593 -201C596 -201 600 -201 603 -201C617 -201 631 -202 636 -203ZM189 -253C160 -253 134 -238 117 -215L114 -211C114 -211 105 -245 76 -252C71 -253 66 -254 61 -254C21 -254 -2 -210 -12 -177L3 -169C3 -169 20 -223 42 -223C44 -223 45 -223 47 -222C52 -220 54 -214 54 -206C54 -189 45 -160 34 -125L0 -16C0 -15 0 -14 0 -12C0 -5 2 0 10 0H65C69 0 74 -1 76 -12C76 -13 77 -16 77 -19C97 -160 129 -194 145 -210C149 -214 153 -216 156 -216C157 -216 158 -216 159 -215C162 -213 162 -212 162 -211C162 -210 162 -209 162 -209C153 -202 150 -194 150 -186C150 -180 152 -173 156 -169C163 -161 173 -159 182 -159C214 -159 230 -183 230 -214C230 -237 211 -253 189 -253Z" />
</g>
</def>
<g transform="translate(810, 200) scale(0.02) ">
 <use href="#uniE53D" />
</g>

<g font-size="10" font-family="Verdana" >
<text x="810" y="250">uniE53D</text>
</g>

<def>
 <g id="uniE53E">
 <path d="M739 -98L85 -228L739 -358L733 -387L5 -243V-213L733 -69Z" />
</g>
</def>
<g transform="translate(900, 200) scale(0.02) ">
 <use href="#uniE53E" />
</g>

<g font-size="10" font-family="Verdana" >
<text x="900" y="250">uniE53E</text>
</g>

<def>
 <g id="uniE53F">
 <path d="M2 -357L656 -227L2 -98L8 -68L736 -213V-242L8 -386Z" />
</g>
</def>
<g transform="translate(90, 300) scale(0.02) ">
 <use href="#uniE53F" />
</g>

<g font-size="10" font-family="Verdana" >
<text x="90" y="350">uniE53F</text>
</g>

<def>
 <g id="uniE540">
 <path d="M739 -98L85 -228L739 -358L733 -387L5 -243V-213L733 -69ZM817 -357L1471 -227L817 -98L823 -68L1551 -213V-242L823 -386Z" />
</g>
</def>
<g transform="translate(180, 300) scale(0.02) ">
 <use href="#uniE540" />
</g>

<g font-size="10" font-family="Verdana" >
<text x="180" y="350">uniE540</text>
</g>

<def>
 <g id="uniE541">
 <path d="M0 0C0 39 32 71 71 71C110 71 142 39 142 0C142 -39 110 -71 71 -71C32 -71 0 -39 0 0ZM30 0C30 -23 48 -41 71 -41C94 -41 112 -23 112 0C112 23 94 41 71 41C48 41 30 23 30 0Z" />
</g>
</def>
<g transform="translate(270, 300) scale(0.02) ">
 <use href="#uniE541" />
</g>

<g font-size="10" font-family="Verdana" >
<text x="270" y="350">uniE541</text>
</g>

<def>
 <g id="uniE560">
 <path d="M401 -412C399 -416 394 -418 390 -418C388 -418 386 -417 384 -416L312 -375C295 -398 259 -445 246 -464C223 -500 213 -536 212 -538C212 -539 209 -548 207 -555C206 -559 205 -562 205 -562C204 -565 201 -567 198 -567C194 -567 190 -563 190 -559V-555V-304L103 -254C99 -252 96 -247 96 -243C96 -236 102 -230 109 -230C111 -230 114 -231 116 -232L190 -275V-67C177 -79 157 -85 135 -85C114 -85 91 -79 68 -67C26 -44 0 -7 0 26C0 35 2 44 6 52C17 73 41 83 70 83C91 83 116 77 139 65C181 42 207 6 207 -27V-285L292 -334C299 -325 310 -309 316 -299C327 -280 345 -253 345 -201C345 -156 334 -110 317 -65C316 -62 315 -58 315 -56C315 -53 316 -51 318 -50C319 -50 320 -49 322 -49C325 -49 329 -52 331 -56C360 -109 370 -176 370 -215C370 -217 370 -219 370 -221C368 -284 338 -336 326 -354L396 -394C399 -396 403 -401 403 -405C403 -407 402 -410 401 -412ZM207 -406C225 -397 250 -381 275 -354L207 -314Z" />
</g>
</def>
<g transform="translate(360, 300) scale(0.02) ">
 <use href="#uniE560" />
</g>

<g font-size="10" font-family="Verdana" >
<text x="360" y="350">uniE560</text>
</g>

<def>
 <g id="uniE561">
 <path d="M225 342C239 319 262 273 264 217C264 215 264 213 264 211C264 174 255 110 229 59C268 36 291 1 291 -30C291 -39 289 -48 285 -56C274 -77 250 -87 221 -87C200 -87 175 -81 152 -69C110 -46 84 -10 84 23V260L19 222C17 221 14 220 12 220C5 220 0 226 0 233C0 237 2 242 6 244L84 289V551V555C84 559 88 563 92 563C95 563 99 561 100 558C100 558 100 555 101 551C103 544 106 535 106 534C107 532 118 496 141 460C155 438 198 381 211 363L286 406C287 407 290 407 292 407C299 407 305 402 305 395C305 391 302 386 299 384ZM101 63C114 75 133 81 155 81C174 81 194 76 214 67C229 110 240 154 240 197C240 249 221 276 210 295C204 305 198 314 192 322L101 270ZM101 299L176 342C149 373 121 393 101 402Z" />
</g>
</def>
<g transform="translate(450, 300) scale(0.02) ">
 <use href="#uniE561" />
</g>

<g font-size="10" font-family="Verdana" >
<text x="450" y="350">uniE561</text>
</g>

<def>
 <g id="uniE562">
 <path d="M370 -221C367 -301 321 -361 321 -361C323 -361 263 -438 246 -464C223 -500 213 -536 212 -538C212 -539 209 -548 207 -555C206 -559 205 -563 205 -563C204 -566 201 -567 198 -567C194 -567 190 -563 190 -559V-555V-67C177 -79 157 -85 135 -85C114 -85 91 -79 68 -67C26 -44 0 -7 0 26C0 35 2 44 6 52C17 73 41 83 70 83C91 83 116 77 139 65C181 42 207 6 207 -27V-406C236 -392 281 -359 316 -299C327 -280 345 -253 345 -201C345 -156 334 -110 317 -65C316 -62 315 -58 315 -56C315 -53 316 -51 318 -50C319 -50 320 -49 322 -49C325 -49 329 -52 331 -56C360 -109 370 -176 370 -215C370 -217 370 -219 370 -221Z" />
</g>
</def>
<g transform="translate(540, 300) scale(0.02) ">
 <use href="#uniE562" />
</g>

<g font-size="10" font-family="Verdana" >
<text x="540" y="350">uniE562</text>
</g>

<def>
 <g id="uniE563">
 <path d="M201 -56C190 -77 166 -87 137 -87C116 -87 91 -81 68 -69C26 -46 0 -10 0 23V551V555C0 559 4 563 8 563C11 563 15 561 16 558C16 558 16 555 17 551C19 544 22 535 22 534C23 532 34 496 57 460C74 434 133 357 131 357C131 357 177 297 180 217C180 215 180 213 180 211C180 174 171 110 145 59C184 36 207 1 207 -30C207 -39 205 -48 201 -56ZM126 295C91 355 46 388 17 402V63C30 75 49 81 71 81C90 81 110 76 130 67C145 110 156 154 156 197C156 249 137 276 126 295Z" />
</g>
</def>
<g transform="translate(630, 300) scale(0.02) ">
 <use href="#uniE563" />
</g>

<g font-size="10" font-family="Verdana" >
<text x="630" y="350">uniE563</text>
</g>

<def>
 <g id="uniE564">
 <path d="M20 0C23 0 27 -1 30 -3L479 -262C484 -265 489 -273 489 -279C489 -290 479 -299 468 -299C465 -299 461 -298 458 -297L10 -38C4 -35 0 -26 0 -20C0 -9 9 0 20 0Z" />
</g>
</def>
<g transform="translate(720, 300) scale(0.02) ">
 <use href="#uniE564" />
</g>

<g font-size="10" font-family="Verdana" >
<text x="720" y="350">uniE564</text>
</g>

<def>
 <g id="uniE565">
 <path d="M468 299C479 299 489 290 489 279C489 273 485 264 479 261L30 3C27 2 23 0 20 0C9 0 0 9 0 20C0 26 5 35 10 38L458 297C461 299 465 299 468 299Z" />
</g>
</def>
<g transform="translate(810, 300) scale(0.02) ">
 <use href="#uniE565" />
</g>

<g font-size="10" font-family="Verdana" >
<text x="810" y="350">uniE565</text>
</g>

<def>
 <g id="uniE566">
 <path d="M322 -275C283 -275 261 -249 261 -249L253 -257C248 -262 240 -262 240 -262H137L171 -367C171 -368 171 -369 171 -369C171 -376 164 -383 157 -383H148C145 -383 140 -380 138 -378C136 -376 90 -338 86 -335C82 -332 81 -327 81 -327C81 -327 71 -299 58 -262H2C-10 -262 -12 -250 -12 -250V-237C-12 -226 2 -225 2 -225H46C24 -159 0 -81 0 -59C0 -11 33 0 64 0C95 0 129 -24 129 -24C129 -24 132 -17 135 -9C138 -1 147 0 147 0H192C205 0 207 -11 207 -11V-30C207 -52 223 -102 223 -102L265 -197C265 -197 275 -216 286 -226C295 -233 304 -237 310 -237C311 -237 313 -237 314 -236C300 -227 297 -212 297 -200C297 -188 310 -162 337 -162C371 -162 383 -183 383 -214C383 -245 361 -275 322 -275ZM154 -99C146 -72 119 -54 102 -54C99 -54 97 -54 95 -55C87 -59 84 -69 84 -80C84 -103 95 -132 95 -132L125 -225H191C194 -225 194 -222 194 -222C194 -222 163 -130 154 -99Z" />
</g>
</def>
<g transform="translate(900, 300) scale(0.02) ">
 <use href="#uniE566" />
</g>

<g font-size="10" font-family="Verdana" >
<text x="900" y="350">uniE566</text>
</g>

<def>
 <g id="uniE567">
 <path d="M366 -232C339 -232 307 -217 307 -187C307 -158 325 -142 348 -142C370 -142 375 -157 396 -157C415 -157 426 -142 426 -114V-113C426 -88 407 -68 382 -68C353 -68 337 -76 311 -99L228 -177L207 -197C182 -220 155 -232 121 -232C64 -232 0 -193 0 -118C0 -47 40 0 91 0C118 0 149 -15 149 -45C149 -74 131 -90 108 -90C86 -90 81 -75 60 -75C41 -75 30 -90 30 -118V-119C30 -144 50 -164 75 -164C104 -164 119 -156 145 -133L228 -55L250 -35C275 -12 301 0 335 0C392 0 456 -39 456 -114C456 -185 417 -232 366 -232Z" />
</g>
</def>
<g transform="translate(90, 400) scale(0.02) ">
 <use href="#uniE567" />
</g>

<g font-size="10" font-family="Verdana" >
<text x="90" y="450">uniE567</text>
</g>

<def>
 <g id="uniE568">
 <path d="M90 -232C39 -232 0 -185 0 -114C0 -39 64 0 121 0C155 0 181 -12 206 -35L228 -55L311 -133C337 -156 352 -164 381 -164C406 -164 426 -144 426 -119V-118C426 -90 415 -75 396 -75C375 -75 370 -90 348 -90C325 -90 307 -74 307 -45C307 -15 338 0 365 0C416 0 456 -47 456 -118C456 -193 392 -232 335 -232C301 -232 274 -220 249 -197L228 -177L145 -99C119 -76 103 -68 74 -68C49 -68 30 -88 30 -113V-114C30 -142 41 -157 60 -157C81 -157 86 -142 108 -142C131 -142 149 -158 149 -187C149 -217 117 -232 90 -232Z" />
</g>
</def>
<g transform="translate(180, 400) scale(0.02) ">
 <use href="#uniE568" />
</g>

<g font-size="10" font-family="Verdana" >
<text x="180" y="450">uniE568</text>
</g>

<def>
 <g id="uniE569">
 <path d="M366 -232C339 -232 307 -217 307 -187C307 -158 325 -142 348 -142C370 -142 375 -157 396 -157C415 -157 426 -142 426 -114V-113C426 -88 407 -68 382 -68C353 -68 337 -76 311 -99L246 -160V-299C246 -307 241 -313 233 -313H224C216 -313 210 -307 210 -299V-194L207 -197C182 -220 155 -232 121 -232C64 -232 0 -193 0 -118C0 -47 40 0 91 0C118 0 149 -15 149 -45C149 -74 131 -90 108 -90C86 -90 81 -75 60 -75C41 -75 30 -90 30 -118V-119C30 -144 50 -164 75 -164C104 -164 119 -156 145 -133L210 -72V67C210 75 216 80 224 80H233C241 80 246 75 246 67V-38L250 -35C275 -12 301 0 335 0C392 0 456 -39 456 -114C456 -185 417 -232 366 -232Z" />
</g>
</def>
<g transform="translate(270, 400) scale(0.02) ">
 <use href="#uniE569" />
</g>

<g font-size="10" font-family="Verdana" >
<text x="270" y="450">uniE569</text>
</g>

<def>
 <g id="uniE56A">
 <path d="M232 -91C232 -118 217 -149 187 -149C158 -149 142 -131 142 -108C142 -86 157 -81 157 -60C157 -41 142 -30 114 -30H113C88 -30 68 -50 68 -75C68 -104 76 -119 99 -145L177 -228L197 -250C220 -275 232 -301 232 -335C232 -392 193 -456 118 -456C47 -456 0 -417 0 -366C0 -339 15 -307 45 -307C74 -307 90 -325 90 -348C90 -370 75 -375 75 -396C75 -415 90 -426 118 -426H119C144 -426 164 -407 164 -382C164 -353 156 -337 133 -311L55 -228L35 -207C12 -182 0 -155 0 -121C0 -64 39 0 114 0C185 0 232 -40 232 -91Z" />
</g>
</def>
<g transform="translate(360, 400) scale(0.02) ">
 <use href="#uniE56A" />
</g>

<g font-size="10" font-family="Verdana" >
<text x="360" y="450">uniE56A</text>
</g>

<def>
 <g id="uniE56B">
 <path d="M232 -366C232 -417 185 -456 114 -456C39 -456 0 -392 0 -335C0 -301 12 -275 35 -250L55 -228L133 -145C156 -119 164 -104 164 -75C164 -50 144 -30 119 -30H118C90 -30 75 -41 75 -60C75 -81 90 -86 90 -108C90 -131 74 -149 45 -149C15 -149 0 -118 0 -91C0 -40 47 0 118 0C193 0 232 -64 232 -121C232 -155 220 -182 197 -207L177 -228L99 -311C76 -337 68 -353 68 -382C68 -407 88 -426 113 -426H114C142 -426 157 -415 157 -396C157 -375 142 -370 142 -348C142 -325 158 -307 187 -307C217 -307 232 -339 232 -366Z" />
</g>
</def>
<g transform="translate(450, 400) scale(0.02) ">
 <use href="#uniE56B" />
</g>

<g font-size="10" font-family="Verdana" >
<text x="450" y="450">uniE56B</text>
</g>

<def>
 <g id="uniE56C">
 <path d="M449 -210L390 -115L310 -241C308 -245 303 -248 299 -248C295 -248 289 -245 287 -241L215 -119L141 -241C139 -245 133 -248 129 -248C125 -248 120 -245 117 -241L0 -48L24 -33L83 -131L157 -7C159 -3 165 0 169 0C173 0 179 -3 181 -7L254 -131L332 -6C334 -2 340 0 344 0C348 0 354 -3 356 -7L473 -195Z" />
</g>
</def>
<g transform="translate(540, 400) scale(0.02) ">
 <use href="#uniE56C" />
</g>

<g font-size="10" font-family="Verdana" >
<text x="540" y="450">uniE56C</text>
</g>

<def>
 <g id="uniE56D">
 <path d="M449 -210L390 -115L310 -241C308 -245 302 -248 298 -248C294 -248 289 -245 287 -241L252 -182V-302C252 -310 246 -316 238 -316H230C222 -316 216 -310 216 -302V-120L215 -119L141 -241C139 -245 133 -248 129 -248C125 -248 119 -245 117 -241L0 -48L24 -33L83 -131L157 -7C159 -3 165 0 169 0C173 0 179 -3 181 -7L216 -66V63C216 71 222 77 230 77H238C246 77 252 71 252 63V-128L254 -131L332 -7C334 -3 340 0 344 0C348 0 354 -3 356 -7L473 -195Z" />
</g>
</def>
<g transform="translate(630, 400) scale(0.02) ">
 <use href="#uniE56D" />
</g>

<g font-size="10" font-family="Verdana" >
<text x="630" y="450">uniE56D</text>
</g>

<def>
 <g id="uniE56E">
 <path d="M630 -210L571 -115L492 -242C489 -246 487 -248 480 -248C476 -248 470 -245 468 -241L450 -210L391 -115L312 -242C310 -246 304 -248 300 -248C296 -248 290 -245 288 -241V-240L216 -119L141 -242C139 -246 133 -248 129 -248C123 -248 119 -246 117 -242V-241L0 -48L24 -33L83 -132L157 -7C159 -3 165 0 169 0H170C174 0 179 -3 181 -7L255 -131L333 -7C335 -3 341 0 345 0C349 0 354 -3 356 -7L434 -133L513 -7C515 -3 521 0 525 0C529 0 534 -3 536 -7L654 -196Z" />
</g>
</def>
<g transform="translate(720, 400) scale(0.02) ">
 <use href="#uniE56E" />
</g>

<g font-size="10" font-family="Verdana" >
<text x="720" y="450">uniE56E</text>
</g>

<def>
 <g id="uniE56F">
 <path d="M499 -192C499 -193 496 -208 481 -208C471 -208 466 -203 466 -194C467 -185 467 -177 467 -168C467 -112 450 -61 403 -61C364 -61 332 -93 312 -113L291 -133L356 -210C359 -213 360 -217 360 -220C360 -225 358 -230 354 -233C351 -236 348 -237 344 -237C339 -237 335 -235 332 -231L268 -156L240 -184C214 -208 181 -224 125 -224C68 -224 0 -181 0 -73C0 -60 1 -47 4 -32C4 -30 7 -16 21 -16C33 -16 37 -21 37 -29C36 -38 36 -47 36 -56C36 -112 53 -163 100 -163C139 -163 171 -131 191 -111L212 -90L147 -14C144 -10 143 -7 143 -3C143 2 145 6 148 9C152 12 155 13 159 13C163 13 168 11 171 7L235 -67L263 -39C289 -16 322 0 378 0C434 0 503 -42 503 -148C503 -161 502 -176 499 -192Z" />
</g>
</def>
<g transform="translate(810, 400) scale(0.02) ">
 <use href="#uniE56F" />
</g>

<g font-size="10" font-family="Verdana" >
<text x="810" y="450">uniE56F</text>
</g>

<def>
 <g id="uniE570">
 <path d="M352 -465L212 -104L71 -465C69 -471 63 -476 57 -476H15C6 -476 0 -468 0 -461C0 -458 0 -456 1 -454L173 -9C176 -3 182 1 188 1H236C242 1 248 -3 250 -9L423 -454C424 -456 424 -459 424 -461C424 -468 417 -476 408 -476H367C361 -476 355 -471 352 -465Z" />
</g>
</def>
<g transform="translate(900, 400) scale(0.02) ">
 <use href="#uniE570" />
</g>

<g font-size="10" font-family="Verdana" >
<text x="900" y="450">uniE570</text>
</g>
</svg>

