<?xml version="1.0" standalone="no"?>

<svg version="1.1"
    viewBox="0 0 1003 503"
     xmlns="http://www.w3.org/2000/svg">
  <desc>shows all the symbols from font</desc>
    <g fill="none" stroke="black" stroke-width="3" >
<line x1="0" y1="1.5" x2="1000" y2="1.5" />
<line x1="1.5" y1="0" x2="1.5" y2="500" />
</g>
<g fill="red" stroke="none" >
<rect x="0" y="0" width="3" height="3" />
<rect x="997" y="0" width="3" height="3" />
<rect x="0" y="497" width="3" height="3" />
</g>
<g font-size="14" font-family="Verdana" >
<text x="10" y="20">(0,0)</text>
<text x="940" y="20">(1000,0)</text>
<text x="10" y="490">(0,500)</text>
</g>
<g style="stroke:#D3D3D3;stroke-width:0.5px;stroke-dasharray:10, 10;stroke-opacity:1" >
<line x1="0.0" y1="0" x2="0.0" y2="500" />
<line x1="90.9090909090909" y1="0" x2="90.9090909090909" y2="500" />
<line x1="181.8181818181818" y1="0" x2="181.8181818181818" y2="500" />
<line x1="272.72727272727275" y1="0" x2="272.72727272727275" y2="500" />
<line x1="363.6363636363636" y1="0" x2="363.6363636363636" y2="500" />
<line x1="454.54545454545456" y1="0" x2="454.54545454545456" y2="500" />
<line x1="545.4545454545455" y1="0" x2="545.4545454545455" y2="500" />
<line x1="636.3636363636364" y1="0" x2="636.3636363636364" y2="500" />
<line x1="727.2727272727273" y1="0" x2="727.2727272727273" y2="500" />
<line x1="818.1818181818181" y1="0" x2="818.1818181818181" y2="500" />
<line x1="909.0909090909091" y1="0" x2="909.0909090909091" y2="500" />
<line x1="1000.0" y1="0" x2="1000.0" y2="500" />
<line x1="0" y1="0.0" x2="1000" y2="0.0" />
<line x1="0" y1="100.0" x2="1000" y2="100.0" />
<line x1="0" y1="200.0" x2="1000" y2="200.0" />
<line x1="0" y1="300.0" x2="1000" y2="300.0" />
<line x1="0" y1="400.0" x2="1000" y2="400.0" />
<line x1="0" y1="500.0" x2="1000" y2="500.0" />
</g>

<def>
<g id="uniE571">
 <path d="M0 -210C0 -123 48 -43 124 -2C126 -1 128 0 131 0C136 0 141 -3 143 -7C144 -9 145 -12 145 -14C145 -19 142 -24 138 -26C70 -63 28 -133 28 -210C28 -287 70 -357 138 -394C142 -396 145 -401 145 -406C145 -408 144 -410 143 -413C141 -417 136 -420 131 -420C129 -420 127 -420 124 -418C48 -377 0 -297 0 -210Z" />
</g>
</def>
<g transform="translate(90, 100) scale(0.02) ">
 <use href="#uniE571" />
</g>

<g font-size="10" font-family="Verdana" >
<text x="90" y="150">uniE571</text>
</g>

<def>
<g id="uniE572">
 <path d="M145 -210C145 -297 97 -377 21 -418C19 -419 17 -420 14 -420C9 -420 4 -417 2 -413C1 -410 0 -408 0 -406C0 -401 3 -396 7 -394C75 -357 117 -287 117 -210C117 -133 75 -63 7 -26C3 -24 0 -19 0 -14C0 -12 1 -9 2 -7C4 -3 9 0 14 0C16 0 18 0 21 -2C97 -43 145 -123 145 -210Z" />
</g>
</def>
<g transform="translate(180, 100) scale(0.02) ">
 <use href="#uniE572" />
</g>

<g font-size="10" font-family="Verdana" >
<text x="180" y="150">uniE572</text>
</g>

<def>
<g id="uniE573">
 <path d="M180 0C191 0 202 -4 210 -15C215 -22 218 -28 218 -35C218 -38 218 -41 217 -43C213 -59 197 -69 191 -72C189 -72 188 -74 186 -75C147 -95 41 -152 41 -283C41 -330 56 -389 91 -454C92 -457 93 -459 93 -461C93 -465 91 -469 87 -471C85 -472 83 -472 81 -472C76 -472 72 -470 69 -465C67 -462 8 -377 3 -285C2 -276 2 -268 2 -260C2 -215 9 -175 25 -138C48 -85 88 -42 143 -12C152 -6 169 0 180 0Z" />
</g>
</def>
<g transform="translate(270, 100) scale(0.02) ">
 <use href="#uniE573" />
</g>

<g font-size="10" font-family="Verdana" >
<text x="270" y="150">uniE573</text>
</g>

<def>
<g id="uniE574">
 <path d="M12 -14C20 -4 31 0 42 0C53 0 70 -6 79 -12C134 -42 174 -85 197 -138C213 -174 220 -215 220 -260C220 -268 220 -276 219 -284C214 -377 155 -462 153 -465C150 -469 146 -472 141 -472C139 -472 137 -472 135 -471C131 -469 129 -465 129 -461C129 -459 130 -456 131 -454C166 -389 181 -330 181 -282C181 -152 75 -95 36 -74C34 -73 32 -72 31 -71C25 -68 9 -59 5 -43C4 -40 4 -37 4 -35C4 -28 7 -21 12 -14Z" />
</g>
</def>
<g transform="translate(360, 100) scale(0.02) ">
 <use href="#uniE574" />
</g>

<g font-size="10" font-family="Verdana" >
<text x="360" y="150">uniE574</text>
</g>

<def>
<g id="uniE575">
 <path d="M351 -7C361 -12 370 -20 372 -32C373 -35 373 -38 373 -40C373 -48 369 -54 364 -59C352 -71 331 -71 324 -71C322 -71 320 -71 318 -71C270 -71 141 -72 70 -179C44 -217 29 -273 29 -343C29 -350 24 -355 16 -355C14 -355 12 -355 10 -354C6 -352 3 -347 2 -342C2 -341 0 -326 0 -304C0 -268 5 -212 32 -163C57 -117 89 -79 129 -52C179 -18 240 0 309 0C310 0 312 0 314 0C325 0 342 -2 351 -7Z" />
</g>
</def>
<g transform="translate(450, 100) scale(0.02) ">
 <use href="#uniE575" />
</g>

<g font-size="10" font-family="Verdana" >
<text x="450" y="150">uniE575</text>
</g>

<def>
<g id="uniE576">
 <path d="M496 -316C494 -324 491 -328 483 -328C474 -328 469 -322 469 -316C469 -252 454 -201 429 -165C358 -67 219 -66 106 -66C104 -66 64 -66 40 -66C26 -66 1 -57 1 -35C1 -13 19 0 42 0C63 0 89 0 100 0C269 0 320 -17 370 -48C409 -73 441 -108 466 -151C492 -196 499 -257 499 -278C499 -299 497 -313 496 -316Z" />
</g>
</def>
<g transform="translate(540, 100) scale(0.02) ">
 <use href="#uniE576" />
</g>

<g font-size="10" font-family="Verdana" >
<text x="540" y="150">uniE576</text>
</g>

<def>
<g id="uniE578">
 <path d="M210 -1C297 -1 377 -48 418 -125C419 -127 420 -129 420 -132C420 -137 417 -141 413 -144C410 -145 408 -146 405 -146C401 -145 396 -143 394 -138C357 -71 287 -29 210 -29C133 -29 63 -71 26 -138C24 -143 19 -146 14 -146C12 -146 9 -145 7 -144C3 -141 0 -137 0 -131C0 -129 1 -127 2 -125C43 -48 123 -1 210 -1Z" />
</g>
</def>
<g transform="translate(630, 100) scale(0.02) ">
 <use href="#uniE578" />
</g>

<g font-size="10" font-family="Verdana" >
<text x="630" y="150">uniE578</text>
</g>

<def>
<g id="uniE579">
 <path d="M184 -264C185 -267 186 -269 186 -271C186 -276 183 -281 179 -284L171 -288C169 -289 166 -290 164 -290C159 -290 154 -287 152 -283L3 -26C1 -23 1 -21 1 -18C1 -13 3 -9 8 -6L16 -2C18 -1 21 0 23 0C28 0 32 -3 35 -7Z" />
</g>
</def>
<g transform="translate(720, 100) scale(0.02) ">
 <use href="#uniE579" />
</g>

<g font-size="10" font-family="Verdana" >
<text x="720" y="150">uniE579</text>
</g>

<def>
<g id="uniE57A">
 <path d="M151 -7C153 -3 158 0 162 0H164C166 0 168 -1 170 -2L178 -6C183 -9 185 -14 185 -19C185 -21 184 -23 183 -26L34 -283C31 -288 27 -290 22 -290C19 -290 17 -289 15 -288L7 -284C3 -281 0 -277 0 -272C0 -269 1 -267 2 -264Z" />
</g>
</def>
<g transform="translate(810, 100) scale(0.02) ">
 <use href="#uniE57A" />
</g>

<g font-size="10" font-family="Verdana" >
<text x="810" y="150">uniE57A</text>
</g>

<def>
<g id="uniE57B">
 <path d="M301 -434C303 -438 304 -441 304 -445C304 -453 300 -461 292 -466L280 -473C276 -475 272 -476 269 -476C260 -476 252 -472 248 -465L3 -42C1 -38 0 -34 0 -30C0 -22 4 -15 12 -10L24 -3C28 -1 32 0 36 0C44 0 52 -4 56 -11Z" />
</g>
</def>
<g transform="translate(900, 100) scale(0.02) ">
 <use href="#uniE57B" />
</g>

<g font-size="10" font-family="Verdana" >
<text x="900" y="150">uniE57B</text>
</g>

<def>
<g id="uniE57C">
 <path d="M248 -11C252 -4 260 0 268 0C272 0 276 -1 280 -3L292 -10C300 -15 304 -23 304 -31C304 -35 303 -38 301 -42L56 -465C52 -472 44 -476 35 -476C32 -476 28 -475 24 -473L12 -466C4 -461 0 -454 0 -446C0 -442 1 -438 3 -434Z" />
</g>
</def>
<g transform="translate(90, 200) scale(0.02) ">
 <use href="#uniE57C" />
</g>

<g font-size="10" font-family="Verdana" >
<text x="90" y="250">uniE57C</text>
</g>

<def>
<g id="uniE57D">
 <path d="M301 -434C303 -437 303 -440 304 -443C304 -444 304 -445 304 -446C304 -454 300 -461 292 -466L280 -473C276 -475 272 -476 268 -476C260 -476 252 -472 248 -465L3 -42C1 -38 0 -34 0 -30C0 -22 4 -15 12 -10L24 -3C28 -1 32 0 35 0C44 0 52 -4 56 -12ZM516 -434C518 -437 518 -440 519 -443C519 -444 519 -445 519 -446C519 -454 515 -461 507 -466L495 -473C491 -475 487 -476 483 -476C475 -476 467 -472 463 -465L218 -42C216 -38 215 -34 215 -30C215 -22 219 -15 227 -10L239 -3C243 -1 247 0 250 0C259 0 267 -4 271 -12Z" />
</g>
</def>
<g transform="translate(180, 200) scale(0.02) ">
 <use href="#uniE57D" />
</g>

<g font-size="10" font-family="Verdana" >
<text x="180" y="250">uniE57D</text>
</g>

<def>
<g id="uniE57E">
 <path d="M463 -11C468 -4 475 0 483 0C487 0 491 -1 495 -3L508 -10C515 -15 519 -23 519 -31C519 -35 518 -38 516 -42L271 -465C267 -472 259 -476 251 -476C247 -476 243 -475 240 -473L227 -466C219 -461 215 -454 215 -446C215 -442 216 -438 218 -434ZM248 -11C253 -4 260 0 268 0C272 0 276 -1 280 -3L293 -10C300 -15 304 -23 304 -31C304 -35 303 -38 301 -42L56 -465C52 -472 44 -476 36 -476C32 -476 28 -475 25 -473L12 -466C4 -461 0 -454 0 -446C0 -442 1 -438 3 -434Z" />
</g>
</def>
<g transform="translate(270, 200) scale(0.02) ">
 <use href="#uniE57E" />
</g>

<g font-size="10" font-family="Verdana" >
<text x="270" y="250">uniE57E</text>
</g>

<def>
<g id="uniE57F">
 <path d="M469 -159L0 -34V0L469 -125Z" />
</g>
</def>
<g transform="translate(360, 200) scale(0.02) ">
 <use href="#uniE57F" />
</g>

<g font-size="10" font-family="Verdana" >
<text x="360" y="250">uniE57F</text>
</g>

<def>
<g id="uniE580">
 <path d="M0 -125L469 0V-34L0 -159Z" />
</g>
</def>
<g transform="translate(450, 200) scale(0.02) ">
 <use href="#uniE580" />
</g>

<g font-size="10" font-family="Verdana" >
<text x="450" y="250">uniE580</text>
</g>

<def>
<g id="uniE582">
 <path d="M295 -175H174V-295C174 -301 170 -305 164 -305H140C135 -305 130 -301 130 -295V-175H10C4 -175 0 -170 0 -165V-141C0 -135 4 -131 10 -131H130V-10C130 -5 135 0 140 0H164C170 0 174 -5 174 -10V-131H295C300 -131 305 -135 305 -141V-165C305 -170 300 -175 295 -175Z" />
</g>
</def>
<g transform="translate(540, 200) scale(0.02) ">
 <use href="#uniE582" />
</g>

<g font-size="10" font-family="Verdana" >
<text x="540" y="250">uniE582</text>
</g>

<def>
<g id="uniE583">
 <path d="M0 -123C0 -115 6 -109 14 -109H23C30 -109 37 -115 37 -123V-375C37 -383 30 -389 23 -389H14C6 -389 0 -383 0 -375Z" />
</g>
</def>
<g transform="translate(630, 200) scale(0.02) ">
 <use href="#uniE583" />
</g>

<g font-size="10" font-family="Verdana" >
<text x="630" y="250">uniE583</text>
</g>

<def>
<g id="uniE584">
 <path d="M102 -176C107 -213 116 -251 132 -311H211C217 -311 221 -315 221 -321V-345C221 -350 217 -355 211 -355H144C156 -395 167 -433 175 -462C176 -464 176 -465 176 -467C176 -469 175 -472 173 -474C171 -476 168 -478 164 -478C163 -478 162 -478 161 -477L100 -463C95 -462 92 -458 91 -453C91 -449 86 -407 77 -355H10C4 -355 0 -350 0 -345V-321C0 -315 4 -311 10 -311H69C59 -259 51 -217 46 -184C45 -177 44 -169 44 -162C44 -133 52 -109 68 -91C85 -72 109 -62 138 -62C177 -62 210 -81 233 -118C250 -145 256 -172 256 -173C256 -174 256 -175 256 -176C256 -181 253 -186 248 -187C247 -188 246 -188 244 -188C239 -187 235 -184 234 -180C233 -179 202 -103 155 -103C115 -103 101 -125 101 -157C101 -163 101 -169 102 -176Z" />
</g>
</def>
<g transform="translate(720, 200) scale(0.02) ">
 <use href="#uniE584" />
</g>

<g font-size="10" font-family="Verdana" >
<text x="720" y="250">uniE584</text>
</g>

<def>
<g id="uniE587">
 <path d="M737 -473C692 -473 643 -442 583 -376C533 -319 474 -237 399 -118L321 -242C318 -246 314 -248 309 -248C304 -248 300 -246 297 -242L219 -116L141 -242C138 -246 134 -248 129 -248C124 -248 120 -246 118 -242H117L0 -53L24 -38L83 -133L162 -6C164 -2 168 0 173 0C178 0 183 -3 185 -7L204 -38L263 -133L342 -6C343 -4 344 -3 346 -2C349 0 351 0 353 0C359 0 363 -2 365 -6C448 -139 551 -298 604 -357C657 -416 701 -445 737 -445C745 -445 751 -451 751 -459C751 -467 745 -473 737 -473Z" />
</g>
</def>
<g transform="translate(810, 200) scale(0.02) ">
 <use href="#uniE587" />
</g>

<g font-size="10" font-family="Verdana" >
<text x="810" y="250">uniE587</text>
</g>

<def>
<g id="uniE588">
 <path d="M528 -143C528 -143 523 -270 408 -270C350 -270 303 -240 282 -194V-393C282 -401 276 -407 268 -407H259C252 -407 246 -401 246 -393V-195C224 -240 177 -270 120 -270C5 -270 0 -143 0 -143C0 -143 -1 -128 13 -125C15 -125 16 -125 17 -125C28 -125 31 -134 33 -141C53 -208 76 -216 115 -216C221 -216 243 -78 246 -29V-14C246 -6 252 0 259 0H268C276 0 282 -6 282 -14V-22C283 -63 301 -216 413 -216C452 -216 475 -208 495 -141C497 -134 500 -125 511 -125C512 -125 513 -125 515 -125C529 -128 528 -143 528 -143Z" />
</g>
</def>
<g transform="translate(900, 200) scale(0.02) ">
 <use href="#uniE588" />
</g>

<g font-size="10" font-family="Verdana" >
<text x="900" y="250">uniE588</text>
</g>

<def>
<g id="uniE598">
 <path d="M28 -41C29 -49 29 -78 44 -113C63 -158 96 -180 143 -180C191 -180 225 -158 246 -113C262 -78 263 -42 263 -41L289 -63C287 -79 282 -101 271 -124C246 -179 202 -208 143 -208C84 -208 41 -179 18 -123C1 -83 0 -43 0 -41C0 -34 6 -27 14 -27C22 -27 27 -34 28 -41Z" />
</g>
</def>
<g transform="translate(90, 300) scale(0.02) ">
 <use href="#uniE598" />
</g>

<g font-size="10" font-family="Verdana" >
<text x="90" y="350">uniE598</text>
</g>

<def>
<g id="uniE59D">
 <path d="M98 -240C95 -244 90 -247 86 -247C81 -247 77 -245 74 -240C71 -235 -32 -66 -43 -47L-19 -33L40 -131C47 -119 111 -11 114 -7C117 -3 120 0 126 0C133 0 135 -3 138 -7L188 -91Z" />
</g>
</def>
<g transform="translate(180, 300) scale(0.02) ">
 <use href="#uniE59D" />
</g>

<g font-size="10" font-family="Verdana" >
<text x="180" y="350">uniE59D</text>
</g>

<def>
<g id="uniE59E">
 <path d="M14 -89L41 -132L120 -6C123 -2 127 0 132 0C137 0 141 -2 143 -6L261 -195L237 -210L178 -115L99 -242C97 -246 93 -248 87 -248C82 -248 78 -245 75 -241L57 -210L-2 -115Z" />
</g>
</def>
<g transform="translate(270, 300) scale(0.02) ">
 <use href="#uniE59E" />
</g>

<g font-size="10" font-family="Verdana" >
<text x="270" y="350">uniE59E</text>
</g>

<def>
<g id="uniE5B2">
 <path d="M597 -118L518 -245C516 -249 512 -251 506 -251C502 -251 497 -248 495 -244L476 -213L417 -118L338 -245C337 -247 336 -248 334 -249C332 -250 328 -251 326 -251C322 -251 316 -248 314 -244L242 -122L167 -245C165 -249 159 -251 155 -251C149 -251 145 -249 143 -245L28 -53V-376C27 -383 21 -388 14 -388C7 -388 1 -383 0 -376V-18C0 -11 6 -3 13 -1C14 -1 17 0 18 0C24 0 30 -4 33 -9L50 -36L109 -135L184 -10C186 -6 192 -3 196 -3C200 -3 205 -6 207 -10L281 -134L359 -10C361 -6 367 -3 371 -3C375 -3 380 -6 382 -10L461 -136L539 -10C541 -6 547 -3 551 -3C555 -3 561 -6 563 -10L680 -199L656 -213Z" />
</g>
</def>
<g transform="translate(360, 300) scale(0.02) ">
 <use href="#uniE5B2" />
</g>

<g font-size="10" font-family="Verdana" >
<text x="360" y="350">uniE5B2</text>
</g>

<def>
<g id="uniE5B5">
 <path d="M579 -115L500 -242C498 -246 495 -248 489 -248C484 -248 479 -245 477 -242L459 -210H458L399 -115L320 -242C319 -243 317 -245 316 -246C314 -247 311 -248 308 -248C304 -248 299 -245 297 -241L224 -119L149 -241C149 -242 149 -243 148 -243C148 -243 148 -243 148 -243V-244H147V-245H146L145 -246C145 -246 144 -246 144 -246C143 -247 139 -248 137 -248C137 -248 137 -248 137 -248C136 -248 136 -248 135 -248C130 -248 127 -245 125 -241V-240L48 -114C16 -61 0 -12 0 35C0 75 11 113 34 152C36 155 41 158 46 158C48 158 51 157 53 156C57 154 60 149 60 144C60 142 59 139 58 137C38 104 28 71 28 36C28 -7 43 -51 72 -99L91 -132L166 -7C168 -3 173 0 178 0C182 0 187 -3 189 -7L263 -131L341 -7C343 -3 349 0 353 0C353 0 353 0 353 0C357 0 362 -3 365 -7L443 -133L521 -7C524 -3 529 0 533 0C537 0 543 -3 545 -7L662 -196L638 -210Z" />
</g>
</def>
<g transform="translate(450, 300) scale(0.02) ">
 <use href="#uniE5B5" />
</g>

<g font-size="10" font-family="Verdana" >
<text x="450" y="350">uniE5B5</text>
</g>

<def>
<g id="uniE5B8">
 <path d="M579 -115L500 -242C497 -246 495 -248 489 -248C485 -248 479 -246 477 -242L458 -211V-210L439 -180V-307C439 -315 433 -321 425 -321H416C408 -321 402 -315 402 -307V-120L399 -115L320 -242C319 -244 318 -246 316 -247C314 -248 311 -249 309 -249C305 -249 299 -246 297 -242L224 -119L149 -241C149 -242 148 -243 148 -243V-244L147 -245H146V-246H144C142 -247 139 -248 137 -248C131 -248 127 -246 125 -242L124 -240L48 -114C16 -61 0 -13 0 34C0 74 12 113 34 151C36 155 42 158 46 158C48 158 51 157 53 156C57 154 60 148 60 144C60 142 59 139 58 137C39 103 29 70 29 35C29 -8 43 -52 72 -100L91 -132L166 -7C168 -3 174 0 178 0C182 0 188 -3 190 -7L263 -132L341 -7C343 -3 349 0 353 0C357 0 363 -3 365 -7L402 -68V58C402 66 408 72 416 72H425C433 72 439 66 439 58V-127L443 -133L521 -7C523 -3 529 0 533 0C537 0 543 -3 545 -7L662 -196L638 -210Z" />
</g>
</def>
<g transform="translate(540, 300) scale(0.02) ">
 <use href="#uniE5B8" />
</g>

<g font-size="10" font-family="Verdana" >
<text x="540" y="350">uniE5B8</text>
</g>

<def>
<g id="uniE5BB">
 <path d="M628 -399C626 -403 620 -406 616 -406C614 -406 611 -405 609 -404C605 -402 602 -396 602 -392C602 -390 603 -387 604 -385C623 -351 633 -318 633 -283C633 -240 619 -196 590 -148L571 -116L496 -242C494 -246 488 -248 484 -248C480 -248 474 -246 472 -242L399 -117L321 -242C319 -246 313 -248 309 -248C305 -248 299 -246 297 -242L219 -116L141 -242C139 -246 133 -248 129 -248C125 -248 119 -246 117 -242L0 -53L24 -38L83 -133L162 -7C165 -3 167 0 173 0C177 0 183 -3 185 -7L204 -38L263 -133L342 -6C343 -4 344 -3 346 -2C348 -1 351 0 353 0C357 0 363 -3 365 -7L438 -129L512 -9C513 -7 516 -3 518 -2C520 -1 523 0 525 0C529 0 535 -2 537 -6L614 -134C646 -187 662 -235 662 -282C662 -322 650 -361 628 -399Z" />
</g>
</def>
<g transform="translate(630, 300) scale(0.02) ">
 <use href="#uniE5BB" />
</g>

<g font-size="10" font-family="Verdana" >
<text x="630" y="350">uniE5BB</text>
</g>

<def>
<g id="uniE5BC">
 <path d="M289 -34C292 -39 342 -122 348 -131L422 -7C424 -3 430 0 434 0C438 0 444 -3 446 -7L520 -131C527 -119 595 -11 597 -7C600 -2 605 0 609 0C613 0 618 -2 621 -7C624 -11 656 -63 660 -69V58C660 66 666 72 673 72H682C690 72 696 66 696 58V-128L699 -133L778 -7C780 -3 785 0 789 0C794 0 799 -3 801 -7L918 -196L895 -210L836 -115L757 -242C754 -246 751 -248 745 -248C741 -248 735 -245 733 -241L696 -181V-307C696 -314 690 -321 682 -321H673C666 -321 660 -315 660 -307V-122L656 -115L577 -242C576 -243 573 -245 572 -246C570 -247 567 -248 565 -248C560 -248 555 -245 553 -241L480 -119L405 -242C402 -247 397 -248 391 -248C387 -248 384 -245 382 -241L289 -88L286 -81C283 -94 278 -108 272 -123C246 -178 202 -208 143 -208C85 -208 41 -178 18 -123C1 -82 0 -46 0 -41C0 -36 3 -27 13 -27C23 -27 27 -31 28 -40C29 -46 28 -75 44 -112C62 -157 96 -180 143 -180C191 -180 225 -157 246 -112C261 -79 261 -49 262 -42C263 -35 267 -27 277 -27C283 -27 286 -29 289 -34Z" />
</g>
</def>
<g transform="translate(720, 300) scale(0.02) ">
 <use href="#uniE5BC" />
</g>

<g font-size="10" font-family="Verdana" >
<text x="720" y="350">uniE5BC</text>
</g>

<def>
<g id="uniE5BD">
 <path d="M570 -115L492 -242C489 -246 486 -248 480 -248C475 -248 470 -245 468 -241L450 -210H449L431 -180V-306C431 -314 425 -320 417 -320H408C400 -320 394 -314 394 -307C394 -307 394 -307 394 -307V-121L390 -115L311 -242C310 -243 308 -245 307 -246C305 -247 302 -248 300 -248C295 -248 290 -245 288 -241L215 -119L140 -241C138 -245 133 -248 128 -248C128 -248 128 -248 128 -248C122 -248 119 -245 116 -241L85 -189L0 -47L24 -33L83 -131L157 -7C159 -3 164 0 169 0C169 0 169 0 169 0C173 0 178 -3 180 -7L254 -131L332 -6C334 -3 340 0 344 0C344 0 344 0 344 0C348 0 353 -3 356 -6L394 -69V59C394 59 394 59 394 59C394 66 400 73 408 73H417C425 73 431 66 431 59V-128L434 -132L512 -6C514 -3 520 0 524 0C524 0 524 0 524 0C528 0 534 -3 536 -6L653 -195L629 -210Z" />
</g>
</def>
<g transform="translate(810, 300) scale(0.02) ">
 <use href="#uniE5BD" />
</g>

<g font-size="10" font-family="Verdana" >
<text x="810" y="350">uniE5BD</text>
</g>

<def>
<g id="uniE5BE">
 <path d="M704 -196L680 -210L621 -115C614 -128 545 -237 542 -242C540 -246 535 -248 531 -248C526 -248 521 -246 519 -242C516 -237 453 -131 446 -119C439 -131 373 -238 371 -242C369 -245 365 -248 359 -248C353 -248 349 -245 348 -242C346 -239 275 -121 251 -80C248 -93 243 -108 236 -123C211 -179 167 -208 108 -208C64 -208 28 -191 3 -158C1 -156 0 -152 0 -150C0 -145 2 -141 6 -139C8 -137 11 -136 14 -136C18 -136 22 -138 25 -141C45 -167 73 -180 108 -180C156 -180 190 -157 211 -112C227 -77 228 -41 228 -40C229 -33 235 -27 242 -27C249 -27 253 -30 255 -34C257 -37 308 -122 314 -131C321 -119 385 -11 388 -7C390 -3 395 0 400 0C405 0 409 -3 412 -7C414 -11 478 -119 486 -131C493 -120 559 -13 563 -7C567 -1 572 0 576 0C580 0 584 -3 587 -7Z" />
</g>
</def>
<g transform="translate(900, 300) scale(0.02) ">
 <use href="#uniE5BE" />
</g>

<g font-size="10" font-family="Verdana" >
<text x="900" y="350">uniE5BE</text>
</g>

<def>
<g id="uniE5C0">
 <path d="M255 -33C257 -37 308 -121 314 -131C321 -119 385 -11 388 -7C390 -3 395 0 400 0C404 0 409 -3 411 -7C414 -11 478 -119 485 -131C493 -119 559 -13 563 -7C567 -1 572 0 576 0C580 0 584 -3 587 -7C589 -10 657 -120 665 -133L743 -7C745 -3 751 0 755 0C759 0 764 -3 767 -7L884 -195L860 -210L801 -115L722 -241C720 -246 716 -248 710 -248C706 -248 701 -245 699 -241L621 -115C614 -127 545 -237 542 -241C539 -246 535 -248 530 -248C526 -248 521 -246 519 -241C516 -237 453 -131 446 -119C439 -131 373 -238 371 -241C369 -245 365 -248 359 -248C353 -248 349 -245 347 -241C346 -238 275 -121 251 -80C248 -93 243 -108 236 -123C211 -178 167 -208 108 -208C63 -208 28 -191 3 -158C1 -155 0 -152 0 -149C0 -145 2 -141 5 -138C8 -136 11 -135 14 -135C18 -135 22 -137 25 -141C45 -167 73 -179 108 -179C155 -179 190 -157 210 -112C227 -77 228 -41 228 -40C228 -32 235 -26 242 -26C249 -26 253 -30 255 -33Z" />
</g>
</def>
<g transform="translate(90, 400) scale(0.02) ">
 <use href="#uniE5C0" />
</g>

<g font-size="10" font-family="Verdana" >
<text x="90" y="450">uniE5C0</text>
</g>

<def>
<g id="uniE5C3">
 <path d="M266 -97C277 -115 286 -130 287 -131C294 -119 358 -11 361 -7C363 -3 368 0 373 0C377 0 382 -3 385 -7C387 -11 451 -119 458 -131C466 -120 532 -13 536 -7C540 -1 545 0 549 0C553 0 557 -3 560 -7C562 -11 630 -121 638 -133L716 -7C719 -3 724 0 728 0C732 -1 738 -3 740 -7L857 -196L833 -210L774 -115L696 -242C693 -246 690 -248 684 -248C679 -248 674 -245 672 -242L594 -115C587 -127 518 -237 515 -242C512 -246 508 -248 504 -248C499 -248 494 -246 492 -242C489 -237 426 -131 419 -119C412 -131 346 -238 344 -242C342 -245 338 -248 332 -248C326 -248 322 -245 320 -242C319 -240 273 -163 248 -120C222 -77 197 -55 148 -55C99 -55 66 -78 46 -122C30 -158 28 -191 28 -194C28 -202 21 -208 14 -208C6 -208 0 -201 0 -193C0 -192 2 -152 20 -112C45 -56 90 -27 148 -27C206 -27 240 -51 266 -97Z" />
</g>
</def>
<g transform="translate(180, 400) scale(0.02) ">
 <use href="#uniE5C3" />
</g>

<g font-size="10" font-family="Verdana" >
<text x="180" y="450">uniE5C3</text>
</g>

<def>
<g id="uniE5C6">
 <path d="M360 -242C357 -246 353 -248 348 -248C344 -248 339 -246 337 -242C334 -237 264 -119 264 -119C264 -119 191 -238 189 -242C187 -245 183 -248 177 -248C171 -248 167 -245 165 -242C163 -238 60 -66 60 -66C38 -102 26 -151 26 -200C26 -260 44 -322 84 -366C86 -368 87 -372 87 -375C87 -383 81 -389 73 -389C70 -389 66 -387 64 -385C19 -336 -1 -267 -1 -200C-1 -96 47 -35 50 -32C53 -29 56 -27 61 -27C65 -27 70 -29 73 -33C75 -38 132 -131 132 -131C132 -131 203 -11 206 -7C208 -3 213 0 218 0C222 0 227 -3 229 -7C232 -11 303 -131 303 -131C303 -131 377 -13 381 -7C385 -1 390 0 394 0C398 0 402 -3 405 -7C407 -10 483 -133 483 -133L561 -7C564 -3 569 0 573 0C577 0 583 -3 585 -7L702 -196L678 -210L619 -115L541 -242C538 -246 535 -248 529 -248C524 -248 519 -245 517 -242L439 -115C439 -115 363 -237 360 -242Z" />
</g>
</def>
<g transform="translate(270, 400) scale(0.02) ">
 <use href="#uniE5C6" />
</g>

<g font-size="10" font-family="Verdana" >
<text x="270" y="450">uniE5C6</text>
</g>

<def>
<g id="uniE5C7">
 <path d="M574 0C582 0 585 -6 586 -7L703 -196L679 -210L620 -115L542 -242C539 -246 534 -248 529 -248C525 -248 520 -245 518 -242L481 -181V-307C481 -314 475 -321 467 -321H458C450 -321 444 -315 444 -307V-122L440 -115L361 -242C360 -243 358 -245 357 -246C355 -247 353 -248 348 -248C344 -248 340 -245 338 -242L265 -119L190 -242C187 -247 182 -248 177 -248C172 -248 168 -245 166 -242L61 -66C39 -102 27 -151 27 -200C27 -260 45 -322 85 -366C87 -368 88 -372 88 -375C88 -383 82 -389 74 -389C71 -389 67 -387 65 -385C20 -336 0 -267 0 -200C0 -136 18 -73 51 -32C53 -29 58 -27 62 -27C65 -27 68 -28 70 -30C72 -31 73 -33 74 -34L133 -131L207 -7C209 -3 213 0 219 0C226 0 230 -6 231 -7L304 -131C312 -119 379 -11 382 -7C385 -2 390 0 394 0C398 0 402 -2 406 -7C409 -11 441 -63 444 -69V59C444 66 450 72 458 72H467C475 72 481 66 481 59V-128L484 -133L562 -7C565 -3 569 0 574 0Z" />
</g>
</def>
<g transform="translate(360, 400) scale(0.02) ">
 <use href="#uniE5C7" />
</g>

<g font-size="10" font-family="Verdana" >
<text x="360" y="450">uniE5C7</text>
</g>

<def>
<g id="uniE5C8">
 <path d="M241 -117L163 -242C160 -246 157 -249 151 -249C145 -249 141 -245 139 -242C137 -239 4 -24 2 -21C0 -18 0 -17 0 -14C0 -6 7 0 15 0C19 0 24 -2 26 -6L105 -133C112 -121 182 -9 184 -7C186 -4 189 0 195 0C201 0 205 -2 207 -7L280 -129L355 -7C358 -3 362 0 367 0C373 0 376 -3 379 -7L485 -184C517 -140 538 -78 538 -15C538 42 522 100 486 149C484 152 483 154 483 157C483 161 486 166 489 169C492 171 495 171 498 171C502 171 506 169 509 166C548 111 565 48 565 -14C565 -92 537 -168 494 -217C491 -220 486 -222 483 -222C480 -222 475 -221 472 -215C466 -206 418 -126 413 -117L339 -242C336 -246 332 -249 327 -249C322 -249 317 -245 315 -242C312 -238 248 -129 241 -117Z" />
</g>
</def>
<g transform="translate(450, 400) scale(0.02) ">
 <use href="#uniE5C8" />
</g>

<g font-size="10" font-family="Verdana" >
<text x="450" y="450">uniE5C8</text>
</g>

<def>
<g id="uniE5E5">
 <path d="M15 -178C5 -178 0 -167 0 -156C0 -145 5 -134 15 -134H134V-15C134 -5 145 0 156 0C167 0 178 -5 178 -15V-134H297C307 -134 312 -145 312 -156C312 -167 307 -178 297 -178H178V-297C178 -307 167 -312 156 -312C145 -312 134 -307 134 -297V-178Z" />
</g>
</def>
<g transform="translate(540, 400) scale(0.02) ">
 <use href="#uniE5E5" />
</g>

<g font-size="10" font-family="Verdana" >
<text x="540" y="450">uniE5E5</text>
</g>

<def>
<g id="uniE5E6">
 <path d="M140 -280C63 -280 0 -217 0 -140C0 -63 63 0 140 0C217 0 280 -63 280 -140C280 -217 217 -280 140 -280ZM251 -154H154V-251C179 -248 201 -237 219 -219C237 -202 248 -179 251 -154ZM60 -219C78 -237 101 -248 126 -251V-154H28C31 -179 43 -202 60 -219ZM28 -126H126V-29C101 -32 78 -43 60 -61C43 -78 31 -101 28 -126ZM219 -61C201 -43 179 -32 154 -29V-126H251C248 -101 237 -78 219 -61Z" />
</g>
</def>
<g transform="translate(630, 400) scale(0.02) ">
 <use href="#uniE5E6" />
</g>

<g font-size="10" font-family="Verdana" >
<text x="630" y="450">uniE5E6</text>
</g>

<def>
<g id="uniE5E7">
 <path d="M140 -280C63 -280 0 -217 0 -140C0 -63 63 0 140 0C217 0 280 -63 280 -140C280 -217 217 -280 140 -280ZM140 -28C78 -28 28 -78 28 -140C28 -202 78 -252 140 -252C202 -252 252 -202 252 -140C252 -78 202 -28 140 -28Z" />
</g>
</def>
<g transform="translate(720, 400) scale(0.02) ">
 <use href="#uniE5E7" />
</g>

<g font-size="10" font-family="Verdana" >
<text x="720" y="450">uniE5E7</text>
</g>

<def>
<g id="uniE5E8">
 <path d="M339 -153H279C272 -219 219 -272 153 -279V-339H125V-279C59 -272 7 -219 0 -153H-61V-125H0C7 -59 59 -7 125 0V61H153V0C219 -7 272 -59 279 -125H339Z" />
</g>
</def>
<g transform="translate(810, 400) scale(0.02) ">
 <use href="#uniE5E8" />
</g>

<g font-size="10" font-family="Verdana" >
<text x="810" y="450">uniE5E8</text>
</g>

<def>
<g id="uniE5E9">
 <path d="M339 -153H279C272 -219 219 -272 153 -279V-339H125V-279C59 -272 7 -219 0 -153H-61V-125H0C7 -59 59 -7 125 0V61H153V0C219 -7 272 -59 279 -125H339ZM250 -153H153V-250C204 -244 244 -204 250 -153ZM153 -28V-125H250C244 -75 204 -34 153 -28Z" />
</g>
</def>
<g transform="translate(900, 400) scale(0.02) ">
 <use href="#uniE5E9" />
</g>

<g font-size="10" font-family="Verdana" >
<text x="900" y="450">uniE5E9</text>
</g>
</svg>

