<?xml version="1.0" standalone="no"?>

<svg version="1.1"
    viewBox="0 0 1003 503"
     xmlns="http://www.w3.org/2000/svg">
  <desc>shows all the symbols from font</desc>
    <g fill="none" stroke="black" stroke-width="3" >
<line x1="0" y1="1.5" x2="1000" y2="1.5" />
<line x1="1.5" y1="0" x2="1.5" y2="500" />
</g>
<g fill="red" stroke="none" >
<rect x="0" y="0" width="3" height="3" />
<rect x="997" y="0" width="3" height="3" />
<rect x="0" y="497" width="3" height="3" />
</g>
<g font-size="14" font-family="Verdana" >
<text x="10" y="20">(0,0)</text>
<text x="940" y="20">(1000,0)</text>
<text x="10" y="490">(0,500)</text>
</g>
<g style="stroke:#D3D3D3;stroke-width:0.5px;stroke-dasharray:10, 10;stroke-opacity:1" >
<line x1="0.0" y1="0" x2="0.0" y2="500" />
<line x1="90.9090909090909" y1="0" x2="90.9090909090909" y2="500" />
<line x1="181.8181818181818" y1="0" x2="181.8181818181818" y2="500" />
<line x1="272.72727272727275" y1="0" x2="272.72727272727275" y2="500" />
<line x1="363.6363636363636" y1="0" x2="363.6363636363636" y2="500" />
<line x1="454.54545454545456" y1="0" x2="454.54545454545456" y2="500" />
<line x1="545.4545454545455" y1="0" x2="545.4545454545455" y2="500" />
<line x1="636.3636363636364" y1="0" x2="636.3636363636364" y2="500" />
<line x1="727.2727272727273" y1="0" x2="727.2727272727273" y2="500" />
<line x1="818.1818181818181" y1="0" x2="818.1818181818181" y2="500" />
<line x1="909.0909090909091" y1="0" x2="909.0909090909091" y2="500" />
<line x1="1000.0" y1="0" x2="1000.0" y2="500" />
<line x1="0" y1="0.0" x2="1000" y2="0.0" />
<line x1="0" y1="100.0" x2="1000" y2="100.0" />
<line x1="0" y1="200.0" x2="1000" y2="200.0" />
<line x1="0" y1="300.0" x2="1000" y2="300.0" />
<line x1="0" y1="400.0" x2="1000" y2="400.0" />
<line x1="0" y1="500.0" x2="1000" y2="500.0" />
</g>

<def>
<g id="uniE5EA">
 <path d="M339 -153H279C272 -219 219 -272 153 -279V-339H125V-279C59 -272 7 -219 0 -153H-61V-125H0C7 -59 59 -7 125 0V61H153V0C219 -7 272 -59 279 -125H339ZM125 -250V-153H28C35 -204 75 -244 125 -250ZM28 -125H125V-28C75 -34 35 -75 28 -125Z" />
</g>
</def>
<g transform="translate(90, 100) scale(0.02) ">
 <use href="#uniE5EA" />
</g>

<g font-size="10" font-family="Verdana" >
<text x="90" y="150">uniE5EA</text>
</g>

<def>
<g id="uniE5EB">
 <path d="M339 -153H279C272 -219 219 -272 153 -279V-339H125V-279C59 -272 7 -219 0 -153H-61V-125H0C7 -59 59 -7 125 0V61H153V0C219 -7 272 -59 279 -125H339ZM219 -219C237 -201 248 -178 251 -153H153V-251C178 -248 201 -237 219 -219ZM60 -219C78 -237 101 -248 125 -251V-153H28C31 -178 42 -201 60 -219ZM60 -60C42 -78 31 -101 28 -125H125V-28C101 -31 78 -42 60 -60ZM219 -60C201 -42 178 -31 153 -28V-125H251C248 -101 237 -78 219 -60Z" />
</g>
</def>
<g transform="translate(180, 100) scale(0.02) ">
 <use href="#uniE5EB" />
</g>

<g font-size="10" font-family="Verdana" >
<text x="180" y="150">uniE5EB</text>
</g>

<def>
<g id="uniE5EF">
 <path d="M140 -280C62 -280 0 -217 0 -140C0 -63 62 0 140 0C217 0 280 -63 280 -140C280 -217 217 -280 140 -280ZM27 -140C27 -170 39 -198 60 -219C81 -241 110 -252 140 -252C165 -252 189 -244 208 -229L51 -71C36 -91 27 -115 27 -140ZM219 -61C198 -39 170 -28 140 -28C114 -28 90 -36 71 -51L228 -209C244 -189 252 -165 252 -140C252 -110 240 -82 219 -61Z" />
</g>
</def>
<g transform="translate(270, 100) scale(0.02) ">
 <use href="#uniE5EF" />
</g>

<g font-size="10" font-family="Verdana" >
<text x="270" y="150">uniE5EF</text>
</g>

<def>
<g id="uniE610">
 <path d="M28 0V-202H287V0H315V-279C315 -287 309 -293 301 -293H14C6 -293 0 -279 0 -279V0Z" />
</g>
</def>
<g transform="translate(360, 100) scale(0.02) ">
 <use href="#uniE610" />
</g>

<g font-size="10" font-family="Verdana" >
<text x="360" y="150">uniE610</text>
</g>

<def>
<g id="uniE611">
 <path d="M0 -14C0 -14 6 0 14 0H301C309 0 315 -6 315 -14V-293H287V-91H28V-293H0Z" />
</g>
</def>
<g transform="translate(450, 100) scale(0.02) ">
 <use href="#uniE611" />
</g>

<g font-size="10" font-family="Verdana" >
<text x="450" y="150">uniE611</text>
</g>

<def>
<g id="uniE612">
 <path d="M260 -337C258 -340 252 -343 248 -343H234C229 -343 223 -339 221 -334L131 -82L41 -334C39 -339 33 -343 28 -343H14C6 -343 0 -337 0 -329C0 -328 1 -325 1 -324L118 -9C120 -4 126 0 131 0C136 0 142 -4 144 -9L261 -324C261 -325 262 -328 262 -329C262 -331 261 -335 260 -337Z" />
</g>
</def>
<g transform="translate(540, 100) scale(0.02) ">
 <use href="#uniE612" />
</g>

<g font-size="10" font-family="Verdana" >
<text x="540" y="150">uniE612</text>
</g>

<def>
<g id="uniE613">
 <path d="M260 -43C261 -45 262 -49 262 -51C262 -52 261 -55 261 -56L144 -371C142 -376 136 -380 131 -380C126 -380 120 -376 118 -371L1 -56C1 -55 0 -52 0 -51C0 -43 6 -37 14 -37H28C33 -37 39 -41 41 -46L131 -298L221 -46C223 -41 229 -37 234 -37H248C252 -37 258 -40 260 -43Z" />
</g>
</def>
<g transform="translate(630, 100) scale(0.02) ">
 <use href="#uniE613" />
</g>

<g font-size="10" font-family="Verdana" >
<text x="630" y="150">uniE613</text>
</g>

<def>
<g id="uniE614">
 <path d="M91 -153C126 -153 153 -126 153 -91C153 -56 126 -28 91 -28C56 -28 28 -56 28 -91C28 -126 56 -153 91 -153ZM91 -181C41 -181 0 -141 0 -91C0 -41 41 0 91 0C141 0 181 -41 181 -91C181 -141 141 -181 91 -181Z" />
</g>
</def>
<g transform="translate(720, 100) scale(0.02) ">
 <use href="#uniE614" />
</g>

<g font-size="10" font-family="Verdana" >
<text x="720" y="150">uniE614</text>
</g>

<def>
<g id="uniE615">
 <path d="M91 -153C126 -153 153 -126 153 -91C153 -56 126 -28 91 -28ZM91 -181C41 -181 0 -141 0 -91C0 -41 41 0 91 0C141 0 181 -41 181 -91C181 -141 141 -181 91 -181Z" />
</g>
</def>
<g transform="translate(810, 100) scale(0.02) ">
 <use href="#uniE615" />
</g>

<g font-size="10" font-family="Verdana" >
<text x="810" y="150">uniE615</text>
</g>

<def>
<g id="uniE630">
 <path d="M148 -121C216 -128 269 -185 269 -255C269 -329 209 -389 134 -389C60 -389 0 -329 0 -255C0 -185 53 -128 121 -121V-14C121 -6 127 0 135 0C142 0 148 -6 148 -14ZM135 -361C193 -361 241 -314 241 -255C241 -201 201 -156 148 -149V-255C148 -262 142 -269 135 -269C127 -269 121 -262 121 -255V-149C68 -156 28 -201 28 -255C28 -314 76 -361 135 -361Z" />
</g>
</def>
<g transform="translate(900, 100) scale(0.02) ">
 <use href="#uniE630" />
</g>

<g font-size="10" font-family="Verdana" >
<text x="900" y="150">uniE630</text>
</g>

<def>
<g id="uniE631">
 <path d="M148 -375C148 -383 142 -389 135 -389C127 -389 121 -383 121 -375V-268C53 -261 0 -204 0 -134C0 -60 60 0 135 0C209 0 269 -60 269 -134C269 -204 216 -261 148 -268ZM135 -28C76 -28 28 -76 28 -134C28 -188 68 -233 121 -240V-134C121 -127 127 -120 135 -120C142 -120 148 -127 148 -134V-240C201 -233 241 -188 241 -134C241 -76 193 -28 135 -28Z" />
</g>
</def>
<g transform="translate(90, 200) scale(0.02) ">
 <use href="#uniE631" />
</g>

<g font-size="10" font-family="Verdana" >
<text x="90" y="250">uniE631</text>
</g>

<def>
<g id="uniE632">
 <path d="M375 -121C383 -121 389 -127 389 -135C389 -142 383 -148 375 -148H268C261 -216 204 -269 134 -269C60 -269 0 -209 0 -135C0 -60 60 0 134 0C204 0 261 -53 268 -121ZM28 -135C28 -194 76 -241 134 -241C188 -241 233 -201 240 -148H134C127 -148 120 -142 120 -135C120 -127 127 -121 134 -121H240C233 -68 188 -28 134 -28C76 -28 28 -76 28 -135Z" />
</g>
</def>
<g transform="translate(180, 200) scale(0.02) ">
 <use href="#uniE632" />
</g>

<g font-size="10" font-family="Verdana" >
<text x="180" y="250">uniE632</text>
</g>

<def>
<g id="uniE650">
 <path d="M940 -8C962 -8 981 -29 981 -54C981 -80 962 -101 940 -101C917 -101 898 -80 898 -54C898 -29 917 -8 940 -8ZM758 -61C756 -60 753 -60 750 -60C720 -60 697 -95 697 -141C697 -250 762 -260 769 -261C784 -233 798 -199 798 -145C798 -81 785 -66 758 -61ZM522 -273C541 -273 552 -258 552 -239C552 -226 547 -211 535 -198C512 -173 484 -144 481 -141C479 -156 478 -170 478 -183C478 -241 496 -273 522 -273ZM170 -352C170 -370 163 -378 153 -378C152 -378 152 -378 151 -378C143 -379 133 -373 129 -354C124 -332 113 -322 99 -322C97 -322 95 -322 93 -323C81 -324 71 -338 71 -358C71 -376 78 -400 98 -426C147 -494 219 -501 241 -501C244 -501 246 -501 247 -501C239 -487 206 -428 191 -389C190 -387 180 -367 180 -344C180 -333 183 -323 189 -314C206 -289 243 -246 259 -224C265 -216 269 -207 269 -197C269 -184 261 -170 243 -154C209 -125 175 -107 160 -97C149 -90 89 -64 89 -27C89 -21 90 -15 93 -8C100 5 109 10 120 10C142 10 169 -12 183 -28C195 -40 210 -68 231 -68C248 -68 259 -42 270 -27C289 -1 302 7 332 7C366 7 388 -30 432 -67C435 -60 463 7 514 7C574 7 637 -59 645 -66C660 -26 707 8 754 8C762 8 770 7 778 5C842 -12 878 -77 878 -148C878 -156 877 -164 877 -172C853 -378 630 -449 566 -461C559 -462 552 -464 545 -464C544 -464 543 -464 541 -464C534 -464 528 -462 526 -454C526 -453 526 -452 526 -451C527 -437 544 -430 546 -429C553 -426 561 -424 568 -421C699 -371 740 -309 744 -302C646 -268 631 -178 631 -126C631 -114 631 -105 632 -98C624 -88 586 -54 546 -54C504 -54 493 -100 492 -105C494 -107 515 -126 555 -160C587 -188 600 -217 600 -243C600 -285 566 -317 526 -317C447 -317 416 -228 416 -154C416 -133 418 -114 423 -98C422 -97 413 -85 391 -72C386 -69 381 -68 375 -68C356 -68 333 -82 319 -97C287 -131 277 -128 276 -128C280 -131 315 -157 330 -194C333 -201 335 -208 335 -216C335 -249 314 -281 312 -285C307 -291 266 -349 251 -370C247 -376 246 -382 246 -389C245 -408 258 -432 268 -452C281 -481 296 -493 298 -495C362 -478 387 -436 387 -411C387 -404 385 -398 381 -395C375 -390 369 -388 363 -388C344 -388 326 -405 319 -411C313 -417 304 -426 295 -426C291 -426 288 -425 284 -422C279 -418 277 -413 277 -407C276 -406 277 -406 277 -405C277 -398 281 -390 284 -383C306 -338 342 -318 376 -318C392 -318 408 -323 422 -333C439 -345 450 -369 450 -397C450 -451 409 -520 298 -540C279 -543 261 -545 244 -545C90 -545 0 -427 0 -352C0 -277 47 -254 88 -254C129 -254 170 -298 170 -352Z" />
</g>
</def>
<g transform="translate(270, 200) scale(0.02) ">
 <use href="#uniE650" />
</g>

<g font-size="10" font-family="Verdana" >
<text x="270" y="250">uniE650</text>
</g>

<def>
<g id="uniE651">
 <path d="M276 -407C276 -398 283 -385 283 -384C306 -339 342 -318 375 -318C392 -318 408 -323 422 -333C439 -345 450 -369 450 -397C450 -452 409 -520 298 -540C279 -544 261 -545 243 -545C90 -545 0 -427 0 -352C0 -277 47 -254 88 -254C129 -254 170 -298 170 -352C170 -370 163 -378 153 -379C152 -379 152 -379 151 -379C143 -379 133 -373 129 -354C124 -332 113 -323 99 -322C97 -322 95 -322 93 -323C81 -325 71 -338 71 -358C71 -376 78 -400 97 -426C144 -491 211 -501 237 -501C239 -501 240 -501 241 -501C244 -501 246 -501 247 -501C239 -487 206 -429 191 -389C190 -387 180 -367 180 -344C180 -334 183 -323 189 -314C206 -289 243 -246 259 -225C265 -216 269 -207 269 -198C269 -184 261 -170 243 -154C209 -125 175 -107 160 -97C149 -90 89 -64 89 -27C89 -21 90 -15 93 -8C100 5 109 9 120 9C142 10 168 -12 183 -28C195 -40 210 -68 231 -68C248 -68 259 -43 270 -27C289 -1 302 7 332 7C366 7 426 -44 447 -78C449 -83 450 -86 450 -90C450 -97 445 -101 438 -101C434 -101 430 -99 427 -96C419 -90 406 -80 396 -73C391 -70 381 -68 375 -68C355 -68 333 -82 319 -97C287 -131 277 -128 276 -128C280 -131 315 -157 330 -194C333 -201 335 -209 335 -216C335 -249 314 -282 312 -285C307 -292 266 -349 251 -371C247 -376 246 -382 246 -389C245 -408 258 -432 268 -453C281 -481 296 -494 298 -495C362 -479 387 -436 387 -412C387 -404 385 -398 381 -395C375 -390 369 -389 362 -389C344 -389 326 -405 319 -411C313 -417 304 -426 294 -426C291 -426 288 -425 284 -422C279 -418 276 -414 276 -407Z" />
</g>
</def>
<g transform="translate(360, 200) scale(0.02) ">
 <use href="#uniE651" />
</g>

<g font-size="10" font-family="Verdana" >
<text x="360" y="250">uniE651</text>
</g>

<def>
<g id="uniE652">
 <path d="M215 -98C207 -87 169 -54 129 -54C87 -54 75 -105 75 -105C75 -105 98 -126 138 -160C170 -187 183 -217 183 -242C183 -284 149 -317 109 -317C30 -317 -1 -228 -1 -154C-1 -133 2 -114 6 -98C6 -98 32 7 97 7C162 7 227 -66 227 -66ZM105 -273C124 -273 135 -258 135 -239C135 -226 129 -211 118 -198C95 -172 64 -141 64 -141C62 -156 61 -170 61 -183C61 -241 79 -273 105 -273Z" />
</g>
</def>
<g transform="translate(450, 200) scale(0.02) ">
 <use href="#uniE652" />
</g>

<g font-size="10" font-family="Verdana" >
<text x="450" y="250">uniE652</text>
</g>

<def>
<g id="uniE653">
 <path d="M134 -36C152 -13 182 9 222 9C231 9 241 8 251 5C315 -12 351 -77 351 -148C351 -156 351 -164 350 -172C326 -379 103 -450 39 -461C31 -463 22 -465 15 -465C7 -465 1 -462 0 -454C-2 -438 19 -429 19 -429C27 -427 35 -424 42 -421C173 -371 218 -302 218 -302C118 -268 105 -177 105 -129C105 -119 105 -111 106 -106C107 -86 115 -60 134 -36ZM232 -61C229 -60 226 -60 223 -60C194 -60 170 -95 170 -141C170 -250 242 -261 242 -261C257 -233 271 -199 271 -145C271 -81 258 -66 232 -61Z" />
</g>
</def>
<g transform="translate(540, 200) scale(0.02) ">
 <use href="#uniE653" />
</g>

<g font-size="10" font-family="Verdana" >
<text x="540" y="250">uniE653</text>
</g>

<def>
<g id="uniE654">
 <path d="M41 -8C64 -8 83 -28 83 -54C83 -80 64 -101 41 -101C18 -101 0 -80 0 -54C0 -28 18 -8 41 -8Z" />
</g>
</def>
<g transform="translate(630, 200) scale(0.02) ">
 <use href="#uniE654" />
</g>

<g font-size="10" font-family="Verdana" >
<text x="630" y="250">uniE654</text>
</g>

<def>
<g id="uniE655">
 <path d="M69 -69C83 -55 99 -48 114 -48C123 -48 132 -51 138 -57C143 -62 146 -71 146 -79C146 -85 145 -90 143 -95C141 -101 139 -107 139 -111C139 -115 141 -119 146 -124L170 -149C177 -156 189 -152 198 -148H199L200 -147C209 -143 221 -136 221 -127V-93C221 -78 214 -78 202 -71C190 -64 179 -53 179 -40C179 -18 204 0 236 0C268 0 294 -18 294 -40C294 -53 283 -64 271 -71C259 -78 251 -78 251 -93V-127C251 -136 263 -143 272 -147C273 -147 273 -148 274 -148C283 -152 296 -156 303 -149L327 -124C332 -119 333 -116 333 -112C333 -107 331 -102 329 -95C328 -90 327 -85 327 -80C327 -71 329 -63 335 -57C341 -51 350 -48 359 -48C374 -48 390 -55 404 -69C418 -83 425 -99 425 -114C425 -123 422 -132 416 -138C411 -143 402 -146 394 -146C388 -146 383 -145 378 -143C372 -141 367 -139 362 -139C357 -139 353 -141 348 -146L324 -170C317 -177 321 -189 325 -198V-199C325 -199 326 -199 326 -200C330 -209 337 -221 346 -221H380C395 -221 395 -214 402 -202C409 -190 420 -179 433 -179C455 -179 473 -204 473 -236C473 -268 455 -294 433 -294C420 -294 409 -283 402 -271C395 -259 395 -251 380 -251H346C337 -251 330 -263 326 -272C326 -273 325 -273 325 -274C321 -283 317 -296 324 -303L348 -327C353 -332 357 -333 361 -333C366 -333 371 -331 378 -329C383 -328 388 -327 393 -327C402 -327 410 -329 416 -335C422 -341 425 -349 425 -358C425 -372 418 -389 404 -403C390 -417 373 -425 358 -425C349 -425 341 -422 335 -416C329 -410 327 -402 327 -393C327 -388 328 -383 329 -378C331 -371 333 -366 333 -361C333 -357 332 -353 327 -348L303 -324C296 -317 283 -321 274 -325C273 -325 273 -326 272 -326C263 -330 251 -337 251 -346V-380C251 -395 259 -395 271 -402C283 -409 294 -420 294 -433C294 -455 268 -473 236 -473C204 -473 179 -455 179 -433C179 -420 190 -409 202 -402C214 -395 221 -395 221 -380V-346C221 -337 209 -330 200 -326L199 -325H198C189 -321 177 -317 170 -324L146 -348C141 -353 139 -357 139 -362C139 -367 141 -372 143 -378C145 -383 146 -388 146 -394C146 -402 143 -411 138 -416C132 -422 123 -425 114 -425C99 -425 83 -418 69 -404C55 -390 48 -374 48 -359C48 -350 51 -341 57 -335C63 -329 71 -327 80 -327C85 -327 90 -328 95 -329C102 -331 107 -333 112 -333C116 -333 120 -332 125 -327L149 -303C156 -296 152 -283 148 -274C148 -273 147 -273 147 -272C143 -263 136 -251 127 -251H93C78 -251 78 -259 71 -271C64 -283 53 -294 40 -294C18 -294 0 -268 0 -236C0 -204 18 -179 40 -179C53 -179 64 -190 71 -202C78 -214 78 -221 93 -221H127C136 -221 143 -209 147 -200C147 -199 148 -200 148 -199V-198C152 -189 156 -177 149 -170L124 -146C119 -141 115 -139 111 -139C107 -139 101 -141 95 -143C90 -145 85 -146 79 -146C71 -146 62 -143 57 -138C51 -132 48 -123 48 -114C48 -99 55 -83 69 -69ZM192 -192C182 -202 173 -222 173 -236C173 -271 201 -300 236 -300C271 -300 300 -271 300 -236C300 -222 291 -202 281 -192C271 -182 250 -173 236 -173C222 -173 202 -182 192 -192Z" />
</g>
</def>
<g transform="translate(720, 200) scale(0.02) ">
 <use href="#uniE655" />
</g>

<g font-size="10" font-family="Verdana" >
<text x="720" y="250">uniE655</text>
</g>

<def>
<g id="uniE680">
 <path d="M0 -364H268V-386H0ZM194 -479C201 -479 206 -484 206 -491V-859C206 -865 201 -871 194 -871H74C67 -871 62 -865 62 -859V-491C62 -484 67 -479 74 -479Z" />
</g>
</def>
<g transform="translate(810, 200) scale(0.02) ">
 <use href="#uniE680" />
</g>

<g font-size="10" font-family="Verdana" >
<text x="810" y="250">uniE680</text>
</g>

<def>
<g id="uniE681">
 <path d="M206 -559C206 -566 201 -571 194 -571H74C67 -571 62 -566 62 -559V-386H0V-364H62V-191C62 -184 67 -179 74 -179H194C201 -179 206 -184 206 -191V-364H268V-386H206Z" />
</g>
</def>
<g transform="translate(900, 200) scale(0.02) ">
 <use href="#uniE681" />
</g>

<g font-size="10" font-family="Verdana" >
<text x="900" y="250">uniE681</text>
</g>

<def>
<g id="uniE682">
 <path d="M0 -364H268V-386H0ZM194 121C201 121 206 115 206 109V-260C206 -266 201 -272 194 -272H74C67 -272 62 -266 62 -260V109C62 115 67 121 74 121Z" />
</g>
</def>
<g transform="translate(90, 300) scale(0.02) ">
 <use href="#uniE682" />
</g>

<g font-size="10" font-family="Verdana" >
<text x="90" y="350">uniE682</text>
</g>

<def>
<g id="uniE683">
 <path d="M124 -871V-386H0V-364H124V122H146V-364H270V-386H146V-871Z" />
</g>
</def>
<g transform="translate(180, 300) scale(0.02) ">
 <use href="#uniE683" />
</g>

<g font-size="10" font-family="Verdana" >
<text x="180" y="350">uniE683</text>
</g>

<def>
<g id="uniE870">
 <path d="M251 -501C112 -501 0 -389 0 -251C0 -112 112 0 251 0C389 0 501 -112 501 -251C501 -389 389 -501 251 -501ZM387 -114C351 -77 302 -57 251 -57C199 -57 150 -77 114 -114C77 -150 57 -199 57 -251C57 -303 77 -351 114 -387C150 -424 199 -444 251 -444C303 -444 351 -424 387 -387C424 -351 444 -303 444 -251C444 -199 423 -150 387 -114Z" />
</g>
</def>
<g transform="translate(270, 300) scale(0.02) ">
 <use href="#uniE870" />
</g>

<g font-size="10" font-family="Verdana" >
<text x="270" y="350">uniE870</text>
</g>

<def>
<g id="uniE871">
 <path d="M502 -475L475 -502L414 -440C370 -478 313 -501 251 -501C112 -501 0 -389 0 -251C0 -188 23 -131 61 -87L-1 -25L25 1L87 -61C131 -23 188 0 251 0C389 0 501 -112 501 -251C501 -313 478 -370 440 -414ZM57 -251C57 -303 77 -351 114 -387C150 -424 199 -444 251 -444C296 -444 339 -428 373 -400L101 -128C73 -162 57 -205 57 -251ZM444 -251C444 -199 423 -150 387 -114C351 -77 302 -57 251 -57C205 -57 162 -73 128 -101L400 -373C428 -339 444 -296 444 -251Z" />
</g>
</def>
<g transform="translate(360, 300) scale(0.02) ">
 <use href="#uniE871" />
</g>

<g font-size="10" font-family="Verdana" >
<text x="360" y="350">uniE871</text>
</g>

<def>
<g id="uniE872">
 <path d="M321 -278H189V-410H133V-278H1V-222H133V-90H189V-222H321Z" />
</g>
</def>
<g transform="translate(450, 300) scale(0.02) ">
 <use href="#uniE872" />
</g>

<g font-size="10" font-family="Verdana" >
<text x="450" y="350">uniE872</text>
</g>

<def>
<g id="uniE873">
 <path d="M250 -367L406 -67H94ZM250 -490L0 -10H500Z" />
</g>
</def>
<g transform="translate(540, 300) scale(0.02) ">
 <use href="#uniE873" />
</g>

<g font-size="10" font-family="Verdana" >
<text x="540" y="350">uniE873</text>
</g>

<def>
<g id="uniE880">
 <path d="M273 -233C273 -313 234 -363 173 -363C129 -363 89 -339 54 -292C21 -247 0 -182 0 -122C0 -44 41 7 103 7C194 7 273 -105 273 -233ZM107 -241C125 -305 146 -337 170 -337C187 -337 198 -321 198 -294C198 -254 182 -166 164 -108C144 -42 128 -19 104 -19C86 -19 74 -33 74 -55C74 -91 90 -180 107 -241Z" />
</g>
</def>
<g transform="translate(630, 300) scale(0.02) ">
 <use href="#uniE880" />
</g>

<g font-size="10" font-family="Verdana" >
<text x="630" y="350">uniE880</text>
</g>

<def>
<g id="uniE881">
 <path d="M239 -363H217C194 -346 128 -328 76 -326L69 -301H116C134 -301 138 -297 138 -287C138 -282 138 -276 135 -268L83 -74C79 -59 77 -50 76 -48C74 -40 72 -38 69 -35C64 -30 54 -29 30 -28H4L0 0H216L221 -28H195C162 -28 154 -31 154 -42C154 -47 156 -57 161 -74Z" />
</g>
</def>
<g transform="translate(720, 300) scale(0.02) ">
 <use href="#uniE881" />
</g>

<g font-size="10" font-family="Verdana" >
<text x="720" y="350">uniE881</text>
</g>

<def>
<g id="uniE882">
 <path d="M256 -128L251 -118C231 -76 222 -70 186 -69H85C93 -77 107 -87 136 -105C225 -158 225 -159 235 -167C276 -198 297 -234 297 -269C297 -295 284 -322 266 -338C247 -353 218 -362 186 -362C111 -362 57 -317 57 -255C57 -222 78 -198 107 -198C132 -198 149 -215 149 -240C149 -257 140 -269 122 -277C105 -285 102 -287 102 -295C102 -313 129 -331 157 -331C190 -331 213 -308 213 -276C213 -251 202 -222 182 -198C167 -178 140 -154 90 -110C25 -53 0 -25 0 -4C0 -2 0 -1 0 0H234L278 -120Z" />
</g>
</def>
<g transform="translate(810, 300) scale(0.02) ">
 <use href="#uniE882" />
</g>

<g font-size="10" font-family="Verdana" >
<text x="810" y="350">uniE882</text>
</g>

<def>
<g id="uniE883">
 <path d="M224 -168C214 -175 204 -179 179 -185C210 -192 225 -197 242 -209C265 -225 279 -252 279 -279C279 -328 235 -362 170 -362C106 -362 56 -327 56 -281C56 -254 73 -236 98 -236C120 -236 137 -252 137 -273C137 -285 132 -295 121 -304C112 -311 112 -311 112 -314C112 -325 133 -335 154 -335C182 -335 199 -316 199 -285C199 -260 190 -236 172 -216C161 -203 151 -198 136 -198C130 -198 126 -198 119 -201C113 -203 110 -204 106 -204C96 -204 89 -197 89 -186C89 -175 96 -169 107 -169C110 -169 116 -170 119 -171C130 -174 130 -174 135 -174C158 -174 169 -157 169 -126C169 -99 162 -70 150 -49C139 -30 117 -18 95 -18C73 -18 51 -30 51 -42C51 -48 53 -49 62 -52C79 -58 88 -70 88 -88C88 -111 72 -127 47 -127C19 -127 0 -106 0 -75C0 -24 43 8 111 8C193 8 253 -42 253 -108C253 -132 241 -156 224 -168Z" />
</g>
</def>
<g transform="translate(900, 300) scale(0.02) ">
 <use href="#uniE883" />
</g>

<g font-size="10" font-family="Verdana" >
<text x="900" y="350">uniE883</text>
</g>

<def>
<g id="uniE884">
 <path d="M282 -128H223L286 -363H237L0 -123V-95H136L131 -74C126 -58 126 -53 124 -48C122 -40 120 -38 117 -35C112 -30 102 -29 78 -28H65L62 0H248L252 -28H243C210 -28 202 -31 202 -42C202 -47 204 -57 209 -74L214 -95H276ZM145 -129H46L184 -270Z" />
</g>
</def>
<g transform="translate(90, 400) scale(0.02) ">
 <use href="#uniE884" />
</g>

<g font-size="10" font-family="Verdana" >
<text x="90" y="450">uniE884</text>
</g>

<def>
<g id="uniE885">
 <path d="M54 -201C41 -195 34 -186 34 -175C34 -165 41 -157 51 -157C66 -157 75 -167 78 -187C104 -198 112 -200 125 -200C158 -200 177 -175 177 -133C177 -70 141 -20 95 -20C72 -20 52 -31 52 -42C52 -45 53 -46 58 -48C78 -55 88 -68 88 -88C88 -111 72 -127 47 -127C18 -127 0 -106 0 -75C0 -26 41 6 106 6C196 6 262 -56 262 -140C262 -197 221 -233 158 -233C135 -233 116 -229 90 -219L110 -286C151 -277 151 -277 174 -277C215 -277 243 -285 265 -304C281 -318 295 -344 295 -360C295 -363 294 -364 292 -364C291 -364 289 -364 286 -363C263 -354 242 -349 214 -349C180 -349 143 -354 101 -364Z" />
</g>
</def>
<g transform="translate(180, 400) scale(0.02) ">
 <use href="#uniE885" />
</g>

<g font-size="10" font-family="Verdana" >
<text x="180" y="450">uniE885</text>
</g>

<def>
<g id="uniE886">
 <path d="M158 -224C134 -224 120 -219 100 -203C114 -254 125 -280 138 -300C155 -326 174 -339 193 -339C203 -339 211 -335 211 -330C211 -327 210 -326 207 -322C199 -313 195 -304 195 -294C195 -273 213 -258 236 -258C262 -258 279 -275 279 -301C279 -338 243 -365 193 -365C140 -365 96 -342 59 -294C22 -246 0 -181 0 -121C0 -43 43 5 110 5C188 5 252 -58 252 -133C252 -187 213 -224 158 -224ZM90 -152C100 -180 116 -193 136 -193C157 -193 169 -175 169 -142C169 -112 162 -79 152 -53C143 -31 128 -19 111 -19C89 -19 78 -38 78 -74C78 -101 82 -132 90 -152Z" />
</g>
</def>
<g transform="translate(270, 400) scale(0.02) ">
 <use href="#uniE886" />
</g>

<g font-size="10" font-family="Verdana" >
<text x="270" y="450">uniE886</text>
</g>

<def>
<g id="uniE887">
 <path d="M271 -365C214 -361 186 -360 150 -360C116 -360 95 -360 53 -365L0 -232L24 -225L32 -240C53 -278 67 -290 96 -290C97 -290 99 -290 100 -290H209L190 -265C54 -89 41 -71 41 -37C41 -12 60 5 87 5C105 5 121 -4 129 -17C135 -27 136 -33 141 -57C155 -137 177 -183 272 -346Z" />
</g>
</def>
<g transform="translate(360, 400) scale(0.02) ">
 <use href="#uniE887" />
</g>

<g font-size="10" font-family="Verdana" >
<text x="360" y="450">uniE887</text>
</g>

<def>
<g id="uniE888">
 <path d="M260 -109C260 -146 242 -178 209 -199C260 -218 283 -244 283 -283C283 -332 241 -365 179 -365C103 -365 50 -319 50 -254C50 -223 61 -201 88 -177C66 -169 51 -160 38 -150C14 -132 0 -106 0 -79C0 -29 46 5 115 5C200 5 260 -42 260 -109ZM62 -81C62 -114 78 -143 108 -160C116 -156 117 -155 123 -152C143 -142 143 -143 147 -140C179 -122 193 -104 193 -79C193 -46 164 -20 126 -20C88 -20 62 -44 62 -81ZM226 -282C226 -253 216 -234 188 -213C160 -227 155 -231 148 -235C122 -251 113 -263 113 -285C113 -316 137 -339 171 -339C205 -339 226 -318 226 -282Z" />
</g>
</def>
<g transform="translate(450, 400) scale(0.02) ">
 <use href="#uniE888" />
</g>

<g font-size="10" font-family="Verdana" >
<text x="450" y="450">uniE888</text>
</g>

<def>
<g id="uniE889">
 <path d="M121 -141C145 -141 159 -146 179 -162C165 -111 154 -85 141 -65C124 -39 105 -26 86 -26C76 -26 68 -30 68 -35C68 -38 69 -40 72 -44C80 -53 84 -61 84 -71C84 -92 67 -107 44 -107C18 -107 0 -90 0 -64C0 -27 36 0 86 0C138 0 183 -23 220 -71C257 -119 279 -184 279 -244C279 -322 237 -370 170 -370C92 -370 27 -307 27 -232C27 -178 66 -141 121 -141ZM127 -313C136 -335 151 -347 169 -347C191 -347 202 -328 202 -292C202 -265 197 -233 189 -213C179 -185 163 -172 143 -172C122 -172 111 -191 111 -224C111 -254 117 -288 127 -313Z" />
</g>
</def>
<g transform="translate(540, 400) scale(0.02) ">
 <use href="#uniE889" />
</g>

<g font-size="10" font-family="Verdana" >
<text x="540" y="450">uniE889</text>
</g>

<def>
<g id="uniE88A">
 <path d="M70 -186C92 -186 111 -204 111 -230C111 -250 96 -268 74 -268C51 -268 33 -250 33 -225C33 -204 47 -186 70 -186ZM37 -58C59 -58 78 -76 78 -102C78 -122 63 -140 41 -140C18 -140 0 -122 0 -97C0 -76 14 -58 37 -58Z" />
</g>
</def>
<g transform="translate(630, 400) scale(0.02) ">
 <use href="#uniE88A" />
</g>

<g font-size="10" font-family="Verdana" >
<text x="630" y="450">uniE88A</text>
</g>

<def>
<g id="uniE93C">
 <path d="M330 9C333 7 335 4 335 1C335 -3 334 -7 330 -9L176 -130C174 -132 171 -133 167 -133C164 -133 161 -132 159 -130L5 -9C2 -7 0 -4 0 0C0 3 2 7 5 9L159 129C161 131 164 132 168 132C171 132 174 131 176 129ZM198 80L64 -23L138 -81L271 23Z" />
</g>
</def>
<g transform="translate(720, 400) scale(0.02) ">
 <use href="#uniE93C" />
</g>

<g font-size="10" font-family="Verdana" >
<text x="720" y="450">uniE93C</text>
</g>

<def>
<g id="uniE93D">
 <path d="M330 10C333 7 335 4 335 1C335 -3 334 -7 330 -9L176 -130C174 -132 171 -133 167 -133C164 -133 161 -132 159 -130L5 -9C2 -7 0 -3 0 0C0 4 2 7 5 10L159 129C161 131 164 132 168 132C171 132 174 131 176 129Z" />
</g>
</def>
<g transform="translate(810, 400) scale(0.02) ">
 <use href="#uniE93D" />
</g>

<g font-size="10" font-family="Verdana" >
<text x="810" y="450">uniE93D</text>
</g>

<def>
<g id="uniEA20">
 <path d="M620 -508C620 -507 584 -405 538 -300C461 -123 430 -87 407 -79C404 -78 400 -77 397 -77C377 -77 372 -92 372 -112C372 -136 379 -168 379 -188C379 -199 376 -207 367 -207C314 -207 290 -73 238 -73C224 -73 219 -84 219 -99C219 -126 234 -168 234 -189C234 -190 234 -191 234 -192C234 -199 231 -203 226 -203C183 -203 113 -68 79 -68C69 -68 65 -76 65 -88C65 -116 85 -165 89 -175C91 -181 93 -187 93 -192C93 -198 91 -201 84 -201C78 -201 69 -197 57 -177C36 -140 0 -91 0 -52C0 -13 34 0 57 0C105 0 137 -33 160 -65C159 -64 159 -62 159 -59C159 -43 164 0 206 0C266 0 296 -55 299 -61C300 -55 306 0 370 0C420 0 468 -64 510 -144C530 -182 553 -228 577 -284C623 -390 659 -493 660 -494C661 -496 661 -499 661 -501C661 -510 656 -518 647 -521C645 -522 643 -522 641 -522C625 -522 621 -509 620 -508Z" />
</g>
</def>
<g transform="translate(900, 400) scale(0.02) ">
 <use href="#uniEA20" />
</g>

<g font-size="10" font-family="Verdana" >
<text x="900" y="450">uniEA20</text>
</g>
</svg>

